<?xml version="1.0" encoding="utf-8" standalone="no"?>
<!DOCTYPE svg PUBLIC "-//W3C//DTD SVG 1.1//EN"
  "http://www.w3.org/Graphics/SVG/1.1/DTD/svg11.dtd">
<svg xmlns:xlink="http://www.w3.org/1999/xlink" width="712.885937pt" height="638.785312pt" viewBox="0 0 712.885937 638.785312" xmlns="http://www.w3.org/2000/svg" version="1.1">
 <metadata>
  <rdf:RDF xmlns:dc="http://purl.org/dc/elements/1.1/" xmlns:cc="http://creativecommons.org/ns#" xmlns:rdf="http://www.w3.org/1999/02/22-rdf-syntax-ns#">
   <cc:Work>
    <dc:type rdf:resource="http://purl.org/dc/dcmitype/StillImage"/>
    <dc:date>2022-02-08T07:25:14.883132</dc:date>
    <dc:format>image/svg+xml</dc:format>
    <dc:creator>
     <cc:Agent>
      <dc:title>Matplotlib v3.5.1, https://matplotlib.org/</dc:title>
     </cc:Agent>
    </dc:creator>
   </cc:Work>
  </rdf:RDF>
 </metadata>
 <defs>
  <style type="text/css">*{stroke-linejoin: round; stroke-linecap: butt}</style>
 </defs>
 <g id="figure_1">
  <g id="patch_1">
   <path d="M 0 638.785312 
L 712.885937 638.785312 
L 712.885937 0 
L 0 0 
L 0 638.785312 
z
" style="fill: none"/>
  </g>
  <g id="axes_1">
   <g id="patch_2">
    <path d="M 33.660938 212.84 
L 705.685937 212.84 
L 705.685937 25.84 
L 33.660938 25.84 
z
" style="fill: #ffffff"/>
   </g>
   <g id="PathCollection_1">
    <defs>
     <path id="m78b29b7e9b" d="M 0 4 
C 1.060812 4 2.078319 3.578535 2.828427 2.828427 
C 3.578535 2.078319 4 1.060812 4 0 
C 4 -1.060812 3.578535 -2.078319 2.828427 -2.828427 
C 2.078319 -3.578535 1.060812 -4 0 -4 
C -1.060812 -4 -2.078319 -3.578535 -2.828427 -2.828427 
C -3.578535 -2.078319 -4 -1.060812 -4 0 
C -4 1.060812 -3.578535 2.078319 -2.828427 2.828427 
C -2.078319 3.578535 -1.060812 4 0 4 
z
" style="stroke: #000000"/>
    </defs>
    <g clip-path="url(#pc47b0011a6)">
     <use xlink:href="#m78b29b7e9b" x="675.139347" y="78.192153" style="fill: #008000; stroke: #000000"/>
    </g>
   </g>
   <g id="PathCollection_2">
    <defs>
     <path id="m9cc55f3b92" d="M -2 4 
L 0 2 
L 2 4 
L 4 2 
L 2 0 
L 4 -2 
L 2 -4 
L 0 -2 
L -2 -4 
L -4 -2 
L -2 0 
L -4 2 
z
" style="stroke: #000000"/>
    </defs>
    <g clip-path="url(#pc47b0011a6)">
     <use xlink:href="#m9cc55f3b92" x="675.139347" y="145.474635" style="fill: #ff7f0e; stroke: #000000"/>
    </g>
   </g>
   <g id="matplotlib.axis_1">
    <g id="xtick_1">
     <g id="line2d_1">
      <defs>
       <path id="me4102a2183" d="M 0 0 
L 0 3.5 
" style="stroke: #000000; stroke-width: 0.8"/>
      </defs>
      <g>
       <use xlink:href="#me4102a2183" x="64.207528" y="212.84" style="stroke: #000000; stroke-width: 0.8"/>
      </g>
     </g>
    </g>
    <g id="xtick_2">
     <g id="line2d_2">
      <g>
       <use xlink:href="#me4102a2183" x="159.665625" y="212.84" style="stroke: #000000; stroke-width: 0.8"/>
      </g>
     </g>
    </g>
    <g id="xtick_3">
     <g id="line2d_3">
      <g>
       <use xlink:href="#me4102a2183" x="255.123722" y="212.84" style="stroke: #000000; stroke-width: 0.8"/>
      </g>
     </g>
    </g>
    <g id="xtick_4">
     <g id="line2d_4">
      <g>
       <use xlink:href="#me4102a2183" x="350.581818" y="212.84" style="stroke: #000000; stroke-width: 0.8"/>
      </g>
     </g>
    </g>
    <g id="xtick_5">
     <g id="line2d_5">
      <g>
       <use xlink:href="#me4102a2183" x="446.039915" y="212.84" style="stroke: #000000; stroke-width: 0.8"/>
      </g>
     </g>
    </g>
    <g id="xtick_6">
     <g id="line2d_6">
      <g>
       <use xlink:href="#me4102a2183" x="541.498011" y="212.84" style="stroke: #000000; stroke-width: 0.8"/>
      </g>
     </g>
    </g>
    <g id="xtick_7">
     <g id="line2d_7">
      <g>
       <use xlink:href="#me4102a2183" x="636.956108" y="212.84" style="stroke: #000000; stroke-width: 0.8"/>
      </g>
     </g>
    </g>
   </g>
   <g id="matplotlib.axis_2">
    <g id="ytick_1">
     <g id="line2d_8">
      <defs>
       <path id="ma4e4ad5058" d="M 0 0 
L -3.5 0 
" style="stroke: #000000; stroke-width: 0.8"/>
      </defs>
      <g>
       <use xlink:href="#ma4e4ad5058" x="33.660938" y="184.25961" style="stroke: #000000; stroke-width: 0.8"/>
      </g>
     </g>
     <g id="text_1">
      <!-- 0.45 -->
      <g transform="translate(7.2 187.838516)scale(0.1 -0.1)">
       <defs>
        <path id="ArialMT-30" d="M 266 2259 
Q 266 3072 433 3567 
Q 600 4063 929 4331 
Q 1259 4600 1759 4600 
Q 2128 4600 2406 4451 
Q 2684 4303 2865 4023 
Q 3047 3744 3150 3342 
Q 3253 2941 3253 2259 
Q 3253 1453 3087 958 
Q 2922 463 2592 192 
Q 2263 -78 1759 -78 
Q 1097 -78 719 397 
Q 266 969 266 2259 
z
M 844 2259 
Q 844 1131 1108 757 
Q 1372 384 1759 384 
Q 2147 384 2411 759 
Q 2675 1134 2675 2259 
Q 2675 3391 2411 3762 
Q 2147 4134 1753 4134 
Q 1366 4134 1134 3806 
Q 844 3388 844 2259 
z
" transform="scale(0.015625)"/>
        <path id="ArialMT-2e" d="M 581 0 
L 581 641 
L 1222 641 
L 1222 0 
L 581 0 
z
" transform="scale(0.015625)"/>
        <path id="ArialMT-34" d="M 2069 0 
L 2069 1097 
L 81 1097 
L 81 1613 
L 2172 4581 
L 2631 4581 
L 2631 1613 
L 3250 1613 
L 3250 1097 
L 2631 1097 
L 2631 0 
L 2069 0 
z
M 2069 1613 
L 2069 3678 
L 634 1613 
L 2069 1613 
z
" transform="scale(0.015625)"/>
        <path id="ArialMT-35" d="M 266 1200 
L 856 1250 
Q 922 819 1161 601 
Q 1400 384 1738 384 
Q 2144 384 2425 690 
Q 2706 997 2706 1503 
Q 2706 1984 2436 2262 
Q 2166 2541 1728 2541 
Q 1456 2541 1237 2417 
Q 1019 2294 894 2097 
L 366 2166 
L 809 4519 
L 3088 4519 
L 3088 3981 
L 1259 3981 
L 1013 2750 
Q 1425 3038 1878 3038 
Q 2478 3038 2890 2622 
Q 3303 2206 3303 1553 
Q 3303 931 2941 478 
Q 2500 -78 1738 -78 
Q 1113 -78 717 272 
Q 322 622 266 1200 
z
" transform="scale(0.015625)"/>
       </defs>
       <use xlink:href="#ArialMT-30"/>
       <use xlink:href="#ArialMT-2e" x="55.615234"/>
       <use xlink:href="#ArialMT-34" x="83.398438"/>
       <use xlink:href="#ArialMT-35" x="139.013672"/>
      </g>
     </g>
    </g>
    <g id="ytick_2">
     <g id="line2d_9">
      <g>
       <use xlink:href="#ma4e4ad5058" x="33.660938" y="149.653804" style="stroke: #000000; stroke-width: 0.8"/>
      </g>
     </g>
     <g id="text_2">
      <!-- 0.50 -->
      <g transform="translate(7.2 153.23271)scale(0.1 -0.1)">
       <use xlink:href="#ArialMT-30"/>
       <use xlink:href="#ArialMT-2e" x="55.615234"/>
       <use xlink:href="#ArialMT-35" x="83.398438"/>
       <use xlink:href="#ArialMT-30" x="139.013672"/>
      </g>
     </g>
    </g>
    <g id="ytick_3">
     <g id="line2d_10">
      <g>
       <use xlink:href="#ma4e4ad5058" x="33.660938" y="115.047998" style="stroke: #000000; stroke-width: 0.8"/>
      </g>
     </g>
     <g id="text_3">
      <!-- 0.55 -->
      <g transform="translate(7.2 118.626904)scale(0.1 -0.1)">
       <use xlink:href="#ArialMT-30"/>
       <use xlink:href="#ArialMT-2e" x="55.615234"/>
       <use xlink:href="#ArialMT-35" x="83.398438"/>
       <use xlink:href="#ArialMT-35" x="139.013672"/>
      </g>
     </g>
    </g>
    <g id="ytick_4">
     <g id="line2d_11">
      <g>
       <use xlink:href="#ma4e4ad5058" x="33.660938" y="80.442192" style="stroke: #000000; stroke-width: 0.8"/>
      </g>
     </g>
     <g id="text_4">
      <!-- 0.60 -->
      <g transform="translate(7.2 84.021098)scale(0.1 -0.1)">
       <defs>
        <path id="ArialMT-36" d="M 3184 3459 
L 2625 3416 
Q 2550 3747 2413 3897 
Q 2184 4138 1850 4138 
Q 1581 4138 1378 3988 
Q 1113 3794 959 3422 
Q 806 3050 800 2363 
Q 1003 2672 1297 2822 
Q 1591 2972 1913 2972 
Q 2475 2972 2870 2558 
Q 3266 2144 3266 1488 
Q 3266 1056 3080 686 
Q 2894 316 2569 119 
Q 2244 -78 1831 -78 
Q 1128 -78 684 439 
Q 241 956 241 2144 
Q 241 3472 731 4075 
Q 1159 4600 1884 4600 
Q 2425 4600 2770 4297 
Q 3116 3994 3184 3459 
z
M 888 1484 
Q 888 1194 1011 928 
Q 1134 663 1356 523 
Q 1578 384 1822 384 
Q 2178 384 2434 671 
Q 2691 959 2691 1453 
Q 2691 1928 2437 2201 
Q 2184 2475 1800 2475 
Q 1419 2475 1153 2201 
Q 888 1928 888 1484 
z
" transform="scale(0.015625)"/>
       </defs>
       <use xlink:href="#ArialMT-30"/>
       <use xlink:href="#ArialMT-2e" x="55.615234"/>
       <use xlink:href="#ArialMT-36" x="83.398438"/>
       <use xlink:href="#ArialMT-30" x="139.013672"/>
      </g>
     </g>
    </g>
    <g id="ytick_5">
     <g id="line2d_12">
      <g>
       <use xlink:href="#ma4e4ad5058" x="33.660938" y="45.836386" style="stroke: #000000; stroke-width: 0.8"/>
      </g>
     </g>
     <g id="text_5">
      <!-- 0.65 -->
      <g transform="translate(7.2 49.415292)scale(0.1 -0.1)">
       <use xlink:href="#ArialMT-30"/>
       <use xlink:href="#ArialMT-2e" x="55.615234"/>
       <use xlink:href="#ArialMT-36" x="83.398438"/>
       <use xlink:href="#ArialMT-35" x="139.013672"/>
      </g>
     </g>
    </g>
   </g>
   <g id="line2d_13">
    <path d="M 64.207528 117.6699 
L 83.299148 119.166595 
L 102.390767 94.400074 
L 121.482386 119.302328 
L 140.574006 70.499309 
L 159.665625 69.008676 
L 178.757244 34.34 
L 197.848864 42.431585 
L 216.940483 58.511169 
L 236.032102 62.69226 
L 255.123722 74.15225 
L 274.215341 81.924035 
L 293.30696 95.940405 
L 312.39858 67.772594 
L 331.490199 131.256972 
L 350.581818 112.3772 
L 369.673437 108.713439 
L 388.765057 137.06137 
L 407.856676 125.681961 
L 426.948295 109.657269 
L 446.039915 130.826524 
L 465.131534 121.608857 
L 484.223153 148.322279 
L 503.314773 147.210067 
L 522.406392 91.568755 
L 541.498011 102.201532 
L 560.589631 105.330921 
L 579.68125 93.382397 
L 598.772869 97.173826 
L 617.864489 78.712699 
L 636.956108 99.497748 
L 656.047727 131.37027 
" clip-path="url(#pc47b0011a6)" style="fill: none; stroke: #0000ff; stroke-width: 1.5; stroke-linecap: square"/>
    <defs>
     <path id="m6e7008206c" d="M 0 1.5 
C 0.397805 1.5 0.77937 1.341951 1.06066 1.06066 
C 1.341951 0.77937 1.5 0.397805 1.5 0 
C 1.5 -0.397805 1.341951 -0.77937 1.06066 -1.06066 
C 0.77937 -1.341951 0.397805 -1.5 0 -1.5 
C -0.397805 -1.5 -0.77937 -1.341951 -1.06066 -1.06066 
C -1.341951 -0.77937 -1.5 -0.397805 -1.5 0 
C -1.5 0.397805 -1.341951 0.77937 -1.06066 1.06066 
C -0.77937 1.341951 -0.397805 1.5 0 1.5 
z
" style="stroke: #0000ff"/>
    </defs>
    <g clip-path="url(#pc47b0011a6)">
     <use xlink:href="#m6e7008206c" x="64.207528" y="117.6699" style="fill: #0000ff; stroke: #0000ff"/>
     <use xlink:href="#m6e7008206c" x="83.299148" y="119.166595" style="fill: #0000ff; stroke: #0000ff"/>
     <use xlink:href="#m6e7008206c" x="102.390767" y="94.400074" style="fill: #0000ff; stroke: #0000ff"/>
     <use xlink:href="#m6e7008206c" x="121.482386" y="119.302328" style="fill: #0000ff; stroke: #0000ff"/>
     <use xlink:href="#m6e7008206c" x="140.574006" y="70.499309" style="fill: #0000ff; stroke: #0000ff"/>
     <use xlink:href="#m6e7008206c" x="159.665625" y="69.008676" style="fill: #0000ff; stroke: #0000ff"/>
     <use xlink:href="#m6e7008206c" x="178.757244" y="34.34" style="fill: #0000ff; stroke: #0000ff"/>
     <use xlink:href="#m6e7008206c" x="197.848864" y="42.431585" style="fill: #0000ff; stroke: #0000ff"/>
     <use xlink:href="#m6e7008206c" x="216.940483" y="58.511169" style="fill: #0000ff; stroke: #0000ff"/>
     <use xlink:href="#m6e7008206c" x="236.032102" y="62.69226" style="fill: #0000ff; stroke: #0000ff"/>
     <use xlink:href="#m6e7008206c" x="255.123722" y="74.15225" style="fill: #0000ff; stroke: #0000ff"/>
     <use xlink:href="#m6e7008206c" x="274.215341" y="81.924035" style="fill: #0000ff; stroke: #0000ff"/>
     <use xlink:href="#m6e7008206c" x="293.30696" y="95.940405" style="fill: #0000ff; stroke: #0000ff"/>
     <use xlink:href="#m6e7008206c" x="312.39858" y="67.772594" style="fill: #0000ff; stroke: #0000ff"/>
     <use xlink:href="#m6e7008206c" x="331.490199" y="131.256972" style="fill: #0000ff; stroke: #0000ff"/>
     <use xlink:href="#m6e7008206c" x="350.581818" y="112.3772" style="fill: #0000ff; stroke: #0000ff"/>
     <use xlink:href="#m6e7008206c" x="369.673437" y="108.713439" style="fill: #0000ff; stroke: #0000ff"/>
     <use xlink:href="#m6e7008206c" x="388.765057" y="137.06137" style="fill: #0000ff; stroke: #0000ff"/>
     <use xlink:href="#m6e7008206c" x="407.856676" y="125.681961" style="fill: #0000ff; stroke: #0000ff"/>
     <use xlink:href="#m6e7008206c" x="426.948295" y="109.657269" style="fill: #0000ff; stroke: #0000ff"/>
     <use xlink:href="#m6e7008206c" x="446.039915" y="130.826524" style="fill: #0000ff; stroke: #0000ff"/>
     <use xlink:href="#m6e7008206c" x="465.131534" y="121.608857" style="fill: #0000ff; stroke: #0000ff"/>
     <use xlink:href="#m6e7008206c" x="484.223153" y="148.322279" style="fill: #0000ff; stroke: #0000ff"/>
     <use xlink:href="#m6e7008206c" x="503.314773" y="147.210067" style="fill: #0000ff; stroke: #0000ff"/>
     <use xlink:href="#m6e7008206c" x="522.406392" y="91.568755" style="fill: #0000ff; stroke: #0000ff"/>
     <use xlink:href="#m6e7008206c" x="541.498011" y="102.201532" style="fill: #0000ff; stroke: #0000ff"/>
     <use xlink:href="#m6e7008206c" x="560.589631" y="105.330921" style="fill: #0000ff; stroke: #0000ff"/>
     <use xlink:href="#m6e7008206c" x="579.68125" y="93.382397" style="fill: #0000ff; stroke: #0000ff"/>
     <use xlink:href="#m6e7008206c" x="598.772869" y="97.173826" style="fill: #0000ff; stroke: #0000ff"/>
     <use xlink:href="#m6e7008206c" x="617.864489" y="78.712699" style="fill: #0000ff; stroke: #0000ff"/>
     <use xlink:href="#m6e7008206c" x="636.956108" y="99.497748" style="fill: #0000ff; stroke: #0000ff"/>
     <use xlink:href="#m6e7008206c" x="656.047727" y="131.37027" style="fill: #0000ff; stroke: #0000ff"/>
    </g>
   </g>
   <g id="line2d_14">
    <path d="M 675.139347 78.192153 
" clip-path="url(#pc47b0011a6)" style="fill: none; stroke: #008000; stroke-width: 1.5; stroke-linecap: square"/>
    <defs>
     <path id="m1eb2c2cc61" d="M 0 1.5 
C 0.397805 1.5 0.77937 1.341951 1.06066 1.06066 
C 1.341951 0.77937 1.5 0.397805 1.5 0 
C 1.5 -0.397805 1.341951 -0.77937 1.06066 -1.06066 
C 0.77937 -1.341951 0.397805 -1.5 0 -1.5 
C -0.397805 -1.5 -0.77937 -1.341951 -1.06066 -1.06066 
C -1.341951 -0.77937 -1.5 -0.397805 -1.5 0 
C -1.5 0.397805 -1.341951 0.77937 -1.06066 1.06066 
C -0.77937 1.341951 -0.397805 1.5 0 1.5 
z
" style="stroke: #008000"/>
    </defs>
    <g clip-path="url(#pc47b0011a6)">
     <use xlink:href="#m1eb2c2cc61" x="675.139347" y="78.192153" style="fill: #008000; stroke: #008000"/>
    </g>
   </g>
   <g id="patch_3">
    <path d="M 33.660938 212.84 
L 33.660938 25.84 
" style="fill: none; stroke: #000000; stroke-width: 0.8; stroke-linejoin: miter; stroke-linecap: square"/>
   </g>
   <g id="patch_4">
    <path d="M 705.685937 212.84 
L 705.685937 25.84 
" style="fill: none; stroke: #000000; stroke-width: 0.8; stroke-linejoin: miter; stroke-linecap: square"/>
   </g>
   <g id="patch_5">
    <path d="M 33.660938 212.84 
L 705.685937 212.84 
" style="fill: none; stroke: #000000; stroke-width: 0.8; stroke-linejoin: miter; stroke-linecap: square"/>
   </g>
   <g id="patch_6">
    <path d="M 33.660938 25.84 
L 705.685937 25.84 
" style="fill: none; stroke: #000000; stroke-width: 0.8; stroke-linejoin: miter; stroke-linecap: square"/>
   </g>
   <g id="legend_1">
    <g id="patch_7">
     <path d="M 40.660938 76.510312 
L 127.142188 76.510312 
Q 129.142188 76.510312 129.142188 74.510312 
L 129.142188 32.84 
Q 129.142188 30.84 127.142188 30.84 
L 40.660938 30.84 
Q 38.660938 30.84 38.660938 32.84 
L 38.660938 74.510312 
Q 38.660938 76.510312 40.660938 76.510312 
z
" style="fill: #ffffff; opacity: 0.8; stroke: #cccccc; stroke-linejoin: miter"/>
    </g>
    <g id="line2d_15">
     <path d="M 42.660938 38.497812 
L 52.660938 38.497812 
L 62.660938 38.497812 
" style="fill: none; stroke: #0000ff; stroke-width: 1.5; stroke-linecap: square"/>
     <g>
      <use xlink:href="#m6e7008206c" x="52.660938" y="38.497812" style="fill: #0000ff; stroke: #0000ff"/>
     </g>
    </g>
    <g id="text_6">
     <!-- x waarde -->
     <g transform="translate(70.660938 41.997812)scale(0.1 -0.1)">
      <defs>
       <path id="ArialMT-78" d="M 47 0 
L 1259 1725 
L 138 3319 
L 841 3319 
L 1350 2541 
Q 1494 2319 1581 2169 
Q 1719 2375 1834 2534 
L 2394 3319 
L 3066 3319 
L 1919 1756 
L 3153 0 
L 2463 0 
L 1781 1031 
L 1600 1309 
L 728 0 
L 47 0 
z
" transform="scale(0.015625)"/>
       <path id="ArialMT-20" transform="scale(0.015625)"/>
       <path id="ArialMT-77" d="M 1034 0 
L 19 3319 
L 600 3319 
L 1128 1403 
L 1325 691 
Q 1338 744 1497 1375 
L 2025 3319 
L 2603 3319 
L 3100 1394 
L 3266 759 
L 3456 1400 
L 4025 3319 
L 4572 3319 
L 3534 0 
L 2950 0 
L 2422 1988 
L 2294 2553 
L 1622 0 
L 1034 0 
z
" transform="scale(0.015625)"/>
       <path id="ArialMT-61" d="M 2588 409 
Q 2275 144 1986 34 
Q 1697 -75 1366 -75 
Q 819 -75 525 192 
Q 231 459 231 875 
Q 231 1119 342 1320 
Q 453 1522 633 1644 
Q 813 1766 1038 1828 
Q 1203 1872 1538 1913 
Q 2219 1994 2541 2106 
Q 2544 2222 2544 2253 
Q 2544 2597 2384 2738 
Q 2169 2928 1744 2928 
Q 1347 2928 1158 2789 
Q 969 2650 878 2297 
L 328 2372 
Q 403 2725 575 2942 
Q 747 3159 1072 3276 
Q 1397 3394 1825 3394 
Q 2250 3394 2515 3294 
Q 2781 3194 2906 3042 
Q 3031 2891 3081 2659 
Q 3109 2516 3109 2141 
L 3109 1391 
Q 3109 606 3145 398 
Q 3181 191 3288 0 
L 2700 0 
Q 2613 175 2588 409 
z
M 2541 1666 
Q 2234 1541 1622 1453 
Q 1275 1403 1131 1340 
Q 988 1278 909 1158 
Q 831 1038 831 891 
Q 831 666 1001 516 
Q 1172 366 1500 366 
Q 1825 366 2078 508 
Q 2331 650 2450 897 
Q 2541 1088 2541 1459 
L 2541 1666 
z
" transform="scale(0.015625)"/>
       <path id="ArialMT-72" d="M 416 0 
L 416 3319 
L 922 3319 
L 922 2816 
Q 1116 3169 1280 3281 
Q 1444 3394 1641 3394 
Q 1925 3394 2219 3213 
L 2025 2691 
Q 1819 2813 1613 2813 
Q 1428 2813 1281 2702 
Q 1134 2591 1072 2394 
Q 978 2094 978 1738 
L 978 0 
L 416 0 
z
" transform="scale(0.015625)"/>
       <path id="ArialMT-64" d="M 2575 0 
L 2575 419 
Q 2259 -75 1647 -75 
Q 1250 -75 917 144 
Q 584 363 401 755 
Q 219 1147 219 1656 
Q 219 2153 384 2558 
Q 550 2963 881 3178 
Q 1213 3394 1622 3394 
Q 1922 3394 2156 3267 
Q 2391 3141 2538 2938 
L 2538 4581 
L 3097 4581 
L 3097 0 
L 2575 0 
z
M 797 1656 
Q 797 1019 1065 703 
Q 1334 388 1700 388 
Q 2069 388 2326 689 
Q 2584 991 2584 1609 
Q 2584 2291 2321 2609 
Q 2059 2928 1675 2928 
Q 1300 2928 1048 2622 
Q 797 2316 797 1656 
z
" transform="scale(0.015625)"/>
       <path id="ArialMT-65" d="M 2694 1069 
L 3275 997 
Q 3138 488 2766 206 
Q 2394 -75 1816 -75 
Q 1088 -75 661 373 
Q 234 822 234 1631 
Q 234 2469 665 2931 
Q 1097 3394 1784 3394 
Q 2450 3394 2872 2941 
Q 3294 2488 3294 1666 
Q 3294 1616 3291 1516 
L 816 1516 
Q 847 969 1125 678 
Q 1403 388 1819 388 
Q 2128 388 2347 550 
Q 2566 713 2694 1069 
z
M 847 1978 
L 2700 1978 
Q 2663 2397 2488 2606 
Q 2219 2931 1791 2931 
Q 1403 2931 1139 2672 
Q 875 2413 847 1978 
z
" transform="scale(0.015625)"/>
      </defs>
      <use xlink:href="#ArialMT-78"/>
      <use xlink:href="#ArialMT-20" x="50"/>
      <use xlink:href="#ArialMT-77" x="77.783203"/>
      <use xlink:href="#ArialMT-61" x="150"/>
      <use xlink:href="#ArialMT-61" x="205.615234"/>
      <use xlink:href="#ArialMT-72" x="261.230469"/>
      <use xlink:href="#ArialMT-64" x="294.53125"/>
      <use xlink:href="#ArialMT-65" x="350.146484"/>
     </g>
    </g>
    <g id="line2d_16">
     <path d="M 42.660938 52.643125 
L 52.660938 52.643125 
L 62.660938 52.643125 
" style="fill: none; stroke: #008000; stroke-width: 1.5; stroke-linecap: square"/>
     <g>
      <use xlink:href="#m1eb2c2cc61" x="52.660938" y="52.643125" style="fill: #008000; stroke: #008000"/>
     </g>
    </g>
    <g id="text_7">
     <!-- y waarde -->
     <g transform="translate(70.660938 56.143125)scale(0.1 -0.1)">
      <defs>
       <path id="ArialMT-79" d="M 397 -1278 
L 334 -750 
Q 519 -800 656 -800 
Q 844 -800 956 -737 
Q 1069 -675 1141 -563 
Q 1194 -478 1313 -144 
Q 1328 -97 1363 -6 
L 103 3319 
L 709 3319 
L 1400 1397 
Q 1534 1031 1641 628 
Q 1738 1016 1872 1384 
L 2581 3319 
L 3144 3319 
L 1881 -56 
Q 1678 -603 1566 -809 
Q 1416 -1088 1222 -1217 
Q 1028 -1347 759 -1347 
Q 597 -1347 397 -1278 
z
" transform="scale(0.015625)"/>
      </defs>
      <use xlink:href="#ArialMT-79"/>
      <use xlink:href="#ArialMT-20" x="50"/>
      <use xlink:href="#ArialMT-77" x="77.783203"/>
      <use xlink:href="#ArialMT-61" x="150"/>
      <use xlink:href="#ArialMT-61" x="205.615234"/>
      <use xlink:href="#ArialMT-72" x="261.230469"/>
      <use xlink:href="#ArialMT-64" x="294.53125"/>
      <use xlink:href="#ArialMT-65" x="350.146484"/>
     </g>
    </g>
    <g id="PathCollection_3">
     <g>
      <use xlink:href="#m9cc55f3b92" x="52.660938" y="67.780625" style="fill: #ff7f0e; stroke: #000000"/>
     </g>
    </g>
    <g id="text_8">
     <!-- Voorspelling -->
     <g transform="translate(70.660938 70.405625)scale(0.1 -0.1)">
      <defs>
       <path id="ArialMT-56" d="M 1803 0 
L 28 4581 
L 684 4581 
L 1875 1253 
Q 2019 853 2116 503 
Q 2222 878 2363 1253 
L 3600 4581 
L 4219 4581 
L 2425 0 
L 1803 0 
z
" transform="scale(0.015625)"/>
       <path id="ArialMT-6f" d="M 213 1659 
Q 213 2581 725 3025 
Q 1153 3394 1769 3394 
Q 2453 3394 2887 2945 
Q 3322 2497 3322 1706 
Q 3322 1066 3130 698 
Q 2938 331 2570 128 
Q 2203 -75 1769 -75 
Q 1072 -75 642 372 
Q 213 819 213 1659 
z
M 791 1659 
Q 791 1022 1069 705 
Q 1347 388 1769 388 
Q 2188 388 2466 706 
Q 2744 1025 2744 1678 
Q 2744 2294 2464 2611 
Q 2184 2928 1769 2928 
Q 1347 2928 1069 2612 
Q 791 2297 791 1659 
z
" transform="scale(0.015625)"/>
       <path id="ArialMT-73" d="M 197 991 
L 753 1078 
Q 800 744 1014 566 
Q 1228 388 1613 388 
Q 2000 388 2187 545 
Q 2375 703 2375 916 
Q 2375 1106 2209 1216 
Q 2094 1291 1634 1406 
Q 1016 1563 777 1677 
Q 538 1791 414 1992 
Q 291 2194 291 2438 
Q 291 2659 392 2848 
Q 494 3038 669 3163 
Q 800 3259 1026 3326 
Q 1253 3394 1513 3394 
Q 1903 3394 2198 3281 
Q 2494 3169 2634 2976 
Q 2775 2784 2828 2463 
L 2278 2388 
Q 2241 2644 2061 2787 
Q 1881 2931 1553 2931 
Q 1166 2931 1000 2803 
Q 834 2675 834 2503 
Q 834 2394 903 2306 
Q 972 2216 1119 2156 
Q 1203 2125 1616 2013 
Q 2213 1853 2448 1751 
Q 2684 1650 2818 1456 
Q 2953 1263 2953 975 
Q 2953 694 2789 445 
Q 2625 197 2315 61 
Q 2006 -75 1616 -75 
Q 969 -75 630 194 
Q 291 463 197 991 
z
" transform="scale(0.015625)"/>
       <path id="ArialMT-70" d="M 422 -1272 
L 422 3319 
L 934 3319 
L 934 2888 
Q 1116 3141 1344 3267 
Q 1572 3394 1897 3394 
Q 2322 3394 2647 3175 
Q 2972 2956 3137 2557 
Q 3303 2159 3303 1684 
Q 3303 1175 3120 767 
Q 2938 359 2589 142 
Q 2241 -75 1856 -75 
Q 1575 -75 1351 44 
Q 1128 163 984 344 
L 984 -1272 
L 422 -1272 
z
M 931 1641 
Q 931 1000 1190 694 
Q 1450 388 1819 388 
Q 2194 388 2461 705 
Q 2728 1022 2728 1688 
Q 2728 2322 2467 2637 
Q 2206 2953 1844 2953 
Q 1484 2953 1207 2617 
Q 931 2281 931 1641 
z
" transform="scale(0.015625)"/>
       <path id="ArialMT-6c" d="M 409 0 
L 409 4581 
L 972 4581 
L 972 0 
L 409 0 
z
" transform="scale(0.015625)"/>
       <path id="ArialMT-69" d="M 425 3934 
L 425 4581 
L 988 4581 
L 988 3934 
L 425 3934 
z
M 425 0 
L 425 3319 
L 988 3319 
L 988 0 
L 425 0 
z
" transform="scale(0.015625)"/>
       <path id="ArialMT-6e" d="M 422 0 
L 422 3319 
L 928 3319 
L 928 2847 
Q 1294 3394 1984 3394 
Q 2284 3394 2536 3286 
Q 2788 3178 2913 3003 
Q 3038 2828 3088 2588 
Q 3119 2431 3119 2041 
L 3119 0 
L 2556 0 
L 2556 2019 
Q 2556 2363 2490 2533 
Q 2425 2703 2258 2804 
Q 2091 2906 1866 2906 
Q 1506 2906 1245 2678 
Q 984 2450 984 1813 
L 984 0 
L 422 0 
z
" transform="scale(0.015625)"/>
       <path id="ArialMT-67" d="M 319 -275 
L 866 -356 
Q 900 -609 1056 -725 
Q 1266 -881 1628 -881 
Q 2019 -881 2231 -725 
Q 2444 -569 2519 -288 
Q 2563 -116 2559 434 
Q 2191 0 1641 0 
Q 956 0 581 494 
Q 206 988 206 1678 
Q 206 2153 378 2554 
Q 550 2956 876 3175 
Q 1203 3394 1644 3394 
Q 2231 3394 2613 2919 
L 2613 3319 
L 3131 3319 
L 3131 450 
Q 3131 -325 2973 -648 
Q 2816 -972 2473 -1159 
Q 2131 -1347 1631 -1347 
Q 1038 -1347 672 -1080 
Q 306 -813 319 -275 
z
M 784 1719 
Q 784 1066 1043 766 
Q 1303 466 1694 466 
Q 2081 466 2343 764 
Q 2606 1063 2606 1700 
Q 2606 2309 2336 2618 
Q 2066 2928 1684 2928 
Q 1309 2928 1046 2623 
Q 784 2319 784 1719 
z
" transform="scale(0.015625)"/>
      </defs>
      <use xlink:href="#ArialMT-56"/>
      <use xlink:href="#ArialMT-6f" x="61.199219"/>
      <use xlink:href="#ArialMT-6f" x="116.814453"/>
      <use xlink:href="#ArialMT-72" x="172.429688"/>
      <use xlink:href="#ArialMT-73" x="205.730469"/>
      <use xlink:href="#ArialMT-70" x="255.730469"/>
      <use xlink:href="#ArialMT-65" x="311.345703"/>
      <use xlink:href="#ArialMT-6c" x="366.960938"/>
      <use xlink:href="#ArialMT-6c" x="389.177734"/>
      <use xlink:href="#ArialMT-69" x="411.394531"/>
      <use xlink:href="#ArialMT-6e" x="433.611328"/>
      <use xlink:href="#ArialMT-67" x="489.226562"/>
     </g>
    </g>
   </g>
  </g>
  <g id="axes_2">
   <g id="patch_8">
    <path d="M 33.660938 414.14 
L 705.685937 414.14 
L 705.685937 227.14 
L 33.660938 227.14 
z
" style="fill: #ffffff"/>
   </g>
   <g id="PathCollection_4">
    <g clip-path="url(#pcd87ea1486)">
     <use xlink:href="#m78b29b7e9b" x="675.139347" y="314.373802" style="fill: #008000; stroke: #000000"/>
    </g>
   </g>
   <g id="PathCollection_5">
    <g clip-path="url(#pcd87ea1486)">
     <use xlink:href="#m9cc55f3b92" x="675.139347" y="347.419218" style="fill: #ff7f0e; stroke: #000000"/>
    </g>
   </g>
   <g id="matplotlib.axis_3">
    <g id="xtick_8">
     <g id="line2d_17">
      <g>
       <use xlink:href="#me4102a2183" x="64.207528" y="414.14" style="stroke: #000000; stroke-width: 0.8"/>
      </g>
     </g>
    </g>
    <g id="xtick_9">
     <g id="line2d_18">
      <g>
       <use xlink:href="#me4102a2183" x="159.665625" y="414.14" style="stroke: #000000; stroke-width: 0.8"/>
      </g>
     </g>
    </g>
    <g id="xtick_10">
     <g id="line2d_19">
      <g>
       <use xlink:href="#me4102a2183" x="255.123722" y="414.14" style="stroke: #000000; stroke-width: 0.8"/>
      </g>
     </g>
    </g>
    <g id="xtick_11">
     <g id="line2d_20">
      <g>
       <use xlink:href="#me4102a2183" x="350.581818" y="414.14" style="stroke: #000000; stroke-width: 0.8"/>
      </g>
     </g>
    </g>
    <g id="xtick_12">
     <g id="line2d_21">
      <g>
       <use xlink:href="#me4102a2183" x="446.039915" y="414.14" style="stroke: #000000; stroke-width: 0.8"/>
      </g>
     </g>
    </g>
    <g id="xtick_13">
     <g id="line2d_22">
      <g>
       <use xlink:href="#me4102a2183" x="541.498011" y="414.14" style="stroke: #000000; stroke-width: 0.8"/>
      </g>
     </g>
    </g>
    <g id="xtick_14">
     <g id="line2d_23">
      <g>
       <use xlink:href="#me4102a2183" x="636.956108" y="414.14" style="stroke: #000000; stroke-width: 0.8"/>
      </g>
     </g>
    </g>
   </g>
   <g id="matplotlib.axis_4">
    <g id="ytick_6">
     <g id="line2d_24">
      <g>
       <use xlink:href="#ma4e4ad5058" x="33.660938" y="385.55961" style="stroke: #000000; stroke-width: 0.8"/>
      </g>
     </g>
     <g id="text_9">
      <!-- 0.45 -->
      <g transform="translate(7.2 389.138516)scale(0.1 -0.1)">
       <use xlink:href="#ArialMT-30"/>
       <use xlink:href="#ArialMT-2e" x="55.615234"/>
       <use xlink:href="#ArialMT-34" x="83.398438"/>
       <use xlink:href="#ArialMT-35" x="139.013672"/>
      </g>
     </g>
    </g>
    <g id="ytick_7">
     <g id="line2d_25">
      <g>
       <use xlink:href="#ma4e4ad5058" x="33.660938" y="350.953804" style="stroke: #000000; stroke-width: 0.8"/>
      </g>
     </g>
     <g id="text_10">
      <!-- 0.50 -->
      <g transform="translate(7.2 354.53271)scale(0.1 -0.1)">
       <use xlink:href="#ArialMT-30"/>
       <use xlink:href="#ArialMT-2e" x="55.615234"/>
       <use xlink:href="#ArialMT-35" x="83.398438"/>
       <use xlink:href="#ArialMT-30" x="139.013672"/>
      </g>
     </g>
    </g>
    <g id="ytick_8">
     <g id="line2d_26">
      <g>
       <use xlink:href="#ma4e4ad5058" x="33.660938" y="316.347998" style="stroke: #000000; stroke-width: 0.8"/>
      </g>
     </g>
     <g id="text_11">
      <!-- 0.55 -->
      <g transform="translate(7.2 319.926904)scale(0.1 -0.1)">
       <use xlink:href="#ArialMT-30"/>
       <use xlink:href="#ArialMT-2e" x="55.615234"/>
       <use xlink:href="#ArialMT-35" x="83.398438"/>
       <use xlink:href="#ArialMT-35" x="139.013672"/>
      </g>
     </g>
    </g>
    <g id="ytick_9">
     <g id="line2d_27">
      <g>
       <use xlink:href="#ma4e4ad5058" x="33.660938" y="281.742192" style="stroke: #000000; stroke-width: 0.8"/>
      </g>
     </g>
     <g id="text_12">
      <!-- 0.60 -->
      <g transform="translate(7.2 285.321098)scale(0.1 -0.1)">
       <use xlink:href="#ArialMT-30"/>
       <use xlink:href="#ArialMT-2e" x="55.615234"/>
       <use xlink:href="#ArialMT-36" x="83.398438"/>
       <use xlink:href="#ArialMT-30" x="139.013672"/>
      </g>
     </g>
    </g>
    <g id="ytick_10">
     <g id="line2d_28">
      <g>
       <use xlink:href="#ma4e4ad5058" x="33.660938" y="247.136386" style="stroke: #000000; stroke-width: 0.8"/>
      </g>
     </g>
     <g id="text_13">
      <!-- 0.65 -->
      <g transform="translate(7.2 250.715292)scale(0.1 -0.1)">
       <use xlink:href="#ArialMT-30"/>
       <use xlink:href="#ArialMT-2e" x="55.615234"/>
       <use xlink:href="#ArialMT-36" x="83.398438"/>
       <use xlink:href="#ArialMT-35" x="139.013672"/>
      </g>
     </g>
    </g>
   </g>
   <g id="line2d_29">
    <path d="M 64.207528 396.68549 
L 83.299148 364.355342 
L 102.390767 327.140616 
L 121.482386 342.121306 
L 140.574006 318.9699 
L 159.665625 320.466595 
L 178.757244 295.700074 
L 197.848864 320.602328 
L 216.940483 271.799309 
L 236.032102 270.308676 
L 255.123722 235.64 
L 274.215341 243.731585 
L 293.30696 259.811169 
L 312.39858 263.99226 
L 331.490199 275.45225 
L 350.581818 283.224035 
L 369.673437 297.240405 
L 388.765057 269.072594 
L 407.856676 332.556972 
L 426.948295 313.6772 
L 446.039915 310.013439 
L 465.131534 338.36137 
L 484.223153 326.981961 
L 503.314773 310.957269 
L 522.406392 332.126524 
L 541.498011 322.908857 
L 560.589631 349.622279 
L 579.68125 348.510067 
L 598.772869 292.868755 
L 617.864489 303.501532 
L 636.956108 306.630921 
L 656.047727 294.682397 
" clip-path="url(#pcd87ea1486)" style="fill: none; stroke: #0000ff; stroke-width: 1.5; stroke-linecap: square"/>
    <g clip-path="url(#pcd87ea1486)">
     <use xlink:href="#m6e7008206c" x="64.207528" y="396.68549" style="fill: #0000ff; stroke: #0000ff"/>
     <use xlink:href="#m6e7008206c" x="83.299148" y="364.355342" style="fill: #0000ff; stroke: #0000ff"/>
     <use xlink:href="#m6e7008206c" x="102.390767" y="327.140616" style="fill: #0000ff; stroke: #0000ff"/>
     <use xlink:href="#m6e7008206c" x="121.482386" y="342.121306" style="fill: #0000ff; stroke: #0000ff"/>
     <use xlink:href="#m6e7008206c" x="140.574006" y="318.9699" style="fill: #0000ff; stroke: #0000ff"/>
     <use xlink:href="#m6e7008206c" x="159.665625" y="320.466595" style="fill: #0000ff; stroke: #0000ff"/>
     <use xlink:href="#m6e7008206c" x="178.757244" y="295.700074" style="fill: #0000ff; stroke: #0000ff"/>
     <use xlink:href="#m6e7008206c" x="197.848864" y="320.602328" style="fill: #0000ff; stroke: #0000ff"/>
     <use xlink:href="#m6e7008206c" x="216.940483" y="271.799309" style="fill: #0000ff; stroke: #0000ff"/>
     <use xlink:href="#m6e7008206c" x="236.032102" y="270.308676" style="fill: #0000ff; stroke: #0000ff"/>
     <use xlink:href="#m6e7008206c" x="255.123722" y="235.64" style="fill: #0000ff; stroke: #0000ff"/>
     <use xlink:href="#m6e7008206c" x="274.215341" y="243.731585" style="fill: #0000ff; stroke: #0000ff"/>
     <use xlink:href="#m6e7008206c" x="293.30696" y="259.811169" style="fill: #0000ff; stroke: #0000ff"/>
     <use xlink:href="#m6e7008206c" x="312.39858" y="263.99226" style="fill: #0000ff; stroke: #0000ff"/>
     <use xlink:href="#m6e7008206c" x="331.490199" y="275.45225" style="fill: #0000ff; stroke: #0000ff"/>
     <use xlink:href="#m6e7008206c" x="350.581818" y="283.224035" style="fill: #0000ff; stroke: #0000ff"/>
     <use xlink:href="#m6e7008206c" x="369.673437" y="297.240405" style="fill: #0000ff; stroke: #0000ff"/>
     <use xlink:href="#m6e7008206c" x="388.765057" y="269.072594" style="fill: #0000ff; stroke: #0000ff"/>
     <use xlink:href="#m6e7008206c" x="407.856676" y="332.556972" style="fill: #0000ff; stroke: #0000ff"/>
     <use xlink:href="#m6e7008206c" x="426.948295" y="313.6772" style="fill: #0000ff; stroke: #0000ff"/>
     <use xlink:href="#m6e7008206c" x="446.039915" y="310.013439" style="fill: #0000ff; stroke: #0000ff"/>
     <use xlink:href="#m6e7008206c" x="465.131534" y="338.36137" style="fill: #0000ff; stroke: #0000ff"/>
     <use xlink:href="#m6e7008206c" x="484.223153" y="326.981961" style="fill: #0000ff; stroke: #0000ff"/>
     <use xlink:href="#m6e7008206c" x="503.314773" y="310.957269" style="fill: #0000ff; stroke: #0000ff"/>
     <use xlink:href="#m6e7008206c" x="522.406392" y="332.126524" style="fill: #0000ff; stroke: #0000ff"/>
     <use xlink:href="#m6e7008206c" x="541.498011" y="322.908857" style="fill: #0000ff; stroke: #0000ff"/>
     <use xlink:href="#m6e7008206c" x="560.589631" y="349.622279" style="fill: #0000ff; stroke: #0000ff"/>
     <use xlink:href="#m6e7008206c" x="579.68125" y="348.510067" style="fill: #0000ff; stroke: #0000ff"/>
     <use xlink:href="#m6e7008206c" x="598.772869" y="292.868755" style="fill: #0000ff; stroke: #0000ff"/>
     <use xlink:href="#m6e7008206c" x="617.864489" y="303.501532" style="fill: #0000ff; stroke: #0000ff"/>
     <use xlink:href="#m6e7008206c" x="636.956108" y="306.630921" style="fill: #0000ff; stroke: #0000ff"/>
     <use xlink:href="#m6e7008206c" x="656.047727" y="294.682397" style="fill: #0000ff; stroke: #0000ff"/>
    </g>
   </g>
   <g id="line2d_30">
    <path d="M 675.139347 314.373802 
" clip-path="url(#pcd87ea1486)" style="fill: none; stroke: #008000; stroke-width: 1.5; stroke-linecap: square"/>
    <g clip-path="url(#pcd87ea1486)">
     <use xlink:href="#m1eb2c2cc61" x="675.139347" y="314.373802" style="fill: #008000; stroke: #008000"/>
    </g>
   </g>
   <g id="patch_9">
    <path d="M 33.660938 414.14 
L 33.660938 227.14 
" style="fill: none; stroke: #000000; stroke-width: 0.8; stroke-linejoin: miter; stroke-linecap: square"/>
   </g>
   <g id="patch_10">
    <path d="M 705.685937 414.14 
L 705.685937 227.14 
" style="fill: none; stroke: #000000; stroke-width: 0.8; stroke-linejoin: miter; stroke-linecap: square"/>
   </g>
   <g id="patch_11">
    <path d="M 33.660938 414.14 
L 705.685937 414.14 
" style="fill: none; stroke: #000000; stroke-width: 0.8; stroke-linejoin: miter; stroke-linecap: square"/>
   </g>
   <g id="patch_12">
    <path d="M 33.660938 227.14 
L 705.685937 227.14 
" style="fill: none; stroke: #000000; stroke-width: 0.8; stroke-linejoin: miter; stroke-linecap: square"/>
   </g>
   <g id="legend_2">
    <g id="patch_13">
     <path d="M 40.660938 277.810313 
L 127.142188 277.810313 
Q 129.142188 277.810313 129.142188 275.810313 
L 129.142188 234.14 
Q 129.142188 232.14 127.142188 232.14 
L 40.660938 232.14 
Q 38.660938 232.14 38.660938 234.14 
L 38.660938 275.810313 
Q 38.660938 277.810313 40.660938 277.810313 
z
" style="fill: #ffffff; opacity: 0.8; stroke: #cccccc; stroke-linejoin: miter"/>
    </g>
    <g id="line2d_31">
     <path d="M 42.660938 239.797813 
L 52.660938 239.797813 
L 62.660938 239.797813 
" style="fill: none; stroke: #0000ff; stroke-width: 1.5; stroke-linecap: square"/>
     <g>
      <use xlink:href="#m6e7008206c" x="52.660938" y="239.797813" style="fill: #0000ff; stroke: #0000ff"/>
     </g>
    </g>
    <g id="text_14">
     <!-- x waarde -->
     <g transform="translate(70.660938 243.297813)scale(0.1 -0.1)">
      <use xlink:href="#ArialMT-78"/>
      <use xlink:href="#ArialMT-20" x="50"/>
      <use xlink:href="#ArialMT-77" x="77.783203"/>
      <use xlink:href="#ArialMT-61" x="150"/>
      <use xlink:href="#ArialMT-61" x="205.615234"/>
      <use xlink:href="#ArialMT-72" x="261.230469"/>
      <use xlink:href="#ArialMT-64" x="294.53125"/>
      <use xlink:href="#ArialMT-65" x="350.146484"/>
     </g>
    </g>
    <g id="line2d_32">
     <path d="M 42.660938 253.943125 
L 52.660938 253.943125 
L 62.660938 253.943125 
" style="fill: none; stroke: #008000; stroke-width: 1.5; stroke-linecap: square"/>
     <g>
      <use xlink:href="#m1eb2c2cc61" x="52.660938" y="253.943125" style="fill: #008000; stroke: #008000"/>
     </g>
    </g>
    <g id="text_15">
     <!-- y waarde -->
     <g transform="translate(70.660938 257.443125)scale(0.1 -0.1)">
      <use xlink:href="#ArialMT-79"/>
      <use xlink:href="#ArialMT-20" x="50"/>
      <use xlink:href="#ArialMT-77" x="77.783203"/>
      <use xlink:href="#ArialMT-61" x="150"/>
      <use xlink:href="#ArialMT-61" x="205.615234"/>
      <use xlink:href="#ArialMT-72" x="261.230469"/>
      <use xlink:href="#ArialMT-64" x="294.53125"/>
      <use xlink:href="#ArialMT-65" x="350.146484"/>
     </g>
    </g>
    <g id="PathCollection_6">
     <g>
      <use xlink:href="#m9cc55f3b92" x="52.660938" y="269.080625" style="fill: #ff7f0e; stroke: #000000"/>
     </g>
    </g>
    <g id="text_16">
     <!-- Voorspelling -->
     <g transform="translate(70.660938 271.705625)scale(0.1 -0.1)">
      <use xlink:href="#ArialMT-56"/>
      <use xlink:href="#ArialMT-6f" x="61.199219"/>
      <use xlink:href="#ArialMT-6f" x="116.814453"/>
      <use xlink:href="#ArialMT-72" x="172.429688"/>
      <use xlink:href="#ArialMT-73" x="205.730469"/>
      <use xlink:href="#ArialMT-70" x="255.730469"/>
      <use xlink:href="#ArialMT-65" x="311.345703"/>
      <use xlink:href="#ArialMT-6c" x="366.960938"/>
      <use xlink:href="#ArialMT-6c" x="389.177734"/>
      <use xlink:href="#ArialMT-69" x="411.394531"/>
      <use xlink:href="#ArialMT-6e" x="433.611328"/>
      <use xlink:href="#ArialMT-67" x="489.226562"/>
     </g>
    </g>
   </g>
  </g>
  <g id="axes_3">
   <g id="patch_14">
    <path d="M 33.660938 615.44 
L 705.685937 615.44 
L 705.685937 428.44 
L 33.660938 428.44 
z
" style="fill: #ffffff"/>
   </g>
   <g id="PathCollection_7">
    <g clip-path="url(#p3704408af6)">
     <use xlink:href="#m78b29b7e9b" x="675.139347" y="494.168755" style="fill: #008000; stroke: #000000"/>
    </g>
   </g>
   <g id="PathCollection_8">
    <g clip-path="url(#p3704408af6)">
     <use xlink:href="#m9cc55f3b92" x="675.139347" y="548.35953" style="fill: #ff7f0e; stroke: #000000"/>
    </g>
   </g>
   <g id="matplotlib.axis_5">
    <g id="xtick_15">
     <g id="line2d_33">
      <g>
       <use xlink:href="#me4102a2183" x="64.207528" y="615.44" style="stroke: #000000; stroke-width: 0.8"/>
      </g>
     </g>
     <g id="text_17">
      <!-- 0 -->
      <g transform="translate(61.42706 629.597812)scale(0.1 -0.1)">
       <use xlink:href="#ArialMT-30"/>
      </g>
     </g>
    </g>
    <g id="xtick_16">
     <g id="line2d_34">
      <g>
       <use xlink:href="#me4102a2183" x="159.665625" y="615.44" style="stroke: #000000; stroke-width: 0.8"/>
      </g>
     </g>
     <g id="text_18">
      <!-- 5 -->
      <g transform="translate(156.885156 629.597812)scale(0.1 -0.1)">
       <use xlink:href="#ArialMT-35"/>
      </g>
     </g>
    </g>
    <g id="xtick_17">
     <g id="line2d_35">
      <g>
       <use xlink:href="#me4102a2183" x="255.123722" y="615.44" style="stroke: #000000; stroke-width: 0.8"/>
      </g>
     </g>
     <g id="text_19">
      <!-- 10 -->
      <g transform="translate(249.562784 629.597812)scale(0.1 -0.1)">
       <defs>
        <path id="ArialMT-31" d="M 2384 0 
L 1822 0 
L 1822 3584 
Q 1619 3391 1289 3197 
Q 959 3003 697 2906 
L 697 3450 
Q 1169 3672 1522 3987 
Q 1875 4303 2022 4600 
L 2384 4600 
L 2384 0 
z
" transform="scale(0.015625)"/>
       </defs>
       <use xlink:href="#ArialMT-31"/>
       <use xlink:href="#ArialMT-30" x="55.615234"/>
      </g>
     </g>
    </g>
    <g id="xtick_18">
     <g id="line2d_36">
      <g>
       <use xlink:href="#me4102a2183" x="350.581818" y="615.44" style="stroke: #000000; stroke-width: 0.8"/>
      </g>
     </g>
     <g id="text_20">
      <!-- 15 -->
      <g transform="translate(345.020881 629.597812)scale(0.1 -0.1)">
       <use xlink:href="#ArialMT-31"/>
       <use xlink:href="#ArialMT-35" x="55.615234"/>
      </g>
     </g>
    </g>
    <g id="xtick_19">
     <g id="line2d_37">
      <g>
       <use xlink:href="#me4102a2183" x="446.039915" y="615.44" style="stroke: #000000; stroke-width: 0.8"/>
      </g>
     </g>
     <g id="text_21">
      <!-- 20 -->
      <g transform="translate(440.478977 629.597812)scale(0.1 -0.1)">
       <defs>
        <path id="ArialMT-32" d="M 3222 541 
L 3222 0 
L 194 0 
Q 188 203 259 391 
Q 375 700 629 1000 
Q 884 1300 1366 1694 
Q 2113 2306 2375 2664 
Q 2638 3022 2638 3341 
Q 2638 3675 2398 3904 
Q 2159 4134 1775 4134 
Q 1369 4134 1125 3890 
Q 881 3647 878 3216 
L 300 3275 
Q 359 3922 746 4261 
Q 1134 4600 1788 4600 
Q 2447 4600 2831 4234 
Q 3216 3869 3216 3328 
Q 3216 3053 3103 2787 
Q 2991 2522 2730 2228 
Q 2469 1934 1863 1422 
Q 1356 997 1212 845 
Q 1069 694 975 541 
L 3222 541 
z
" transform="scale(0.015625)"/>
       </defs>
       <use xlink:href="#ArialMT-32"/>
       <use xlink:href="#ArialMT-30" x="55.615234"/>
      </g>
     </g>
    </g>
    <g id="xtick_20">
     <g id="line2d_38">
      <g>
       <use xlink:href="#me4102a2183" x="541.498011" y="615.44" style="stroke: #000000; stroke-width: 0.8"/>
      </g>
     </g>
     <g id="text_22">
      <!-- 25 -->
      <g transform="translate(535.937074 629.597812)scale(0.1 -0.1)">
       <use xlink:href="#ArialMT-32"/>
       <use xlink:href="#ArialMT-35" x="55.615234"/>
      </g>
     </g>
    </g>
    <g id="xtick_21">
     <g id="line2d_39">
      <g>
       <use xlink:href="#me4102a2183" x="636.956108" y="615.44" style="stroke: #000000; stroke-width: 0.8"/>
      </g>
     </g>
     <g id="text_23">
      <!-- 30 -->
      <g transform="translate(631.39517 629.597812)scale(0.1 -0.1)">
       <defs>
        <path id="ArialMT-33" d="M 269 1209 
L 831 1284 
Q 928 806 1161 595 
Q 1394 384 1728 384 
Q 2125 384 2398 659 
Q 2672 934 2672 1341 
Q 2672 1728 2419 1979 
Q 2166 2231 1775 2231 
Q 1616 2231 1378 2169 
L 1441 2663 
Q 1497 2656 1531 2656 
Q 1891 2656 2178 2843 
Q 2466 3031 2466 3422 
Q 2466 3731 2256 3934 
Q 2047 4138 1716 4138 
Q 1388 4138 1169 3931 
Q 950 3725 888 3313 
L 325 3413 
Q 428 3978 793 4289 
Q 1159 4600 1703 4600 
Q 2078 4600 2393 4439 
Q 2709 4278 2876 4000 
Q 3044 3722 3044 3409 
Q 3044 3113 2884 2869 
Q 2725 2625 2413 2481 
Q 2819 2388 3044 2092 
Q 3269 1797 3269 1353 
Q 3269 753 2831 336 
Q 2394 -81 1725 -81 
Q 1122 -81 723 278 
Q 325 638 269 1209 
z
" transform="scale(0.015625)"/>
       </defs>
       <use xlink:href="#ArialMT-33"/>
       <use xlink:href="#ArialMT-30" x="55.615234"/>
      </g>
     </g>
    </g>
   </g>
   <g id="matplotlib.axis_6">
    <g id="ytick_11">
     <g id="line2d_40">
      <g>
       <use xlink:href="#ma4e4ad5058" x="33.660938" y="586.85961" style="stroke: #000000; stroke-width: 0.8"/>
      </g>
     </g>
     <g id="text_24">
      <!-- 0.45 -->
      <g transform="translate(7.2 590.438516)scale(0.1 -0.1)">
       <use xlink:href="#ArialMT-30"/>
       <use xlink:href="#ArialMT-2e" x="55.615234"/>
       <use xlink:href="#ArialMT-34" x="83.398438"/>
       <use xlink:href="#ArialMT-35" x="139.013672"/>
      </g>
     </g>
    </g>
    <g id="ytick_12">
     <g id="line2d_41">
      <g>
       <use xlink:href="#ma4e4ad5058" x="33.660938" y="552.253804" style="stroke: #000000; stroke-width: 0.8"/>
      </g>
     </g>
     <g id="text_25">
      <!-- 0.50 -->
      <g transform="translate(7.2 555.83271)scale(0.1 -0.1)">
       <use xlink:href="#ArialMT-30"/>
       <use xlink:href="#ArialMT-2e" x="55.615234"/>
       <use xlink:href="#ArialMT-35" x="83.398438"/>
       <use xlink:href="#ArialMT-30" x="139.013672"/>
      </g>
     </g>
    </g>
    <g id="ytick_13">
     <g id="line2d_42">
      <g>
       <use xlink:href="#ma4e4ad5058" x="33.660938" y="517.647998" style="stroke: #000000; stroke-width: 0.8"/>
      </g>
     </g>
     <g id="text_26">
      <!-- 0.55 -->
      <g transform="translate(7.2 521.226904)scale(0.1 -0.1)">
       <use xlink:href="#ArialMT-30"/>
       <use xlink:href="#ArialMT-2e" x="55.615234"/>
       <use xlink:href="#ArialMT-35" x="83.398438"/>
       <use xlink:href="#ArialMT-35" x="139.013672"/>
      </g>
     </g>
    </g>
    <g id="ytick_14">
     <g id="line2d_43">
      <g>
       <use xlink:href="#ma4e4ad5058" x="33.660938" y="483.042192" style="stroke: #000000; stroke-width: 0.8"/>
      </g>
     </g>
     <g id="text_27">
      <!-- 0.60 -->
      <g transform="translate(7.2 486.621098)scale(0.1 -0.1)">
       <use xlink:href="#ArialMT-30"/>
       <use xlink:href="#ArialMT-2e" x="55.615234"/>
       <use xlink:href="#ArialMT-36" x="83.398438"/>
       <use xlink:href="#ArialMT-30" x="139.013672"/>
      </g>
     </g>
    </g>
    <g id="ytick_15">
     <g id="line2d_44">
      <g>
       <use xlink:href="#ma4e4ad5058" x="33.660938" y="448.436386" style="stroke: #000000; stroke-width: 0.8"/>
      </g>
     </g>
     <g id="text_28">
      <!-- 0.65 -->
      <g transform="translate(7.2 452.015292)scale(0.1 -0.1)">
       <use xlink:href="#ArialMT-30"/>
       <use xlink:href="#ArialMT-2e" x="55.615234"/>
       <use xlink:href="#ArialMT-36" x="83.398438"/>
       <use xlink:href="#ArialMT-35" x="139.013672"/>
      </g>
     </g>
    </g>
   </g>
   <g id="line2d_45">
    <path d="M 64.207528 606.94 
L 83.299148 565.278119 
L 102.390767 557.411634 
L 121.482386 569.029671 
L 140.574006 559.309311 
L 159.665625 581.059942 
L 178.757244 593.324602 
L 197.848864 584.064908 
L 216.940483 566.486637 
L 236.032102 557.196336 
L 255.123722 519.318164 
L 274.215341 560.241236 
L 293.30696 567.687001 
L 312.39858 597.98549 
L 331.490199 565.655342 
L 350.581818 528.440616 
L 369.673437 543.421306 
L 388.765057 520.2699 
L 407.856676 521.766595 
L 426.948295 497.000074 
L 446.039915 521.902328 
L 465.131534 473.099309 
L 484.223153 471.608676 
L 503.314773 436.94 
L 522.406392 445.031585 
L 541.498011 461.111169 
L 560.589631 465.29226 
L 579.68125 476.75225 
L 598.772869 484.524035 
L 617.864489 498.540405 
L 636.956108 470.372594 
L 656.047727 533.856972 
" clip-path="url(#p3704408af6)" style="fill: none; stroke: #0000ff; stroke-width: 1.5; stroke-linecap: square"/>
    <g clip-path="url(#p3704408af6)">
     <use xlink:href="#m6e7008206c" x="64.207528" y="606.94" style="fill: #0000ff; stroke: #0000ff"/>
     <use xlink:href="#m6e7008206c" x="83.299148" y="565.278119" style="fill: #0000ff; stroke: #0000ff"/>
     <use xlink:href="#m6e7008206c" x="102.390767" y="557.411634" style="fill: #0000ff; stroke: #0000ff"/>
     <use xlink:href="#m6e7008206c" x="121.482386" y="569.029671" style="fill: #0000ff; stroke: #0000ff"/>
     <use xlink:href="#m6e7008206c" x="140.574006" y="559.309311" style="fill: #0000ff; stroke: #0000ff"/>
     <use xlink:href="#m6e7008206c" x="159.665625" y="581.059942" style="fill: #0000ff; stroke: #0000ff"/>
     <use xlink:href="#m6e7008206c" x="178.757244" y="593.324602" style="fill: #0000ff; stroke: #0000ff"/>
     <use xlink:href="#m6e7008206c" x="197.848864" y="584.064908" style="fill: #0000ff; stroke: #0000ff"/>
     <use xlink:href="#m6e7008206c" x="216.940483" y="566.486637" style="fill: #0000ff; stroke: #0000ff"/>
     <use xlink:href="#m6e7008206c" x="236.032102" y="557.196336" style="fill: #0000ff; stroke: #0000ff"/>
     <use xlink:href="#m6e7008206c" x="255.123722" y="519.318164" style="fill: #0000ff; stroke: #0000ff"/>
     <use xlink:href="#m6e7008206c" x="274.215341" y="560.241236" style="fill: #0000ff; stroke: #0000ff"/>
     <use xlink:href="#m6e7008206c" x="293.30696" y="567.687001" style="fill: #0000ff; stroke: #0000ff"/>
     <use xlink:href="#m6e7008206c" x="312.39858" y="597.98549" style="fill: #0000ff; stroke: #0000ff"/>
     <use xlink:href="#m6e7008206c" x="331.490199" y="565.655342" style="fill: #0000ff; stroke: #0000ff"/>
     <use xlink:href="#m6e7008206c" x="350.581818" y="528.440616" style="fill: #0000ff; stroke: #0000ff"/>
     <use xlink:href="#m6e7008206c" x="369.673437" y="543.421306" style="fill: #0000ff; stroke: #0000ff"/>
     <use xlink:href="#m6e7008206c" x="388.765057" y="520.2699" style="fill: #0000ff; stroke: #0000ff"/>
     <use xlink:href="#m6e7008206c" x="407.856676" y="521.766595" style="fill: #0000ff; stroke: #0000ff"/>
     <use xlink:href="#m6e7008206c" x="426.948295" y="497.000074" style="fill: #0000ff; stroke: #0000ff"/>
     <use xlink:href="#m6e7008206c" x="446.039915" y="521.902328" style="fill: #0000ff; stroke: #0000ff"/>
     <use xlink:href="#m6e7008206c" x="465.131534" y="473.099309" style="fill: #0000ff; stroke: #0000ff"/>
     <use xlink:href="#m6e7008206c" x="484.223153" y="471.608676" style="fill: #0000ff; stroke: #0000ff"/>
     <use xlink:href="#m6e7008206c" x="503.314773" y="436.94" style="fill: #0000ff; stroke: #0000ff"/>
     <use xlink:href="#m6e7008206c" x="522.406392" y="445.031585" style="fill: #0000ff; stroke: #0000ff"/>
     <use xlink:href="#m6e7008206c" x="541.498011" y="461.111169" style="fill: #0000ff; stroke: #0000ff"/>
     <use xlink:href="#m6e7008206c" x="560.589631" y="465.29226" style="fill: #0000ff; stroke: #0000ff"/>
     <use xlink:href="#m6e7008206c" x="579.68125" y="476.75225" style="fill: #0000ff; stroke: #0000ff"/>
     <use xlink:href="#m6e7008206c" x="598.772869" y="484.524035" style="fill: #0000ff; stroke: #0000ff"/>
     <use xlink:href="#m6e7008206c" x="617.864489" y="498.540405" style="fill: #0000ff; stroke: #0000ff"/>
     <use xlink:href="#m6e7008206c" x="636.956108" y="470.372594" style="fill: #0000ff; stroke: #0000ff"/>
     <use xlink:href="#m6e7008206c" x="656.047727" y="533.856972" style="fill: #0000ff; stroke: #0000ff"/>
    </g>
   </g>
   <g id="line2d_46">
    <path d="M 675.139347 494.168755 
" clip-path="url(#p3704408af6)" style="fill: none; stroke: #008000; stroke-width: 1.5; stroke-linecap: square"/>
    <g clip-path="url(#p3704408af6)">
     <use xlink:href="#m1eb2c2cc61" x="675.139347" y="494.168755" style="fill: #008000; stroke: #008000"/>
    </g>
   </g>
   <g id="patch_15">
    <path d="M 33.660938 615.44 
L 33.660938 428.44 
" style="fill: none; stroke: #000000; stroke-width: 0.8; stroke-linejoin: miter; stroke-linecap: square"/>
   </g>
   <g id="patch_16">
    <path d="M 705.685937 615.44 
L 705.685937 428.44 
" style="fill: none; stroke: #000000; stroke-width: 0.8; stroke-linejoin: miter; stroke-linecap: square"/>
   </g>
   <g id="patch_17">
    <path d="M 33.660938 615.44 
L 705.685937 615.44 
" style="fill: none; stroke: #000000; stroke-width: 0.8; stroke-linejoin: miter; stroke-linecap: square"/>
   </g>
   <g id="patch_18">
    <path d="M 33.660938 428.44 
L 705.685937 428.44 
" style="fill: none; stroke: #000000; stroke-width: 0.8; stroke-linejoin: miter; stroke-linecap: square"/>
   </g>
   <g id="legend_3">
    <g id="patch_19">
     <path d="M 40.660938 479.110312 
L 127.142188 479.110312 
Q 129.142188 479.110312 129.142188 477.110312 
L 129.142188 435.44 
Q 129.142188 433.44 127.142188 433.44 
L 40.660938 433.44 
Q 38.660938 433.44 38.660938 435.44 
L 38.660938 477.110312 
Q 38.660938 479.110312 40.660938 479.110312 
z
" style="fill: #ffffff; opacity: 0.8; stroke: #cccccc; stroke-linejoin: miter"/>
    </g>
    <g id="line2d_47">
     <path d="M 42.660938 441.097812 
L 52.660938 441.097812 
L 62.660938 441.097812 
" style="fill: none; stroke: #0000ff; stroke-width: 1.5; stroke-linecap: square"/>
     <g>
      <use xlink:href="#m6e7008206c" x="52.660938" y="441.097812" style="fill: #0000ff; stroke: #0000ff"/>
     </g>
    </g>
    <g id="text_29">
     <!-- x waarde -->
     <g transform="translate(70.660938 444.597812)scale(0.1 -0.1)">
      <use xlink:href="#ArialMT-78"/>
      <use xlink:href="#ArialMT-20" x="50"/>
      <use xlink:href="#ArialMT-77" x="77.783203"/>
      <use xlink:href="#ArialMT-61" x="150"/>
      <use xlink:href="#ArialMT-61" x="205.615234"/>
      <use xlink:href="#ArialMT-72" x="261.230469"/>
      <use xlink:href="#ArialMT-64" x="294.53125"/>
      <use xlink:href="#ArialMT-65" x="350.146484"/>
     </g>
    </g>
    <g id="line2d_48">
     <path d="M 42.660938 455.243125 
L 52.660938 455.243125 
L 62.660938 455.243125 
" style="fill: none; stroke: #008000; stroke-width: 1.5; stroke-linecap: square"/>
     <g>
      <use xlink:href="#m1eb2c2cc61" x="52.660938" y="455.243125" style="fill: #008000; stroke: #008000"/>
     </g>
    </g>
    <g id="text_30">
     <!-- y waarde -->
     <g transform="translate(70.660938 458.743125)scale(0.1 -0.1)">
      <use xlink:href="#ArialMT-79"/>
      <use xlink:href="#ArialMT-20" x="50"/>
      <use xlink:href="#ArialMT-77" x="77.783203"/>
      <use xlink:href="#ArialMT-61" x="150"/>
      <use xlink:href="#ArialMT-61" x="205.615234"/>
      <use xlink:href="#ArialMT-72" x="261.230469"/>
      <use xlink:href="#ArialMT-64" x="294.53125"/>
      <use xlink:href="#ArialMT-65" x="350.146484"/>
     </g>
    </g>
    <g id="PathCollection_9">
     <g>
      <use xlink:href="#m9cc55f3b92" x="52.660938" y="470.380625" style="fill: #ff7f0e; stroke: #000000"/>
     </g>
    </g>
    <g id="text_31">
     <!-- Voorspelling -->
     <g transform="translate(70.660938 473.005625)scale(0.1 -0.1)">
      <use xlink:href="#ArialMT-56"/>
      <use xlink:href="#ArialMT-6f" x="61.199219"/>
      <use xlink:href="#ArialMT-6f" x="116.814453"/>
      <use xlink:href="#ArialMT-72" x="172.429688"/>
      <use xlink:href="#ArialMT-73" x="205.730469"/>
      <use xlink:href="#ArialMT-70" x="255.730469"/>
      <use xlink:href="#ArialMT-65" x="311.345703"/>
      <use xlink:href="#ArialMT-6c" x="366.960938"/>
      <use xlink:href="#ArialMT-6c" x="389.177734"/>
      <use xlink:href="#ArialMT-69" x="411.394531"/>
      <use xlink:href="#ArialMT-6e" x="433.611328"/>
      <use xlink:href="#ArialMT-67" x="489.226562"/>
     </g>
    </g>
   </g>
  </g>
  <g id="text_32">
   <!-- 16_RNN_NO_CONV_Adam -->
   <g transform="translate(281.45875 15.943125)scale(0.12 -0.12)">
    <defs>
     <path id="ArialMT-5f" d="M -97 -1272 
L -97 -866 
L 3631 -866 
L 3631 -1272 
L -97 -1272 
z
" transform="scale(0.015625)"/>
     <path id="ArialMT-52" d="M 503 0 
L 503 4581 
L 2534 4581 
Q 3147 4581 3465 4457 
Q 3784 4334 3975 4021 
Q 4166 3709 4166 3331 
Q 4166 2844 3850 2509 
Q 3534 2175 2875 2084 
Q 3116 1969 3241 1856 
Q 3506 1613 3744 1247 
L 4541 0 
L 3778 0 
L 3172 953 
Q 2906 1366 2734 1584 
Q 2563 1803 2427 1890 
Q 2291 1978 2150 2013 
Q 2047 2034 1813 2034 
L 1109 2034 
L 1109 0 
L 503 0 
z
M 1109 2559 
L 2413 2559 
Q 2828 2559 3062 2645 
Q 3297 2731 3419 2920 
Q 3541 3109 3541 3331 
Q 3541 3656 3305 3865 
Q 3069 4075 2559 4075 
L 1109 4075 
L 1109 2559 
z
" transform="scale(0.015625)"/>
     <path id="ArialMT-4e" d="M 488 0 
L 488 4581 
L 1109 4581 
L 3516 984 
L 3516 4581 
L 4097 4581 
L 4097 0 
L 3475 0 
L 1069 3600 
L 1069 0 
L 488 0 
z
" transform="scale(0.015625)"/>
     <path id="ArialMT-4f" d="M 309 2231 
Q 309 3372 921 4017 
Q 1534 4663 2503 4663 
Q 3138 4663 3647 4359 
Q 4156 4056 4423 3514 
Q 4691 2972 4691 2284 
Q 4691 1588 4409 1038 
Q 4128 488 3612 205 
Q 3097 -78 2500 -78 
Q 1853 -78 1343 234 
Q 834 547 571 1087 
Q 309 1628 309 2231 
z
M 934 2222 
Q 934 1394 1379 917 
Q 1825 441 2497 441 
Q 3181 441 3623 922 
Q 4066 1403 4066 2288 
Q 4066 2847 3877 3264 
Q 3688 3681 3323 3911 
Q 2959 4141 2506 4141 
Q 1863 4141 1398 3698 
Q 934 3256 934 2222 
z
" transform="scale(0.015625)"/>
     <path id="ArialMT-43" d="M 3763 1606 
L 4369 1453 
Q 4178 706 3683 314 
Q 3188 -78 2472 -78 
Q 1731 -78 1267 223 
Q 803 525 561 1097 
Q 319 1669 319 2325 
Q 319 3041 592 3573 
Q 866 4106 1370 4382 
Q 1875 4659 2481 4659 
Q 3169 4659 3637 4309 
Q 4106 3959 4291 3325 
L 3694 3184 
Q 3534 3684 3231 3912 
Q 2928 4141 2469 4141 
Q 1941 4141 1586 3887 
Q 1231 3634 1087 3207 
Q 944 2781 944 2328 
Q 944 1744 1114 1308 
Q 1284 872 1643 656 
Q 2003 441 2422 441 
Q 2931 441 3284 734 
Q 3638 1028 3763 1606 
z
" transform="scale(0.015625)"/>
     <path id="ArialMT-41" d="M -9 0 
L 1750 4581 
L 2403 4581 
L 4278 0 
L 3588 0 
L 3053 1388 
L 1138 1388 
L 634 0 
L -9 0 
z
M 1313 1881 
L 2866 1881 
L 2388 3150 
Q 2169 3728 2063 4100 
Q 1975 3659 1816 3225 
L 1313 1881 
z
" transform="scale(0.015625)"/>
     <path id="ArialMT-6d" d="M 422 0 
L 422 3319 
L 925 3319 
L 925 2853 
Q 1081 3097 1340 3245 
Q 1600 3394 1931 3394 
Q 2300 3394 2536 3241 
Q 2772 3088 2869 2813 
Q 3263 3394 3894 3394 
Q 4388 3394 4653 3120 
Q 4919 2847 4919 2278 
L 4919 0 
L 4359 0 
L 4359 2091 
Q 4359 2428 4304 2576 
Q 4250 2725 4106 2815 
Q 3963 2906 3769 2906 
Q 3419 2906 3187 2673 
Q 2956 2441 2956 1928 
L 2956 0 
L 2394 0 
L 2394 2156 
Q 2394 2531 2256 2718 
Q 2119 2906 1806 2906 
Q 1569 2906 1367 2781 
Q 1166 2656 1075 2415 
Q 984 2175 984 1722 
L 984 0 
L 422 0 
z
" transform="scale(0.015625)"/>
    </defs>
    <use xlink:href="#ArialMT-31"/>
    <use xlink:href="#ArialMT-36" x="55.615234"/>
    <use xlink:href="#ArialMT-5f" x="111.230469"/>
    <use xlink:href="#ArialMT-52" x="166.845703"/>
    <use xlink:href="#ArialMT-4e" x="239.0625"/>
    <use xlink:href="#ArialMT-4e" x="311.279297"/>
    <use xlink:href="#ArialMT-5f" x="383.496094"/>
    <use xlink:href="#ArialMT-4e" x="439.111328"/>
    <use xlink:href="#ArialMT-4f" x="511.328125"/>
    <use xlink:href="#ArialMT-5f" x="589.111328"/>
    <use xlink:href="#ArialMT-43" x="644.726562"/>
    <use xlink:href="#ArialMT-4f" x="716.943359"/>
    <use xlink:href="#ArialMT-4e" x="794.726562"/>
    <use xlink:href="#ArialMT-56" x="866.943359"/>
    <use xlink:href="#ArialMT-5f" x="933.642578"/>
    <use xlink:href="#ArialMT-41" x="989.257812"/>
    <use xlink:href="#ArialMT-64" x="1055.957031"/>
    <use xlink:href="#ArialMT-61" x="1111.572266"/>
    <use xlink:href="#ArialMT-6d" x="1167.1875"/>
   </g>
  </g>
 </g>
 <defs>
  <clipPath id="pc47b0011a6">
   <rect x="33.660938" y="25.84" width="672.025" height="187"/>
  </clipPath>
  <clipPath id="pcd87ea1486">
   <rect x="33.660938" y="227.14" width="672.025" height="187"/>
  </clipPath>
  <clipPath id="p3704408af6">
   <rect x="33.660938" y="428.44" width="672.025" height="187"/>
  </clipPath>
 </defs>
</svg>
