<?xml version="1.0" encoding="utf-8" standalone="no"?>
<!DOCTYPE svg PUBLIC "-//W3C//DTD SVG 1.1//EN"
  "http://www.w3.org/Graphics/SVG/1.1/DTD/svg11.dtd">
<svg xmlns:xlink="http://www.w3.org/1999/xlink" width="657.453125pt" height="369.850625pt" viewBox="0 0 657.453125 369.850625" xmlns="http://www.w3.org/2000/svg" version="1.1">
 <metadata>
  <rdf:RDF xmlns:dc="http://purl.org/dc/elements/1.1/" xmlns:cc="http://creativecommons.org/ns#" xmlns:rdf="http://www.w3.org/1999/02/22-rdf-syntax-ns#">
   <cc:Work>
    <dc:type rdf:resource="http://purl.org/dc/dcmitype/StillImage"/>
    <dc:date>2022-02-09T10:07:29.568245</dc:date>
    <dc:format>image/svg+xml</dc:format>
    <dc:creator>
     <cc:Agent>
      <dc:title>Matplotlib v3.5.1, https://matplotlib.org/</dc:title>
     </cc:Agent>
    </dc:creator>
   </cc:Work>
  </rdf:RDF>
 </metadata>
 <defs>
  <style type="text/css">*{stroke-linejoin: round; stroke-linecap: butt}</style>
 </defs>
 <g id="figure_1">
  <g id="patch_1">
   <path d="M 0 369.850625 
L 657.453125 369.850625 
L 657.453125 0 
L 0 0 
L 0 369.850625 
z
" style="fill: none"/>
  </g>
  <g id="axes_1">
   <g id="patch_2">
    <path d="M 52.367188 333.36 
L 610.367188 333.36 
L 610.367188 7.2 
L 52.367188 7.2 
z
" style="fill: #ffffff"/>
   </g>
   <g id="matplotlib.axis_1">
    <g id="xtick_1">
     <g id="line2d_1">
      <defs>
       <path id="m1c3e373d12" d="M 0 0 
L 0 3.5 
" style="stroke: #000000; stroke-width: 0.8"/>
      </defs>
      <g>
       <use xlink:href="#m1c3e373d12" x="77.041595" y="333.36" style="stroke: #000000; stroke-width: 0.8"/>
      </g>
     </g>
     <g id="text_1">
      <!-- 2020-01 -->
      <g transform="translate(58.693938 347.517813)scale(0.1 -0.1)">
       <defs>
        <path id="ArialMT-32" d="M 3222 541 
L 3222 0 
L 194 0 
Q 188 203 259 391 
Q 375 700 629 1000 
Q 884 1300 1366 1694 
Q 2113 2306 2375 2664 
Q 2638 3022 2638 3341 
Q 2638 3675 2398 3904 
Q 2159 4134 1775 4134 
Q 1369 4134 1125 3890 
Q 881 3647 878 3216 
L 300 3275 
Q 359 3922 746 4261 
Q 1134 4600 1788 4600 
Q 2447 4600 2831 4234 
Q 3216 3869 3216 3328 
Q 3216 3053 3103 2787 
Q 2991 2522 2730 2228 
Q 2469 1934 1863 1422 
Q 1356 997 1212 845 
Q 1069 694 975 541 
L 3222 541 
z
" transform="scale(0.015625)"/>
        <path id="ArialMT-30" d="M 266 2259 
Q 266 3072 433 3567 
Q 600 4063 929 4331 
Q 1259 4600 1759 4600 
Q 2128 4600 2406 4451 
Q 2684 4303 2865 4023 
Q 3047 3744 3150 3342 
Q 3253 2941 3253 2259 
Q 3253 1453 3087 958 
Q 2922 463 2592 192 
Q 2263 -78 1759 -78 
Q 1097 -78 719 397 
Q 266 969 266 2259 
z
M 844 2259 
Q 844 1131 1108 757 
Q 1372 384 1759 384 
Q 2147 384 2411 759 
Q 2675 1134 2675 2259 
Q 2675 3391 2411 3762 
Q 2147 4134 1753 4134 
Q 1366 4134 1134 3806 
Q 844 3388 844 2259 
z
" transform="scale(0.015625)"/>
        <path id="ArialMT-2d" d="M 203 1375 
L 203 1941 
L 1931 1941 
L 1931 1375 
L 203 1375 
z
" transform="scale(0.015625)"/>
        <path id="ArialMT-31" d="M 2384 0 
L 1822 0 
L 1822 3584 
Q 1619 3391 1289 3197 
Q 959 3003 697 2906 
L 697 3450 
Q 1169 3672 1522 3987 
Q 1875 4303 2022 4600 
L 2384 4600 
L 2384 0 
z
" transform="scale(0.015625)"/>
       </defs>
       <use xlink:href="#ArialMT-32"/>
       <use xlink:href="#ArialMT-30" x="55.615234"/>
       <use xlink:href="#ArialMT-32" x="111.230469"/>
       <use xlink:href="#ArialMT-30" x="166.845703"/>
       <use xlink:href="#ArialMT-2d" x="222.460938"/>
       <use xlink:href="#ArialMT-30" x="255.761719"/>
       <use xlink:href="#ArialMT-31" x="311.376953"/>
      </g>
     </g>
    </g>
    <g id="xtick_2">
     <g id="line2d_2">
      <g>
       <use xlink:href="#m1c3e373d12" x="139.761456" y="333.36" style="stroke: #000000; stroke-width: 0.8"/>
      </g>
     </g>
     <g id="text_2">
      <!-- 2020-04 -->
      <g transform="translate(121.4138 347.517813)scale(0.1 -0.1)">
       <defs>
        <path id="ArialMT-34" d="M 2069 0 
L 2069 1097 
L 81 1097 
L 81 1613 
L 2172 4581 
L 2631 4581 
L 2631 1613 
L 3250 1613 
L 3250 1097 
L 2631 1097 
L 2631 0 
L 2069 0 
z
M 2069 1613 
L 2069 3678 
L 634 1613 
L 2069 1613 
z
" transform="scale(0.015625)"/>
       </defs>
       <use xlink:href="#ArialMT-32"/>
       <use xlink:href="#ArialMT-30" x="55.615234"/>
       <use xlink:href="#ArialMT-32" x="111.230469"/>
       <use xlink:href="#ArialMT-30" x="166.845703"/>
       <use xlink:href="#ArialMT-2d" x="222.460938"/>
       <use xlink:href="#ArialMT-30" x="255.761719"/>
       <use xlink:href="#ArialMT-34" x="311.376953"/>
      </g>
     </g>
    </g>
    <g id="xtick_3">
     <g id="line2d_3">
      <g>
       <use xlink:href="#m1c3e373d12" x="202.481318" y="333.36" style="stroke: #000000; stroke-width: 0.8"/>
      </g>
     </g>
     <g id="text_3">
      <!-- 2020-07 -->
      <g transform="translate(184.133662 347.517813)scale(0.1 -0.1)">
       <defs>
        <path id="ArialMT-37" d="M 303 3981 
L 303 4522 
L 3269 4522 
L 3269 4084 
Q 2831 3619 2401 2847 
Q 1972 2075 1738 1259 
Q 1569 684 1522 0 
L 944 0 
Q 953 541 1156 1306 
Q 1359 2072 1739 2783 
Q 2119 3494 2547 3981 
L 303 3981 
z
" transform="scale(0.015625)"/>
       </defs>
       <use xlink:href="#ArialMT-32"/>
       <use xlink:href="#ArialMT-30" x="55.615234"/>
       <use xlink:href="#ArialMT-32" x="111.230469"/>
       <use xlink:href="#ArialMT-30" x="166.845703"/>
       <use xlink:href="#ArialMT-2d" x="222.460938"/>
       <use xlink:href="#ArialMT-30" x="255.761719"/>
       <use xlink:href="#ArialMT-37" x="311.376953"/>
      </g>
     </g>
    </g>
    <g id="xtick_4">
     <g id="line2d_4">
      <g>
       <use xlink:href="#m1c3e373d12" x="265.890409" y="333.36" style="stroke: #000000; stroke-width: 0.8"/>
      </g>
     </g>
     <g id="text_4">
      <!-- 2020-10 -->
      <g transform="translate(247.542753 347.517813)scale(0.1 -0.1)">
       <use xlink:href="#ArialMT-32"/>
       <use xlink:href="#ArialMT-30" x="55.615234"/>
       <use xlink:href="#ArialMT-32" x="111.230469"/>
       <use xlink:href="#ArialMT-30" x="166.845703"/>
       <use xlink:href="#ArialMT-2d" x="222.460938"/>
       <use xlink:href="#ArialMT-31" x="255.761719"/>
       <use xlink:href="#ArialMT-30" x="311.376953"/>
      </g>
     </g>
    </g>
    <g id="xtick_5">
     <g id="line2d_5">
      <g>
       <use xlink:href="#m1c3e373d12" x="329.2995" y="333.36" style="stroke: #000000; stroke-width: 0.8"/>
      </g>
     </g>
     <g id="text_5">
      <!-- 2021-01 -->
      <g transform="translate(310.951844 347.517813)scale(0.1 -0.1)">
       <use xlink:href="#ArialMT-32"/>
       <use xlink:href="#ArialMT-30" x="55.615234"/>
       <use xlink:href="#ArialMT-32" x="111.230469"/>
       <use xlink:href="#ArialMT-31" x="166.845703"/>
       <use xlink:href="#ArialMT-2d" x="222.460938"/>
       <use xlink:href="#ArialMT-30" x="255.761719"/>
       <use xlink:href="#ArialMT-31" x="311.376953"/>
      </g>
     </g>
    </g>
    <g id="xtick_6">
     <g id="line2d_6">
      <g>
       <use xlink:href="#m1c3e373d12" x="391.330132" y="333.36" style="stroke: #000000; stroke-width: 0.8"/>
      </g>
     </g>
     <g id="text_6">
      <!-- 2021-04 -->
      <g transform="translate(372.982476 347.517813)scale(0.1 -0.1)">
       <use xlink:href="#ArialMT-32"/>
       <use xlink:href="#ArialMT-30" x="55.615234"/>
       <use xlink:href="#ArialMT-32" x="111.230469"/>
       <use xlink:href="#ArialMT-31" x="166.845703"/>
       <use xlink:href="#ArialMT-2d" x="222.460938"/>
       <use xlink:href="#ArialMT-30" x="255.761719"/>
       <use xlink:href="#ArialMT-34" x="311.376953"/>
      </g>
     </g>
    </g>
    <g id="xtick_7">
     <g id="line2d_7">
      <g>
       <use xlink:href="#m1c3e373d12" x="454.049994" y="333.36" style="stroke: #000000; stroke-width: 0.8"/>
      </g>
     </g>
     <g id="text_7">
      <!-- 2021-07 -->
      <g transform="translate(435.702338 347.517813)scale(0.1 -0.1)">
       <use xlink:href="#ArialMT-32"/>
       <use xlink:href="#ArialMT-30" x="55.615234"/>
       <use xlink:href="#ArialMT-32" x="111.230469"/>
       <use xlink:href="#ArialMT-31" x="166.845703"/>
       <use xlink:href="#ArialMT-2d" x="222.460938"/>
       <use xlink:href="#ArialMT-30" x="255.761719"/>
       <use xlink:href="#ArialMT-37" x="311.376953"/>
      </g>
     </g>
    </g>
    <g id="xtick_8">
     <g id="line2d_8">
      <g>
       <use xlink:href="#m1c3e373d12" x="517.459085" y="333.36" style="stroke: #000000; stroke-width: 0.8"/>
      </g>
     </g>
     <g id="text_8">
      <!-- 2021-10 -->
      <g transform="translate(499.111428 347.517813)scale(0.1 -0.1)">
       <use xlink:href="#ArialMT-32"/>
       <use xlink:href="#ArialMT-30" x="55.615234"/>
       <use xlink:href="#ArialMT-32" x="111.230469"/>
       <use xlink:href="#ArialMT-31" x="166.845703"/>
       <use xlink:href="#ArialMT-2d" x="222.460938"/>
       <use xlink:href="#ArialMT-31" x="255.761719"/>
       <use xlink:href="#ArialMT-30" x="311.376953"/>
      </g>
     </g>
    </g>
    <g id="xtick_9">
     <g id="line2d_9">
      <g>
       <use xlink:href="#m1c3e373d12" x="580.868176" y="333.36" style="stroke: #000000; stroke-width: 0.8"/>
      </g>
     </g>
     <g id="text_9">
      <!-- 2022-01 -->
      <g transform="translate(562.520519 347.517813)scale(0.1 -0.1)">
       <use xlink:href="#ArialMT-32"/>
       <use xlink:href="#ArialMT-30" x="55.615234"/>
       <use xlink:href="#ArialMT-32" x="111.230469"/>
       <use xlink:href="#ArialMT-32" x="166.845703"/>
       <use xlink:href="#ArialMT-2d" x="222.460938"/>
       <use xlink:href="#ArialMT-30" x="255.761719"/>
       <use xlink:href="#ArialMT-31" x="311.376953"/>
      </g>
     </g>
    </g>
    <g id="text_10">
     <!-- Rate date -->
     <g transform="translate(309.686719 360.663125)scale(0.1 -0.1)">
      <defs>
       <path id="ArialMT-52" d="M 503 0 
L 503 4581 
L 2534 4581 
Q 3147 4581 3465 4457 
Q 3784 4334 3975 4021 
Q 4166 3709 4166 3331 
Q 4166 2844 3850 2509 
Q 3534 2175 2875 2084 
Q 3116 1969 3241 1856 
Q 3506 1613 3744 1247 
L 4541 0 
L 3778 0 
L 3172 953 
Q 2906 1366 2734 1584 
Q 2563 1803 2427 1890 
Q 2291 1978 2150 2013 
Q 2047 2034 1813 2034 
L 1109 2034 
L 1109 0 
L 503 0 
z
M 1109 2559 
L 2413 2559 
Q 2828 2559 3062 2645 
Q 3297 2731 3419 2920 
Q 3541 3109 3541 3331 
Q 3541 3656 3305 3865 
Q 3069 4075 2559 4075 
L 1109 4075 
L 1109 2559 
z
" transform="scale(0.015625)"/>
       <path id="ArialMT-61" d="M 2588 409 
Q 2275 144 1986 34 
Q 1697 -75 1366 -75 
Q 819 -75 525 192 
Q 231 459 231 875 
Q 231 1119 342 1320 
Q 453 1522 633 1644 
Q 813 1766 1038 1828 
Q 1203 1872 1538 1913 
Q 2219 1994 2541 2106 
Q 2544 2222 2544 2253 
Q 2544 2597 2384 2738 
Q 2169 2928 1744 2928 
Q 1347 2928 1158 2789 
Q 969 2650 878 2297 
L 328 2372 
Q 403 2725 575 2942 
Q 747 3159 1072 3276 
Q 1397 3394 1825 3394 
Q 2250 3394 2515 3294 
Q 2781 3194 2906 3042 
Q 3031 2891 3081 2659 
Q 3109 2516 3109 2141 
L 3109 1391 
Q 3109 606 3145 398 
Q 3181 191 3288 0 
L 2700 0 
Q 2613 175 2588 409 
z
M 2541 1666 
Q 2234 1541 1622 1453 
Q 1275 1403 1131 1340 
Q 988 1278 909 1158 
Q 831 1038 831 891 
Q 831 666 1001 516 
Q 1172 366 1500 366 
Q 1825 366 2078 508 
Q 2331 650 2450 897 
Q 2541 1088 2541 1459 
L 2541 1666 
z
" transform="scale(0.015625)"/>
       <path id="ArialMT-74" d="M 1650 503 
L 1731 6 
Q 1494 -44 1306 -44 
Q 1000 -44 831 53 
Q 663 150 594 308 
Q 525 466 525 972 
L 525 2881 
L 113 2881 
L 113 3319 
L 525 3319 
L 525 4141 
L 1084 4478 
L 1084 3319 
L 1650 3319 
L 1650 2881 
L 1084 2881 
L 1084 941 
Q 1084 700 1114 631 
Q 1144 563 1211 522 
Q 1278 481 1403 481 
Q 1497 481 1650 503 
z
" transform="scale(0.015625)"/>
       <path id="ArialMT-65" d="M 2694 1069 
L 3275 997 
Q 3138 488 2766 206 
Q 2394 -75 1816 -75 
Q 1088 -75 661 373 
Q 234 822 234 1631 
Q 234 2469 665 2931 
Q 1097 3394 1784 3394 
Q 2450 3394 2872 2941 
Q 3294 2488 3294 1666 
Q 3294 1616 3291 1516 
L 816 1516 
Q 847 969 1125 678 
Q 1403 388 1819 388 
Q 2128 388 2347 550 
Q 2566 713 2694 1069 
z
M 847 1978 
L 2700 1978 
Q 2663 2397 2488 2606 
Q 2219 2931 1791 2931 
Q 1403 2931 1139 2672 
Q 875 2413 847 1978 
z
" transform="scale(0.015625)"/>
       <path id="ArialMT-20" transform="scale(0.015625)"/>
       <path id="ArialMT-64" d="M 2575 0 
L 2575 419 
Q 2259 -75 1647 -75 
Q 1250 -75 917 144 
Q 584 363 401 755 
Q 219 1147 219 1656 
Q 219 2153 384 2558 
Q 550 2963 881 3178 
Q 1213 3394 1622 3394 
Q 1922 3394 2156 3267 
Q 2391 3141 2538 2938 
L 2538 4581 
L 3097 4581 
L 3097 0 
L 2575 0 
z
M 797 1656 
Q 797 1019 1065 703 
Q 1334 388 1700 388 
Q 2069 388 2326 689 
Q 2584 991 2584 1609 
Q 2584 2291 2321 2609 
Q 2059 2928 1675 2928 
Q 1300 2928 1048 2622 
Q 797 2316 797 1656 
z
" transform="scale(0.015625)"/>
      </defs>
      <use xlink:href="#ArialMT-52"/>
      <use xlink:href="#ArialMT-61" x="72.216797"/>
      <use xlink:href="#ArialMT-74" x="127.832031"/>
      <use xlink:href="#ArialMT-65" x="155.615234"/>
      <use xlink:href="#ArialMT-20" x="211.230469"/>
      <use xlink:href="#ArialMT-64" x="239.013672"/>
      <use xlink:href="#ArialMT-61" x="294.628906"/>
      <use xlink:href="#ArialMT-74" x="350.244141"/>
      <use xlink:href="#ArialMT-65" x="378.027344"/>
     </g>
    </g>
   </g>
   <g id="matplotlib.axis_2">
    <g id="ytick_1">
     <g id="line2d_10">
      <defs>
       <path id="m18e951f77b" d="M 0 0 
L -3.5 0 
" style="stroke: #000000; stroke-width: 0.8"/>
      </defs>
      <g>
       <use xlink:href="#m18e951f77b" x="52.367188" y="306.19725" style="stroke: #000000; stroke-width: 0.8"/>
      </g>
     </g>
     <g id="text_11">
      <!-- 102.5 -->
      <g transform="translate(20.345312 309.776156)scale(0.1 -0.1)">
       <defs>
        <path id="ArialMT-2e" d="M 581 0 
L 581 641 
L 1222 641 
L 1222 0 
L 581 0 
z
" transform="scale(0.015625)"/>
        <path id="ArialMT-35" d="M 266 1200 
L 856 1250 
Q 922 819 1161 601 
Q 1400 384 1738 384 
Q 2144 384 2425 690 
Q 2706 997 2706 1503 
Q 2706 1984 2436 2262 
Q 2166 2541 1728 2541 
Q 1456 2541 1237 2417 
Q 1019 2294 894 2097 
L 366 2166 
L 809 4519 
L 3088 4519 
L 3088 3981 
L 1259 3981 
L 1013 2750 
Q 1425 3038 1878 3038 
Q 2478 3038 2890 2622 
Q 3303 2206 3303 1553 
Q 3303 931 2941 478 
Q 2500 -78 1738 -78 
Q 1113 -78 717 272 
Q 322 622 266 1200 
z
" transform="scale(0.015625)"/>
       </defs>
       <use xlink:href="#ArialMT-31"/>
       <use xlink:href="#ArialMT-30" x="55.615234"/>
       <use xlink:href="#ArialMT-32" x="111.230469"/>
       <use xlink:href="#ArialMT-2e" x="166.845703"/>
       <use xlink:href="#ArialMT-35" x="194.628906"/>
      </g>
     </g>
    </g>
    <g id="ytick_2">
     <g id="line2d_11">
      <g>
       <use xlink:href="#m18e951f77b" x="52.367188" y="264.79693" style="stroke: #000000; stroke-width: 0.8"/>
      </g>
     </g>
     <g id="text_12">
      <!-- 103.0 -->
      <g transform="translate(20.345312 268.375837)scale(0.1 -0.1)">
       <defs>
        <path id="ArialMT-33" d="M 269 1209 
L 831 1284 
Q 928 806 1161 595 
Q 1394 384 1728 384 
Q 2125 384 2398 659 
Q 2672 934 2672 1341 
Q 2672 1728 2419 1979 
Q 2166 2231 1775 2231 
Q 1616 2231 1378 2169 
L 1441 2663 
Q 1497 2656 1531 2656 
Q 1891 2656 2178 2843 
Q 2466 3031 2466 3422 
Q 2466 3731 2256 3934 
Q 2047 4138 1716 4138 
Q 1388 4138 1169 3931 
Q 950 3725 888 3313 
L 325 3413 
Q 428 3978 793 4289 
Q 1159 4600 1703 4600 
Q 2078 4600 2393 4439 
Q 2709 4278 2876 4000 
Q 3044 3722 3044 3409 
Q 3044 3113 2884 2869 
Q 2725 2625 2413 2481 
Q 2819 2388 3044 2092 
Q 3269 1797 3269 1353 
Q 3269 753 2831 336 
Q 2394 -81 1725 -81 
Q 1122 -81 723 278 
Q 325 638 269 1209 
z
" transform="scale(0.015625)"/>
       </defs>
       <use xlink:href="#ArialMT-31"/>
       <use xlink:href="#ArialMT-30" x="55.615234"/>
       <use xlink:href="#ArialMT-33" x="111.230469"/>
       <use xlink:href="#ArialMT-2e" x="166.845703"/>
       <use xlink:href="#ArialMT-30" x="194.628906"/>
      </g>
     </g>
    </g>
    <g id="ytick_3">
     <g id="line2d_12">
      <g>
       <use xlink:href="#m18e951f77b" x="52.367188" y="223.39661" style="stroke: #000000; stroke-width: 0.8"/>
      </g>
     </g>
     <g id="text_13">
      <!-- 103.5 -->
      <g transform="translate(20.345312 226.975517)scale(0.1 -0.1)">
       <use xlink:href="#ArialMT-31"/>
       <use xlink:href="#ArialMT-30" x="55.615234"/>
       <use xlink:href="#ArialMT-33" x="111.230469"/>
       <use xlink:href="#ArialMT-2e" x="166.845703"/>
       <use xlink:href="#ArialMT-35" x="194.628906"/>
      </g>
     </g>
    </g>
    <g id="ytick_4">
     <g id="line2d_13">
      <g>
       <use xlink:href="#m18e951f77b" x="52.367188" y="181.996291" style="stroke: #000000; stroke-width: 0.8"/>
      </g>
     </g>
     <g id="text_14">
      <!-- 104.0 -->
      <g transform="translate(20.345312 185.575197)scale(0.1 -0.1)">
       <use xlink:href="#ArialMT-31"/>
       <use xlink:href="#ArialMT-30" x="55.615234"/>
       <use xlink:href="#ArialMT-34" x="111.230469"/>
       <use xlink:href="#ArialMT-2e" x="166.845703"/>
       <use xlink:href="#ArialMT-30" x="194.628906"/>
      </g>
     </g>
    </g>
    <g id="ytick_5">
     <g id="line2d_14">
      <g>
       <use xlink:href="#m18e951f77b" x="52.367188" y="140.595971" style="stroke: #000000; stroke-width: 0.8"/>
      </g>
     </g>
     <g id="text_15">
      <!-- 104.5 -->
      <g transform="translate(20.345312 144.174877)scale(0.1 -0.1)">
       <use xlink:href="#ArialMT-31"/>
       <use xlink:href="#ArialMT-30" x="55.615234"/>
       <use xlink:href="#ArialMT-34" x="111.230469"/>
       <use xlink:href="#ArialMT-2e" x="166.845703"/>
       <use xlink:href="#ArialMT-35" x="194.628906"/>
      </g>
     </g>
    </g>
    <g id="ytick_6">
     <g id="line2d_15">
      <g>
       <use xlink:href="#m18e951f77b" x="52.367188" y="99.195651" style="stroke: #000000; stroke-width: 0.8"/>
      </g>
     </g>
     <g id="text_16">
      <!-- 105.0 -->
      <g transform="translate(20.345312 102.774557)scale(0.1 -0.1)">
       <use xlink:href="#ArialMT-31"/>
       <use xlink:href="#ArialMT-30" x="55.615234"/>
       <use xlink:href="#ArialMT-35" x="111.230469"/>
       <use xlink:href="#ArialMT-2e" x="166.845703"/>
       <use xlink:href="#ArialMT-30" x="194.628906"/>
      </g>
     </g>
    </g>
    <g id="ytick_7">
     <g id="line2d_16">
      <g>
       <use xlink:href="#m18e951f77b" x="52.367188" y="57.795331" style="stroke: #000000; stroke-width: 0.8"/>
      </g>
     </g>
     <g id="text_17">
      <!-- 105.5 -->
      <g transform="translate(20.345312 61.374237)scale(0.1 -0.1)">
       <use xlink:href="#ArialMT-31"/>
       <use xlink:href="#ArialMT-30" x="55.615234"/>
       <use xlink:href="#ArialMT-35" x="111.230469"/>
       <use xlink:href="#ArialMT-2e" x="166.845703"/>
       <use xlink:href="#ArialMT-35" x="194.628906"/>
      </g>
     </g>
    </g>
    <g id="ytick_8">
     <g id="line2d_17">
      <g>
       <use xlink:href="#m18e951f77b" x="52.367188" y="16.395011" style="stroke: #000000; stroke-width: 0.8"/>
      </g>
     </g>
     <g id="text_18">
      <!-- 106.0 -->
      <g transform="translate(20.345312 19.973917)scale(0.1 -0.1)">
       <defs>
        <path id="ArialMT-36" d="M 3184 3459 
L 2625 3416 
Q 2550 3747 2413 3897 
Q 2184 4138 1850 4138 
Q 1581 4138 1378 3988 
Q 1113 3794 959 3422 
Q 806 3050 800 2363 
Q 1003 2672 1297 2822 
Q 1591 2972 1913 2972 
Q 2475 2972 2870 2558 
Q 3266 2144 3266 1488 
Q 3266 1056 3080 686 
Q 2894 316 2569 119 
Q 2244 -78 1831 -78 
Q 1128 -78 684 439 
Q 241 956 241 2144 
Q 241 3472 731 4075 
Q 1159 4600 1884 4600 
Q 2425 4600 2770 4297 
Q 3116 3994 3184 3459 
z
M 888 1484 
Q 888 1194 1011 928 
Q 1134 663 1356 523 
Q 1578 384 1822 384 
Q 2178 384 2434 671 
Q 2691 959 2691 1453 
Q 2691 1928 2437 2201 
Q 2184 2475 1800 2475 
Q 1419 2475 1153 2201 
Q 888 1928 888 1484 
z
" transform="scale(0.015625)"/>
       </defs>
       <use xlink:href="#ArialMT-31"/>
       <use xlink:href="#ArialMT-30" x="55.615234"/>
       <use xlink:href="#ArialMT-36" x="111.230469"/>
       <use xlink:href="#ArialMT-2e" x="166.845703"/>
       <use xlink:href="#ArialMT-30" x="194.628906"/>
      </g>
     </g>
    </g>
    <g id="text_19">
     <!-- Price -->
     <g transform="translate(14.357812 181.671406)rotate(-90)scale(0.1 -0.1)">
      <defs>
       <path id="ArialMT-50" d="M 494 0 
L 494 4581 
L 2222 4581 
Q 2678 4581 2919 4538 
Q 3256 4481 3484 4323 
Q 3713 4166 3852 3881 
Q 3991 3597 3991 3256 
Q 3991 2672 3619 2267 
Q 3247 1863 2275 1863 
L 1100 1863 
L 1100 0 
L 494 0 
z
M 1100 2403 
L 2284 2403 
Q 2872 2403 3119 2622 
Q 3366 2841 3366 3238 
Q 3366 3525 3220 3729 
Q 3075 3934 2838 4000 
Q 2684 4041 2272 4041 
L 1100 4041 
L 1100 2403 
z
" transform="scale(0.015625)"/>
       <path id="ArialMT-72" d="M 416 0 
L 416 3319 
L 922 3319 
L 922 2816 
Q 1116 3169 1280 3281 
Q 1444 3394 1641 3394 
Q 1925 3394 2219 3213 
L 2025 2691 
Q 1819 2813 1613 2813 
Q 1428 2813 1281 2702 
Q 1134 2591 1072 2394 
Q 978 2094 978 1738 
L 978 0 
L 416 0 
z
" transform="scale(0.015625)"/>
       <path id="ArialMT-69" d="M 425 3934 
L 425 4581 
L 988 4581 
L 988 3934 
L 425 3934 
z
M 425 0 
L 425 3319 
L 988 3319 
L 988 0 
L 425 0 
z
" transform="scale(0.015625)"/>
       <path id="ArialMT-63" d="M 2588 1216 
L 3141 1144 
Q 3050 572 2676 248 
Q 2303 -75 1759 -75 
Q 1078 -75 664 370 
Q 250 816 250 1647 
Q 250 2184 428 2587 
Q 606 2991 970 3192 
Q 1334 3394 1763 3394 
Q 2303 3394 2647 3120 
Q 2991 2847 3088 2344 
L 2541 2259 
Q 2463 2594 2264 2762 
Q 2066 2931 1784 2931 
Q 1359 2931 1093 2626 
Q 828 2322 828 1663 
Q 828 994 1084 691 
Q 1341 388 1753 388 
Q 2084 388 2306 591 
Q 2528 794 2588 1216 
z
" transform="scale(0.015625)"/>
      </defs>
      <use xlink:href="#ArialMT-50"/>
      <use xlink:href="#ArialMT-72" x="66.699219"/>
      <use xlink:href="#ArialMT-69" x="100"/>
      <use xlink:href="#ArialMT-63" x="122.216797"/>
      <use xlink:href="#ArialMT-65" x="172.216797"/>
     </g>
    </g>
   </g>
   <g id="line2d_18">
    <path d="M 77.730824 222.320202 
L 78.420053 203.193254 
L 80.487741 193.257178 
L 81.17697 196.1552 
L 81.866199 205.925675 
L 82.555429 218.511373 
L 85.312346 228.447449 
L 86.001575 225.96343 
L 86.690804 216.93816 
L 87.380033 213.294932 
L 88.069263 217.683366 
L 90.13695 217.434964 
L 90.82618 216.93816 
L 92.204638 195.161592 
L 92.893867 190.93876 
L 94.961555 167.506179 
L 95.650784 172.88822 
L 96.340014 167.506179 
L 97.029243 159.474517 
L 97.718472 148.29643 
L 99.78616 147.634025 
L 101.164618 171.646211 
L 101.853848 175.620641 
L 102.543077 161.047729 
L 104.610765 159.97132 
L 105.299994 156.907697 
L 105.989223 162.952143 
L 106.678452 159.88852 
L 107.367682 153.595671 
L 109.435369 156.07969 
L 110.124599 157.984105 
L 111.503057 152.436462 
L 112.192286 152.602063 
L 114.949203 133.640717 
L 115.638433 134.303122 
L 116.327662 112.857756 
L 117.016891 95.469622 
L 119.084579 83.794732 
L 119.773808 102.176474 
L 120.463037 81.641915 
L 121.152267 70.298228 
L 121.841496 64.005379 
L 123.909184 22.025455 
L 124.598413 62.100964 
L 125.287642 69.38742 
L 125.976871 94.724416 
L 126.666101 146.723218 
L 128.733788 196.1552 
L 129.423018 189.862351 
L 130.112247 273.739399 
L 130.801476 302.140019 
L 131.490705 262.809715 
L 133.558393 236.727513 
L 134.247622 251.134825 
L 134.936852 262.561313 
L 135.626081 230.931469 
L 136.31531 168.499786 
L 138.382998 153.098867 
L 139.072227 165.436163 
L 139.761456 193.671181 
L 140.450686 204.104061 
L 141.139915 203.607257 
L 143.207603 215.282148 
L 143.896832 242.026754 
L 144.586061 251.714429 
L 145.27529 231.014269 
L 148.721437 214.122939 
L 149.410666 196.734804 
L 150.099895 195.327194 
L 150.789124 193.58838 
L 152.856812 207.084884 
L 153.546041 197.48001 
L 154.235271 211.970122 
L 154.9245 209.486103 
L 155.613729 192.097969 
L 157.681417 199.715627 
L 159.059875 169.327793 
L 159.749104 169.327793 
L 162.506021 147.882427 
L 163.195251 134.799926 
L 163.88448 157.404501 
L 164.573709 156.162491 
L 165.262938 149.290038 
L 167.330626 156.245292 
L 168.019855 166.098568 
L 168.709085 156.07969 
L 169.398314 149.869642 
L 170.087543 155.168883 
L 172.155231 170.072998 
L 172.84446 186.467525 
L 173.533689 183.486702 
L 174.222919 177.442255 
L 174.912148 177.690657 
L 176.979836 178.684265 
L 177.669065 201.785643 
L 178.358294 199.301624 
L 179.047523 187.461133 
L 179.736753 181.996291 
L 181.80444 191.187162 
L 182.49367 184.48031 
L 183.182899 206.422479 
L 183.872128 204.932068 
L 184.561357 223.645012 
L 186.629045 204.932068 
L 187.318274 205.346071 
L 188.007504 211.970122 
L 188.696733 186.053522 
L 189.385962 181.499487 
L 191.45365 175.620641 
L 192.142879 184.066307 
L 192.832108 176.365847 
L 194.210567 171.729011 
L 196.278255 157.818504 
L 197.656713 177.193853 
L 198.345942 158.149706 
L 199.035172 158.315308 
L 201.102859 160.964928 
L 201.792089 152.270861 
L 202.481318 183.2383 
L 203.170547 169.327793 
L 203.859776 164.856558 
L 205.927464 168.251384 
L 206.616693 171.480609 
L 207.305923 170.901005 
L 208.684381 159.308915 
L 210.752069 178.270262 
L 211.441298 168.913789 
L 212.130527 165.932966 
L 212.819757 158.480909 
L 213.508986 155.914089 
L 215.576674 152.022459 
L 216.265903 157.570102 
L 216.955132 145.72961 
L 217.644361 152.270861 
L 218.333591 166.264169 
L 220.401278 153.51287 
L 221.090508 143.659594 
L 221.779737 147.882427 
L 222.468966 131.984704 
L 223.158195 141.423977 
L 225.225883 147.799626 
L 225.915112 130.825495 
L 226.604342 148.876035 
L 227.293571 137.366746 
L 227.9828 140.761572 
L 230.050488 139.105559 
L 230.739717 152.270861 
L 231.428946 158.563709 
L 232.118176 173.550625 
L 232.807405 174.709834 
L 234.875093 168.582587 
L 235.564322 164.690957 
L 236.253551 153.264469 
L 236.94278 146.640417 
L 237.63201 148.544832 
L 239.699697 147.220022 
L 240.388927 168.582587 
L 241.078156 176.200246 
L 241.767385 176.448648 
L 242.456614 168.665388 
L 244.524302 177.028252 
L 245.213531 175.289439 
L 245.902761 155.086083 
L 246.59199 149.372838 
L 247.281219 153.926874 
L 249.348907 154.009674 
L 250.038136 147.551224 
L 251.416595 172.88822 
L 252.105824 159.805719 
L 254.173512 153.264469 
L 254.862741 158.480909 
L 255.55197 157.570102 
L 256.241199 155.99689 
L 256.930429 153.347269 
L 258.998116 142.665987 
L 259.687346 148.793234 
L 260.376575 149.207237 
L 261.065804 151.525655 
L 261.755033 151.028851 
L 263.822721 150.614848 
L 264.51195 147.716826 
L 265.20118 151.194453 
L 265.890409 151.277253 
L 266.579638 145.64681 
L 268.647326 149.952443 
L 269.336555 148.462031 
L 270.025784 153.926874 
L 270.715014 146.557617 
L 271.404243 136.373138 
L 273.471931 137.532347 
L 274.850389 129.666286 
L 275.539618 123.539039 
L 276.228848 119.399007 
L 278.296535 120.392615 
L 278.985765 120.558216 
L 281.053452 137.86355 
L 283.12114 139.27116 
L 283.810369 127.51347 
L 284.499599 121.469023 
L 285.188828 116.997788 
L 285.878057 119.647409 
L 287.945745 118.902203 
L 288.634974 119.730209 
L 289.324203 115.341776 
L 290.013433 122.711032 
L 290.702662 123.870241 
L 292.77035 143.907996 
L 293.459579 158.066906 
L 294.148808 154.672079 
L 294.838037 149.207237 
L 295.527267 142.334784 
L 297.594954 143.907996 
L 298.284184 142.334784 
L 298.973413 143.16279 
L 299.662642 140.51317 
L 300.351871 135.213929 
L 302.419559 135.627932 
L 303.108788 135.213929 
L 303.798018 135.710733 
L 307.244164 143.825196 
L 307.933393 154.423677 
L 308.622622 160.799327 
L 309.311852 148.627633 
L 310.001081 146.060813 
L 312.068769 135.462331 
L 312.757998 126.437061 
L 313.447227 128.589878 
L 314.136456 129.831887 
L 314.825686 120.309814 
L 316.893373 129.666286 
L 317.582603 127.844672 
L 318.271832 144.736003 
L 318.961061 136.538739 
L 319.65029 141.589578 
L 321.717978 137.449546 
L 322.407207 138.360353 
L 323.096437 152.436462 
L 323.785666 152.933266 
L 326.542583 151.442854 
L 327.231812 145.481208 
L 327.921041 146.640417 
L 331.367188 141.341176 
L 332.056417 140.016366 
L 332.745646 149.786842 
L 333.434875 149.53844 
L 334.124104 148.876035 
L 336.191792 154.340877 
L 336.881021 162.869343 
L 337.570251 157.487301 
L 338.25948 144.156398 
L 338.948709 147.468424 
L 341.016397 151.608456 
L 341.705626 155.665687 
L 342.394855 156.245292 
L 343.084085 164.690957 
L 343.773314 161.378931 
L 345.841002 150.614848 
L 346.530231 151.774057 
L 347.21946 148.048028 
L 347.908689 150.035244 
L 348.597919 159.474517 
L 350.665606 161.130529 
L 351.354836 169.907397 
L 352.044065 174.21303 
L 352.733294 175.951844 
L 353.422523 176.448648 
L 355.490211 182.575895 
L 356.17944 177.193853 
L 356.86867 176.283046 
L 357.557899 170.735404 
L 358.247128 178.435863 
L 360.314816 188.537541 
L 361.004045 193.836782 
L 361.693274 196.486402 
L 362.382504 207.250486 
L 363.071733 205.511672 
L 365.139421 200.626434 
L 365.82865 213.708936 
L 366.517879 214.868145 
L 367.207108 229.027054 
L 367.896338 226.046231 
L 369.964025 197.314409 
L 370.653255 194.499187 
L 371.342484 205.346071 
L 372.031713 200.212431 
L 372.720942 207.747289 
L 374.78863 211.307717 
L 375.477859 204.766466 
L 376.167089 206.008476 
L 376.856318 198.142415 
L 377.545547 202.61365 
L 379.613235 188.703142 
L 380.302464 187.04713 
L 380.991693 197.562811 
L 381.680923 204.104061 
L 382.370152 197.148808 
L 384.43784 193.091576 
L 385.127069 186.964329 
L 385.816298 186.798728 
L 386.505527 183.486702 
L 387.194757 184.811512 
L 389.262444 189.531149 
L 389.951674 206.339679 
L 390.640903 199.550026 
L 391.330132 190.855959 
L 394.776278 194.91319 
L 396.154737 185.473917 
L 396.843966 201.28884 
L 398.911654 201.040438 
L 399.600883 200.460833 
L 400.290112 204.104061 
L 400.979342 204.021261 
L 401.668571 207.416087 
L 403.736259 220.084585 
L 405.114717 207.83009 
L 405.803946 206.919283 
L 406.493176 211.224916 
L 408.560863 208.740897 
L 409.250093 211.307717 
L 409.939322 217.269363 
L 410.628551 226.129032 
L 411.31778 221.574996 
L 413.385468 221.574996 
L 414.074697 214.28854 
L 414.763927 216.93816 
L 415.453156 217.352164 
L 416.142385 219.836183 
L 418.210073 221.989 
L 418.899302 234.243494 
L 419.588531 243.848368 
L 420.277761 248.071201 
L 420.96699 249.810014 
L 423.034678 253.950046 
L 423.723907 249.644413 
L 424.413136 250.720822 
L 425.102365 250.141217 
L 425.791595 243.517166 
L 427.859282 243.848368 
L 429.237741 224.390218 
L 429.92697 232.42188 
L 430.616199 227.785044 
L 432.683887 233.084285 
L 433.373116 229.523858 
L 434.062346 223.810614 
L 434.751575 225.549427 
L 435.440804 220.250186 
L 437.508492 224.804221 
L 438.197721 222.0718 
L 438.88695 211.224916 
L 439.57618 215.861752 
L 440.265409 211.473318 
L 442.333097 216.93816 
L 443.022326 222.237401 
L 443.711555 222.320202 
L 444.400784 231.925076 
L 447.157701 240.20514 
L 447.846931 239.377134 
L 448.53616 234.326295 
L 449.225389 235.154301 
L 449.914618 239.625536 
L 451.982306 237.721121 
L 452.671535 238.300726 
L 453.360765 232.007877 
L 454.049994 228.613051 
L 454.739223 222.568604 
L 456.806911 227.122639 
L 457.49614 217.600566 
L 458.185369 211.63892 
L 458.874599 211.142116 
L 459.563828 215.61335 
L 461.631516 213.957337 
L 462.320745 213.212132 
L 463.009974 212.96373 
L 463.699203 211.556119 
L 464.388433 208.823698 
L 466.45612 205.594473 
L 467.14535 194.499187 
L 467.834579 199.550026 
L 468.523808 197.894013 
L 469.213037 193.422779 
L 471.280725 194.167985 
L 471.969954 186.301924 
L 472.659184 182.989898 
L 473.348413 183.569503 
L 474.037642 180.754281 
L 476.10533 176.862651 
L 476.794559 172.639818 
L 477.483788 172.639818 
L 478.173018 169.990198 
L 478.862247 181.168284 
L 480.929935 181.830689 
L 481.619164 179.098268 
L 482.308393 185.142715 
L 482.997622 187.875136 
L 483.686852 188.785943 
L 485.754539 185.80512 
L 486.443769 188.537541 
L 487.132998 186.053522 
L 487.822227 186.798728 
L 488.511456 183.983506 
L 490.579144 185.80512 
L 491.268373 187.212731 
L 491.957603 195.658396 
L 492.646832 205.594473 
L 493.336061 205.760074 
L 495.403749 203.358856 
L 496.092978 207.747289 
L 496.782207 206.919283 
L 497.471437 205.26327 
L 498.160666 210.314109 
L 500.228354 209.568904 
L 500.917583 220.581389 
L 501.606812 220.001784 
L 502.296041 216.524157 
L 502.985271 218.759775 
L 505.052958 218.18017 
L 505.742188 219.42218 
L 507.809875 228.281848 
L 510.566792 217.186562 
L 511.256021 221.078192 
L 511.945251 232.256279 
L 512.63448 240.536343 
L 514.702168 243.103163 
L 515.391397 249.644413 
L 516.080626 240.784745 
L 516.769855 246.415188 
L 517.459085 235.982308 
L 519.526772 238.217925 
L 520.216002 239.211533 
L 520.905231 243.434365 
L 521.59446 240.453542 
L 522.283689 246.911992 
L 524.351377 255.606059 
L 525.040606 261.319303 
L 525.729836 262.23011 
L 526.419065 255.026455 
L 527.108294 258.421281 
L 529.175982 274.153403 
L 529.865211 283.841077 
L 530.55444 272.000586 
L 531.24367 282.019463 
L 531.932899 284.917486 
L 534.689816 277.134226 
L 535.379045 272.331788 
L 536.068274 290.547929 
L 536.757504 304.292835 
L 538.825191 299.076395 
L 539.514421 274.567406 
L 540.20365 274.153403 
L 540.892879 251.134825 
L 541.582108 245.173179 
L 543.649796 245.835584 
L 544.339025 243.599966 
L 545.028255 250.306818 
L 545.717484 262.312911 
L 546.406713 252.045632 
L 548.474401 256.268464 
L 549.16363 249.478812 
L 549.852859 251.714429 
L 550.542089 247.657198 
L 551.231318 231.014269 
L 553.299006 236.893115 
L 553.988235 248.071201 
L 554.677464 254.529651 
L 555.366693 256.682468 
L 556.055923 239.956738 
L 558.12361 246.332388 
L 558.81284 237.886722 
L 559.502069 258.421281 
L 560.191298 249.147609 
L 560.880527 253.204841 
L 562.948215 249.147609 
L 563.637444 255.523259 
L 564.326674 267.777753 
L 565.015903 258.25568 
L 565.705132 262.14731 
L 567.77282 259.828892 
L 568.462049 268.936962 
L 569.151278 269.847769 
L 570.529737 261.981709 
L 572.597425 259.000885 
L 573.975883 279.701045 
L 574.665112 284.17228 
L 575.354342 285.49709 
L 577.422029 293.777154 
L 578.111259 293.363151 
L 578.800488 296.178373 
L 579.489717 294.687961 
L 582.246634 303.713231 
L 582.935863 301.974418 
L 585.003551 318.534545 
L 585.003551 318.534545 
" clip-path="url(#pf9126eedc9)" style="fill: none; stroke: #000000; stroke-width: 1.5; stroke-linecap: square"/>
   </g>
   <g id="patch_3">
    <path d="M 52.367188 333.36 
L 52.367188 7.2 
" style="fill: none; stroke: #000000; stroke-width: 0.8; stroke-linejoin: miter; stroke-linecap: square"/>
   </g>
   <g id="patch_4">
    <path d="M 610.367188 333.36 
L 610.367188 7.2 
" style="fill: none; stroke: #000000; stroke-width: 0.8; stroke-linejoin: miter; stroke-linecap: square"/>
   </g>
   <g id="patch_5">
    <path d="M 52.367188 333.36 
L 610.367188 333.36 
" style="fill: none; stroke: #000000; stroke-width: 0.8; stroke-linejoin: miter; stroke-linecap: square"/>
   </g>
   <g id="patch_6">
    <path d="M 52.367188 7.2 
L 610.367188 7.2 
" style="fill: none; stroke: #000000; stroke-width: 0.8; stroke-linejoin: miter; stroke-linecap: square"/>
   </g>
  </g>
  <g id="axes_2">
   <g id="matplotlib.axis_3">
    <g id="ytick_9">
     <g id="line2d_19">
      <defs>
       <path id="m5e7e5571e3" d="M 0 0 
L 3.5 0 
" style="stroke: #000000; stroke-width: 0.8"/>
      </defs>
      <g>
       <use xlink:href="#m5e7e5571e3" x="610.367188" y="22.025455" style="stroke: #000000; stroke-width: 0.8"/>
      </g>
     </g>
     <g id="text_20">
      <!-- −0.9 -->
      <g transform="translate(617.367188 25.604361)scale(0.1 -0.1)">
       <defs>
        <path id="ArialMT-2212" d="M 3381 1997 
L 356 1997 
L 356 2522 
L 3381 2522 
L 3381 1997 
z
" transform="scale(0.015625)"/>
        <path id="ArialMT-39" d="M 350 1059 
L 891 1109 
Q 959 728 1153 556 
Q 1347 384 1650 384 
Q 1909 384 2104 503 
Q 2300 622 2425 820 
Q 2550 1019 2634 1356 
Q 2719 1694 2719 2044 
Q 2719 2081 2716 2156 
Q 2547 1888 2255 1720 
Q 1963 1553 1622 1553 
Q 1053 1553 659 1965 
Q 266 2378 266 3053 
Q 266 3750 677 4175 
Q 1088 4600 1706 4600 
Q 2153 4600 2523 4359 
Q 2894 4119 3086 3673 
Q 3278 3228 3278 2384 
Q 3278 1506 3087 986 
Q 2897 466 2520 194 
Q 2144 -78 1638 -78 
Q 1100 -78 759 220 
Q 419 519 350 1059 
z
M 2653 3081 
Q 2653 3566 2395 3850 
Q 2138 4134 1775 4134 
Q 1400 4134 1122 3828 
Q 844 3522 844 3034 
Q 844 2597 1108 2323 
Q 1372 2050 1759 2050 
Q 2150 2050 2401 2323 
Q 2653 2597 2653 3081 
z
" transform="scale(0.015625)"/>
       </defs>
       <use xlink:href="#ArialMT-2212"/>
       <use xlink:href="#ArialMT-30" x="58.398438"/>
       <use xlink:href="#ArialMT-2e" x="114.013672"/>
       <use xlink:href="#ArialMT-39" x="141.796875"/>
      </g>
     </g>
    </g>
    <g id="ytick_10">
     <g id="line2d_20">
      <g>
       <use xlink:href="#m5e7e5571e3" x="610.367188" y="85.654015" style="stroke: #000000; stroke-width: 0.8"/>
      </g>
     </g>
     <g id="text_21">
      <!-- −0.8 -->
      <g transform="translate(617.367188 89.232921)scale(0.1 -0.1)">
       <defs>
        <path id="ArialMT-38" d="M 1131 2484 
Q 781 2613 612 2850 
Q 444 3088 444 3419 
Q 444 3919 803 4259 
Q 1163 4600 1759 4600 
Q 2359 4600 2725 4251 
Q 3091 3903 3091 3403 
Q 3091 3084 2923 2848 
Q 2756 2613 2416 2484 
Q 2838 2347 3058 2040 
Q 3278 1734 3278 1309 
Q 3278 722 2862 322 
Q 2447 -78 1769 -78 
Q 1091 -78 675 323 
Q 259 725 259 1325 
Q 259 1772 486 2073 
Q 713 2375 1131 2484 
z
M 1019 3438 
Q 1019 3113 1228 2906 
Q 1438 2700 1772 2700 
Q 2097 2700 2305 2904 
Q 2513 3109 2513 3406 
Q 2513 3716 2298 3927 
Q 2084 4138 1766 4138 
Q 1444 4138 1231 3931 
Q 1019 3725 1019 3438 
z
M 838 1322 
Q 838 1081 952 856 
Q 1066 631 1291 507 
Q 1516 384 1775 384 
Q 2178 384 2440 643 
Q 2703 903 2703 1303 
Q 2703 1709 2433 1975 
Q 2163 2241 1756 2241 
Q 1359 2241 1098 1978 
Q 838 1716 838 1322 
z
" transform="scale(0.015625)"/>
       </defs>
       <use xlink:href="#ArialMT-2212"/>
       <use xlink:href="#ArialMT-30" x="58.398438"/>
       <use xlink:href="#ArialMT-2e" x="114.013672"/>
       <use xlink:href="#ArialMT-38" x="141.796875"/>
      </g>
     </g>
    </g>
    <g id="ytick_11">
     <g id="line2d_21">
      <g>
       <use xlink:href="#m5e7e5571e3" x="610.367188" y="149.282575" style="stroke: #000000; stroke-width: 0.8"/>
      </g>
     </g>
     <g id="text_22">
      <!-- −0.7 -->
      <g transform="translate(617.367188 152.861481)scale(0.1 -0.1)">
       <use xlink:href="#ArialMT-2212"/>
       <use xlink:href="#ArialMT-30" x="58.398438"/>
       <use xlink:href="#ArialMT-2e" x="114.013672"/>
       <use xlink:href="#ArialMT-37" x="141.796875"/>
      </g>
     </g>
    </g>
    <g id="ytick_12">
     <g id="line2d_22">
      <g>
       <use xlink:href="#m5e7e5571e3" x="610.367188" y="212.911135" style="stroke: #000000; stroke-width: 0.8"/>
      </g>
     </g>
     <g id="text_23">
      <!-- −0.6 -->
      <g transform="translate(617.367188 216.490042)scale(0.1 -0.1)">
       <use xlink:href="#ArialMT-2212"/>
       <use xlink:href="#ArialMT-30" x="58.398438"/>
       <use xlink:href="#ArialMT-2e" x="114.013672"/>
       <use xlink:href="#ArialMT-36" x="141.796875"/>
      </g>
     </g>
    </g>
    <g id="ytick_13">
     <g id="line2d_23">
      <g>
       <use xlink:href="#m5e7e5571e3" x="610.367188" y="276.539696" style="stroke: #000000; stroke-width: 0.8"/>
      </g>
     </g>
     <g id="text_24">
      <!-- −0.5 -->
      <g transform="translate(617.367188 280.118602)scale(0.1 -0.1)">
       <use xlink:href="#ArialMT-2212"/>
       <use xlink:href="#ArialMT-30" x="58.398438"/>
       <use xlink:href="#ArialMT-2e" x="114.013672"/>
       <use xlink:href="#ArialMT-35" x="141.796875"/>
      </g>
     </g>
    </g>
    <g id="text_25">
     <!-- Interest -->
     <g transform="translate(648.265625 186.953438)rotate(-90)scale(0.1 -0.1)">
      <defs>
       <path id="ArialMT-49" d="M 597 0 
L 597 4581 
L 1203 4581 
L 1203 0 
L 597 0 
z
" transform="scale(0.015625)"/>
       <path id="ArialMT-6e" d="M 422 0 
L 422 3319 
L 928 3319 
L 928 2847 
Q 1294 3394 1984 3394 
Q 2284 3394 2536 3286 
Q 2788 3178 2913 3003 
Q 3038 2828 3088 2588 
Q 3119 2431 3119 2041 
L 3119 0 
L 2556 0 
L 2556 2019 
Q 2556 2363 2490 2533 
Q 2425 2703 2258 2804 
Q 2091 2906 1866 2906 
Q 1506 2906 1245 2678 
Q 984 2450 984 1813 
L 984 0 
L 422 0 
z
" transform="scale(0.015625)"/>
       <path id="ArialMT-73" d="M 197 991 
L 753 1078 
Q 800 744 1014 566 
Q 1228 388 1613 388 
Q 2000 388 2187 545 
Q 2375 703 2375 916 
Q 2375 1106 2209 1216 
Q 2094 1291 1634 1406 
Q 1016 1563 777 1677 
Q 538 1791 414 1992 
Q 291 2194 291 2438 
Q 291 2659 392 2848 
Q 494 3038 669 3163 
Q 800 3259 1026 3326 
Q 1253 3394 1513 3394 
Q 1903 3394 2198 3281 
Q 2494 3169 2634 2976 
Q 2775 2784 2828 2463 
L 2278 2388 
Q 2241 2644 2061 2787 
Q 1881 2931 1553 2931 
Q 1166 2931 1000 2803 
Q 834 2675 834 2503 
Q 834 2394 903 2306 
Q 972 2216 1119 2156 
Q 1203 2125 1616 2013 
Q 2213 1853 2448 1751 
Q 2684 1650 2818 1456 
Q 2953 1263 2953 975 
Q 2953 694 2789 445 
Q 2625 197 2315 61 
Q 2006 -75 1616 -75 
Q 969 -75 630 194 
Q 291 463 197 991 
z
" transform="scale(0.015625)"/>
      </defs>
      <use xlink:href="#ArialMT-49"/>
      <use xlink:href="#ArialMT-6e" x="27.783203"/>
      <use xlink:href="#ArialMT-74" x="83.398438"/>
      <use xlink:href="#ArialMT-65" x="111.181641"/>
      <use xlink:href="#ArialMT-72" x="166.796875"/>
      <use xlink:href="#ArialMT-65" x="200.097656"/>
      <use xlink:href="#ArialMT-73" x="255.712891"/>
      <use xlink:href="#ArialMT-74" x="305.712891"/>
     </g>
    </g>
   </g>
   <g id="line2d_24">
    <path d="M 77.730824 208.775279 
L 78.420053 190.959282 
L 80.487741 186.18714 
L 81.17697 187.141568 
L 81.866199 193.504425 
L 82.555429 206.866422 
L 83.244658 211.956707 
L 85.312346 218.319563 
L 86.001575 220.864705 
L 86.690804 213.229278 
L 87.380033 210.684136 
L 88.069263 212.911135 
L 90.13695 215.456278 
L 90.82618 219.910277 
L 92.204638 203.048709 
L 92.893867 199.867281 
L 94.961555 185.868997 
L 95.650784 186.18714 
L 96.340014 178.23357 
L 97.029243 177.915427 
L 97.718472 172.507 
L 99.78616 169.961857 
L 100.475389 184.278283 
L 101.164618 193.504425 
L 101.853848 196.049567 
L 102.543077 183.641998 
L 104.610765 185.550854 
L 105.299994 190.322996 
L 105.989223 187.459711 
L 106.678452 187.777854 
L 107.367682 178.23357 
L 109.435369 178.869856 
L 110.124599 184.278283 
L 110.813828 186.823426 
L 111.503057 184.596426 
L 112.192286 184.914569 
L 114.259974 170.28 
L 114.949203 158.826859 
L 115.638433 156.918002 
L 116.327662 131.466578 
L 117.016891 116.832009 
L 119.084579 99.652298 
L 119.773808 123.194865 
L 120.463037 93.925728 
L 121.152267 79.609302 
L 121.841496 83.745158 
L 123.909184 22.025455 
L 124.598413 72.928303 
L 125.287642 65.929161 
L 126.666101 106.015154 
L 128.733788 143.874147 
L 129.423018 193.504425 
L 130.112247 267.94984 
L 130.801476 318.534545 
L 131.490705 286.720265 
L 133.558393 251.724557 
L 134.247622 278.13041 
L 134.936852 288.310979 
L 135.626081 252.997128 
L 136.31531 176.960999 
L 138.382998 161.372002 
L 139.072227 164.871572 
L 139.761456 217.365135 
L 141.139915 235.181131 
L 143.207603 243.452844 
L 143.896832 274.312696 
L 144.586061 284.175123 
L 145.27529 271.131268 
L 148.721437 253.315271 
L 149.410666 233.272275 
L 150.099895 244.08913 
L 150.789124 231.363418 
L 152.856812 250.770129 
L 153.546041 246.634272 
L 154.235271 265.086555 
L 155.613729 237.408131 
L 157.681417 239.316988 
L 158.370646 224.046133 
L 159.059875 203.684994 
L 159.749104 176.324713 
L 162.506021 177.597284 
L 163.195251 159.145002 
L 163.88448 178.551713 
L 164.573709 179.824284 
L 165.262938 161.690144 
L 167.330626 172.825142 
L 168.019855 192.231853 
L 168.709085 180.46057 
L 169.398314 176.00657 
L 170.087543 179.506141 
L 172.155231 196.049567 
L 172.84446 223.409848 
L 174.222919 212.592993 
L 174.912148 216.728849 
L 176.979836 216.410706 
L 177.669065 245.043558 
L 178.358294 238.680702 
L 179.047523 227.863847 
L 179.736753 221.182848 
L 181.80444 221.500991 
L 182.49367 218.637706 
L 183.182899 243.770987 
L 183.872128 242.180273 
L 184.561357 260.632556 
L 186.629045 239.953274 
L 187.318274 238.680702 
L 188.007504 246.952415 
L 188.696733 221.500991 
L 189.385962 207.184565 
L 191.45365 206.230137 
L 192.142879 211.320421 
L 192.832108 211.002279 
L 193.521338 201.776137 
L 194.210567 204.003137 
L 196.278255 190.004854 
L 196.967484 205.593851 
L 197.656713 212.911135 
L 198.345942 188.095997 
L 199.035172 183.96014 
L 201.102859 189.050425 
L 201.792089 177.597284 
L 202.481318 209.411565 
L 203.170547 194.776996 
L 203.859776 187.777854 
L 205.927464 190.641139 
L 206.616693 196.685853 
L 207.305923 197.640281 
L 207.995152 192.549996 
L 208.684381 177.915427 
L 210.752069 207.184565 
L 211.441298 194.776996 
L 212.130527 190.004854 
L 212.819757 187.141568 
L 213.508986 183.005712 
L 215.576674 178.551713 
L 216.265903 185.868997 
L 216.955132 169.007429 
L 217.644361 176.960999 
L 218.333591 188.732282 
L 220.401278 175.688428 
L 221.090508 162.962716 
L 221.779737 166.144144 
L 222.468966 149.600718 
L 223.158195 163.917144 
L 225.225883 172.188857 
L 225.915112 159.463145 
L 226.604342 175.052142 
L 227.293571 161.690144 
L 227.9828 166.780429 
L 230.050488 164.871572 
L 230.739717 183.005712 
L 231.428946 187.777854 
L 232.118176 204.32128 
L 232.807405 202.730566 
L 234.875093 198.276567 
L 235.564322 194.458853 
L 236.253551 181.096855 
L 237.63201 169.325572 
L 239.699697 175.370285 
L 240.388927 197.003995 
L 241.078156 201.776137 
L 241.767385 187.141568 
L 242.456614 191.91371 
L 244.524302 199.549138 
L 245.213531 193.186282 
L 245.902761 172.825142 
L 246.59199 164.235287 
L 247.281219 166.144144 
L 249.348907 166.144144 
L 250.038136 158.190574 
L 250.727365 174.733999 
L 251.416595 188.095997 
L 252.105824 175.370285 
L 254.173512 167.098572 
L 254.862741 172.825142 
L 255.55197 175.688428 
L 256.241199 172.825142 
L 256.930429 165.189715 
L 258.998116 153.736574 
L 259.687346 160.735716 
L 260.376575 162.32643 
L 261.065804 162.32643 
L 261.755033 164.235287 
L 263.822721 162.32643 
L 264.51195 164.235287 
L 265.20118 164.55343 
L 265.890409 164.55343 
L 266.579638 153.100289 
L 268.647326 155.009146 
L 269.336555 154.691003 
L 270.025784 160.417573 
L 270.715014 152.464003 
L 271.404243 139.420148 
L 273.471931 137.193149 
L 274.16116 133.057292 
L 274.850389 126.058151 
L 275.539618 114.923153 
L 276.228848 110.469153 
L 278.296535 110.787296 
L 278.985765 106.65144 
L 279.674994 117.786438 
L 280.364223 120.967866 
L 281.053452 133.057292 
L 283.12114 134.011721 
L 283.810369 122.55858 
L 284.499599 108.242154 
L 285.188828 100.606726 
L 285.878057 103.788155 
L 287.945745 105.697011 
L 288.634974 103.470012 
L 289.324203 96.152727 
L 290.013433 104.742583 
L 290.702662 106.969583 
L 292.77035 127.012579 
L 293.459579 143.556005 
L 294.148808 141.010862 
L 294.838037 136.875006 
L 295.527267 129.557721 
L 297.594954 126.376293 
L 298.284184 128.921436 
L 298.973413 127.967007 
L 299.662642 125.740008 
L 300.351871 116.195724 
L 302.419559 114.286867 
L 303.108788 114.286867 
L 303.798018 114.60501 
L 304.487247 116.513867 
L 305.176476 116.195724 
L 307.244164 121.922294 
L 307.933393 137.193149 
L 308.622622 143.556005 
L 309.311852 128.921436 
L 310.001081 123.513008 
L 312.068769 112.696153 
L 312.757998 99.970441 
L 313.447227 100.924869 
L 314.136456 107.287725 
L 314.825686 96.152727 
L 316.893373 106.65144 
L 317.582603 102.833726 
L 318.271832 124.467437 
L 318.961061 118.740866 
L 319.65029 121.922294 
L 321.717978 114.923153 
L 322.407207 117.150152 
L 323.096437 135.602435 
L 323.785666 129.875864 
L 326.542583 135.284292 
L 327.231812 128.921436 
L 327.921041 134.329863 
L 328.610271 135.284292 
L 331.367188 127.012579 
L 332.056417 122.876723 
L 332.745646 127.967007 
L 333.434875 125.103722 
L 334.124104 125.421865 
L 336.191792 129.875864 
L 336.881021 134.966149 
L 337.570251 132.421007 
L 338.25948 115.877581 
L 338.948709 121.604151 
L 341.016397 124.149294 
L 341.705626 129.239579 
L 342.394855 127.330722 
L 343.084085 134.648006 
L 343.773314 129.557721 
L 345.841002 116.195724 
L 346.530231 122.240437 
L 347.21946 111.423582 
L 347.908689 111.423582 
L 348.597919 120.33158 
L 350.665606 125.740008 
L 351.354836 136.875006 
L 352.044065 139.738291 
L 352.733294 145.146719 
L 353.422523 140.692719 
L 355.490211 146.737433 
L 356.17944 145.783004 
L 356.86867 143.237862 
L 357.557899 135.602435 
L 358.247128 141.965291 
L 360.314816 152.464003 
L 361.693274 156.59986 
L 362.382504 167.098572 
L 363.071733 163.599001 
L 365.139421 159.145002 
L 365.82865 165.189715 
L 366.517879 169.007429 
L 367.207108 187.459711 
L 367.896338 185.550854 
L 369.964025 151.191432 
L 370.653255 155.963574 
L 371.342484 159.463145 
L 372.031713 153.736574 
L 372.720942 161.372002 
L 374.78863 163.280858 
L 375.477859 162.008287 
L 376.167089 166.144144 
L 376.856318 155.645431 
L 377.545547 157.554288 
L 380.302464 140.374577 
L 380.991693 146.41929 
L 381.680923 150.555146 
L 382.370152 142.283433 
L 384.43784 136.556863 
L 385.127069 132.102864 
L 385.816298 131.784721 
L 386.505527 131.784721 
L 387.194757 133.693578 
L 389.262444 134.329863 
L 389.951674 151.509575 
L 390.640903 147.691861 
L 391.330132 138.147577 
L 394.776278 140.692719 
L 395.465508 138.147577 
L 396.154737 130.830293 
L 396.843966 142.919719 
L 398.911654 138.783863 
L 399.600883 138.46572 
L 400.290112 144.828576 
L 400.979342 146.101147 
L 401.668571 146.737433 
L 403.736259 155.963574 
L 405.114717 141.965291 
L 405.803946 141.647148 
L 406.493176 143.874147 
L 408.560863 141.965291 
L 409.250093 143.874147 
L 409.939322 144.510433 
L 410.628551 154.37286 
L 411.31778 175.052142 
L 413.385468 175.370285 
L 414.074697 163.599001 
L 414.763927 165.507858 
L 415.453156 164.871572 
L 416.142385 169.961857 
L 418.210073 170.598143 
L 419.588531 198.594709 
L 420.277761 205.593851 
L 420.96699 208.457136 
L 423.034678 216.410706 
L 423.723907 210.365993 
L 424.413136 211.638564 
L 425.102365 205.275708 
L 425.791595 197.322138 
L 427.859282 196.685853 
L 429.237741 170.598143 
L 429.92697 180.142427 
L 430.616199 174.097714 
L 432.683887 180.46057 
L 433.373116 180.46057 
L 434.062346 174.415856 
L 434.751575 176.642856 
L 435.440804 172.188857 
L 437.508492 180.778712 
L 438.197721 174.733999 
L 438.88695 161.372002 
L 439.57618 163.599001 
L 440.265409 156.918002 
L 442.333097 166.780429 
L 443.022326 167.416715 
L 443.711555 167.734858 
L 444.400784 178.869856 
L 445.090014 185.232712 
L 447.157701 190.959282 
L 447.846931 185.868997 
L 448.53616 177.597284 
L 449.225389 180.46057 
L 449.914618 183.96014 
L 451.982306 182.687569 
L 452.671535 181.733141 
L 454.739223 159.145002 
L 456.806911 165.507858 
L 457.49614 154.37286 
L 458.185369 147.691861 
L 458.874599 147.055575 
L 459.563828 152.14586 
L 461.631516 150.873289 
L 462.320745 152.464003 
L 464.388433 141.965291 
L 466.45612 137.193149 
L 467.14535 117.468295 
L 467.834579 120.967866 
L 469.213037 112.059867 
L 471.280725 112.37801 
L 471.969954 100.924869 
L 472.659184 93.925728 
L 473.348413 93.289442 
L 474.037642 90.108014 
L 476.10533 84.699586 
L 477.483788 70.065018 
L 478.173018 69.428732 
L 478.862247 89.471728 
L 480.929935 90.108014 
L 481.619164 90.7443 
L 482.308393 98.379727 
L 482.997622 102.19744 
L 483.686852 104.742583 
L 485.754539 99.970441 
L 486.443769 102.19744 
L 487.132998 95.516442 
L 487.822227 94.24387 
L 488.511456 90.426157 
L 490.579144 91.698728 
L 491.268373 96.789013 
L 491.957603 105.378869 
L 492.646832 119.377152 
L 493.336061 119.059009 
L 495.403749 117.150152 
L 496.092978 126.376293 
L 496.782207 126.376293 
L 497.471437 122.876723 
L 498.160666 131.784721 
L 500.228354 131.148435 
L 500.917583 144.510433 
L 501.606812 142.601576 
L 502.296041 133.057292 
L 502.985271 134.966149 
L 505.052958 133.693578 
L 505.742188 132.739149 
L 506.431417 138.783863 
L 507.120646 140.374577 
L 507.809875 143.237862 
L 509.877563 130.194007 
L 510.566792 127.967007 
L 511.256021 134.329863 
L 511.945251 151.191432 
L 512.63448 160.09943 
L 514.702168 162.008287 
L 515.391397 172.825142 
L 516.080626 159.781288 
L 516.769855 168.371143 
L 517.459085 150.237004 
L 519.526772 152.782146 
L 520.216002 152.782146 
L 520.905231 158.190574 
L 521.59446 151.827718 
L 522.283689 159.463145 
L 524.351377 173.143285 
L 525.040606 181.414998 
L 525.729836 184.278283 
L 526.419065 171.552571 
L 527.108294 177.279142 
L 529.175982 202.09428 
L 529.865211 222.773562 
L 530.55444 194.776996 
L 531.24367 208.457136 
L 531.932899 210.684136 
L 535.379045 192.549996 
L 536.068274 228.818275 
L 536.757504 247.588701 
L 538.825191 239.316988 
L 539.514421 194.14071 
L 540.20365 197.958424 
L 540.892879 146.41929 
L 541.582108 133.057292 
L 543.649796 133.057292 
L 544.339025 126.058151 
L 545.028255 133.693578 
L 545.717484 151.191432 
L 546.406713 129.239579 
L 548.474401 140.056434 
L 549.16363 127.648865 
L 549.852859 131.148435 
L 550.542089 124.785579 
L 551.231318 97.743441 
L 553.299006 101.243012 
L 553.988235 117.150152 
L 554.677464 119.059009 
L 555.366693 121.604151 
L 556.055923 104.106297 
L 558.12361 119.377152 
L 558.81284 108.242154 
L 559.502069 156.918002 
L 560.191298 139.102005 
L 560.880527 150.237004 
L 562.948215 146.737433 
L 563.637444 158.190574 
L 564.326674 177.279142 
L 565.015903 161.690144 
L 565.705132 171.234428 
L 567.77282 169.325572 
L 568.462049 179.187998 
L 569.151278 178.869856 
L 570.529737 160.417573 
L 572.597425 152.14586 
L 573.286654 174.097714 
L 574.665112 199.230995 
L 575.354342 202.412423 
L 577.422029 217.046992 
L 578.111259 213.229278 
L 578.800488 213.229278 
L 579.489717 211.320421 
L 580.178946 222.137277 
L 582.246634 219.910277 
L 582.935863 216.410706 
L 584.314322 240.907702 
L 585.003551 249.8157 
L 585.003551 249.8157 
" clip-path="url(#pf9126eedc9)" style="fill: none; stroke: #1f77b4; stroke-width: 1.5; stroke-linecap: square"/>
   </g>
   <g id="patch_7">
    <path d="M 52.367188 333.36 
L 52.367188 7.2 
" style="fill: none; stroke: #000000; stroke-width: 0.8; stroke-linejoin: miter; stroke-linecap: square"/>
   </g>
   <g id="patch_8">
    <path d="M 610.367188 333.36 
L 610.367188 7.2 
" style="fill: none; stroke: #000000; stroke-width: 0.8; stroke-linejoin: miter; stroke-linecap: square"/>
   </g>
   <g id="patch_9">
    <path d="M 52.367188 333.36 
L 610.367188 333.36 
" style="fill: none; stroke: #000000; stroke-width: 0.8; stroke-linejoin: miter; stroke-linecap: square"/>
   </g>
   <g id="patch_10">
    <path d="M 52.367188 7.2 
L 610.367188 7.2 
" style="fill: none; stroke: #000000; stroke-width: 0.8; stroke-linejoin: miter; stroke-linecap: square"/>
   </g>
   <g id="legend_1">
    <g id="patch_11">
     <path d="M 502.425 43.490625 
L 603.367188 43.490625 
Q 605.367188 43.490625 605.367188 41.490625 
L 605.367188 14.2 
Q 605.367188 12.2 603.367188 12.2 
L 502.425 12.2 
Q 500.425 12.2 500.425 14.2 
L 500.425 41.490625 
Q 500.425 43.490625 502.425 43.490625 
z
" style="fill: #ffffff; opacity: 0.8; stroke: #cccccc; stroke-linejoin: miter"/>
    </g>
    <g id="line2d_25">
     <path d="M 504.425 19.857812 
L 514.425 19.857812 
L 524.425 19.857812 
" style="fill: none; stroke: #000000; stroke-width: 1.5; stroke-linecap: square"/>
    </g>
    <g id="text_26">
     <!-- NL0011220108 -->
     <g transform="translate(532.425 23.357812)scale(0.1 -0.1)">
      <defs>
       <path id="ArialMT-4e" d="M 488 0 
L 488 4581 
L 1109 4581 
L 3516 984 
L 3516 4581 
L 4097 4581 
L 4097 0 
L 3475 0 
L 1069 3600 
L 1069 0 
L 488 0 
z
" transform="scale(0.015625)"/>
       <path id="ArialMT-4c" d="M 469 0 
L 469 4581 
L 1075 4581 
L 1075 541 
L 3331 541 
L 3331 0 
L 469 0 
z
" transform="scale(0.015625)"/>
      </defs>
      <use xlink:href="#ArialMT-4e"/>
      <use xlink:href="#ArialMT-4c" x="72.216797"/>
      <use xlink:href="#ArialMT-30" x="127.832031"/>
      <use xlink:href="#ArialMT-30" x="183.447266"/>
      <use xlink:href="#ArialMT-31" x="239.0625"/>
      <use xlink:href="#ArialMT-31" x="287.302734"/>
      <use xlink:href="#ArialMT-32" x="342.917969"/>
      <use xlink:href="#ArialMT-32" x="398.533203"/>
      <use xlink:href="#ArialMT-30" x="454.148438"/>
      <use xlink:href="#ArialMT-31" x="509.763672"/>
      <use xlink:href="#ArialMT-30" x="565.378906"/>
      <use xlink:href="#ArialMT-38" x="620.994141"/>
     </g>
    </g>
    <g id="line2d_26">
     <path d="M 504.425 34.003125 
L 514.425 34.003125 
L 524.425 34.003125 
" style="fill: none; stroke: #1f77b4; stroke-width: 1.5; stroke-linecap: square"/>
    </g>
    <g id="text_27">
     <!-- 3 Years interest -->
     <g transform="translate(532.425 37.503125)scale(0.1 -0.1)">
      <defs>
       <path id="ArialMT-59" d="M 1784 0 
L 1784 1941 
L 19 4581 
L 756 4581 
L 1659 3200 
Q 1909 2813 2125 2425 
Q 2331 2784 2625 3234 
L 3513 4581 
L 4219 4581 
L 2391 1941 
L 2391 0 
L 1784 0 
z
" transform="scale(0.015625)"/>
      </defs>
      <use xlink:href="#ArialMT-33"/>
      <use xlink:href="#ArialMT-20" x="55.615234"/>
      <use xlink:href="#ArialMT-59" x="81.648438"/>
      <use xlink:href="#ArialMT-65" x="139.222656"/>
      <use xlink:href="#ArialMT-61" x="194.837891"/>
      <use xlink:href="#ArialMT-72" x="250.453125"/>
      <use xlink:href="#ArialMT-73" x="283.753906"/>
      <use xlink:href="#ArialMT-20" x="333.753906"/>
      <use xlink:href="#ArialMT-69" x="361.537109"/>
      <use xlink:href="#ArialMT-6e" x="383.753906"/>
      <use xlink:href="#ArialMT-74" x="439.369141"/>
      <use xlink:href="#ArialMT-65" x="467.152344"/>
      <use xlink:href="#ArialMT-72" x="522.767578"/>
      <use xlink:href="#ArialMT-65" x="556.068359"/>
      <use xlink:href="#ArialMT-73" x="611.683594"/>
      <use xlink:href="#ArialMT-74" x="661.683594"/>
     </g>
    </g>
   </g>
  </g>
 </g>
 <defs>
  <clipPath id="pf9126eedc9">
   <rect x="52.367188" y="7.2" width="558" height="326.16"/>
  </clipPath>
 </defs>
</svg>
