<?xml version="1.0" encoding="utf-8" standalone="no"?>
<!DOCTYPE svg PUBLIC "-//W3C//DTD SVG 1.1//EN"
  "http://www.w3.org/Graphics/SVG/1.1/DTD/svg11.dtd">
<svg xmlns:xlink="http://www.w3.org/1999/xlink" width="609.228125pt" height="372.718684pt" viewBox="0 0 609.228125 372.718684" xmlns="http://www.w3.org/2000/svg" version="1.1">
 <metadata>
  <rdf:RDF xmlns:dc="http://purl.org/dc/elements/1.1/" xmlns:cc="http://creativecommons.org/ns#" xmlns:rdf="http://www.w3.org/1999/02/22-rdf-syntax-ns#">
   <cc:Work>
    <dc:type rdf:resource="http://purl.org/dc/dcmitype/StillImage"/>
    <dc:date>2022-01-24T16:11:06.589654</dc:date>
    <dc:format>image/svg+xml</dc:format>
    <dc:creator>
     <cc:Agent>
      <dc:title>Matplotlib v3.5.1, https://matplotlib.org/</dc:title>
     </cc:Agent>
    </dc:creator>
   </cc:Work>
  </rdf:RDF>
 </metadata>
 <defs>
  <style type="text/css">*{stroke-linejoin: round; stroke-linecap: butt}</style>
 </defs>
 <g id="figure_1">
  <g id="patch_1">
   <path d="M 0 372.718684 
L 609.228125 372.718684 
L 609.228125 0 
L 0 0 
L 0 372.718684 
z
" style="fill: none"/>
  </g>
  <g id="axes_1">
   <g id="patch_2">
    <path d="M 44.028125 336.228059 
L 602.028125 336.228059 
L 602.028125 10.068059 
L 44.028125 10.068059 
z
" style="fill: #ffffff"/>
   </g>
   <g id="matplotlib.axis_1">
    <g id="xtick_1">
     <g id="line2d_1">
      <defs>
       <path id="m2a479e5ac3" d="M 0 0 
L 0 3.5 
" style="stroke: #000000; stroke-width: 0.8"/>
      </defs>
      <g>
       <use xlink:href="#m2a479e5ac3" x="122.449613" y="336.228059" style="stroke: #000000; stroke-width: 0.8"/>
      </g>
     </g>
     <g id="text_1">
      <!-- 2017 -->
      <g transform="translate(111.327738 350.385871)scale(0.1 -0.1)">
       <defs>
        <path id="ArialMT-32" d="M 3222 541 
L 3222 0 
L 194 0 
Q 188 203 259 391 
Q 375 700 629 1000 
Q 884 1300 1366 1694 
Q 2113 2306 2375 2664 
Q 2638 3022 2638 3341 
Q 2638 3675 2398 3904 
Q 2159 4134 1775 4134 
Q 1369 4134 1125 3890 
Q 881 3647 878 3216 
L 300 3275 
Q 359 3922 746 4261 
Q 1134 4600 1788 4600 
Q 2447 4600 2831 4234 
Q 3216 3869 3216 3328 
Q 3216 3053 3103 2787 
Q 2991 2522 2730 2228 
Q 2469 1934 1863 1422 
Q 1356 997 1212 845 
Q 1069 694 975 541 
L 3222 541 
z
" transform="scale(0.015625)"/>
        <path id="ArialMT-30" d="M 266 2259 
Q 266 3072 433 3567 
Q 600 4063 929 4331 
Q 1259 4600 1759 4600 
Q 2128 4600 2406 4451 
Q 2684 4303 2865 4023 
Q 3047 3744 3150 3342 
Q 3253 2941 3253 2259 
Q 3253 1453 3087 958 
Q 2922 463 2592 192 
Q 2263 -78 1759 -78 
Q 1097 -78 719 397 
Q 266 969 266 2259 
z
M 844 2259 
Q 844 1131 1108 757 
Q 1372 384 1759 384 
Q 2147 384 2411 759 
Q 2675 1134 2675 2259 
Q 2675 3391 2411 3762 
Q 2147 4134 1753 4134 
Q 1366 4134 1134 3806 
Q 844 3388 844 2259 
z
" transform="scale(0.015625)"/>
        <path id="ArialMT-31" d="M 2384 0 
L 1822 0 
L 1822 3584 
Q 1619 3391 1289 3197 
Q 959 3003 697 2906 
L 697 3450 
Q 1169 3672 1522 3987 
Q 1875 4303 2022 4600 
L 2384 4600 
L 2384 0 
z
" transform="scale(0.015625)"/>
        <path id="ArialMT-37" d="M 303 3981 
L 303 4522 
L 3269 4522 
L 3269 4084 
Q 2831 3619 2401 2847 
Q 1972 2075 1738 1259 
Q 1569 684 1522 0 
L 944 0 
Q 953 541 1156 1306 
Q 1359 2072 1739 2783 
Q 2119 3494 2547 3981 
L 303 3981 
z
" transform="scale(0.015625)"/>
       </defs>
       <use xlink:href="#ArialMT-32"/>
       <use xlink:href="#ArialMT-30" x="55.615234"/>
       <use xlink:href="#ArialMT-31" x="111.230469"/>
       <use xlink:href="#ArialMT-37" x="166.845703"/>
      </g>
     </g>
    </g>
    <g id="xtick_2">
     <g id="line2d_2">
      <g>
       <use xlink:href="#m2a479e5ac3" x="212.94548" y="336.228059" style="stroke: #000000; stroke-width: 0.8"/>
      </g>
     </g>
     <g id="text_2">
      <!-- 2018 -->
      <g transform="translate(201.823605 350.385871)scale(0.1 -0.1)">
       <defs>
        <path id="ArialMT-38" d="M 1131 2484 
Q 781 2613 612 2850 
Q 444 3088 444 3419 
Q 444 3919 803 4259 
Q 1163 4600 1759 4600 
Q 2359 4600 2725 4251 
Q 3091 3903 3091 3403 
Q 3091 3084 2923 2848 
Q 2756 2613 2416 2484 
Q 2838 2347 3058 2040 
Q 3278 1734 3278 1309 
Q 3278 722 2862 322 
Q 2447 -78 1769 -78 
Q 1091 -78 675 323 
Q 259 725 259 1325 
Q 259 1772 486 2073 
Q 713 2375 1131 2484 
z
M 1019 3438 
Q 1019 3113 1228 2906 
Q 1438 2700 1772 2700 
Q 2097 2700 2305 2904 
Q 2513 3109 2513 3406 
Q 2513 3716 2298 3927 
Q 2084 4138 1766 4138 
Q 1444 4138 1231 3931 
Q 1019 3725 1019 3438 
z
M 838 1322 
Q 838 1081 952 856 
Q 1066 631 1291 507 
Q 1516 384 1775 384 
Q 2178 384 2440 643 
Q 2703 903 2703 1303 
Q 2703 1709 2433 1975 
Q 2163 2241 1756 2241 
Q 1359 2241 1098 1978 
Q 838 1716 838 1322 
z
" transform="scale(0.015625)"/>
       </defs>
       <use xlink:href="#ArialMT-32"/>
       <use xlink:href="#ArialMT-30" x="55.615234"/>
       <use xlink:href="#ArialMT-31" x="111.230469"/>
       <use xlink:href="#ArialMT-38" x="166.845703"/>
      </g>
     </g>
    </g>
    <g id="xtick_3">
     <g id="line2d_3">
      <g>
       <use xlink:href="#m2a479e5ac3" x="303.441348" y="336.228059" style="stroke: #000000; stroke-width: 0.8"/>
      </g>
     </g>
     <g id="text_3">
      <!-- 2019 -->
      <g transform="translate(292.319473 350.385871)scale(0.1 -0.1)">
       <defs>
        <path id="ArialMT-39" d="M 350 1059 
L 891 1109 
Q 959 728 1153 556 
Q 1347 384 1650 384 
Q 1909 384 2104 503 
Q 2300 622 2425 820 
Q 2550 1019 2634 1356 
Q 2719 1694 2719 2044 
Q 2719 2081 2716 2156 
Q 2547 1888 2255 1720 
Q 1963 1553 1622 1553 
Q 1053 1553 659 1965 
Q 266 2378 266 3053 
Q 266 3750 677 4175 
Q 1088 4600 1706 4600 
Q 2153 4600 2523 4359 
Q 2894 4119 3086 3673 
Q 3278 3228 3278 2384 
Q 3278 1506 3087 986 
Q 2897 466 2520 194 
Q 2144 -78 1638 -78 
Q 1100 -78 759 220 
Q 419 519 350 1059 
z
M 2653 3081 
Q 2653 3566 2395 3850 
Q 2138 4134 1775 4134 
Q 1400 4134 1122 3828 
Q 844 3522 844 3034 
Q 844 2597 1108 2323 
Q 1372 2050 1759 2050 
Q 2150 2050 2401 2323 
Q 2653 2597 2653 3081 
z
" transform="scale(0.015625)"/>
       </defs>
       <use xlink:href="#ArialMT-32"/>
       <use xlink:href="#ArialMT-30" x="55.615234"/>
       <use xlink:href="#ArialMT-31" x="111.230469"/>
       <use xlink:href="#ArialMT-39" x="166.845703"/>
      </g>
     </g>
    </g>
    <g id="xtick_4">
     <g id="line2d_4">
      <g>
       <use xlink:href="#m2a479e5ac3" x="393.937216" y="336.228059" style="stroke: #000000; stroke-width: 0.8"/>
      </g>
     </g>
     <g id="text_4">
      <!-- 2020 -->
      <g transform="translate(382.815341 350.385871)scale(0.1 -0.1)">
       <use xlink:href="#ArialMT-32"/>
       <use xlink:href="#ArialMT-30" x="55.615234"/>
       <use xlink:href="#ArialMT-32" x="111.230469"/>
       <use xlink:href="#ArialMT-30" x="166.845703"/>
      </g>
     </g>
    </g>
    <g id="xtick_5">
     <g id="line2d_5">
      <g>
       <use xlink:href="#m2a479e5ac3" x="484.681018" y="336.228059" style="stroke: #000000; stroke-width: 0.8"/>
      </g>
     </g>
     <g id="text_5">
      <!-- 2021 -->
      <g transform="translate(473.559143 350.385871)scale(0.1 -0.1)">
       <use xlink:href="#ArialMT-32"/>
       <use xlink:href="#ArialMT-30" x="55.615234"/>
       <use xlink:href="#ArialMT-32" x="111.230469"/>
       <use xlink:href="#ArialMT-31" x="166.845703"/>
      </g>
     </g>
    </g>
    <g id="xtick_6">
     <g id="line2d_6">
      <g>
       <use xlink:href="#m2a479e5ac3" x="575.176885" y="336.228059" style="stroke: #000000; stroke-width: 0.8"/>
      </g>
     </g>
     <g id="text_6">
      <!-- 2022 -->
      <g transform="translate(564.05501 350.385871)scale(0.1 -0.1)">
       <use xlink:href="#ArialMT-32"/>
       <use xlink:href="#ArialMT-30" x="55.615234"/>
       <use xlink:href="#ArialMT-32" x="111.230469"/>
       <use xlink:href="#ArialMT-32" x="166.845703"/>
      </g>
     </g>
    </g>
    <g id="text_7">
     <!-- rate_dt -->
     <g transform="translate(307.463281 363.531184)scale(0.1 -0.1)">
      <defs>
       <path id="ArialMT-72" d="M 416 0 
L 416 3319 
L 922 3319 
L 922 2816 
Q 1116 3169 1280 3281 
Q 1444 3394 1641 3394 
Q 1925 3394 2219 3213 
L 2025 2691 
Q 1819 2813 1613 2813 
Q 1428 2813 1281 2702 
Q 1134 2591 1072 2394 
Q 978 2094 978 1738 
L 978 0 
L 416 0 
z
" transform="scale(0.015625)"/>
       <path id="ArialMT-61" d="M 2588 409 
Q 2275 144 1986 34 
Q 1697 -75 1366 -75 
Q 819 -75 525 192 
Q 231 459 231 875 
Q 231 1119 342 1320 
Q 453 1522 633 1644 
Q 813 1766 1038 1828 
Q 1203 1872 1538 1913 
Q 2219 1994 2541 2106 
Q 2544 2222 2544 2253 
Q 2544 2597 2384 2738 
Q 2169 2928 1744 2928 
Q 1347 2928 1158 2789 
Q 969 2650 878 2297 
L 328 2372 
Q 403 2725 575 2942 
Q 747 3159 1072 3276 
Q 1397 3394 1825 3394 
Q 2250 3394 2515 3294 
Q 2781 3194 2906 3042 
Q 3031 2891 3081 2659 
Q 3109 2516 3109 2141 
L 3109 1391 
Q 3109 606 3145 398 
Q 3181 191 3288 0 
L 2700 0 
Q 2613 175 2588 409 
z
M 2541 1666 
Q 2234 1541 1622 1453 
Q 1275 1403 1131 1340 
Q 988 1278 909 1158 
Q 831 1038 831 891 
Q 831 666 1001 516 
Q 1172 366 1500 366 
Q 1825 366 2078 508 
Q 2331 650 2450 897 
Q 2541 1088 2541 1459 
L 2541 1666 
z
" transform="scale(0.015625)"/>
       <path id="ArialMT-74" d="M 1650 503 
L 1731 6 
Q 1494 -44 1306 -44 
Q 1000 -44 831 53 
Q 663 150 594 308 
Q 525 466 525 972 
L 525 2881 
L 113 2881 
L 113 3319 
L 525 3319 
L 525 4141 
L 1084 4478 
L 1084 3319 
L 1650 3319 
L 1650 2881 
L 1084 2881 
L 1084 941 
Q 1084 700 1114 631 
Q 1144 563 1211 522 
Q 1278 481 1403 481 
Q 1497 481 1650 503 
z
" transform="scale(0.015625)"/>
       <path id="ArialMT-65" d="M 2694 1069 
L 3275 997 
Q 3138 488 2766 206 
Q 2394 -75 1816 -75 
Q 1088 -75 661 373 
Q 234 822 234 1631 
Q 234 2469 665 2931 
Q 1097 3394 1784 3394 
Q 2450 3394 2872 2941 
Q 3294 2488 3294 1666 
Q 3294 1616 3291 1516 
L 816 1516 
Q 847 969 1125 678 
Q 1403 388 1819 388 
Q 2128 388 2347 550 
Q 2566 713 2694 1069 
z
M 847 1978 
L 2700 1978 
Q 2663 2397 2488 2606 
Q 2219 2931 1791 2931 
Q 1403 2931 1139 2672 
Q 875 2413 847 1978 
z
" transform="scale(0.015625)"/>
       <path id="ArialMT-5f" d="M -97 -1272 
L -97 -866 
L 3631 -866 
L 3631 -1272 
L -97 -1272 
z
" transform="scale(0.015625)"/>
       <path id="ArialMT-64" d="M 2575 0 
L 2575 419 
Q 2259 -75 1647 -75 
Q 1250 -75 917 144 
Q 584 363 401 755 
Q 219 1147 219 1656 
Q 219 2153 384 2558 
Q 550 2963 881 3178 
Q 1213 3394 1622 3394 
Q 1922 3394 2156 3267 
Q 2391 3141 2538 2938 
L 2538 4581 
L 3097 4581 
L 3097 0 
L 2575 0 
z
M 797 1656 
Q 797 1019 1065 703 
Q 1334 388 1700 388 
Q 2069 388 2326 689 
Q 2584 991 2584 1609 
Q 2584 2291 2321 2609 
Q 2059 2928 1675 2928 
Q 1300 2928 1048 2622 
Q 797 2316 797 1656 
z
" transform="scale(0.015625)"/>
      </defs>
      <use xlink:href="#ArialMT-72"/>
      <use xlink:href="#ArialMT-61" x="33.300781"/>
      <use xlink:href="#ArialMT-74" x="88.916016"/>
      <use xlink:href="#ArialMT-65" x="116.699219"/>
      <use xlink:href="#ArialMT-5f" x="172.314453"/>
      <use xlink:href="#ArialMT-64" x="227.929688"/>
      <use xlink:href="#ArialMT-74" x="283.544922"/>
     </g>
    </g>
   </g>
   <g id="matplotlib.axis_2">
    <g id="ytick_1">
     <g id="line2d_7">
      <defs>
       <path id="m5487cb80c2" d="M 0 0 
L -3.5 0 
" style="stroke: #000000; stroke-width: 0.8"/>
      </defs>
      <g>
       <use xlink:href="#m5487cb80c2" x="44.028125" y="295.437443" style="stroke: #000000; stroke-width: 0.8"/>
      </g>
     </g>
     <g id="text_8">
      <!-- 98 -->
      <g transform="translate(25.90625 299.01635)scale(0.1 -0.1)">
       <use xlink:href="#ArialMT-39"/>
       <use xlink:href="#ArialMT-38" x="55.615234"/>
      </g>
     </g>
    </g>
    <g id="ytick_2">
     <g id="line2d_8">
      <g>
       <use xlink:href="#m5487cb80c2" x="44.028125" y="224.272809" style="stroke: #000000; stroke-width: 0.8"/>
      </g>
     </g>
     <g id="text_9">
      <!-- 100 -->
      <g transform="translate(20.345313 227.851715)scale(0.1 -0.1)">
       <use xlink:href="#ArialMT-31"/>
       <use xlink:href="#ArialMT-30" x="55.615234"/>
       <use xlink:href="#ArialMT-30" x="111.230469"/>
      </g>
     </g>
    </g>
    <g id="ytick_3">
     <g id="line2d_9">
      <g>
       <use xlink:href="#m5487cb80c2" x="44.028125" y="153.108175" style="stroke: #000000; stroke-width: 0.8"/>
      </g>
     </g>
     <g id="text_10">
      <!-- 102 -->
      <g transform="translate(20.345313 156.687081)scale(0.1 -0.1)">
       <use xlink:href="#ArialMT-31"/>
       <use xlink:href="#ArialMT-30" x="55.615234"/>
       <use xlink:href="#ArialMT-32" x="111.230469"/>
      </g>
     </g>
    </g>
    <g id="ytick_4">
     <g id="line2d_10">
      <g>
       <use xlink:href="#m5487cb80c2" x="44.028125" y="81.943541" style="stroke: #000000; stroke-width: 0.8"/>
      </g>
     </g>
     <g id="text_11">
      <!-- 104 -->
      <g transform="translate(20.345313 85.522447)scale(0.1 -0.1)">
       <defs>
        <path id="ArialMT-34" d="M 2069 0 
L 2069 1097 
L 81 1097 
L 81 1613 
L 2172 4581 
L 2631 4581 
L 2631 1613 
L 3250 1613 
L 3250 1097 
L 2631 1097 
L 2631 0 
L 2069 0 
z
M 2069 1613 
L 2069 3678 
L 634 1613 
L 2069 1613 
z
" transform="scale(0.015625)"/>
       </defs>
       <use xlink:href="#ArialMT-31"/>
       <use xlink:href="#ArialMT-30" x="55.615234"/>
       <use xlink:href="#ArialMT-34" x="111.230469"/>
      </g>
     </g>
    </g>
    <g id="ytick_5">
     <g id="line2d_11">
      <g>
       <use xlink:href="#m5487cb80c2" x="44.028125" y="10.778906" style="stroke: #000000; stroke-width: 0.8"/>
      </g>
     </g>
     <g id="text_12">
      <!-- 106 -->
      <g transform="translate(20.345313 14.357813)scale(0.1 -0.1)">
       <defs>
        <path id="ArialMT-36" d="M 3184 3459 
L 2625 3416 
Q 2550 3747 2413 3897 
Q 2184 4138 1850 4138 
Q 1581 4138 1378 3988 
Q 1113 3794 959 3422 
Q 806 3050 800 2363 
Q 1003 2672 1297 2822 
Q 1591 2972 1913 2972 
Q 2475 2972 2870 2558 
Q 3266 2144 3266 1488 
Q 3266 1056 3080 686 
Q 2894 316 2569 119 
Q 2244 -78 1831 -78 
Q 1128 -78 684 439 
Q 241 956 241 2144 
Q 241 3472 731 4075 
Q 1159 4600 1884 4600 
Q 2425 4600 2770 4297 
Q 3116 3994 3184 3459 
z
M 888 1484 
Q 888 1194 1011 928 
Q 1134 663 1356 523 
Q 1578 384 1822 384 
Q 2178 384 2434 671 
Q 2691 959 2691 1453 
Q 2691 1928 2437 2201 
Q 2184 2475 1800 2475 
Q 1419 2475 1153 2201 
Q 888 1928 888 1484 
z
" transform="scale(0.015625)"/>
       </defs>
       <use xlink:href="#ArialMT-31"/>
       <use xlink:href="#ArialMT-30" x="55.615234"/>
       <use xlink:href="#ArialMT-36" x="111.230469"/>
      </g>
     </g>
    </g>
    <g id="text_13">
     <!-- estimated_bondprice -->
     <g transform="translate(14.357812 219.562902)rotate(-90)scale(0.1 -0.1)">
      <defs>
       <path id="ArialMT-73" d="M 197 991 
L 753 1078 
Q 800 744 1014 566 
Q 1228 388 1613 388 
Q 2000 388 2187 545 
Q 2375 703 2375 916 
Q 2375 1106 2209 1216 
Q 2094 1291 1634 1406 
Q 1016 1563 777 1677 
Q 538 1791 414 1992 
Q 291 2194 291 2438 
Q 291 2659 392 2848 
Q 494 3038 669 3163 
Q 800 3259 1026 3326 
Q 1253 3394 1513 3394 
Q 1903 3394 2198 3281 
Q 2494 3169 2634 2976 
Q 2775 2784 2828 2463 
L 2278 2388 
Q 2241 2644 2061 2787 
Q 1881 2931 1553 2931 
Q 1166 2931 1000 2803 
Q 834 2675 834 2503 
Q 834 2394 903 2306 
Q 972 2216 1119 2156 
Q 1203 2125 1616 2013 
Q 2213 1853 2448 1751 
Q 2684 1650 2818 1456 
Q 2953 1263 2953 975 
Q 2953 694 2789 445 
Q 2625 197 2315 61 
Q 2006 -75 1616 -75 
Q 969 -75 630 194 
Q 291 463 197 991 
z
" transform="scale(0.015625)"/>
       <path id="ArialMT-69" d="M 425 3934 
L 425 4581 
L 988 4581 
L 988 3934 
L 425 3934 
z
M 425 0 
L 425 3319 
L 988 3319 
L 988 0 
L 425 0 
z
" transform="scale(0.015625)"/>
       <path id="ArialMT-6d" d="M 422 0 
L 422 3319 
L 925 3319 
L 925 2853 
Q 1081 3097 1340 3245 
Q 1600 3394 1931 3394 
Q 2300 3394 2536 3241 
Q 2772 3088 2869 2813 
Q 3263 3394 3894 3394 
Q 4388 3394 4653 3120 
Q 4919 2847 4919 2278 
L 4919 0 
L 4359 0 
L 4359 2091 
Q 4359 2428 4304 2576 
Q 4250 2725 4106 2815 
Q 3963 2906 3769 2906 
Q 3419 2906 3187 2673 
Q 2956 2441 2956 1928 
L 2956 0 
L 2394 0 
L 2394 2156 
Q 2394 2531 2256 2718 
Q 2119 2906 1806 2906 
Q 1569 2906 1367 2781 
Q 1166 2656 1075 2415 
Q 984 2175 984 1722 
L 984 0 
L 422 0 
z
" transform="scale(0.015625)"/>
       <path id="ArialMT-62" d="M 941 0 
L 419 0 
L 419 4581 
L 981 4581 
L 981 2947 
Q 1338 3394 1891 3394 
Q 2197 3394 2470 3270 
Q 2744 3147 2920 2923 
Q 3097 2700 3197 2384 
Q 3297 2069 3297 1709 
Q 3297 856 2875 390 
Q 2453 -75 1863 -75 
Q 1275 -75 941 416 
L 941 0 
z
M 934 1684 
Q 934 1088 1097 822 
Q 1363 388 1816 388 
Q 2184 388 2453 708 
Q 2722 1028 2722 1663 
Q 2722 2313 2464 2622 
Q 2206 2931 1841 2931 
Q 1472 2931 1203 2611 
Q 934 2291 934 1684 
z
" transform="scale(0.015625)"/>
       <path id="ArialMT-6f" d="M 213 1659 
Q 213 2581 725 3025 
Q 1153 3394 1769 3394 
Q 2453 3394 2887 2945 
Q 3322 2497 3322 1706 
Q 3322 1066 3130 698 
Q 2938 331 2570 128 
Q 2203 -75 1769 -75 
Q 1072 -75 642 372 
Q 213 819 213 1659 
z
M 791 1659 
Q 791 1022 1069 705 
Q 1347 388 1769 388 
Q 2188 388 2466 706 
Q 2744 1025 2744 1678 
Q 2744 2294 2464 2611 
Q 2184 2928 1769 2928 
Q 1347 2928 1069 2612 
Q 791 2297 791 1659 
z
" transform="scale(0.015625)"/>
       <path id="ArialMT-6e" d="M 422 0 
L 422 3319 
L 928 3319 
L 928 2847 
Q 1294 3394 1984 3394 
Q 2284 3394 2536 3286 
Q 2788 3178 2913 3003 
Q 3038 2828 3088 2588 
Q 3119 2431 3119 2041 
L 3119 0 
L 2556 0 
L 2556 2019 
Q 2556 2363 2490 2533 
Q 2425 2703 2258 2804 
Q 2091 2906 1866 2906 
Q 1506 2906 1245 2678 
Q 984 2450 984 1813 
L 984 0 
L 422 0 
z
" transform="scale(0.015625)"/>
       <path id="ArialMT-70" d="M 422 -1272 
L 422 3319 
L 934 3319 
L 934 2888 
Q 1116 3141 1344 3267 
Q 1572 3394 1897 3394 
Q 2322 3394 2647 3175 
Q 2972 2956 3137 2557 
Q 3303 2159 3303 1684 
Q 3303 1175 3120 767 
Q 2938 359 2589 142 
Q 2241 -75 1856 -75 
Q 1575 -75 1351 44 
Q 1128 163 984 344 
L 984 -1272 
L 422 -1272 
z
M 931 1641 
Q 931 1000 1190 694 
Q 1450 388 1819 388 
Q 2194 388 2461 705 
Q 2728 1022 2728 1688 
Q 2728 2322 2467 2637 
Q 2206 2953 1844 2953 
Q 1484 2953 1207 2617 
Q 931 2281 931 1641 
z
" transform="scale(0.015625)"/>
       <path id="ArialMT-63" d="M 2588 1216 
L 3141 1144 
Q 3050 572 2676 248 
Q 2303 -75 1759 -75 
Q 1078 -75 664 370 
Q 250 816 250 1647 
Q 250 2184 428 2587 
Q 606 2991 970 3192 
Q 1334 3394 1763 3394 
Q 2303 3394 2647 3120 
Q 2991 2847 3088 2344 
L 2541 2259 
Q 2463 2594 2264 2762 
Q 2066 2931 1784 2931 
Q 1359 2931 1093 2626 
Q 828 2322 828 1663 
Q 828 994 1084 691 
Q 1341 388 1753 388 
Q 2084 388 2306 591 
Q 2528 794 2588 1216 
z
" transform="scale(0.015625)"/>
      </defs>
      <use xlink:href="#ArialMT-65"/>
      <use xlink:href="#ArialMT-73" x="55.615234"/>
      <use xlink:href="#ArialMT-74" x="105.615234"/>
      <use xlink:href="#ArialMT-69" x="133.398438"/>
      <use xlink:href="#ArialMT-6d" x="155.615234"/>
      <use xlink:href="#ArialMT-61" x="238.916016"/>
      <use xlink:href="#ArialMT-74" x="294.53125"/>
      <use xlink:href="#ArialMT-65" x="322.314453"/>
      <use xlink:href="#ArialMT-64" x="377.929688"/>
      <use xlink:href="#ArialMT-5f" x="433.544922"/>
      <use xlink:href="#ArialMT-62" x="489.160156"/>
      <use xlink:href="#ArialMT-6f" x="544.775391"/>
      <use xlink:href="#ArialMT-6e" x="600.390625"/>
      <use xlink:href="#ArialMT-64" x="656.005859"/>
      <use xlink:href="#ArialMT-70" x="711.621094"/>
      <use xlink:href="#ArialMT-72" x="767.236328"/>
      <use xlink:href="#ArialMT-69" x="800.537109"/>
      <use xlink:href="#ArialMT-63" x="822.753906"/>
      <use xlink:href="#ArialMT-65" x="872.753906"/>
     </g>
    </g>
   </g>
   <g id="line2d_12">
    <path d="M 69.391761 254.334114 
L 69.639695 250.729254 
L 69.887629 236.583627 
L 70.631431 241.777702 
L 70.879365 233.746903 
L 71.127299 233.116175 
L 71.375232 223.00746 
L 71.623166 221.899868 
L 72.366968 228.855482 
L 72.862836 221.741609 
L 73.11077 221.583342 
L 73.358704 232.485322 
L 74.102505 237.686112 
L 74.350439 236.898662 
L 74.598373 237.213665 
L 74.846307 238.473367 
L 75.094241 208.101853 
L 75.838042 193.126398 
L 76.581844 170.853065 
L 76.829778 166.508684 
L 77.57358 166.186646 
L 77.821513 152.955412 
L 78.069447 153.925385 
L 78.317381 158.770902 
L 78.565315 144.698925 
L 79.309117 151.661664 
L 79.557051 167.474607 
L 79.804985 155.218231 
L 80.300852 180.806974 
L 81.044654 144.561731 
L 81.292588 144.619457 
L 81.540522 149.147644 
L 81.788456 149.968955 
L 82.780191 142.612902 
L 83.028125 146.841085 
L 83.276059 132.735145 
L 83.523993 129.691967 
L 83.771927 118.741824 
L 84.515728 120.298016 
L 84.763662 136.209551 
L 85.011596 138.8129 
L 85.25953 122.2749 
L 85.507464 130.764652 
L 86.251265 127.792149 
L 86.747133 115.394206 
L 86.995067 119.67272 
L 87.243001 117.621485 
L 87.986803 129.256993 
L 88.234737 139.521225 
L 88.48267 134.472816 
L 88.730604 126.631405 
L 88.978538 136.585721 
L 89.72234 128.009742 
L 89.970274 127.182811 
L 90.466142 129.996414 
L 90.714075 124.816908 
L 91.457877 133.71994 
L 91.705811 126.37018 
L 91.953745 128.908971 
L 92.449613 140.735135 
L 93.193414 136.469981 
L 93.441348 119.425477 
L 93.689282 115.059254 
L 94.18515 152.906666 
L 94.928951 157.696273 
L 95.176885 161.789807 
L 95.424819 151.682947 
L 95.672753 154.691019 
L 95.920687 147.778324 
L 96.664489 151.567749 
L 96.912423 142.035244 
L 97.160356 148.686464 
L 97.40829 121.984257 
L 97.656224 126.196019 
L 98.400026 115.743684 
L 98.64796 109.33059 
L 98.895894 108.630212 
L 99.143827 118.407218 
L 99.391761 118.145328 
L 100.383497 128.966977 
L 100.631431 151.337341 
L 100.879365 146.20649 
L 101.127299 156.344976 
L 101.8711 164.386844 
L 102.119034 154.619089 
L 102.366968 168.543451 
L 102.614902 159.075732 
L 102.862836 159.908867 
L 103.606637 160.770504 
L 103.854571 155.510913 
L 104.102505 152.935454 
L 104.350439 146.841085 
L 104.598373 147.662986 
L 105.342175 152.014117 
L 105.590108 151.538949 
L 106.085976 192.758719 
L 106.33391 192.360667 
L 107.077712 193.824684 
L 107.325646 198.950522 
L 107.57358 186.042016 
L 107.821513 193.242001 
L 108.069447 187.864899 
L 108.813249 190.995537 
L 109.309117 206.347755 
L 109.804985 250.356024 
L 110.548786 255.571747 
L 110.79672 241.130502 
L 111.044654 242.250198 
L 111.292588 240.878515 
L 111.540522 241.746384 
L 112.284323 240.822515 
L 112.532257 224.075765 
L 112.780191 236.900036 
L 113.276059 230.71216 
L 114.267794 221.062269 
L 114.515728 234.263614 
L 114.763662 255.557812 
L 115.011596 232.944571 
L 116.003332 254.024675 
L 116.251265 245.355257 
L 116.499199 255.51601 
L 116.747133 252.239711 
L 117.490935 266.102053 
L 117.986803 234.572246 
L 118.234737 248.806363 
L 118.48267 239.968394 
L 119.226472 221.104534 
L 119.474406 226.537928 
L 119.72234 218.849597 
L 119.970274 222.710192 
L 120.218208 215.097187 
L 121.209943 207.366706 
L 121.457877 208.229728 
L 121.705811 201.007044 
L 121.953745 209.304637 
L 122.697546 204.195556 
L 122.94548 223.639409 
L 123.193414 231.161578 
L 123.441348 227.859666 
L 123.689282 239.898374 
L 124.433084 228.857631 
L 124.681018 231.681137 
L 124.928951 221.555328 
L 125.176885 223.104439 
L 125.424819 230.037912 
L 126.416555 227.058253 
L 126.664489 240.458492 
L 126.912423 245.956331 
L 127.160356 258.49654 
L 127.904158 244.586273 
L 128.152092 255.432402 
L 128.400026 274.409278 
L 128.64796 283.619629 
L 128.895894 278.879582 
L 129.639695 279.571003 
L 129.887629 271.499426 
L 130.135563 280.690778 
L 130.383497 267.795812 
L 130.631431 268.822725 
L 131.375232 266.310352 
L 131.623166 260.333577 
L 131.8711 242.194223 
L 132.119034 244.012907 
L 132.366968 249.993109 
L 133.358704 248.666716 
L 133.606637 256.198719 
L 133.854571 252.016518 
L 134.102505 240.276465 
L 134.846307 245.872467 
L 135.094241 246.152004 
L 135.590108 215.25245 
L 135.838042 205.781529 
L 136.829778 202.240317 
L 137.325646 226.945757 
L 137.57358 237.054227 
L 138.317381 235.231495 
L 138.565315 230.74025 
L 139.061183 255.362728 
L 139.309117 265.102024 
L 140.052918 268.850474 
L 140.300852 269.26669 
L 140.548786 258.705349 
L 140.79672 264.268421 
L 141.044654 263.573581 
L 141.788456 266.213148 
L 142.036389 265.796523 
L 142.284323 254.805276 
L 142.532257 251.737505 
L 142.780191 253.550643 
L 143.523993 248.666716 
L 143.771927 249.783716 
L 144.019861 240.836515 
L 144.267794 239.4362 
L 144.515728 233.548031 
L 145.25953 227.367594 
L 145.507464 207.196904 
L 145.755398 211.156584 
L 146.251265 196.566122 
L 146.995067 200.964509 
L 147.243001 203.232256 
L 147.490935 198.411351 
L 147.738869 189.885937 
L 148.978538 193.156721 
L 149.226472 195.003935 
L 149.474406 210.025753 
L 149.72234 214.405466 
L 150.466142 231.582848 
L 150.962009 237.054227 
L 151.209943 224.554279 
L 151.457877 221.738445 
L 152.449613 219.9068 
L 152.697546 260.236185 
L 152.94548 274.118416 
L 153.193414 279.100854 
L 153.937216 284.765547 
L 154.18515 291.521955 
L 154.433084 280.206974 
L 154.681018 288.766023 
L 154.928951 279.377421 
L 155.920687 285.869644 
L 156.416555 263.017597 
L 156.664489 268.572967 
L 157.40829 275.226317 
L 157.904158 277.164191 
L 158.400026 260.792666 
L 159.143827 252.016518 
L 159.391761 250.481639 
L 159.639695 246.012239 
L 159.887629 254.387121 
L 160.135563 244.754067 
L 160.879365 249.364888 
L 161.127299 241.816363 
L 161.375232 240.696512 
L 161.623166 242.795905 
L 161.8711 239.57626 
L 162.614902 237.054227 
L 162.862836 240.976513 
L 163.11077 234.670441 
L 163.358704 247.130188 
L 163.606637 243.775139 
L 164.350439 245.033705 
L 164.598373 240.276465 
L 164.846307 239.296134 
L 165.094241 232.284841 
L 165.342175 234.530161 
L 166.085976 231.442431 
L 166.581844 271.901425 
L 166.829778 285.455654 
L 167.077712 292.072846 
L 167.821513 290.557659 
L 168.317381 295.10099 
L 168.565315 317.034633 
L 168.813249 321.402604 
L 169.557051 316.761428 
L 169.804985 317.58097 
L 170.052918 308.279963 
L 170.300852 307.183871 
L 170.548786 304.167598 
L 171.540522 254.212945 
L 171.788456 248.346016 
L 172.036389 246.387883 
L 172.284323 240.99659 
L 173.028125 237.560852 
L 173.276059 251.28088 
L 173.523993 250.425167 
L 173.771927 243.203259 
L 174.019861 250.180634 
L 174.763662 247.367105 
L 175.25953 234.367095 
L 175.507464 230.185656 
L 175.755398 231.78511 
L 176.499199 231.416079 
L 176.747133 231.662104 
L 176.995067 223.039544 
L 177.243001 220.077703 
L 177.490935 213.403205 
L 178.234737 220.324631 
L 178.48267 226.737868 
L 178.730604 229.077858 
L 178.978538 227.353826 
L 179.226472 218.10157 
L 179.970274 217.854464 
L 180.218208 220.448088 
L 180.714075 211.54663 
L 180.962009 215.876915 
L 181.705811 212.165612 
L 181.953745 205.722174 
L 182.201679 211.670436 
L 182.449613 207.582228 
L 182.697546 214.021817 
L 183.441348 209.56506 
L 183.689282 206.218297 
L 183.937216 205.474083 
L 184.18515 198.022151 
L 184.433084 199.265377 
L 185.176885 200.135341 
L 185.424819 212.041825 
L 185.672753 217.113031 
L 185.920687 218.719246 
L 186.168621 225.012533 
L 186.912423 228.339105 
L 187.40829 224.519403 
L 187.656224 227.600175 
L 187.904158 226.368234 
L 188.64796 218.348655 
L 188.895894 218.595721 
L 189.143827 230.800929 
L 189.391761 231.90811 
L 189.639695 228.092815 
L 190.383497 226.245013 
L 190.631431 228.954744 
L 190.879365 226.121787 
L 191.127299 226.737868 
L 191.375232 237.560852 
L 192.119034 225.875321 
L 192.366968 226.491451 
L 192.614902 225.75208 
L 192.862836 222.669468 
L 193.11077 213.774387 
L 193.854571 207.210306 
L 194.102505 203.61277 
L 194.350439 209.688945 
L 194.598373 209.193375 
L 194.846307 221.435564 
L 195.590108 217.236615 
L 195.838042 225.875321 
L 196.085976 230.062587 
L 196.581844 208.945561 
L 197.325646 202.495447 
L 197.57358 202.122918 
L 197.821513 202.992085 
L 198.069447 201.501936 
L 198.317381 201.626142 
L 199.061183 195.783096 
L 199.309117 196.529626 
L 199.557051 191.050924 
L 199.804985 203.861009 
L 200.052918 208.325938 
L 200.79672 211.918034 
L 201.044654 207.706192 
L 201.292588 200.880831 
L 201.540522 201.005062 
L 202.532257 198.270836 
L 202.780191 194.538482 
L 203.028125 199.886804 
L 203.276059 198.892461 
L 203.523993 202.867933 
L 204.267794 200.011075 
L 204.515728 200.508108 
L 204.763662 209.317275 
L 205.25953 195.28531 
L 206.003332 194.413993 
L 206.251265 190.801664 
L 206.499199 183.064732 
L 206.747133 183.689387 
L 206.995067 185.43776 
L 207.738869 186.186763 
L 208.48267 197.400352 
L 208.730604 190.926296 
L 209.474406 192.296927 
L 210.218208 220.941865 
L 210.466142 218.595721 
L 211.705811 214.021817 
L 212.201679 225.259068 
L 213.193414 228.339105 
L 213.441348 223.039544 
L 213.689282 225.628834 
L 213.937216 223.656238 
L 214.681018 219.707274 
L 215.176885 231.170033 
L 215.424819 246.510303 
L 215.672753 247.978961 
L 216.416555 245.898155 
L 216.664489 240.506005 
L 216.912423 242.835591 
L 217.160356 246.999933 
L 217.40829 246.755128 
L 218.152092 248.346016 
L 218.400026 245.530808 
L 218.895894 262.870611 
L 219.143827 265.061634 
L 219.887629 279.749577 
L 220.135563 272.960626 
L 220.383497 276.114517 
L 220.879365 291.714602 
L 221.623166 286.885909 
L 221.8711 281.081348 
L 222.119034 284.952285 
L 222.366968 299.544895 
L 222.614902 290.508147 
L 223.358704 289.301214 
L 223.606637 290.387475 
L 224.102505 295.57204 
L 224.350439 285.435806 
L 225.094241 292.920577 
L 225.342175 289.05977 
L 225.590108 288.456075 
L 225.838042 286.281784 
L 226.085976 276.356989 
L 226.829778 273.810071 
L 227.077712 275.750773 
L 227.325646 273.203349 
L 227.57358 267.37268 
L 227.821513 265.061634 
L 228.565315 266.278191 
L 228.813249 276.963085 
L 229.309117 270.896705 
L 229.557051 270.410874 
L 230.300852 266.034918 
L 230.548786 266.156557 
L 230.79672 262.627067 
L 231.044654 282.291544 
L 232.036389 283.864081 
L 232.284323 284.589593 
L 232.532257 287.248327 
L 232.780191 270.16793 
L 233.028125 272.839258 
L 233.771927 270.775255 
L 234.019861 265.913275 
L 234.267794 263.23589 
L 234.515728 261.89632 
L 235.755398 262.261716 
L 236.003332 261.287231 
L 236.251265 267.494266 
L 236.499199 264.453173 
L 237.243001 264.939951 
L 237.490935 268.58832 
L 237.738869 264.696572 
L 238.234737 268.345231 
L 238.978538 268.58832 
L 239.226472 266.886289 
L 239.474406 267.494266 
L 239.72234 282.533526 
L 239.970274 286.402618 
L 240.714075 291.714602 
L 240.962009 294.849143 
L 241.209943 293.885013 
L 241.705811 280.960302 
L 242.449613 278.053755 
L 242.94548 280.47607 
L 243.193414 273.810071 
L 243.441348 272.960626 
L 244.18515 268.466778 
L 244.433084 277.08429 
L 244.681018 279.022912 
L 244.928951 271.018151 
L 245.176885 276.114517 
L 245.920687 287.489915 
L 246.168621 294.005546 
L 246.416555 288.093801 
L 246.664489 290.749476 
L 247.656224 278.538372 
L 247.904158 276.963085 
L 248.152092 269.803477 
L 248.64796 243.570884 
L 249.391761 234.858657 
L 249.639695 234.612886 
L 249.887629 229.200966 
L 250.383497 239.03378 
L 251.127299 248.101317 
L 251.375232 243.693416 
L 251.8711 270.04645 
L 252.119034 258.849664 
L 252.862836 269.195959 
L 253.11077 270.289404 
L 253.854571 240.138014 
L 254.598373 238.665614 
L 254.846307 231.539094 
L 255.094241 233.506673 
L 255.342175 223.162892 
L 255.590108 224.519403 
L 256.33391 223.409575 
L 256.581844 226.737868 
L 256.829778 223.656238 
L 257.077712 218.719246 
L 257.325646 217.360195 
L 258.069447 216.742248 
L 258.317381 216.000548 
L 258.565315 217.854464 
L 258.813249 218.10157 
L 259.061183 214.145525 
L 259.804985 218.10157 
L 260.052918 220.201169 
L 260.300852 220.201169 
L 260.548786 216.618643 
L 260.79672 210.927525 
L 261.788456 181.690052 
L 262.036389 186.259333 
L 262.284323 184.330122 
L 262.532257 189.900092 
L 263.523993 197.809181 
L 263.771927 196.955129 
L 264.019861 195.673603 
L 264.267794 198.983114 
L 265.011596 206.76236 
L 265.25953 206.549494 
L 265.507464 212.92903 
L 265.755398 211.97295 
L 266.003332 202.502213 
L 266.747133 198.983114 
L 266.995067 201.64947 
L 267.243001 199.089813 
L 267.490935 194.605255 
L 267.738869 186.259333 
L 268.48267 184.544539 
L 268.730604 185.187699 
L 268.978538 181.648652 
L 269.226472 182.292418 
L 269.474406 179.716544 
L 270.218208 179.823915 
L 270.466142 185.187699 
L 270.962009 188.615611 
L 272.201679 197.275426 
L 272.449613 201.64947 
L 272.697546 192.36051 
L 272.94548 188.936782 
L 273.689282 188.508547 
L 273.937216 192.039698 
L 274.18515 198.876412 
L 274.433084 195.353137 
L 274.681018 197.915921 
L 275.424819 198.983114 
L 275.672753 204.739531 
L 275.920687 199.3032 
L 276.168621 204.100465 
L 276.416555 206.017263 
L 277.160356 209.421937 
L 277.656224 216.432091 
L 277.904158 215.158717 
L 278.152092 210.05989 
L 278.895894 222.049795 
L 279.143827 227.868529 
L 279.391761 226.494198 
L 279.639695 226.071201 
L 279.887629 216.325997 
L 280.631431 220.990645 
L 280.879365 208.890207 
L 281.623166 230.509725 
L 282.366968 227.234299 
L 282.614902 228.819624 
L 282.862836 232.304425 
L 283.358704 222.79098 
L 284.102505 220.24902 
L 284.350439 219.931125 
L 284.598373 214.627987 
L 284.846307 214.627987 
L 285.094241 213.247656 
L 285.838042 213.247656 
L 286.085976 206.123717 
L 286.33391 203.567807 
L 286.581844 203.567807 
L 286.829778 195.780417 
L 287.57358 202.182462 
L 287.821513 198.769706 
L 288.069447 228.502626 
L 288.317381 229.453522 
L 288.565315 233.887101 
L 289.557051 232.093339 
L 289.804985 238.314201 
L 290.052918 238.735491 
L 290.300852 233.570632 
L 291.044654 228.713962 
L 291.292588 229.770422 
L 291.540522 231.776682 
L 291.788456 222.26158 
L 292.036389 224.166988 
L 292.780191 227.234299 
L 293.028125 222.896849 
L 293.276059 226.705674 
L 293.523993 228.713962 
L 293.771927 220.884709 
L 294.515728 225.859681 
L 294.763662 220.354977 
L 295.011596 221.308428 
L 295.507464 211.122849 
L 296.251265 212.716594 
L 296.499199 208.039246 
L 296.747133 206.549494 
L 296.995067 199.94327 
L 297.243001 207.613677 
L 297.986803 208.677489 
L 298.234737 206.123717 
L 298.48267 211.441665 
L 298.978538 206.655929 
L 299.72234 208.358384 
L 299.970274 206.443055 
L 300.218208 206.336613 
L 300.466142 202.928495 
L 300.714075 203.248168 
L 301.457877 203.461264 
L 302.201679 200.369909 
L 302.449613 202.075871 
L 303.689282 187.009254 
L 303.937216 189.150877 
L 304.18515 193.643422 
L 304.928951 196.741578 
L 305.176885 200.049936 
L 305.424819 197.59569 
L 305.920687 187.437698 
L 306.664489 185.294879 
L 306.912423 185.402056 
L 307.40829 190.007108 
L 307.656224 190.649124 
L 308.400026 193.429641 
L 308.64796 190.649124 
L 309.143827 181.970552 
L 310.135563 183.901244 
L 310.631431 182.828787 
L 310.879365 176.601147 
L 311.127299 177.568332 
L 311.8711 179.072238 
L 312.119034 182.93605 
L 312.366968 179.609169 
L 312.614902 169.175956 
L 312.862836 165.079073 
L 313.606637 169.068213 
L 313.854571 171.86831 
L 314.102505 172.083597 
L 314.350439 165.186955 
L 314.598373 168.313906 
L 315.342175 168.529441 
L 315.590108 167.775003 
L 315.838042 166.049879 
L 316.085976 173.267405 
L 316.33391 167.882791 
L 317.077712 169.714615 
L 317.325646 171.437691 
L 317.821513 184.115691 
L 318.069447 187.223484 
L 318.813249 181.004751 
L 319.061183 181.004751 
L 319.804985 159.031637 
L 320.548786 157.734218 
L 320.79672 158.382995 
L 321.044654 158.382995 
L 321.292588 161.408827 
L 322.284323 161.624844 
L 322.532257 166.48125 
L 322.780191 163.676258 
L 323.028125 155.895275 
L 323.276059 142.448703 
L 324.267794 145.815813 
L 324.515728 130.144084 
L 324.763662 133.524531 
L 325.011596 134.505264 
L 325.755398 139.73063 
L 326.003332 138.642736 
L 326.251265 146.684153 
L 326.499199 144.62145 
L 327.490935 146.575624 
L 327.738869 144.295635 
L 327.986803 138.751543 
L 328.234737 139.948164 
L 328.48267 151.238952 
L 329.226472 154.380031 
L 329.474406 154.05524 
L 329.72234 155.895275 
L 329.970274 146.032921 
L 331.209943 148.962388 
L 331.457877 140.383185 
L 331.953745 138.316293 
L 332.697546 142.774712 
L 332.94548 146.467091 
L 333.441348 142.340025 
L 333.689282 142.013971 
L 334.433084 141.253044 
L 334.681018 132.652508 
L 335.176885 130.471384 
L 335.424819 135.158915 
L 336.168621 131.671191 
L 336.416555 129.925865 
L 336.664489 123.044133 
L 336.912423 127.961204 
L 337.160356 123.372178 
L 337.904158 126.32304 
L 338.152092 129.925865 
L 338.400026 128.834539 
L 338.64796 123.590856 
L 338.895894 123.918845 
L 339.887629 116.58556 
L 340.135563 111.760304 
L 340.383497 111.650553 
L 340.631431 107.477152 
L 341.375232 106.487901 
L 341.623166 104.948446 
L 341.8711 101.096504 
L 342.119034 102.527777 
L 342.366968 94.371816 
L 343.11077 102.968037 
L 343.358704 102.307623 
L 344.102505 97.570591 
L 344.846307 98.45244 
L 345.094241 79.881581 
L 345.342175 85.530731 
L 345.590108 81.433334 
L 345.838042 89.070141 
L 346.581844 85.641397 
L 346.829778 80.657552 
L 347.077712 82.208925 
L 347.325646 82.541263 
L 347.57358 80.214163 
L 348.317381 75.221746 
L 348.565315 72.778138 
L 349.061183 65.658727 
L 349.309117 75.998862 
L 350.052918 70.332644 
L 350.300852 75.998862 
L 350.548786 84.755955 
L 351.044654 93.709594 
L 352.036389 85.75206 
L 352.284323 62.538953 
L 352.532257 87.613181 
L 352.780191 83.637799 
L 353.523993 80.861227 
L 353.771927 78.916133 
L 354.019861 75.671576 
L 354.267794 82.434926 
L 354.515728 78.174822 
L 355.25953 74.929482 
L 355.507464 75.393312 
L 355.755398 71.866455 
L 356.003332 70.658972 
L 356.251265 66.103434 
L 356.995067 62.100171 
L 357.243001 59.117629 
L 357.490935 47.720249 
L 357.738869 50.713785 
L 358.730604 49.310925 
L 358.978538 49.872145 
L 359.226472 43.037061 
L 359.72234 37.313994 
L 360.466142 41.912044 
L 360.714075 35.341318 
L 361.209943 46.222398 
L 361.457877 44.911184 
L 362.201679 44.349066 
L 362.697546 39.473109 
L 362.94548 40.692816 
L 363.193414 40.129934 
L 363.937216 40.223754 
L 364.18515 37.971274 
L 364.433084 43.880556 
L 364.681018 52.583277 
L 364.928951 47.345854 
L 365.920687 56.038868 
L 366.168621 56.318882 
L 366.416555 62.379637 
L 366.664489 72.980635 
L 367.656224 73.723199 
L 367.904158 70.751872 
L 368.152092 73.908811 
L 369.143827 63.217883 
L 369.391761 63.031626 
L 369.639695 61.447986 
L 369.887629 63.776587 
L 370.135563 60.422845 
L 370.879365 60.516054 
L 371.127299 65.638205 
L 371.375232 65.079837 
L 371.623166 56.878834 
L 371.8711 58.931125 
L 372.614902 59.304122 
L 372.862836 56.785515 
L 373.11077 61.261622 
L 373.358704 74.558368 
L 373.606637 78.082145 
L 374.350439 77.804099 
L 374.598373 78.730822 
L 374.846307 87.151192 
L 375.094241 88.352219 
L 375.342175 90.475964 
L 376.085976 94.073737 
L 376.33391 92.229252 
L 376.581844 89.368107 
L 376.829778 87.797957 
L 377.077712 91.491148 
L 377.821513 97.298914 
L 378.069447 96.285653 
L 378.317381 94.719044 
L 378.565315 85.117612 
L 379.557051 90.106722 
L 379.804985 97.022604 
L 380.052918 96.469907 
L 380.300852 103.73909 
L 380.548786 105.668501 
L 381.292588 106.311366 
L 381.540522 106.678658 
L 382.036389 98.21977 
L 382.284323 97.66729 
L 383.028125 97.66729 
L 383.276059 98.495973 
L 383.523993 95.179895 
L 383.771927 98.035621 
L 384.019861 95.917111 
L 384.763662 94.626866 
L 385.011596 92.598238 
L 385.25953 94.073737 
L 385.507464 93.61272 
L 386.499199 102.911827 
L 386.747133 96.009251 
L 386.995067 94.534684 
L 387.243001 101.808461 
L 387.490935 101.992383 
L 388.234737 98.864204 
L 388.48267 100.152666 
L 388.730604 97.943543 
L 389.226472 108.422688 
L 389.970274 102.544083 
L 390.218208 104.56613 
L 390.714075 112.366026 
L 390.962009 107.963829 
L 391.705811 108.055606 
L 391.953745 109.340198 
L 392.697546 109.156718 
L 393.441348 117.676879 
L 394.18515 110.074008 
L 394.433084 101.900424 
L 395.176885 98.772151 
L 395.424819 99.876612 
L 395.920687 108.147381 
L 396.168621 108.973227 
L 396.912423 111.90776 
L 397.160356 111.174392 
L 397.40829 107.13771 
L 397.656224 106.219537 
L 397.904158 107.321311 
L 398.64796 107.504901 
L 398.895894 107.229512 
L 399.391761 97.5752 
L 399.639695 96.930495 
L 400.383497 87.520789 
L 400.631431 90.014405 
L 401.375232 79.379362 
L 402.119034 79.379362 
L 402.862836 89.737437 
L 403.11077 84.100317 
L 404.102505 82.249826 
L 404.350439 84.655247 
L 404.598373 84.470282 
L 404.846307 80.583432 
L 405.590108 81.231581 
L 405.838042 82.434926 
L 406.33391 80.120384 
L 406.581844 79.842522 
L 407.57358 72.237893 
L 407.821513 72.05218 
L 408.317381 56.412214 
L 409.061183 51.368235 
L 409.309117 60.329634 
L 409.557051 50.620281 
L 410.052918 41.443167 
L 410.79672 24.893513 
L 411.044654 39.942284 
L 411.292588 42.943325 
L 411.540522 43.505698 
L 411.788456 73.908811 
L 412.532257 90.937453 
L 413.276059 148.533486 
L 413.523993 130.549209 
L 414.267794 122.339124 
L 414.515728 131.642211 
L 414.763662 133.098934 
L 415.011596 123.069809 
L 415.25953 96.838383 
L 416.003332 90.568267 
L 416.251265 92.967179 
L 416.499199 103.73909 
L 416.747133 107.963829 
L 416.995067 108.789725 
L 417.738869 112.824223 
L 417.986803 125.169549 
L 418.234737 129.09126 
L 418.48267 120.968617 
L 419.72234 114.289991 
L 419.970274 106.954097 
L 420.218208 107.504901 
L 420.466142 103.279528 
L 421.209943 108.514451 
L 421.457877 105.576652 
L 421.705811 110.991022 
L 421.953745 108.147381 
L 422.201679 103.187607 
L 422.94548 101.624528 
L 423.193414 96.930495 
L 423.689282 80.676033 
L 424.681018 82.157273 
L 424.928951 79.564635 
L 425.176885 86.596713 
L 425.424819 85.579908 
L 425.672753 82.990156 
L 426.416555 86.78155 
L 426.664489 91.214313 
L 427.160356 83.360255 
L 427.40829 85.579908 
L 428.152092 90.660567 
L 428.400026 97.5752 
L 428.64796 96.193522 
L 428.895894 94.165932 
L 429.143827 94.719044 
L 429.887629 94.995563 
L 430.135563 104.382363 
L 430.383497 102.727961 
L 430.631431 97.5752 
L 430.879365 96.009251 
L 431.623166 99.968633 
L 431.8711 97.391013 
L 432.119034 106.127704 
L 432.366968 104.84176 
L 432.614902 113.465583 
L 433.358704 105.392945 
L 433.606637 105.4848 
L 433.854571 108.789725 
L 434.102505 96.377782 
L 434.350439 93.520508 
L 435.094241 92.321503 
L 435.342175 94.073737 
L 436.829778 82.064716 
L 437.325646 89.368107 
L 437.57358 80.583432 
L 437.821513 80.95382 
L 438.565315 81.324163 
L 438.813249 77.155227 
L 439.061183 90.937453 
L 439.309117 84.655247 
L 439.557051 82.897625 
L 440.300852 83.915318 
L 440.548786 85.302539 
L 440.79672 84.840201 
L 441.292588 79.101433 
L 442.036389 88.721672 
L 442.532257 81.231581 
L 442.780191 70.658972 
L 443.028125 100.496745 
L 443.771927 98.872294 
L 444.019861 100.865813 
L 444.267794 96.064308 
L 444.515728 98.429106 
L 444.763662 103.226752 
L 445.507464 98.502975 
L 445.755398 95.472812 
L 446.003332 97.099141 
L 446.251265 90.514356 
L 446.499199 94.06753 
L 447.243001 96.360012 
L 447.490935 90.514356 
L 447.738869 96.655686 
L 447.986803 91.921334 
L 448.234737 94.06753 
L 448.978538 93.031631 
L 449.226472 98.355235 
L 449.474406 99.758469 
L 449.72234 104.111615 
L 449.970274 104.996211 
L 450.714075 102.931738 
L 450.962009 101.456225 
L 451.457877 95.029111 
L 451.705811 95.694637 
L 452.449613 95.546755 
L 452.697546 102.636695 
L 452.94548 104.701375 
L 453.193414 99.979971 
L 453.441348 102.267849 
L 454.18515 104.701375 
L 454.433084 103.521736 
L 454.681018 97.320844 
L 454.928951 94.65931 
L 455.176885 96.433933 
L 455.920687 96.138237 
L 456.168621 93.179639 
L 456.664489 102.489162 
L 456.912423 97.911969 
L 457.656224 95.25097 
L 457.904158 97.025236 
L 458.152092 97.025236 
L 458.400026 96.286089 
L 459.391761 90.958737 
L 459.639695 93.475632 
L 459.887629 93.327639 
L 460.135563 93.919567 
L 460.383497 94.06753 
L 461.127299 93.475632 
L 461.375232 92.661578 
L 461.623166 93.327639 
L 461.8711 93.327639 
L 462.119034 91.551141 
L 462.862836 93.327639 
L 463.11077 91.847299 
L 463.358704 94.807236 
L 463.854571 87.401809 
L 464.598373 87.698384 
L 464.846307 86.808571 
L 465.342175 82.355474 
L 465.590108 80.795301 
L 466.581844 80.720987 
L 467.325646 87.253511 
L 468.069447 87.105205 
L 468.317381 82.949608 
L 468.813249 78.341936 
L 469.061183 79.383007 
L 469.804985 79.234305 
L 470.052918 79.754729 
L 470.300852 78.118802 
L 470.548786 80.720987 
L 470.79672 81.166846 
L 471.540522 87.253511 
L 471.788456 93.327639 
L 472.532257 87.401809 
L 473.276059 87.5501 
L 473.523993 86.437736 
L 473.771927 87.253511 
L 474.267794 83.914822 
L 475.011596 83.989056 
L 475.507464 83.692108 
L 475.755398 84.360199 
L 476.003332 84.285974 
L 476.747133 86.215213 
L 477.243001 92.587562 
L 477.490935 87.475956 
L 477.738869 86.511907 
L 478.48267 82.355474 
L 478.730604 79.085596 
L 478.978538 79.977739 
L 479.226472 79.829067 
L 479.474406 76.333122 
L 480.218208 79.383007 
L 480.466142 78.26756 
L 480.714075 84.95393 
L 480.962009 81.464048 
L 481.209943 83.023867 
L 481.953745 81.38975 
L 482.201679 81.984079 
L 482.449613 88.06906 
L 482.697546 87.031049 
L 483.689282 86.437736 
L 483.937216 83.989056 
L 484.18515 84.360199 
L 485.424819 82.949608 
L 485.672753 81.835508 
L 485.920687 85.473347 
L 486.168621 84.657079 
L 486.416555 84.434422 
L 487.160356 86.437736 
L 487.40829 89.625392 
L 487.656224 87.179359 
L 487.904158 81.909794 
L 488.152092 83.320882 
L 488.895894 85.324952 
L 489.391761 87.179359 
L 489.639695 89.847658 
L 489.887629 87.920795 
L 490.631431 83.543623 
L 490.879365 84.582862 
L 491.127299 82.429747 
L 491.375232 83.246631 
L 491.623166 86.511907 
L 492.366968 87.475956 
L 492.614902 90.736555 
L 493.11077 93.327639 
L 493.358704 92.513544 
L 494.102505 95.103066 
L 494.350439 93.401637 
L 494.598373 92.513544 
L 494.846307 90.514356 
L 495.094241 93.475632 
L 495.838042 96.95133 
L 496.33391 99.979971 
L 496.581844 103.890424 
L 496.829778 103.153001 
L 497.57358 100.422925 
L 497.821513 105.217319 
L 498.069447 106.543613 
L 498.317381 111.842803 
L 498.565315 110.298195 
L 499.309117 98.207487 
L 499.557051 99.315415 
L 499.804985 101.38243 
L 500.052918 99.684631 
L 500.300852 103.005494 
L 501.044654 104.037886 
L 501.292588 101.38243 
L 501.540522 101.972739 
L 501.788456 97.911969 
L 502.036389 100.570562 
L 502.780191 96.655686 
L 503.028125 94.215486 
L 503.523993 100.422925 
L 503.771927 97.542529 
L 504.515728 96.064308 
L 504.763662 93.919567 
L 505.011596 92.957624 
L 505.25953 91.254954 
L 506.251265 93.845583 
L 506.499199 99.684631 
L 506.995067 93.845583 
L 508.234737 95.398866 
L 508.730604 91.10685 
L 508.978538 97.246945 
L 509.72234 96.803512 
L 509.970274 96.803512 
L 510.218208 98.355235 
L 510.466142 98.650708 
L 510.714075 99.463107 
L 511.457877 104.553946 
L 511.953745 99.167715 
L 512.201679 99.020008 
L 512.449613 99.979971 
L 513.193414 99.241566 
L 513.441348 100.349104 
L 513.689282 102.120298 
L 513.937216 106.543613 
L 514.18515 116.838806 
L 514.928951 116.251483 
L 515.176885 112.79858 
L 515.424819 114.047973 
L 515.672753 114.047973 
L 515.920687 115.370278 
L 516.664489 116.17806 
L 517.160356 125.707701 
L 517.40829 128.487425 
L 517.656224 127.68304 
L 518.400026 129.657042 
L 518.64796 128.487425 
L 518.895894 128.194947 
L 519.143827 127.68304 
L 519.391761 123.291581 
L 520.135563 123.58455 
L 520.631431 113.533582 
L 520.879365 117.205823 
L 521.127299 115.737479 
L 521.8711 118.526702 
L 522.119034 117.132423 
L 522.366968 114.635738 
L 522.614902 115.370278 
L 522.862836 112.063394 
L 523.606637 114.41534 
L 523.854571 112.578044 
L 524.102505 108.458315 
L 524.350439 109.562382 
L 524.598373 107.132885 
L 525.838042 111.769268 
L 526.085976 116.031207 
L 527.077712 119.333612 
L 527.325646 118.746791 
L 527.57358 116.251483 
L 527.821513 116.545159 
L 528.069447 118.966863 
L 528.813249 117.499403 
L 529.061183 118.086475 
L 529.804985 109.268004 
L 530.548786 111.401569 
L 531.044654 102.78422 
L 531.292588 101.972739 
L 531.540522 103.81669 
L 532.284323 103.153001 
L 533.028125 100.12763 
L 533.276059 92.143426 
L 534.019861 124.624589 
L 534.267794 121.040531 
L 534.515728 121.757718 
L 535.011596 119.881602 
L 535.755398 120.102388 
L 536.003332 117.562274 
L 536.251265 116.346606 
L 536.499199 116.291335 
L 537.490935 113.803012 
L 537.986803 111.312433 
L 538.234737 111.367804 
L 538.48267 114.853912 
L 539.226472 114.356168 
L 539.474406 113.74769 
L 539.72234 115.959689 
L 539.970274 116.622941 
L 540.218208 116.733468 
L 540.962009 115.406856 
L 541.209943 116.84399 
L 541.457877 115.959689 
L 541.705811 115.849131 
L 541.953745 114.853912 
L 542.697546 115.462145 
L 542.94548 116.291335 
L 543.441348 121.371563 
L 543.689282 121.757718 
L 544.433084 121.150879 
L 544.681018 121.812878 
L 544.928951 122.033509 
L 545.176885 121.150879 
L 545.424819 122.750436 
L 546.168621 122.143817 
L 546.416555 126.001825 
L 546.664489 125.891672 
L 546.912423 124.183727 
L 547.160356 124.844993 
L 547.904158 124.844993 
L 548.152092 124.51438 
L 548.400026 126.167047 
L 548.64796 126.662653 
L 548.895894 127.543508 
L 549.887629 123.963269 
L 550.135563 125.06538 
L 550.631431 131.283981 
L 551.375232 131.613778 
L 551.623166 134.195806 
L 551.8711 131.613778 
L 552.119034 133.152301 
L 552.366968 129.139335 
L 553.11077 130.459317 
L 553.358704 130.294354 
L 553.606637 131.17404 
L 553.854571 130.294354 
L 554.102505 132.438094 
L 554.846307 135.238913 
L 555.094241 136.939969 
L 555.342175 137.323931 
L 555.590108 134.250717 
L 556.581844 140.722388 
L 556.829778 145.046551 
L 557.077712 140.338903 
L 557.325646 143.678887 
L 557.57358 144.937163 
L 558.565315 141.708244 
L 558.813249 140.174536 
L 559.309117 151.60179 
L 560.052918 149.254645 
L 560.300852 140.174536 
L 560.548786 141.105818 
L 560.79672 131.723701 
L 561.044654 130.129381 
L 561.788456 129.909402 
L 562.036389 129.084322 
L 562.532257 136.171881 
L 562.780191 131.613778 
L 563.523993 132.767752 
L 563.771927 130.624269 
L 564.019861 131.17404 
L 564.267794 130.239364 
L 564.515728 124.238839 
L 565.25953 125.671352 
L 565.507464 130.40433 
L 565.755398 130.40433 
L 566.003332 131.393918 
L 566.251265 126.497461 
L 566.995067 129.909402 
L 567.243001 125.561185 
L 567.490935 133.207233 
L 567.738869 129.029308 
L 567.986803 130.129381 
L 568.730604 130.514302 
L 568.978538 131.229011 
L 569.226472 134.96445 
L 569.474406 131.119068 
L 569.72234 132.65787 
L 570.466142 132.767752 
L 570.714075 135.513348 
L 570.962009 135.293802 
L 571.209943 134.250717 
L 571.457877 132.273251 
L 572.201679 131.723701 
L 572.697546 138.639965 
L 572.94548 140.50326 
L 573.193414 140.996272 
L 574.18515 144.061902 
L 574.433084 144.499567 
L 574.681018 143.405271 
L 575.672753 146.905472 
L 575.920687 146.796159 
L 576.664489 152.038245 
L 576.664489 152.038245 
" clip-path="url(#p3271dd5e28)" style="fill: none; stroke: #1f77b4; stroke-width: 1.5; stroke-linecap: square"/>
   </g>
   <g id="line2d_13"/>
   <g id="patch_3">
    <path d="M 44.028125 336.228059 
L 44.028125 10.068059 
" style="fill: none; stroke: #000000; stroke-width: 0.8; stroke-linejoin: miter; stroke-linecap: square"/>
   </g>
   <g id="patch_4">
    <path d="M 602.028125 336.228059 
L 602.028125 10.068059 
" style="fill: none; stroke: #000000; stroke-width: 0.8; stroke-linejoin: miter; stroke-linecap: square"/>
   </g>
   <g id="patch_5">
    <path d="M 44.028125 336.228059 
L 602.028125 336.228059 
" style="fill: none; stroke: #000000; stroke-width: 0.8; stroke-linejoin: miter; stroke-linecap: square"/>
   </g>
   <g id="patch_6">
    <path d="M 44.028125 10.068059 
L 602.028125 10.068059 
" style="fill: none; stroke: #000000; stroke-width: 0.8; stroke-linejoin: miter; stroke-linecap: square"/>
   </g>
   <g id="legend_1">
    <g id="patch_7">
     <path d="M 495.373437 46.480559 
L 595.028125 46.480559 
Q 597.028125 46.480559 597.028125 44.480559 
L 597.028125 17.068059 
Q 597.028125 15.068059 595.028125 15.068059 
L 495.373437 15.068059 
Q 493.373437 15.068059 493.373437 17.068059 
L 493.373437 44.480559 
Q 493.373437 46.480559 495.373437 46.480559 
z
" style="fill: #ffffff; opacity: 0.8; stroke: #cccccc; stroke-linejoin: miter"/>
    </g>
    <g id="text_14">
     <!-- reference_identifier -->
     <g transform="translate(502.401562 26.347746)scale(0.1 -0.1)">
      <defs>
       <path id="ArialMT-66" d="M 556 0 
L 556 2881 
L 59 2881 
L 59 3319 
L 556 3319 
L 556 3672 
Q 556 4006 616 4169 
Q 697 4388 901 4523 
Q 1106 4659 1475 4659 
Q 1713 4659 2000 4603 
L 1916 4113 
Q 1741 4144 1584 4144 
Q 1328 4144 1222 4034 
Q 1116 3925 1116 3625 
L 1116 3319 
L 1763 3319 
L 1763 2881 
L 1116 2881 
L 1116 0 
L 556 0 
z
" transform="scale(0.015625)"/>
      </defs>
      <use xlink:href="#ArialMT-72"/>
      <use xlink:href="#ArialMT-65" x="33.300781"/>
      <use xlink:href="#ArialMT-66" x="88.916016"/>
      <use xlink:href="#ArialMT-65" x="116.699219"/>
      <use xlink:href="#ArialMT-72" x="172.314453"/>
      <use xlink:href="#ArialMT-65" x="205.615234"/>
      <use xlink:href="#ArialMT-6e" x="261.230469"/>
      <use xlink:href="#ArialMT-63" x="316.845703"/>
      <use xlink:href="#ArialMT-65" x="366.845703"/>
      <use xlink:href="#ArialMT-5f" x="422.460938"/>
      <use xlink:href="#ArialMT-69" x="478.076172"/>
      <use xlink:href="#ArialMT-64" x="500.292969"/>
      <use xlink:href="#ArialMT-65" x="555.908203"/>
      <use xlink:href="#ArialMT-6e" x="611.523438"/>
      <use xlink:href="#ArialMT-74" x="667.138672"/>
      <use xlink:href="#ArialMT-69" x="694.921875"/>
      <use xlink:href="#ArialMT-66" x="717.138672"/>
      <use xlink:href="#ArialMT-69" x="744.921875"/>
      <use xlink:href="#ArialMT-65" x="767.138672"/>
      <use xlink:href="#ArialMT-72" x="822.753906"/>
     </g>
    </g>
    <g id="line2d_14">
     <path d="M 497.373437 36.993059 
L 507.373437 36.993059 
L 517.373437 36.993059 
" style="fill: none; stroke: #1f77b4; stroke-width: 1.5; stroke-linecap: square"/>
    </g>
    <g id="text_15">
     <!-- NL0011220108 -->
     <g transform="translate(525.373437 40.493059)scale(0.1 -0.1)">
      <defs>
       <path id="ArialMT-4e" d="M 488 0 
L 488 4581 
L 1109 4581 
L 3516 984 
L 3516 4581 
L 4097 4581 
L 4097 0 
L 3475 0 
L 1069 3600 
L 1069 0 
L 488 0 
z
" transform="scale(0.015625)"/>
       <path id="ArialMT-4c" d="M 469 0 
L 469 4581 
L 1075 4581 
L 1075 541 
L 3331 541 
L 3331 0 
L 469 0 
z
" transform="scale(0.015625)"/>
      </defs>
      <use xlink:href="#ArialMT-4e"/>
      <use xlink:href="#ArialMT-4c" x="72.216797"/>
      <use xlink:href="#ArialMT-30" x="127.832031"/>
      <use xlink:href="#ArialMT-30" x="183.447266"/>
      <use xlink:href="#ArialMT-31" x="239.0625"/>
      <use xlink:href="#ArialMT-31" x="287.302734"/>
      <use xlink:href="#ArialMT-32" x="342.917969"/>
      <use xlink:href="#ArialMT-32" x="398.533203"/>
      <use xlink:href="#ArialMT-30" x="454.148438"/>
      <use xlink:href="#ArialMT-31" x="509.763672"/>
      <use xlink:href="#ArialMT-30" x="565.378906"/>
      <use xlink:href="#ArialMT-38" x="620.994141"/>
     </g>
    </g>
   </g>
  </g>
 </g>
 <defs>
  <clipPath id="p3271dd5e28">
   <rect x="44.028125" y="10.068059" width="558" height="326.16"/>
  </clipPath>
 </defs>
</svg>
