<?xml version="1.0" encoding="utf-8" standalone="no"?>
<!DOCTYPE svg PUBLIC "-//W3C//DTD SVG 1.1//EN"
  "http://www.w3.org/Graphics/SVG/1.1/DTD/svg11.dtd">
<svg xmlns:xlink="http://www.w3.org/1999/xlink" width="711.448437pt" height="637.445312pt" viewBox="0 0 711.448437 637.445312" xmlns="http://www.w3.org/2000/svg" version="1.1">
 <metadata>
  <rdf:RDF xmlns:dc="http://purl.org/dc/elements/1.1/" xmlns:cc="http://creativecommons.org/ns#" xmlns:rdf="http://www.w3.org/1999/02/22-rdf-syntax-ns#">
   <cc:Work>
    <dc:type rdf:resource="http://purl.org/dc/dcmitype/StillImage"/>
    <dc:date>2022-01-23T11:52:50.626125</dc:date>
    <dc:format>image/svg+xml</dc:format>
    <dc:creator>
     <cc:Agent>
      <dc:title>Matplotlib v3.5.1, https://matplotlib.org/</dc:title>
     </cc:Agent>
    </dc:creator>
   </cc:Work>
  </rdf:RDF>
 </metadata>
 <defs>
  <style type="text/css">*{stroke-linejoin: round; stroke-linecap: butt}</style>
 </defs>
 <g id="figure_1">
  <g id="patch_1">
   <path d="M -0 637.445312 
L 711.448437 637.445312 
L 711.448437 0 
L -0 0 
L -0 637.445312 
z
" style="fill: none"/>
  </g>
  <g id="axes_1">
   <g id="patch_2">
    <path d="M 33.660938 196.3 
L 704.248437 196.3 
L 704.248437 7.2 
L 33.660938 7.2 
z
" style="fill: #ffffff"/>
   </g>
   <g id="PathCollection_1">
    <defs>
     <path id="m2170ae3c77" d="M 0 4 
C 1.060812 4 2.078319 3.578535 2.828427 2.828427 
C 3.578535 2.078319 4 1.060812 4 0 
C 4 -1.060812 3.578535 -2.078319 2.828427 -2.828427 
C 2.078319 -3.578535 1.060812 -4 0 -4 
C -1.060812 -4 -2.078319 -3.578535 -2.828427 -2.828427 
C -3.578535 -2.078319 -4 -1.060812 -4 0 
C -4 1.060812 -3.578535 2.078319 -2.828427 2.828427 
C -2.078319 3.578535 -1.060812 4 0 4 
z
" style="stroke: #000000"/>
    </defs>
    <g clip-path="url(#pb99513c201)">
     <use xlink:href="#m2170ae3c77" x="539.947066" y="147.560241" style="fill: #008000; stroke: #000000"/>
     <use xlink:href="#m2170ae3c77" x="554.815968" y="156.402151" style="fill: #008000; stroke: #000000"/>
     <use xlink:href="#m2170ae3c77" x="569.68487" y="163.414701" style="fill: #008000; stroke: #000000"/>
     <use xlink:href="#m2170ae3c77" x="584.553773" y="144.003151" style="fill: #008000; stroke: #000000"/>
     <use xlink:href="#m2170ae3c77" x="599.422675" y="105.688207" style="fill: #008000; stroke: #000000"/>
     <use xlink:href="#m2170ae3c77" x="614.291578" y="96.23651" style="fill: #008000; stroke: #000000"/>
     <use xlink:href="#m2170ae3c77" x="629.16048" y="103.808031" style="fill: #008000; stroke: #000000"/>
     <use xlink:href="#m2170ae3c77" x="644.029383" y="121.136142" style="fill: #008000; stroke: #000000"/>
     <use xlink:href="#m2170ae3c77" x="658.898285" y="127.538904" style="fill: #008000; stroke: #000000"/>
     <use xlink:href="#m2170ae3c77" x="673.767187" y="127.234011" style="fill: #008000; stroke: #000000"/>
    </g>
   </g>
   <g id="PathCollection_2">
    <defs>
     <path id="meacc0fb910" d="M -2 4 
L 0 2 
L 2 4 
L 4 2 
L 2 0 
L 4 -2 
L 2 -4 
L 0 -2 
L -2 -4 
L -4 -2 
L -2 0 
L -4 2 
z
" style="stroke: #000000"/>
    </defs>
    <g clip-path="url(#pb99513c201)">
     <use xlink:href="#meacc0fb910" x="539.947066" y="141.606486" style="fill: #ff7f0e; stroke: #000000"/>
     <use xlink:href="#meacc0fb910" x="554.815968" y="139.206937" style="fill: #ff7f0e; stroke: #000000"/>
     <use xlink:href="#meacc0fb910" x="569.68487" y="130.911312" style="fill: #ff7f0e; stroke: #000000"/>
     <use xlink:href="#meacc0fb910" x="584.553773" y="142.880159" style="fill: #ff7f0e; stroke: #000000"/>
     <use xlink:href="#meacc0fb910" x="599.422675" y="139.727266" style="fill: #ff7f0e; stroke: #000000"/>
     <use xlink:href="#meacc0fb910" x="614.291578" y="134.911051" style="fill: #ff7f0e; stroke: #000000"/>
     <use xlink:href="#meacc0fb910" x="629.16048" y="135.351683" style="fill: #ff7f0e; stroke: #000000"/>
     <use xlink:href="#meacc0fb910" x="644.029383" y="132.992121" style="fill: #ff7f0e; stroke: #000000"/>
     <use xlink:href="#meacc0fb910" x="658.898285" y="129.662763" style="fill: #ff7f0e; stroke: #000000"/>
     <use xlink:href="#meacc0fb910" x="673.767187" y="136.647075" style="fill: #ff7f0e; stroke: #000000"/>
    </g>
   </g>
   <g id="matplotlib.axis_1">
    <g id="xtick_1">
     <g id="line2d_1">
      <defs>
       <path id="m8204e18dc5" d="M 0 0 
L 0 3.5 
" style="stroke: #000000; stroke-width: 0.8"/>
      </defs>
      <g>
       <use xlink:href="#m8204e18dc5" x="64.142188" y="196.3" style="stroke: #000000; stroke-width: 0.8"/>
      </g>
     </g>
    </g>
    <g id="xtick_2">
     <g id="line2d_2">
      <g>
       <use xlink:href="#m8204e18dc5" x="212.831212" y="196.3" style="stroke: #000000; stroke-width: 0.8"/>
      </g>
     </g>
    </g>
    <g id="xtick_3">
     <g id="line2d_3">
      <g>
       <use xlink:href="#m8204e18dc5" x="361.520236" y="196.3" style="stroke: #000000; stroke-width: 0.8"/>
      </g>
     </g>
    </g>
    <g id="xtick_4">
     <g id="line2d_4">
      <g>
       <use xlink:href="#m8204e18dc5" x="510.209261" y="196.3" style="stroke: #000000; stroke-width: 0.8"/>
      </g>
     </g>
    </g>
    <g id="xtick_5">
     <g id="line2d_5">
      <g>
       <use xlink:href="#m8204e18dc5" x="658.898285" y="196.3" style="stroke: #000000; stroke-width: 0.8"/>
      </g>
     </g>
    </g>
   </g>
   <g id="matplotlib.axis_2">
    <g id="ytick_1">
     <g id="line2d_6">
      <defs>
       <path id="mb3aac8fbc7" d="M 0 0 
L -3.5 0 
" style="stroke: #000000; stroke-width: 0.8"/>
      </defs>
      <g>
       <use xlink:href="#mb3aac8fbc7" x="33.660938" y="192.93855" style="stroke: #000000; stroke-width: 0.8"/>
      </g>
     </g>
     <g id="text_1">
      <!-- 0.75 -->
      <g transform="translate(7.2 196.517456)scale(0.1 -0.1)">
       <defs>
        <path id="ArialMT-30" d="M 266 2259 
Q 266 3072 433 3567 
Q 600 4063 929 4331 
Q 1259 4600 1759 4600 
Q 2128 4600 2406 4451 
Q 2684 4303 2865 4023 
Q 3047 3744 3150 3342 
Q 3253 2941 3253 2259 
Q 3253 1453 3087 958 
Q 2922 463 2592 192 
Q 2263 -78 1759 -78 
Q 1097 -78 719 397 
Q 266 969 266 2259 
z
M 844 2259 
Q 844 1131 1108 757 
Q 1372 384 1759 384 
Q 2147 384 2411 759 
Q 2675 1134 2675 2259 
Q 2675 3391 2411 3762 
Q 2147 4134 1753 4134 
Q 1366 4134 1134 3806 
Q 844 3388 844 2259 
z
" transform="scale(0.015625)"/>
        <path id="ArialMT-2e" d="M 581 0 
L 581 641 
L 1222 641 
L 1222 0 
L 581 0 
z
" transform="scale(0.015625)"/>
        <path id="ArialMT-37" d="M 303 3981 
L 303 4522 
L 3269 4522 
L 3269 4084 
Q 2831 3619 2401 2847 
Q 1972 2075 1738 1259 
Q 1569 684 1522 0 
L 944 0 
Q 953 541 1156 1306 
Q 1359 2072 1739 2783 
Q 2119 3494 2547 3981 
L 303 3981 
z
" transform="scale(0.015625)"/>
        <path id="ArialMT-35" d="M 266 1200 
L 856 1250 
Q 922 819 1161 601 
Q 1400 384 1738 384 
Q 2144 384 2425 690 
Q 2706 997 2706 1503 
Q 2706 1984 2436 2262 
Q 2166 2541 1728 2541 
Q 1456 2541 1237 2417 
Q 1019 2294 894 2097 
L 366 2166 
L 809 4519 
L 3088 4519 
L 3088 3981 
L 1259 3981 
L 1013 2750 
Q 1425 3038 1878 3038 
Q 2478 3038 2890 2622 
Q 3303 2206 3303 1553 
Q 3303 931 2941 478 
Q 2500 -78 1738 -78 
Q 1113 -78 717 272 
Q 322 622 266 1200 
z
" transform="scale(0.015625)"/>
       </defs>
       <use xlink:href="#ArialMT-30"/>
       <use xlink:href="#ArialMT-2e" x="55.615234"/>
       <use xlink:href="#ArialMT-37" x="83.398438"/>
       <use xlink:href="#ArialMT-35" x="139.013672"/>
      </g>
     </g>
    </g>
    <g id="ytick_2">
     <g id="line2d_7">
      <g>
       <use xlink:href="#mb3aac8fbc7" x="33.660938" y="154.339039" style="stroke: #000000; stroke-width: 0.8"/>
      </g>
     </g>
     <g id="text_2">
      <!-- 0.80 -->
      <g transform="translate(7.2 157.917945)scale(0.1 -0.1)">
       <defs>
        <path id="ArialMT-38" d="M 1131 2484 
Q 781 2613 612 2850 
Q 444 3088 444 3419 
Q 444 3919 803 4259 
Q 1163 4600 1759 4600 
Q 2359 4600 2725 4251 
Q 3091 3903 3091 3403 
Q 3091 3084 2923 2848 
Q 2756 2613 2416 2484 
Q 2838 2347 3058 2040 
Q 3278 1734 3278 1309 
Q 3278 722 2862 322 
Q 2447 -78 1769 -78 
Q 1091 -78 675 323 
Q 259 725 259 1325 
Q 259 1772 486 2073 
Q 713 2375 1131 2484 
z
M 1019 3438 
Q 1019 3113 1228 2906 
Q 1438 2700 1772 2700 
Q 2097 2700 2305 2904 
Q 2513 3109 2513 3406 
Q 2513 3716 2298 3927 
Q 2084 4138 1766 4138 
Q 1444 4138 1231 3931 
Q 1019 3725 1019 3438 
z
M 838 1322 
Q 838 1081 952 856 
Q 1066 631 1291 507 
Q 1516 384 1775 384 
Q 2178 384 2440 643 
Q 2703 903 2703 1303 
Q 2703 1709 2433 1975 
Q 2163 2241 1756 2241 
Q 1359 2241 1098 1978 
Q 838 1716 838 1322 
z
" transform="scale(0.015625)"/>
       </defs>
       <use xlink:href="#ArialMT-30"/>
       <use xlink:href="#ArialMT-2e" x="55.615234"/>
       <use xlink:href="#ArialMT-38" x="83.398438"/>
       <use xlink:href="#ArialMT-30" x="139.013672"/>
      </g>
     </g>
    </g>
    <g id="ytick_3">
     <g id="line2d_8">
      <g>
       <use xlink:href="#mb3aac8fbc7" x="33.660938" y="115.739528" style="stroke: #000000; stroke-width: 0.8"/>
      </g>
     </g>
     <g id="text_3">
      <!-- 0.85 -->
      <g transform="translate(7.2 119.318434)scale(0.1 -0.1)">
       <use xlink:href="#ArialMT-30"/>
       <use xlink:href="#ArialMT-2e" x="55.615234"/>
       <use xlink:href="#ArialMT-38" x="83.398438"/>
       <use xlink:href="#ArialMT-35" x="139.013672"/>
      </g>
     </g>
    </g>
    <g id="ytick_4">
     <g id="line2d_9">
      <g>
       <use xlink:href="#mb3aac8fbc7" x="33.660938" y="77.140017" style="stroke: #000000; stroke-width: 0.8"/>
      </g>
     </g>
     <g id="text_4">
      <!-- 0.90 -->
      <g transform="translate(7.2 80.718923)scale(0.1 -0.1)">
       <defs>
        <path id="ArialMT-39" d="M 350 1059 
L 891 1109 
Q 959 728 1153 556 
Q 1347 384 1650 384 
Q 1909 384 2104 503 
Q 2300 622 2425 820 
Q 2550 1019 2634 1356 
Q 2719 1694 2719 2044 
Q 2719 2081 2716 2156 
Q 2547 1888 2255 1720 
Q 1963 1553 1622 1553 
Q 1053 1553 659 1965 
Q 266 2378 266 3053 
Q 266 3750 677 4175 
Q 1088 4600 1706 4600 
Q 2153 4600 2523 4359 
Q 2894 4119 3086 3673 
Q 3278 3228 3278 2384 
Q 3278 1506 3087 986 
Q 2897 466 2520 194 
Q 2144 -78 1638 -78 
Q 1100 -78 759 220 
Q 419 519 350 1059 
z
M 2653 3081 
Q 2653 3566 2395 3850 
Q 2138 4134 1775 4134 
Q 1400 4134 1122 3828 
Q 844 3522 844 3034 
Q 844 2597 1108 2323 
Q 1372 2050 1759 2050 
Q 2150 2050 2401 2323 
Q 2653 2597 2653 3081 
z
" transform="scale(0.015625)"/>
       </defs>
       <use xlink:href="#ArialMT-30"/>
       <use xlink:href="#ArialMT-2e" x="55.615234"/>
       <use xlink:href="#ArialMT-39" x="83.398438"/>
       <use xlink:href="#ArialMT-30" x="139.013672"/>
      </g>
     </g>
    </g>
    <g id="ytick_5">
     <g id="line2d_10">
      <g>
       <use xlink:href="#mb3aac8fbc7" x="33.660938" y="38.540506" style="stroke: #000000; stroke-width: 0.8"/>
      </g>
     </g>
     <g id="text_5">
      <!-- 0.95 -->
      <g transform="translate(7.2 42.119412)scale(0.1 -0.1)">
       <use xlink:href="#ArialMT-30"/>
       <use xlink:href="#ArialMT-2e" x="55.615234"/>
       <use xlink:href="#ArialMT-39" x="83.398438"/>
       <use xlink:href="#ArialMT-35" x="139.013672"/>
      </g>
     </g>
    </g>
   </g>
   <g id="line2d_11">
    <path d="M 64.142188 110.058347 
L 79.01109 101.114805 
L 93.879992 100.454203 
L 108.748895 98.574027 
L 123.617797 102.283564 
L 138.4867 100.403387 
L 153.355602 96.541404 
L 168.224505 98.065871 
L 183.093407 99.234629 
L 197.962309 97.608531 
L 212.831212 95.829985 
L 227.700114 95.931617 
L 242.569017 87.140522 
L 257.437919 84.29485 
L 272.306822 84.701375 
L 287.175724 71.540141 
L 302.044627 60.86887 
L 316.913529 53.703874 
L 331.782431 64.984931 
L 346.651334 52.382669 
L 361.520236 45.420935 
L 376.389139 41.558951 
L 391.258041 15.795455 
L 406.126944 40.390193 
L 420.995846 44.861964 
L 435.864748 60.41153 
L 450.733651 92.323711 
L 465.602553 122.660609 
L 480.471456 118.798625 
L 495.340358 170.274803 
L 510.209261 187.704545 
L 525.078163 163.567147 
" clip-path="url(#pb99513c201)" style="fill: none; stroke: #0000ff; stroke-width: 1.5; stroke-linecap: square"/>
    <defs>
     <path id="mc3bbf3d6dc" d="M 0 1.5 
C 0.397805 1.5 0.77937 1.341951 1.06066 1.06066 
C 1.341951 0.77937 1.5 0.397805 1.5 0 
C 1.5 -0.397805 1.341951 -0.77937 1.06066 -1.06066 
C 0.77937 -1.341951 0.397805 -1.5 0 -1.5 
C -0.397805 -1.5 -0.77937 -1.341951 -1.06066 -1.06066 
C -1.341951 -0.77937 -1.5 -0.397805 -1.5 0 
C -1.5 0.397805 -1.341951 0.77937 -1.06066 1.06066 
C -0.77937 1.341951 -0.397805 1.5 0 1.5 
z
" style="stroke: #0000ff"/>
    </defs>
    <g clip-path="url(#pb99513c201)">
     <use xlink:href="#mc3bbf3d6dc" x="64.142188" y="110.058347" style="fill: #0000ff; stroke: #0000ff"/>
     <use xlink:href="#mc3bbf3d6dc" x="79.01109" y="101.114805" style="fill: #0000ff; stroke: #0000ff"/>
     <use xlink:href="#mc3bbf3d6dc" x="93.879992" y="100.454203" style="fill: #0000ff; stroke: #0000ff"/>
     <use xlink:href="#mc3bbf3d6dc" x="108.748895" y="98.574027" style="fill: #0000ff; stroke: #0000ff"/>
     <use xlink:href="#mc3bbf3d6dc" x="123.617797" y="102.283564" style="fill: #0000ff; stroke: #0000ff"/>
     <use xlink:href="#mc3bbf3d6dc" x="138.4867" y="100.403387" style="fill: #0000ff; stroke: #0000ff"/>
     <use xlink:href="#mc3bbf3d6dc" x="153.355602" y="96.541404" style="fill: #0000ff; stroke: #0000ff"/>
     <use xlink:href="#mc3bbf3d6dc" x="168.224505" y="98.065871" style="fill: #0000ff; stroke: #0000ff"/>
     <use xlink:href="#mc3bbf3d6dc" x="183.093407" y="99.234629" style="fill: #0000ff; stroke: #0000ff"/>
     <use xlink:href="#mc3bbf3d6dc" x="197.962309" y="97.608531" style="fill: #0000ff; stroke: #0000ff"/>
     <use xlink:href="#mc3bbf3d6dc" x="212.831212" y="95.829985" style="fill: #0000ff; stroke: #0000ff"/>
     <use xlink:href="#mc3bbf3d6dc" x="227.700114" y="95.931617" style="fill: #0000ff; stroke: #0000ff"/>
     <use xlink:href="#mc3bbf3d6dc" x="242.569017" y="87.140522" style="fill: #0000ff; stroke: #0000ff"/>
     <use xlink:href="#mc3bbf3d6dc" x="257.437919" y="84.29485" style="fill: #0000ff; stroke: #0000ff"/>
     <use xlink:href="#mc3bbf3d6dc" x="272.306822" y="84.701375" style="fill: #0000ff; stroke: #0000ff"/>
     <use xlink:href="#mc3bbf3d6dc" x="287.175724" y="71.540141" style="fill: #0000ff; stroke: #0000ff"/>
     <use xlink:href="#mc3bbf3d6dc" x="302.044627" y="60.86887" style="fill: #0000ff; stroke: #0000ff"/>
     <use xlink:href="#mc3bbf3d6dc" x="316.913529" y="53.703874" style="fill: #0000ff; stroke: #0000ff"/>
     <use xlink:href="#mc3bbf3d6dc" x="331.782431" y="64.984931" style="fill: #0000ff; stroke: #0000ff"/>
     <use xlink:href="#mc3bbf3d6dc" x="346.651334" y="52.382669" style="fill: #0000ff; stroke: #0000ff"/>
     <use xlink:href="#mc3bbf3d6dc" x="361.520236" y="45.420935" style="fill: #0000ff; stroke: #0000ff"/>
     <use xlink:href="#mc3bbf3d6dc" x="376.389139" y="41.558951" style="fill: #0000ff; stroke: #0000ff"/>
     <use xlink:href="#mc3bbf3d6dc" x="391.258041" y="15.795455" style="fill: #0000ff; stroke: #0000ff"/>
     <use xlink:href="#mc3bbf3d6dc" x="406.126944" y="40.390193" style="fill: #0000ff; stroke: #0000ff"/>
     <use xlink:href="#mc3bbf3d6dc" x="420.995846" y="44.861964" style="fill: #0000ff; stroke: #0000ff"/>
     <use xlink:href="#mc3bbf3d6dc" x="435.864748" y="60.41153" style="fill: #0000ff; stroke: #0000ff"/>
     <use xlink:href="#mc3bbf3d6dc" x="450.733651" y="92.323711" style="fill: #0000ff; stroke: #0000ff"/>
     <use xlink:href="#mc3bbf3d6dc" x="465.602553" y="122.660609" style="fill: #0000ff; stroke: #0000ff"/>
     <use xlink:href="#mc3bbf3d6dc" x="480.471456" y="118.798625" style="fill: #0000ff; stroke: #0000ff"/>
     <use xlink:href="#mc3bbf3d6dc" x="495.340358" y="170.274803" style="fill: #0000ff; stroke: #0000ff"/>
     <use xlink:href="#mc3bbf3d6dc" x="510.209261" y="187.704545" style="fill: #0000ff; stroke: #0000ff"/>
     <use xlink:href="#mc3bbf3d6dc" x="525.078163" y="163.567147" style="fill: #0000ff; stroke: #0000ff"/>
    </g>
   </g>
   <g id="line2d_12">
    <path d="M 539.947066 147.560241 
L 554.815968 156.402151 
L 569.68487 163.414701 
L 584.553773 144.003151 
L 599.422675 105.688207 
L 614.291578 96.23651 
L 629.16048 103.808031 
L 644.029383 121.136142 
L 658.898285 127.538904 
L 673.767187 127.234011 
" clip-path="url(#pb99513c201)" style="fill: none; stroke: #008000; stroke-width: 1.5; stroke-linecap: square"/>
    <defs>
     <path id="m702f0b697c" d="M 0 1.5 
C 0.397805 1.5 0.77937 1.341951 1.06066 1.06066 
C 1.341951 0.77937 1.5 0.397805 1.5 0 
C 1.5 -0.397805 1.341951 -0.77937 1.06066 -1.06066 
C 0.77937 -1.341951 0.397805 -1.5 0 -1.5 
C -0.397805 -1.5 -0.77937 -1.341951 -1.06066 -1.06066 
C -1.341951 -0.77937 -1.5 -0.397805 -1.5 0 
C -1.5 0.397805 -1.341951 0.77937 -1.06066 1.06066 
C -0.77937 1.341951 -0.397805 1.5 0 1.5 
z
" style="stroke: #008000"/>
    </defs>
    <g clip-path="url(#pb99513c201)">
     <use xlink:href="#m702f0b697c" x="539.947066" y="147.560241" style="fill: #008000; stroke: #008000"/>
     <use xlink:href="#m702f0b697c" x="554.815968" y="156.402151" style="fill: #008000; stroke: #008000"/>
     <use xlink:href="#m702f0b697c" x="569.68487" y="163.414701" style="fill: #008000; stroke: #008000"/>
     <use xlink:href="#m702f0b697c" x="584.553773" y="144.003151" style="fill: #008000; stroke: #008000"/>
     <use xlink:href="#m702f0b697c" x="599.422675" y="105.688207" style="fill: #008000; stroke: #008000"/>
     <use xlink:href="#m702f0b697c" x="614.291578" y="96.23651" style="fill: #008000; stroke: #008000"/>
     <use xlink:href="#m702f0b697c" x="629.16048" y="103.808031" style="fill: #008000; stroke: #008000"/>
     <use xlink:href="#m702f0b697c" x="644.029383" y="121.136142" style="fill: #008000; stroke: #008000"/>
     <use xlink:href="#m702f0b697c" x="658.898285" y="127.538904" style="fill: #008000; stroke: #008000"/>
     <use xlink:href="#m702f0b697c" x="673.767187" y="127.234011" style="fill: #008000; stroke: #008000"/>
    </g>
   </g>
   <g id="patch_3">
    <path d="M 33.660938 196.3 
L 33.660938 7.2 
" style="fill: none; stroke: #000000; stroke-width: 0.8; stroke-linejoin: miter; stroke-linecap: square"/>
   </g>
   <g id="patch_4">
    <path d="M 704.248437 196.3 
L 704.248437 7.2 
" style="fill: none; stroke: #000000; stroke-width: 0.8; stroke-linejoin: miter; stroke-linecap: square"/>
   </g>
   <g id="patch_5">
    <path d="M 33.660938 196.3 
L 704.248437 196.3 
" style="fill: none; stroke: #000000; stroke-width: 0.8; stroke-linejoin: miter; stroke-linecap: square"/>
   </g>
   <g id="patch_6">
    <path d="M 33.660938 7.2 
L 704.248437 7.2 
" style="fill: none; stroke: #000000; stroke-width: 0.8; stroke-linejoin: miter; stroke-linecap: square"/>
   </g>
  </g>
  <g id="axes_2">
   <g id="patch_7">
    <path d="M 33.660938 405.2 
L 704.248437 405.2 
L 704.248437 216.1 
L 33.660938 216.1 
z
" style="fill: #ffffff"/>
   </g>
   <g id="PathCollection_3">
    <g clip-path="url(#p5afd0d9ca4)">
     <use xlink:href="#m2170ae3c77" x="539.947066" y="306.508531" style="fill: #008000; stroke: #000000"/>
     <use xlink:href="#m2170ae3c77" x="554.815968" y="304.729985" style="fill: #008000; stroke: #000000"/>
     <use xlink:href="#m2170ae3c77" x="569.68487" y="304.831617" style="fill: #008000; stroke: #000000"/>
     <use xlink:href="#m2170ae3c77" x="584.553773" y="296.040522" style="fill: #008000; stroke: #000000"/>
     <use xlink:href="#m2170ae3c77" x="599.422675" y="293.19485" style="fill: #008000; stroke: #000000"/>
     <use xlink:href="#m2170ae3c77" x="614.291578" y="293.601375" style="fill: #008000; stroke: #000000"/>
     <use xlink:href="#m2170ae3c77" x="629.16048" y="280.440141" style="fill: #008000; stroke: #000000"/>
     <use xlink:href="#m2170ae3c77" x="644.029383" y="269.76887" style="fill: #008000; stroke: #000000"/>
     <use xlink:href="#m2170ae3c77" x="658.898285" y="262.603874" style="fill: #008000; stroke: #000000"/>
     <use xlink:href="#m2170ae3c77" x="673.767187" y="273.884931" style="fill: #008000; stroke: #000000"/>
    </g>
   </g>
   <g id="PathCollection_4">
    <g clip-path="url(#p5afd0d9ca4)">
     <use xlink:href="#meacc0fb910" x="539.947066" y="309.2923" style="fill: #ff7f0e; stroke: #000000"/>
     <use xlink:href="#meacc0fb910" x="554.815968" y="308.51871" style="fill: #ff7f0e; stroke: #000000"/>
     <use xlink:href="#meacc0fb910" x="569.68487" y="306.985792" style="fill: #ff7f0e; stroke: #000000"/>
     <use xlink:href="#meacc0fb910" x="584.553773" y="313.838274" style="fill: #ff7f0e; stroke: #000000"/>
     <use xlink:href="#meacc0fb910" x="599.422675" y="308.464827" style="fill: #ff7f0e; stroke: #000000"/>
     <use xlink:href="#meacc0fb910" x="614.291578" y="310.517106" style="fill: #ff7f0e; stroke: #000000"/>
     <use xlink:href="#meacc0fb910" x="629.16048" y="309.639616" style="fill: #ff7f0e; stroke: #000000"/>
     <use xlink:href="#meacc0fb910" x="644.029383" y="308.19026" style="fill: #ff7f0e; stroke: #000000"/>
     <use xlink:href="#meacc0fb910" x="658.898285" y="305.053104" style="fill: #ff7f0e; stroke: #000000"/>
     <use xlink:href="#meacc0fb910" x="673.767187" y="311.129003" style="fill: #ff7f0e; stroke: #000000"/>
    </g>
   </g>
   <g id="matplotlib.axis_3">
    <g id="xtick_6">
     <g id="line2d_13">
      <g>
       <use xlink:href="#m8204e18dc5" x="64.142188" y="405.2" style="stroke: #000000; stroke-width: 0.8"/>
      </g>
     </g>
    </g>
    <g id="xtick_7">
     <g id="line2d_14">
      <g>
       <use xlink:href="#m8204e18dc5" x="212.831212" y="405.2" style="stroke: #000000; stroke-width: 0.8"/>
      </g>
     </g>
    </g>
    <g id="xtick_8">
     <g id="line2d_15">
      <g>
       <use xlink:href="#m8204e18dc5" x="361.520236" y="405.2" style="stroke: #000000; stroke-width: 0.8"/>
      </g>
     </g>
    </g>
    <g id="xtick_9">
     <g id="line2d_16">
      <g>
       <use xlink:href="#m8204e18dc5" x="510.209261" y="405.2" style="stroke: #000000; stroke-width: 0.8"/>
      </g>
     </g>
    </g>
    <g id="xtick_10">
     <g id="line2d_17">
      <g>
       <use xlink:href="#m8204e18dc5" x="658.898285" y="405.2" style="stroke: #000000; stroke-width: 0.8"/>
      </g>
     </g>
    </g>
   </g>
   <g id="matplotlib.axis_4">
    <g id="ytick_6">
     <g id="line2d_18">
      <g>
       <use xlink:href="#mb3aac8fbc7" x="33.660938" y="401.83855" style="stroke: #000000; stroke-width: 0.8"/>
      </g>
     </g>
     <g id="text_6">
      <!-- 0.75 -->
      <g transform="translate(7.2 405.417456)scale(0.1 -0.1)">
       <use xlink:href="#ArialMT-30"/>
       <use xlink:href="#ArialMT-2e" x="55.615234"/>
       <use xlink:href="#ArialMT-37" x="83.398438"/>
       <use xlink:href="#ArialMT-35" x="139.013672"/>
      </g>
     </g>
    </g>
    <g id="ytick_7">
     <g id="line2d_19">
      <g>
       <use xlink:href="#mb3aac8fbc7" x="33.660938" y="363.239039" style="stroke: #000000; stroke-width: 0.8"/>
      </g>
     </g>
     <g id="text_7">
      <!-- 0.80 -->
      <g transform="translate(7.2 366.817945)scale(0.1 -0.1)">
       <use xlink:href="#ArialMT-30"/>
       <use xlink:href="#ArialMT-2e" x="55.615234"/>
       <use xlink:href="#ArialMT-38" x="83.398438"/>
       <use xlink:href="#ArialMT-30" x="139.013672"/>
      </g>
     </g>
    </g>
    <g id="ytick_8">
     <g id="line2d_20">
      <g>
       <use xlink:href="#mb3aac8fbc7" x="33.660938" y="324.639528" style="stroke: #000000; stroke-width: 0.8"/>
      </g>
     </g>
     <g id="text_8">
      <!-- 0.85 -->
      <g transform="translate(7.2 328.218434)scale(0.1 -0.1)">
       <use xlink:href="#ArialMT-30"/>
       <use xlink:href="#ArialMT-2e" x="55.615234"/>
       <use xlink:href="#ArialMT-38" x="83.398438"/>
       <use xlink:href="#ArialMT-35" x="139.013672"/>
      </g>
     </g>
    </g>
    <g id="ytick_9">
     <g id="line2d_21">
      <g>
       <use xlink:href="#mb3aac8fbc7" x="33.660938" y="286.040017" style="stroke: #000000; stroke-width: 0.8"/>
      </g>
     </g>
     <g id="text_9">
      <!-- 0.90 -->
      <g transform="translate(7.2 289.618923)scale(0.1 -0.1)">
       <use xlink:href="#ArialMT-30"/>
       <use xlink:href="#ArialMT-2e" x="55.615234"/>
       <use xlink:href="#ArialMT-39" x="83.398438"/>
       <use xlink:href="#ArialMT-30" x="139.013672"/>
      </g>
     </g>
    </g>
    <g id="ytick_10">
     <g id="line2d_22">
      <g>
       <use xlink:href="#mb3aac8fbc7" x="33.660938" y="247.440506" style="stroke: #000000; stroke-width: 0.8"/>
      </g>
     </g>
     <g id="text_10">
      <!-- 0.95 -->
      <g transform="translate(7.2 251.019412)scale(0.1 -0.1)">
       <use xlink:href="#ArialMT-30"/>
       <use xlink:href="#ArialMT-2e" x="55.615234"/>
       <use xlink:href="#ArialMT-39" x="83.398438"/>
       <use xlink:href="#ArialMT-35" x="139.013672"/>
      </g>
     </g>
    </g>
   </g>
   <g id="line2d_23">
    <path d="M 64.142188 329.782064 
L 79.01109 331.560609 
L 93.879992 337.556847 
L 108.748895 345.280815 
L 123.617797 346.805282 
L 138.4867 351.378684 
L 153.355602 349.854216 
L 168.224505 344.315319 
L 183.093407 342.079433 
L 197.962309 344.772659 
L 212.831212 344.620212 
L 227.700114 344.315319 
L 242.569017 337.150322 
L 257.437919 330.950822 
L 272.306822 328.359228 
L 287.175724 313.97842 
L 302.044627 317.281433 
L 316.913529 313.97842 
L 331.782431 309.049309 
L 346.651334 302.189207 
L 361.520236 301.782682 
L 376.389139 309.303387 
L 391.258041 316.519199 
L 406.126944 318.958347 
L 420.995846 310.014805 
L 435.864748 309.354203 
L 450.733651 307.474027 
L 465.602553 311.183564 
L 480.471456 309.303387 
L 495.340358 305.441404 
L 510.209261 306.965871 
L 525.078163 308.134629 
" clip-path="url(#p5afd0d9ca4)" style="fill: none; stroke: #0000ff; stroke-width: 1.5; stroke-linecap: square"/>
    <g clip-path="url(#p5afd0d9ca4)">
     <use xlink:href="#mc3bbf3d6dc" x="64.142188" y="329.782064" style="fill: #0000ff; stroke: #0000ff"/>
     <use xlink:href="#mc3bbf3d6dc" x="79.01109" y="331.560609" style="fill: #0000ff; stroke: #0000ff"/>
     <use xlink:href="#mc3bbf3d6dc" x="93.879992" y="337.556847" style="fill: #0000ff; stroke: #0000ff"/>
     <use xlink:href="#mc3bbf3d6dc" x="108.748895" y="345.280815" style="fill: #0000ff; stroke: #0000ff"/>
     <use xlink:href="#mc3bbf3d6dc" x="123.617797" y="346.805282" style="fill: #0000ff; stroke: #0000ff"/>
     <use xlink:href="#mc3bbf3d6dc" x="138.4867" y="351.378684" style="fill: #0000ff; stroke: #0000ff"/>
     <use xlink:href="#mc3bbf3d6dc" x="153.355602" y="349.854216" style="fill: #0000ff; stroke: #0000ff"/>
     <use xlink:href="#mc3bbf3d6dc" x="168.224505" y="344.315319" style="fill: #0000ff; stroke: #0000ff"/>
     <use xlink:href="#mc3bbf3d6dc" x="183.093407" y="342.079433" style="fill: #0000ff; stroke: #0000ff"/>
     <use xlink:href="#mc3bbf3d6dc" x="197.962309" y="344.772659" style="fill: #0000ff; stroke: #0000ff"/>
     <use xlink:href="#mc3bbf3d6dc" x="212.831212" y="344.620212" style="fill: #0000ff; stroke: #0000ff"/>
     <use xlink:href="#mc3bbf3d6dc" x="227.700114" y="344.315319" style="fill: #0000ff; stroke: #0000ff"/>
     <use xlink:href="#mc3bbf3d6dc" x="242.569017" y="337.150322" style="fill: #0000ff; stroke: #0000ff"/>
     <use xlink:href="#mc3bbf3d6dc" x="257.437919" y="330.950822" style="fill: #0000ff; stroke: #0000ff"/>
     <use xlink:href="#mc3bbf3d6dc" x="272.306822" y="328.359228" style="fill: #0000ff; stroke: #0000ff"/>
     <use xlink:href="#mc3bbf3d6dc" x="287.175724" y="313.97842" style="fill: #0000ff; stroke: #0000ff"/>
     <use xlink:href="#mc3bbf3d6dc" x="302.044627" y="317.281433" style="fill: #0000ff; stroke: #0000ff"/>
     <use xlink:href="#mc3bbf3d6dc" x="316.913529" y="313.97842" style="fill: #0000ff; stroke: #0000ff"/>
     <use xlink:href="#mc3bbf3d6dc" x="331.782431" y="309.049309" style="fill: #0000ff; stroke: #0000ff"/>
     <use xlink:href="#mc3bbf3d6dc" x="346.651334" y="302.189207" style="fill: #0000ff; stroke: #0000ff"/>
     <use xlink:href="#mc3bbf3d6dc" x="361.520236" y="301.782682" style="fill: #0000ff; stroke: #0000ff"/>
     <use xlink:href="#mc3bbf3d6dc" x="376.389139" y="309.303387" style="fill: #0000ff; stroke: #0000ff"/>
     <use xlink:href="#mc3bbf3d6dc" x="391.258041" y="316.519199" style="fill: #0000ff; stroke: #0000ff"/>
     <use xlink:href="#mc3bbf3d6dc" x="406.126944" y="318.958347" style="fill: #0000ff; stroke: #0000ff"/>
     <use xlink:href="#mc3bbf3d6dc" x="420.995846" y="310.014805" style="fill: #0000ff; stroke: #0000ff"/>
     <use xlink:href="#mc3bbf3d6dc" x="435.864748" y="309.354203" style="fill: #0000ff; stroke: #0000ff"/>
     <use xlink:href="#mc3bbf3d6dc" x="450.733651" y="307.474027" style="fill: #0000ff; stroke: #0000ff"/>
     <use xlink:href="#mc3bbf3d6dc" x="465.602553" y="311.183564" style="fill: #0000ff; stroke: #0000ff"/>
     <use xlink:href="#mc3bbf3d6dc" x="480.471456" y="309.303387" style="fill: #0000ff; stroke: #0000ff"/>
     <use xlink:href="#mc3bbf3d6dc" x="495.340358" y="305.441404" style="fill: #0000ff; stroke: #0000ff"/>
     <use xlink:href="#mc3bbf3d6dc" x="510.209261" y="306.965871" style="fill: #0000ff; stroke: #0000ff"/>
     <use xlink:href="#mc3bbf3d6dc" x="525.078163" y="308.134629" style="fill: #0000ff; stroke: #0000ff"/>
    </g>
   </g>
   <g id="line2d_24">
    <path d="M 539.947066 306.508531 
L 554.815968 304.729985 
L 569.68487 304.831617 
L 584.553773 296.040522 
L 599.422675 293.19485 
L 614.291578 293.601375 
L 629.16048 280.440141 
L 644.029383 269.76887 
L 658.898285 262.603874 
L 673.767187 273.884931 
" clip-path="url(#p5afd0d9ca4)" style="fill: none; stroke: #008000; stroke-width: 1.5; stroke-linecap: square"/>
    <g clip-path="url(#p5afd0d9ca4)">
     <use xlink:href="#m702f0b697c" x="539.947066" y="306.508531" style="fill: #008000; stroke: #008000"/>
     <use xlink:href="#m702f0b697c" x="554.815968" y="304.729985" style="fill: #008000; stroke: #008000"/>
     <use xlink:href="#m702f0b697c" x="569.68487" y="304.831617" style="fill: #008000; stroke: #008000"/>
     <use xlink:href="#m702f0b697c" x="584.553773" y="296.040522" style="fill: #008000; stroke: #008000"/>
     <use xlink:href="#m702f0b697c" x="599.422675" y="293.19485" style="fill: #008000; stroke: #008000"/>
     <use xlink:href="#m702f0b697c" x="614.291578" y="293.601375" style="fill: #008000; stroke: #008000"/>
     <use xlink:href="#m702f0b697c" x="629.16048" y="280.440141" style="fill: #008000; stroke: #008000"/>
     <use xlink:href="#m702f0b697c" x="644.029383" y="269.76887" style="fill: #008000; stroke: #008000"/>
     <use xlink:href="#m702f0b697c" x="658.898285" y="262.603874" style="fill: #008000; stroke: #008000"/>
     <use xlink:href="#m702f0b697c" x="673.767187" y="273.884931" style="fill: #008000; stroke: #008000"/>
    </g>
   </g>
   <g id="patch_8">
    <path d="M 33.660938 405.2 
L 33.660938 216.1 
" style="fill: none; stroke: #000000; stroke-width: 0.8; stroke-linejoin: miter; stroke-linecap: square"/>
   </g>
   <g id="patch_9">
    <path d="M 704.248437 405.2 
L 704.248437 216.1 
" style="fill: none; stroke: #000000; stroke-width: 0.8; stroke-linejoin: miter; stroke-linecap: square"/>
   </g>
   <g id="patch_10">
    <path d="M 33.660938 405.2 
L 704.248437 405.2 
" style="fill: none; stroke: #000000; stroke-width: 0.8; stroke-linejoin: miter; stroke-linecap: square"/>
   </g>
   <g id="patch_11">
    <path d="M 33.660938 216.1 
L 704.248437 216.1 
" style="fill: none; stroke: #000000; stroke-width: 0.8; stroke-linejoin: miter; stroke-linecap: square"/>
   </g>
  </g>
  <g id="axes_3">
   <g id="patch_12">
    <path d="M 33.660938 614.1 
L 704.248437 614.1 
L 704.248437 425 
L 33.660938 425 
z
" style="fill: #ffffff"/>
   </g>
   <g id="PathCollection_5">
    <g clip-path="url(#p299d61e09c)">
     <use xlink:href="#m2170ae3c77" x="539.947066" y="482.784931" style="fill: #008000; stroke: #000000"/>
     <use xlink:href="#m2170ae3c77" x="554.815968" y="470.182669" style="fill: #008000; stroke: #000000"/>
     <use xlink:href="#m2170ae3c77" x="569.68487" y="463.220935" style="fill: #008000; stroke: #000000"/>
     <use xlink:href="#m2170ae3c77" x="584.553773" y="459.358951" style="fill: #008000; stroke: #000000"/>
     <use xlink:href="#m2170ae3c77" x="599.422675" y="433.595455" style="fill: #008000; stroke: #000000"/>
     <use xlink:href="#m2170ae3c77" x="614.291578" y="458.190193" style="fill: #008000; stroke: #000000"/>
     <use xlink:href="#m2170ae3c77" x="629.16048" y="462.661964" style="fill: #008000; stroke: #000000"/>
     <use xlink:href="#m2170ae3c77" x="644.029383" y="478.21153" style="fill: #008000; stroke: #000000"/>
     <use xlink:href="#m2170ae3c77" x="658.898285" y="510.123711" style="fill: #008000; stroke: #000000"/>
     <use xlink:href="#m2170ae3c77" x="673.767187" y="540.460609" style="fill: #008000; stroke: #000000"/>
    </g>
   </g>
   <g id="PathCollection_6">
    <g clip-path="url(#p299d61e09c)">
     <use xlink:href="#meacc0fb910" x="539.947066" y="484.817693" style="fill: #ff7f0e; stroke: #000000"/>
     <use xlink:href="#meacc0fb910" x="554.815968" y="484.352443" style="fill: #ff7f0e; stroke: #000000"/>
     <use xlink:href="#meacc0fb910" x="569.68487" y="487.931796" style="fill: #ff7f0e; stroke: #000000"/>
     <use xlink:href="#meacc0fb910" x="584.553773" y="491.485335" style="fill: #ff7f0e; stroke: #000000"/>
     <use xlink:href="#meacc0fb910" x="599.422675" y="488.652333" style="fill: #ff7f0e; stroke: #000000"/>
     <use xlink:href="#meacc0fb910" x="614.291578" y="487.906488" style="fill: #ff7f0e; stroke: #000000"/>
     <use xlink:href="#meacc0fb910" x="629.16048" y="489.343558" style="fill: #ff7f0e; stroke: #000000"/>
     <use xlink:href="#meacc0fb910" x="644.029383" y="489.341395" style="fill: #ff7f0e; stroke: #000000"/>
     <use xlink:href="#meacc0fb910" x="658.898285" y="491.809827" style="fill: #ff7f0e; stroke: #000000"/>
     <use xlink:href="#meacc0fb910" x="673.767187" y="491.684254" style="fill: #ff7f0e; stroke: #000000"/>
    </g>
   </g>
   <g id="matplotlib.axis_5">
    <g id="xtick_11">
     <g id="line2d_25">
      <g>
       <use xlink:href="#m8204e18dc5" x="64.142188" y="614.1" style="stroke: #000000; stroke-width: 0.8"/>
      </g>
     </g>
     <g id="text_11">
      <!-- 0 -->
      <g transform="translate(61.361719 628.257812)scale(0.1 -0.1)">
       <use xlink:href="#ArialMT-30"/>
      </g>
     </g>
    </g>
    <g id="xtick_12">
     <g id="line2d_26">
      <g>
       <use xlink:href="#m8204e18dc5" x="212.831212" y="614.1" style="stroke: #000000; stroke-width: 0.8"/>
      </g>
     </g>
     <g id="text_12">
      <!-- 10 -->
      <g transform="translate(207.270274 628.257812)scale(0.1 -0.1)">
       <defs>
        <path id="ArialMT-31" d="M 2384 0 
L 1822 0 
L 1822 3584 
Q 1619 3391 1289 3197 
Q 959 3003 697 2906 
L 697 3450 
Q 1169 3672 1522 3987 
Q 1875 4303 2022 4600 
L 2384 4600 
L 2384 0 
z
" transform="scale(0.015625)"/>
       </defs>
       <use xlink:href="#ArialMT-31"/>
       <use xlink:href="#ArialMT-30" x="55.615234"/>
      </g>
     </g>
    </g>
    <g id="xtick_13">
     <g id="line2d_27">
      <g>
       <use xlink:href="#m8204e18dc5" x="361.520236" y="614.1" style="stroke: #000000; stroke-width: 0.8"/>
      </g>
     </g>
     <g id="text_13">
      <!-- 20 -->
      <g transform="translate(355.959299 628.257812)scale(0.1 -0.1)">
       <defs>
        <path id="ArialMT-32" d="M 3222 541 
L 3222 0 
L 194 0 
Q 188 203 259 391 
Q 375 700 629 1000 
Q 884 1300 1366 1694 
Q 2113 2306 2375 2664 
Q 2638 3022 2638 3341 
Q 2638 3675 2398 3904 
Q 2159 4134 1775 4134 
Q 1369 4134 1125 3890 
Q 881 3647 878 3216 
L 300 3275 
Q 359 3922 746 4261 
Q 1134 4600 1788 4600 
Q 2447 4600 2831 4234 
Q 3216 3869 3216 3328 
Q 3216 3053 3103 2787 
Q 2991 2522 2730 2228 
Q 2469 1934 1863 1422 
Q 1356 997 1212 845 
Q 1069 694 975 541 
L 3222 541 
z
" transform="scale(0.015625)"/>
       </defs>
       <use xlink:href="#ArialMT-32"/>
       <use xlink:href="#ArialMT-30" x="55.615234"/>
      </g>
     </g>
    </g>
    <g id="xtick_14">
     <g id="line2d_28">
      <g>
       <use xlink:href="#m8204e18dc5" x="510.209261" y="614.1" style="stroke: #000000; stroke-width: 0.8"/>
      </g>
     </g>
     <g id="text_14">
      <!-- 30 -->
      <g transform="translate(504.648323 628.257812)scale(0.1 -0.1)">
       <defs>
        <path id="ArialMT-33" d="M 269 1209 
L 831 1284 
Q 928 806 1161 595 
Q 1394 384 1728 384 
Q 2125 384 2398 659 
Q 2672 934 2672 1341 
Q 2672 1728 2419 1979 
Q 2166 2231 1775 2231 
Q 1616 2231 1378 2169 
L 1441 2663 
Q 1497 2656 1531 2656 
Q 1891 2656 2178 2843 
Q 2466 3031 2466 3422 
Q 2466 3731 2256 3934 
Q 2047 4138 1716 4138 
Q 1388 4138 1169 3931 
Q 950 3725 888 3313 
L 325 3413 
Q 428 3978 793 4289 
Q 1159 4600 1703 4600 
Q 2078 4600 2393 4439 
Q 2709 4278 2876 4000 
Q 3044 3722 3044 3409 
Q 3044 3113 2884 2869 
Q 2725 2625 2413 2481 
Q 2819 2388 3044 2092 
Q 3269 1797 3269 1353 
Q 3269 753 2831 336 
Q 2394 -81 1725 -81 
Q 1122 -81 723 278 
Q 325 638 269 1209 
z
" transform="scale(0.015625)"/>
       </defs>
       <use xlink:href="#ArialMT-33"/>
       <use xlink:href="#ArialMT-30" x="55.615234"/>
      </g>
     </g>
    </g>
    <g id="xtick_15">
     <g id="line2d_29">
      <g>
       <use xlink:href="#m8204e18dc5" x="658.898285" y="614.1" style="stroke: #000000; stroke-width: 0.8"/>
      </g>
     </g>
     <g id="text_15">
      <!-- 40 -->
      <g transform="translate(653.337348 628.257812)scale(0.1 -0.1)">
       <defs>
        <path id="ArialMT-34" d="M 2069 0 
L 2069 1097 
L 81 1097 
L 81 1613 
L 2172 4581 
L 2631 4581 
L 2631 1613 
L 3250 1613 
L 3250 1097 
L 2631 1097 
L 2631 0 
L 2069 0 
z
M 2069 1613 
L 2069 3678 
L 634 1613 
L 2069 1613 
z
" transform="scale(0.015625)"/>
       </defs>
       <use xlink:href="#ArialMT-34"/>
       <use xlink:href="#ArialMT-30" x="55.615234"/>
      </g>
     </g>
    </g>
   </g>
   <g id="matplotlib.axis_6">
    <g id="ytick_11">
     <g id="line2d_30">
      <g>
       <use xlink:href="#mb3aac8fbc7" x="33.660938" y="610.73855" style="stroke: #000000; stroke-width: 0.8"/>
      </g>
     </g>
     <g id="text_16">
      <!-- 0.75 -->
      <g transform="translate(7.2 614.317456)scale(0.1 -0.1)">
       <use xlink:href="#ArialMT-30"/>
       <use xlink:href="#ArialMT-2e" x="55.615234"/>
       <use xlink:href="#ArialMT-37" x="83.398438"/>
       <use xlink:href="#ArialMT-35" x="139.013672"/>
      </g>
     </g>
    </g>
    <g id="ytick_12">
     <g id="line2d_31">
      <g>
       <use xlink:href="#mb3aac8fbc7" x="33.660938" y="572.139039" style="stroke: #000000; stroke-width: 0.8"/>
      </g>
     </g>
     <g id="text_17">
      <!-- 0.80 -->
      <g transform="translate(7.2 575.717945)scale(0.1 -0.1)">
       <use xlink:href="#ArialMT-30"/>
       <use xlink:href="#ArialMT-2e" x="55.615234"/>
       <use xlink:href="#ArialMT-38" x="83.398438"/>
       <use xlink:href="#ArialMT-30" x="139.013672"/>
      </g>
     </g>
    </g>
    <g id="ytick_13">
     <g id="line2d_32">
      <g>
       <use xlink:href="#mb3aac8fbc7" x="33.660938" y="533.539528" style="stroke: #000000; stroke-width: 0.8"/>
      </g>
     </g>
     <g id="text_18">
      <!-- 0.85 -->
      <g transform="translate(7.2 537.118434)scale(0.1 -0.1)">
       <use xlink:href="#ArialMT-30"/>
       <use xlink:href="#ArialMT-2e" x="55.615234"/>
       <use xlink:href="#ArialMT-38" x="83.398438"/>
       <use xlink:href="#ArialMT-35" x="139.013672"/>
      </g>
     </g>
    </g>
    <g id="ytick_14">
     <g id="line2d_33">
      <g>
       <use xlink:href="#mb3aac8fbc7" x="33.660938" y="494.940017" style="stroke: #000000; stroke-width: 0.8"/>
      </g>
     </g>
     <g id="text_19">
      <!-- 0.90 -->
      <g transform="translate(7.2 498.518923)scale(0.1 -0.1)">
       <use xlink:href="#ArialMT-30"/>
       <use xlink:href="#ArialMT-2e" x="55.615234"/>
       <use xlink:href="#ArialMT-39" x="83.398438"/>
       <use xlink:href="#ArialMT-30" x="139.013672"/>
      </g>
     </g>
    </g>
    <g id="ytick_15">
     <g id="line2d_34">
      <g>
       <use xlink:href="#mb3aac8fbc7" x="33.660938" y="456.340506" style="stroke: #000000; stroke-width: 0.8"/>
      </g>
     </g>
     <g id="text_20">
      <!-- 0.95 -->
      <g transform="translate(7.2 459.919412)scale(0.1 -0.1)">
       <use xlink:href="#ArialMT-30"/>
       <use xlink:href="#ArialMT-2e" x="55.615234"/>
       <use xlink:href="#ArialMT-39" x="83.398438"/>
       <use xlink:href="#ArialMT-35" x="139.013672"/>
      </g>
     </g>
    </g>
   </g>
   <g id="line2d_35">
    <path d="M 64.142188 553.672659 
L 79.01109 553.520212 
L 93.879992 553.215319 
L 108.748895 546.050322 
L 123.617797 539.850822 
L 138.4867 537.259228 
L 153.355602 522.87842 
L 168.224505 526.181433 
L 183.093407 522.87842 
L 197.962309 517.949309 
L 212.831212 511.089207 
L 227.700114 510.682682 
L 242.569017 518.203387 
L 257.437919 525.419199 
L 272.306822 527.858347 
L 287.175724 518.914805 
L 302.044627 518.254203 
L 316.913529 516.374027 
L 331.782431 520.083564 
L 346.651334 518.203387 
L 361.520236 514.341404 
L 376.389139 515.865871 
L 391.258041 517.034629 
L 406.126944 515.408531 
L 420.995846 513.629985 
L 435.864748 513.731617 
L 450.733651 504.940522 
L 465.602553 502.09485 
L 480.471456 502.501375 
L 495.340358 489.340141 
L 510.209261 478.66887 
L 525.078163 471.503874 
" clip-path="url(#p299d61e09c)" style="fill: none; stroke: #0000ff; stroke-width: 1.5; stroke-linecap: square"/>
    <g clip-path="url(#p299d61e09c)">
     <use xlink:href="#mc3bbf3d6dc" x="64.142188" y="553.672659" style="fill: #0000ff; stroke: #0000ff"/>
     <use xlink:href="#mc3bbf3d6dc" x="79.01109" y="553.520212" style="fill: #0000ff; stroke: #0000ff"/>
     <use xlink:href="#mc3bbf3d6dc" x="93.879992" y="553.215319" style="fill: #0000ff; stroke: #0000ff"/>
     <use xlink:href="#mc3bbf3d6dc" x="108.748895" y="546.050322" style="fill: #0000ff; stroke: #0000ff"/>
     <use xlink:href="#mc3bbf3d6dc" x="123.617797" y="539.850822" style="fill: #0000ff; stroke: #0000ff"/>
     <use xlink:href="#mc3bbf3d6dc" x="138.4867" y="537.259228" style="fill: #0000ff; stroke: #0000ff"/>
     <use xlink:href="#mc3bbf3d6dc" x="153.355602" y="522.87842" style="fill: #0000ff; stroke: #0000ff"/>
     <use xlink:href="#mc3bbf3d6dc" x="168.224505" y="526.181433" style="fill: #0000ff; stroke: #0000ff"/>
     <use xlink:href="#mc3bbf3d6dc" x="183.093407" y="522.87842" style="fill: #0000ff; stroke: #0000ff"/>
     <use xlink:href="#mc3bbf3d6dc" x="197.962309" y="517.949309" style="fill: #0000ff; stroke: #0000ff"/>
     <use xlink:href="#mc3bbf3d6dc" x="212.831212" y="511.089207" style="fill: #0000ff; stroke: #0000ff"/>
     <use xlink:href="#mc3bbf3d6dc" x="227.700114" y="510.682682" style="fill: #0000ff; stroke: #0000ff"/>
     <use xlink:href="#mc3bbf3d6dc" x="242.569017" y="518.203387" style="fill: #0000ff; stroke: #0000ff"/>
     <use xlink:href="#mc3bbf3d6dc" x="257.437919" y="525.419199" style="fill: #0000ff; stroke: #0000ff"/>
     <use xlink:href="#mc3bbf3d6dc" x="272.306822" y="527.858347" style="fill: #0000ff; stroke: #0000ff"/>
     <use xlink:href="#mc3bbf3d6dc" x="287.175724" y="518.914805" style="fill: #0000ff; stroke: #0000ff"/>
     <use xlink:href="#mc3bbf3d6dc" x="302.044627" y="518.254203" style="fill: #0000ff; stroke: #0000ff"/>
     <use xlink:href="#mc3bbf3d6dc" x="316.913529" y="516.374027" style="fill: #0000ff; stroke: #0000ff"/>
     <use xlink:href="#mc3bbf3d6dc" x="331.782431" y="520.083564" style="fill: #0000ff; stroke: #0000ff"/>
     <use xlink:href="#mc3bbf3d6dc" x="346.651334" y="518.203387" style="fill: #0000ff; stroke: #0000ff"/>
     <use xlink:href="#mc3bbf3d6dc" x="361.520236" y="514.341404" style="fill: #0000ff; stroke: #0000ff"/>
     <use xlink:href="#mc3bbf3d6dc" x="376.389139" y="515.865871" style="fill: #0000ff; stroke: #0000ff"/>
     <use xlink:href="#mc3bbf3d6dc" x="391.258041" y="517.034629" style="fill: #0000ff; stroke: #0000ff"/>
     <use xlink:href="#mc3bbf3d6dc" x="406.126944" y="515.408531" style="fill: #0000ff; stroke: #0000ff"/>
     <use xlink:href="#mc3bbf3d6dc" x="420.995846" y="513.629985" style="fill: #0000ff; stroke: #0000ff"/>
     <use xlink:href="#mc3bbf3d6dc" x="435.864748" y="513.731617" style="fill: #0000ff; stroke: #0000ff"/>
     <use xlink:href="#mc3bbf3d6dc" x="450.733651" y="504.940522" style="fill: #0000ff; stroke: #0000ff"/>
     <use xlink:href="#mc3bbf3d6dc" x="465.602553" y="502.09485" style="fill: #0000ff; stroke: #0000ff"/>
     <use xlink:href="#mc3bbf3d6dc" x="480.471456" y="502.501375" style="fill: #0000ff; stroke: #0000ff"/>
     <use xlink:href="#mc3bbf3d6dc" x="495.340358" y="489.340141" style="fill: #0000ff; stroke: #0000ff"/>
     <use xlink:href="#mc3bbf3d6dc" x="510.209261" y="478.66887" style="fill: #0000ff; stroke: #0000ff"/>
     <use xlink:href="#mc3bbf3d6dc" x="525.078163" y="471.503874" style="fill: #0000ff; stroke: #0000ff"/>
    </g>
   </g>
   <g id="line2d_36">
    <path d="M 539.947066 482.784931 
L 554.815968 470.182669 
L 569.68487 463.220935 
L 584.553773 459.358951 
L 599.422675 433.595455 
L 614.291578 458.190193 
L 629.16048 462.661964 
L 644.029383 478.21153 
L 658.898285 510.123711 
L 673.767187 540.460609 
" clip-path="url(#p299d61e09c)" style="fill: none; stroke: #008000; stroke-width: 1.5; stroke-linecap: square"/>
    <g clip-path="url(#p299d61e09c)">
     <use xlink:href="#m702f0b697c" x="539.947066" y="482.784931" style="fill: #008000; stroke: #008000"/>
     <use xlink:href="#m702f0b697c" x="554.815968" y="470.182669" style="fill: #008000; stroke: #008000"/>
     <use xlink:href="#m702f0b697c" x="569.68487" y="463.220935" style="fill: #008000; stroke: #008000"/>
     <use xlink:href="#m702f0b697c" x="584.553773" y="459.358951" style="fill: #008000; stroke: #008000"/>
     <use xlink:href="#m702f0b697c" x="599.422675" y="433.595455" style="fill: #008000; stroke: #008000"/>
     <use xlink:href="#m702f0b697c" x="614.291578" y="458.190193" style="fill: #008000; stroke: #008000"/>
     <use xlink:href="#m702f0b697c" x="629.16048" y="462.661964" style="fill: #008000; stroke: #008000"/>
     <use xlink:href="#m702f0b697c" x="644.029383" y="478.21153" style="fill: #008000; stroke: #008000"/>
     <use xlink:href="#m702f0b697c" x="658.898285" y="510.123711" style="fill: #008000; stroke: #008000"/>
     <use xlink:href="#m702f0b697c" x="673.767187" y="540.460609" style="fill: #008000; stroke: #008000"/>
    </g>
   </g>
   <g id="patch_13">
    <path d="M 33.660938 614.1 
L 33.660938 425 
" style="fill: none; stroke: #000000; stroke-width: 0.8; stroke-linejoin: miter; stroke-linecap: square"/>
   </g>
   <g id="patch_14">
    <path d="M 704.248437 614.1 
L 704.248437 425 
" style="fill: none; stroke: #000000; stroke-width: 0.8; stroke-linejoin: miter; stroke-linecap: square"/>
   </g>
   <g id="patch_15">
    <path d="M 33.660938 614.1 
L 704.248437 614.1 
" style="fill: none; stroke: #000000; stroke-width: 0.8; stroke-linejoin: miter; stroke-linecap: square"/>
   </g>
   <g id="patch_16">
    <path d="M 33.660938 425 
L 704.248437 425 
" style="fill: none; stroke: #000000; stroke-width: 0.8; stroke-linejoin: miter; stroke-linecap: square"/>
   </g>
  </g>
 </g>
 <defs>
  <clipPath id="pb99513c201">
   <rect x="33.660938" y="7.2" width="670.5875" height="189.1"/>
  </clipPath>
  <clipPath id="p5afd0d9ca4">
   <rect x="33.660938" y="216.1" width="670.5875" height="189.1"/>
  </clipPath>
  <clipPath id="p299d61e09c">
   <rect x="33.660938" y="425" width="670.5875" height="189.1"/>
  </clipPath>
 </defs>
</svg>
