<?xml version="1.0" encoding="utf-8" standalone="no"?>
<!DOCTYPE svg PUBLIC "-//W3C//DTD SVG 1.1//EN"
  "http://www.w3.org/Graphics/SVG/1.1/DTD/svg11.dtd">
<svg xmlns:xlink="http://www.w3.org/1999/xlink" width="606.684375pt" height="369.850625pt" viewBox="0 0 606.684375 369.850625" xmlns="http://www.w3.org/2000/svg" version="1.1">
 <metadata>
  <rdf:RDF xmlns:dc="http://purl.org/dc/elements/1.1/" xmlns:cc="http://creativecommons.org/ns#" xmlns:rdf="http://www.w3.org/1999/02/22-rdf-syntax-ns#">
   <cc:Work>
    <dc:type rdf:resource="http://purl.org/dc/dcmitype/StillImage"/>
    <dc:date>2022-02-02T23:35:12.103139</dc:date>
    <dc:format>image/svg+xml</dc:format>
    <dc:creator>
     <cc:Agent>
      <dc:title>Matplotlib v3.5.1, https://matplotlib.org/</dc:title>
     </cc:Agent>
    </dc:creator>
   </cc:Work>
  </rdf:RDF>
 </metadata>
 <defs>
  <style type="text/css">*{stroke-linejoin: round; stroke-linecap: butt}</style>
 </defs>
 <g id="figure_1">
  <g id="patch_1">
   <path d="M 0 369.850625 
L 606.684375 369.850625 
L 606.684375 0 
L 0 0 
L 0 369.850625 
z
" style="fill: none"/>
  </g>
  <g id="axes_1">
   <g id="patch_2">
    <path d="M 41.484375 333.36 
L 599.484375 333.36 
L 599.484375 7.2 
L 41.484375 7.2 
z
" style="fill: #ffffff"/>
   </g>
   <g id="matplotlib.axis_1">
    <g id="xtick_1">
     <g id="line2d_1">
      <defs>
       <path id="m56879cd406" d="M 0 0 
L 0 3.5 
" style="stroke: #000000; stroke-width: 0.8"/>
      </defs>
      <g>
       <use xlink:href="#m56879cd406" x="50.082045" y="333.36" style="stroke: #000000; stroke-width: 0.8"/>
      </g>
     </g>
     <g id="text_1">
      <!-- 2015 -->
      <g transform="translate(38.96017 347.517813)scale(0.1 -0.1)">
       <defs>
        <path id="ArialMT-32" d="M 3222 541 
L 3222 0 
L 194 0 
Q 188 203 259 391 
Q 375 700 629 1000 
Q 884 1300 1366 1694 
Q 2113 2306 2375 2664 
Q 2638 3022 2638 3341 
Q 2638 3675 2398 3904 
Q 2159 4134 1775 4134 
Q 1369 4134 1125 3890 
Q 881 3647 878 3216 
L 300 3275 
Q 359 3922 746 4261 
Q 1134 4600 1788 4600 
Q 2447 4600 2831 4234 
Q 3216 3869 3216 3328 
Q 3216 3053 3103 2787 
Q 2991 2522 2730 2228 
Q 2469 1934 1863 1422 
Q 1356 997 1212 845 
Q 1069 694 975 541 
L 3222 541 
z
" transform="scale(0.015625)"/>
        <path id="ArialMT-30" d="M 266 2259 
Q 266 3072 433 3567 
Q 600 4063 929 4331 
Q 1259 4600 1759 4600 
Q 2128 4600 2406 4451 
Q 2684 4303 2865 4023 
Q 3047 3744 3150 3342 
Q 3253 2941 3253 2259 
Q 3253 1453 3087 958 
Q 2922 463 2592 192 
Q 2263 -78 1759 -78 
Q 1097 -78 719 397 
Q 266 969 266 2259 
z
M 844 2259 
Q 844 1131 1108 757 
Q 1372 384 1759 384 
Q 2147 384 2411 759 
Q 2675 1134 2675 2259 
Q 2675 3391 2411 3762 
Q 2147 4134 1753 4134 
Q 1366 4134 1134 3806 
Q 844 3388 844 2259 
z
" transform="scale(0.015625)"/>
        <path id="ArialMT-31" d="M 2384 0 
L 1822 0 
L 1822 3584 
Q 1619 3391 1289 3197 
Q 959 3003 697 2906 
L 697 3450 
Q 1169 3672 1522 3987 
Q 1875 4303 2022 4600 
L 2384 4600 
L 2384 0 
z
" transform="scale(0.015625)"/>
        <path id="ArialMT-35" d="M 266 1200 
L 856 1250 
Q 922 819 1161 601 
Q 1400 384 1738 384 
Q 2144 384 2425 690 
Q 2706 997 2706 1503 
Q 2706 1984 2436 2262 
Q 2166 2541 1728 2541 
Q 1456 2541 1237 2417 
Q 1019 2294 894 2097 
L 366 2166 
L 809 4519 
L 3088 4519 
L 3088 3981 
L 1259 3981 
L 1013 2750 
Q 1425 3038 1878 3038 
Q 2478 3038 2890 2622 
Q 3303 2206 3303 1553 
Q 3303 931 2941 478 
Q 2500 -78 1738 -78 
Q 1113 -78 717 272 
Q 322 622 266 1200 
z
" transform="scale(0.015625)"/>
       </defs>
       <use xlink:href="#ArialMT-32"/>
       <use xlink:href="#ArialMT-30" x="55.615234"/>
       <use xlink:href="#ArialMT-31" x="111.230469"/>
       <use xlink:href="#ArialMT-35" x="166.845703"/>
      </g>
     </g>
    </g>
    <g id="xtick_2">
     <g id="line2d_2">
      <g>
       <use xlink:href="#m56879cd406" x="124.711043" y="333.36" style="stroke: #000000; stroke-width: 0.8"/>
      </g>
     </g>
     <g id="text_2">
      <!-- 2016 -->
      <g transform="translate(113.589168 347.517813)scale(0.1 -0.1)">
       <defs>
        <path id="ArialMT-36" d="M 3184 3459 
L 2625 3416 
Q 2550 3747 2413 3897 
Q 2184 4138 1850 4138 
Q 1581 4138 1378 3988 
Q 1113 3794 959 3422 
Q 806 3050 800 2363 
Q 1003 2672 1297 2822 
Q 1591 2972 1913 2972 
Q 2475 2972 2870 2558 
Q 3266 2144 3266 1488 
Q 3266 1056 3080 686 
Q 2894 316 2569 119 
Q 2244 -78 1831 -78 
Q 1128 -78 684 439 
Q 241 956 241 2144 
Q 241 3472 731 4075 
Q 1159 4600 1884 4600 
Q 2425 4600 2770 4297 
Q 3116 3994 3184 3459 
z
M 888 1484 
Q 888 1194 1011 928 
Q 1134 663 1356 523 
Q 1578 384 1822 384 
Q 2178 384 2434 671 
Q 2691 959 2691 1453 
Q 2691 1928 2437 2201 
Q 2184 2475 1800 2475 
Q 1419 2475 1153 2201 
Q 888 1928 888 1484 
z
" transform="scale(0.015625)"/>
       </defs>
       <use xlink:href="#ArialMT-32"/>
       <use xlink:href="#ArialMT-30" x="55.615234"/>
       <use xlink:href="#ArialMT-31" x="111.230469"/>
       <use xlink:href="#ArialMT-36" x="166.845703"/>
      </g>
     </g>
    </g>
    <g id="xtick_3">
     <g id="line2d_3">
      <g>
       <use xlink:href="#m56879cd406" x="199.544505" y="333.36" style="stroke: #000000; stroke-width: 0.8"/>
      </g>
     </g>
     <g id="text_3">
      <!-- 2017 -->
      <g transform="translate(188.42263 347.517813)scale(0.1 -0.1)">
       <defs>
        <path id="ArialMT-37" d="M 303 3981 
L 303 4522 
L 3269 4522 
L 3269 4084 
Q 2831 3619 2401 2847 
Q 1972 2075 1738 1259 
Q 1569 684 1522 0 
L 944 0 
Q 953 541 1156 1306 
Q 1359 2072 1739 2783 
Q 2119 3494 2547 3981 
L 303 3981 
z
" transform="scale(0.015625)"/>
       </defs>
       <use xlink:href="#ArialMT-32"/>
       <use xlink:href="#ArialMT-30" x="55.615234"/>
       <use xlink:href="#ArialMT-31" x="111.230469"/>
       <use xlink:href="#ArialMT-37" x="166.845703"/>
      </g>
     </g>
    </g>
    <g id="xtick_4">
     <g id="line2d_4">
      <g>
       <use xlink:href="#m56879cd406" x="274.173503" y="333.36" style="stroke: #000000; stroke-width: 0.8"/>
      </g>
     </g>
     <g id="text_4">
      <!-- 2018 -->
      <g transform="translate(263.051628 347.517813)scale(0.1 -0.1)">
       <defs>
        <path id="ArialMT-38" d="M 1131 2484 
Q 781 2613 612 2850 
Q 444 3088 444 3419 
Q 444 3919 803 4259 
Q 1163 4600 1759 4600 
Q 2359 4600 2725 4251 
Q 3091 3903 3091 3403 
Q 3091 3084 2923 2848 
Q 2756 2613 2416 2484 
Q 2838 2347 3058 2040 
Q 3278 1734 3278 1309 
Q 3278 722 2862 322 
Q 2447 -78 1769 -78 
Q 1091 -78 675 323 
Q 259 725 259 1325 
Q 259 1772 486 2073 
Q 713 2375 1131 2484 
z
M 1019 3438 
Q 1019 3113 1228 2906 
Q 1438 2700 1772 2700 
Q 2097 2700 2305 2904 
Q 2513 3109 2513 3406 
Q 2513 3716 2298 3927 
Q 2084 4138 1766 4138 
Q 1444 4138 1231 3931 
Q 1019 3725 1019 3438 
z
M 838 1322 
Q 838 1081 952 856 
Q 1066 631 1291 507 
Q 1516 384 1775 384 
Q 2178 384 2440 643 
Q 2703 903 2703 1303 
Q 2703 1709 2433 1975 
Q 2163 2241 1756 2241 
Q 1359 2241 1098 1978 
Q 838 1716 838 1322 
z
" transform="scale(0.015625)"/>
       </defs>
       <use xlink:href="#ArialMT-32"/>
       <use xlink:href="#ArialMT-30" x="55.615234"/>
       <use xlink:href="#ArialMT-31" x="111.230469"/>
       <use xlink:href="#ArialMT-38" x="166.845703"/>
      </g>
     </g>
    </g>
    <g id="xtick_5">
     <g id="line2d_5">
      <g>
       <use xlink:href="#m56879cd406" x="348.802502" y="333.36" style="stroke: #000000; stroke-width: 0.8"/>
      </g>
     </g>
     <g id="text_5">
      <!-- 2019 -->
      <g transform="translate(337.680627 347.517813)scale(0.1 -0.1)">
       <defs>
        <path id="ArialMT-39" d="M 350 1059 
L 891 1109 
Q 959 728 1153 556 
Q 1347 384 1650 384 
Q 1909 384 2104 503 
Q 2300 622 2425 820 
Q 2550 1019 2634 1356 
Q 2719 1694 2719 2044 
Q 2719 2081 2716 2156 
Q 2547 1888 2255 1720 
Q 1963 1553 1622 1553 
Q 1053 1553 659 1965 
Q 266 2378 266 3053 
Q 266 3750 677 4175 
Q 1088 4600 1706 4600 
Q 2153 4600 2523 4359 
Q 2894 4119 3086 3673 
Q 3278 3228 3278 2384 
Q 3278 1506 3087 986 
Q 2897 466 2520 194 
Q 2144 -78 1638 -78 
Q 1100 -78 759 220 
Q 419 519 350 1059 
z
M 2653 3081 
Q 2653 3566 2395 3850 
Q 2138 4134 1775 4134 
Q 1400 4134 1122 3828 
Q 844 3522 844 3034 
Q 844 2597 1108 2323 
Q 1372 2050 1759 2050 
Q 2150 2050 2401 2323 
Q 2653 2597 2653 3081 
z
" transform="scale(0.015625)"/>
       </defs>
       <use xlink:href="#ArialMT-32"/>
       <use xlink:href="#ArialMT-30" x="55.615234"/>
       <use xlink:href="#ArialMT-31" x="111.230469"/>
       <use xlink:href="#ArialMT-39" x="166.845703"/>
      </g>
     </g>
    </g>
    <g id="xtick_6">
     <g id="line2d_6">
      <g>
       <use xlink:href="#m56879cd406" x="423.4315" y="333.36" style="stroke: #000000; stroke-width: 0.8"/>
      </g>
     </g>
     <g id="text_6">
      <!-- 2020 -->
      <g transform="translate(412.309625 347.517813)scale(0.1 -0.1)">
       <use xlink:href="#ArialMT-32"/>
       <use xlink:href="#ArialMT-30" x="55.615234"/>
       <use xlink:href="#ArialMT-32" x="111.230469"/>
       <use xlink:href="#ArialMT-30" x="166.845703"/>
      </g>
     </g>
    </g>
    <g id="xtick_7">
     <g id="line2d_7">
      <g>
       <use xlink:href="#m56879cd406" x="498.264962" y="333.36" style="stroke: #000000; stroke-width: 0.8"/>
      </g>
     </g>
     <g id="text_7">
      <!-- 2021 -->
      <g transform="translate(487.143087 347.517813)scale(0.1 -0.1)">
       <use xlink:href="#ArialMT-32"/>
       <use xlink:href="#ArialMT-30" x="55.615234"/>
       <use xlink:href="#ArialMT-32" x="111.230469"/>
       <use xlink:href="#ArialMT-31" x="166.845703"/>
      </g>
     </g>
    </g>
    <g id="xtick_8">
     <g id="line2d_8">
      <g>
       <use xlink:href="#m56879cd406" x="572.893961" y="333.36" style="stroke: #000000; stroke-width: 0.8"/>
      </g>
     </g>
     <g id="text_8">
      <!-- 2022 -->
      <g transform="translate(561.772086 347.517813)scale(0.1 -0.1)">
       <use xlink:href="#ArialMT-32"/>
       <use xlink:href="#ArialMT-30" x="55.615234"/>
       <use xlink:href="#ArialMT-32" x="111.230469"/>
       <use xlink:href="#ArialMT-32" x="166.845703"/>
      </g>
     </g>
    </g>
    <g id="text_9">
     <!--   -->
     <g transform="translate(319.095312 360.663125)scale(0.1 -0.1)">
      <defs>
       <path id="ArialMT-20" transform="scale(0.015625)"/>
      </defs>
      <use xlink:href="#ArialMT-20"/>
     </g>
    </g>
   </g>
   <g id="matplotlib.axis_2">
    <g id="ytick_1">
     <g id="line2d_9">
      <defs>
       <path id="m62256c9ef5" d="M 0 0 
L -3.5 0 
" style="stroke: #000000; stroke-width: 0.8"/>
      </defs>
      <g>
       <use xlink:href="#m62256c9ef5" x="41.484375" y="318.534545" style="stroke: #000000; stroke-width: 0.8"/>
      </g>
     </g>
     <g id="text_10">
      <!-- 0.0 -->
      <g transform="translate(20.584375 322.113452)scale(0.1 -0.1)">
       <defs>
        <path id="ArialMT-2e" d="M 581 0 
L 581 641 
L 1222 641 
L 1222 0 
L 581 0 
z
" transform="scale(0.015625)"/>
       </defs>
       <use xlink:href="#ArialMT-30"/>
       <use xlink:href="#ArialMT-2e" x="55.615234"/>
       <use xlink:href="#ArialMT-30" x="83.398438"/>
      </g>
     </g>
    </g>
    <g id="ytick_2">
     <g id="line2d_10">
      <g>
       <use xlink:href="#m62256c9ef5" x="41.484375" y="259.232727" style="stroke: #000000; stroke-width: 0.8"/>
      </g>
     </g>
     <g id="text_11">
      <!-- 0.2 -->
      <g transform="translate(20.584375 262.811634)scale(0.1 -0.1)">
       <use xlink:href="#ArialMT-30"/>
       <use xlink:href="#ArialMT-2e" x="55.615234"/>
       <use xlink:href="#ArialMT-32" x="83.398438"/>
      </g>
     </g>
    </g>
    <g id="ytick_3">
     <g id="line2d_11">
      <g>
       <use xlink:href="#m62256c9ef5" x="41.484375" y="199.930909" style="stroke: #000000; stroke-width: 0.8"/>
      </g>
     </g>
     <g id="text_12">
      <!-- 0.4 -->
      <g transform="translate(20.584375 203.509815)scale(0.1 -0.1)">
       <defs>
        <path id="ArialMT-34" d="M 2069 0 
L 2069 1097 
L 81 1097 
L 81 1613 
L 2172 4581 
L 2631 4581 
L 2631 1613 
L 3250 1613 
L 3250 1097 
L 2631 1097 
L 2631 0 
L 2069 0 
z
M 2069 1613 
L 2069 3678 
L 634 1613 
L 2069 1613 
z
" transform="scale(0.015625)"/>
       </defs>
       <use xlink:href="#ArialMT-30"/>
       <use xlink:href="#ArialMT-2e" x="55.615234"/>
       <use xlink:href="#ArialMT-34" x="83.398438"/>
      </g>
     </g>
    </g>
    <g id="ytick_4">
     <g id="line2d_12">
      <g>
       <use xlink:href="#m62256c9ef5" x="41.484375" y="140.629091" style="stroke: #000000; stroke-width: 0.8"/>
      </g>
     </g>
     <g id="text_13">
      <!-- 0.6 -->
      <g transform="translate(20.584375 144.207997)scale(0.1 -0.1)">
       <use xlink:href="#ArialMT-30"/>
       <use xlink:href="#ArialMT-2e" x="55.615234"/>
       <use xlink:href="#ArialMT-36" x="83.398438"/>
      </g>
     </g>
    </g>
    <g id="ytick_5">
     <g id="line2d_13">
      <g>
       <use xlink:href="#m62256c9ef5" x="41.484375" y="81.327273" style="stroke: #000000; stroke-width: 0.8"/>
      </g>
     </g>
     <g id="text_14">
      <!-- 0.8 -->
      <g transform="translate(20.584375 84.906179)scale(0.1 -0.1)">
       <use xlink:href="#ArialMT-30"/>
       <use xlink:href="#ArialMT-2e" x="55.615234"/>
       <use xlink:href="#ArialMT-38" x="83.398438"/>
      </g>
     </g>
    </g>
    <g id="ytick_6">
     <g id="line2d_14">
      <g>
       <use xlink:href="#m62256c9ef5" x="41.484375" y="22.025455" style="stroke: #000000; stroke-width: 0.8"/>
      </g>
     </g>
     <g id="text_15">
      <!-- 1.0 -->
      <g transform="translate(20.584375 25.604361)scale(0.1 -0.1)">
       <use xlink:href="#ArialMT-31"/>
       <use xlink:href="#ArialMT-2e" x="55.615234"/>
       <use xlink:href="#ArialMT-30" x="83.398438"/>
      </g>
     </g>
    </g>
    <g id="text_16">
     <!-- Prijs (norm) -->
     <g transform="translate(14.479688 196.11125)rotate(-90)scale(0.1 -0.1)">
      <defs>
       <path id="ArialMT-50" d="M 494 0 
L 494 4581 
L 2222 4581 
Q 2678 4581 2919 4538 
Q 3256 4481 3484 4323 
Q 3713 4166 3852 3881 
Q 3991 3597 3991 3256 
Q 3991 2672 3619 2267 
Q 3247 1863 2275 1863 
L 1100 1863 
L 1100 0 
L 494 0 
z
M 1100 2403 
L 2284 2403 
Q 2872 2403 3119 2622 
Q 3366 2841 3366 3238 
Q 3366 3525 3220 3729 
Q 3075 3934 2838 4000 
Q 2684 4041 2272 4041 
L 1100 4041 
L 1100 2403 
z
" transform="scale(0.015625)"/>
       <path id="ArialMT-72" d="M 416 0 
L 416 3319 
L 922 3319 
L 922 2816 
Q 1116 3169 1280 3281 
Q 1444 3394 1641 3394 
Q 1925 3394 2219 3213 
L 2025 2691 
Q 1819 2813 1613 2813 
Q 1428 2813 1281 2702 
Q 1134 2591 1072 2394 
Q 978 2094 978 1738 
L 978 0 
L 416 0 
z
" transform="scale(0.015625)"/>
       <path id="ArialMT-69" d="M 425 3934 
L 425 4581 
L 988 4581 
L 988 3934 
L 425 3934 
z
M 425 0 
L 425 3319 
L 988 3319 
L 988 0 
L 425 0 
z
" transform="scale(0.015625)"/>
       <path id="ArialMT-6a" d="M 419 3928 
L 419 4581 
L 981 4581 
L 981 3928 
L 419 3928 
z
M -294 -1288 
L -188 -809 
Q -19 -853 78 -853 
Q 250 -853 334 -739 
Q 419 -625 419 -169 
L 419 3319 
L 981 3319 
L 981 -181 
Q 981 -794 822 -1034 
Q 619 -1347 147 -1347 
Q -81 -1347 -294 -1288 
z
" transform="scale(0.015625)"/>
       <path id="ArialMT-73" d="M 197 991 
L 753 1078 
Q 800 744 1014 566 
Q 1228 388 1613 388 
Q 2000 388 2187 545 
Q 2375 703 2375 916 
Q 2375 1106 2209 1216 
Q 2094 1291 1634 1406 
Q 1016 1563 777 1677 
Q 538 1791 414 1992 
Q 291 2194 291 2438 
Q 291 2659 392 2848 
Q 494 3038 669 3163 
Q 800 3259 1026 3326 
Q 1253 3394 1513 3394 
Q 1903 3394 2198 3281 
Q 2494 3169 2634 2976 
Q 2775 2784 2828 2463 
L 2278 2388 
Q 2241 2644 2061 2787 
Q 1881 2931 1553 2931 
Q 1166 2931 1000 2803 
Q 834 2675 834 2503 
Q 834 2394 903 2306 
Q 972 2216 1119 2156 
Q 1203 2125 1616 2013 
Q 2213 1853 2448 1751 
Q 2684 1650 2818 1456 
Q 2953 1263 2953 975 
Q 2953 694 2789 445 
Q 2625 197 2315 61 
Q 2006 -75 1616 -75 
Q 969 -75 630 194 
Q 291 463 197 991 
z
" transform="scale(0.015625)"/>
       <path id="ArialMT-28" d="M 1497 -1347 
Q 1031 -759 709 28 
Q 388 816 388 1659 
Q 388 2403 628 3084 
Q 909 3875 1497 4659 
L 1900 4659 
Q 1522 4009 1400 3731 
Q 1209 3300 1100 2831 
Q 966 2247 966 1656 
Q 966 153 1900 -1347 
L 1497 -1347 
z
" transform="scale(0.015625)"/>
       <path id="ArialMT-6e" d="M 422 0 
L 422 3319 
L 928 3319 
L 928 2847 
Q 1294 3394 1984 3394 
Q 2284 3394 2536 3286 
Q 2788 3178 2913 3003 
Q 3038 2828 3088 2588 
Q 3119 2431 3119 2041 
L 3119 0 
L 2556 0 
L 2556 2019 
Q 2556 2363 2490 2533 
Q 2425 2703 2258 2804 
Q 2091 2906 1866 2906 
Q 1506 2906 1245 2678 
Q 984 2450 984 1813 
L 984 0 
L 422 0 
z
" transform="scale(0.015625)"/>
       <path id="ArialMT-6f" d="M 213 1659 
Q 213 2581 725 3025 
Q 1153 3394 1769 3394 
Q 2453 3394 2887 2945 
Q 3322 2497 3322 1706 
Q 3322 1066 3130 698 
Q 2938 331 2570 128 
Q 2203 -75 1769 -75 
Q 1072 -75 642 372 
Q 213 819 213 1659 
z
M 791 1659 
Q 791 1022 1069 705 
Q 1347 388 1769 388 
Q 2188 388 2466 706 
Q 2744 1025 2744 1678 
Q 2744 2294 2464 2611 
Q 2184 2928 1769 2928 
Q 1347 2928 1069 2612 
Q 791 2297 791 1659 
z
" transform="scale(0.015625)"/>
       <path id="ArialMT-6d" d="M 422 0 
L 422 3319 
L 925 3319 
L 925 2853 
Q 1081 3097 1340 3245 
Q 1600 3394 1931 3394 
Q 2300 3394 2536 3241 
Q 2772 3088 2869 2813 
Q 3263 3394 3894 3394 
Q 4388 3394 4653 3120 
Q 4919 2847 4919 2278 
L 4919 0 
L 4359 0 
L 4359 2091 
Q 4359 2428 4304 2576 
Q 4250 2725 4106 2815 
Q 3963 2906 3769 2906 
Q 3419 2906 3187 2673 
Q 2956 2441 2956 1928 
L 2956 0 
L 2394 0 
L 2394 2156 
Q 2394 2531 2256 2718 
Q 2119 2906 1806 2906 
Q 1569 2906 1367 2781 
Q 1166 2656 1075 2415 
Q 984 2175 984 1722 
L 984 0 
L 422 0 
z
" transform="scale(0.015625)"/>
       <path id="ArialMT-29" d="M 791 -1347 
L 388 -1347 
Q 1322 153 1322 1656 
Q 1322 2244 1188 2822 
Q 1081 3291 891 3722 
Q 769 4003 388 4659 
L 791 4659 
Q 1378 3875 1659 3084 
Q 1900 2403 1900 1659 
Q 1900 816 1576 28 
Q 1253 -759 791 -1347 
z
" transform="scale(0.015625)"/>
      </defs>
      <use xlink:href="#ArialMT-50"/>
      <use xlink:href="#ArialMT-72" x="66.699219"/>
      <use xlink:href="#ArialMT-69" x="100"/>
      <use xlink:href="#ArialMT-6a" x="122.216797"/>
      <use xlink:href="#ArialMT-73" x="144.433594"/>
      <use xlink:href="#ArialMT-20" x="194.433594"/>
      <use xlink:href="#ArialMT-28" x="222.216797"/>
      <use xlink:href="#ArialMT-6e" x="255.517578"/>
      <use xlink:href="#ArialMT-6f" x="311.132812"/>
      <use xlink:href="#ArialMT-72" x="366.748047"/>
      <use xlink:href="#ArialMT-6d" x="400.048828"/>
      <use xlink:href="#ArialMT-29" x="483.349609"/>
     </g>
    </g>
   </g>
   <g id="line2d_15">
    <path d="M 66.848011 171.080215 
L 67.052474 172.407402 
L 68.279252 163.800207 
L 68.483715 158.354838 
L 68.688178 163.605032 
L 69.710494 164.698009 
L 69.914957 159.057467 
L 70.11942 156.559233 
L 70.323883 155.856605 
L 70.937272 152.577673 
L 71.141735 149.630539 
L 71.346198 141.921146 
L 71.550661 140.867204 
L 71.755124 137.920069 
L 72.368513 139.735192 
L 72.572976 141.823559 
L 72.777439 151.640836 
L 72.981902 155.193012 
L 73.799754 155.407704 
L 74.004217 151.99215 
L 74.413143 192.490857 
L 75.230995 202.835106 
L 75.435458 209.939457 
L 75.639921 241.557725 
L 75.844384 245.227006 
L 76.048847 234.687583 
L 76.662236 242.182283 
L 76.866699 259.611366 
L 77.071162 251.277415 
L 77.275625 262.890297 
L 77.480088 249.852641 
L 78.093477 254.380689 
L 78.29794 246.788402 
L 78.502403 248.33028 
L 78.706866 252.07763 
L 78.911329 246.456605 
L 79.524718 246.456605 
L 80.34257 229.378837 
L 80.955959 227.29047 
L 81.364885 289.277889 
L 81.569348 289.102232 
L 81.773811 289.980517 
L 82.3872 297.143421 
L 82.796126 318.534545 
L 83.000589 302.666859 
L 83.205052 297.924119 
L 83.818441 299.329375 
L 84.022904 304.657639 
L 84.43183 292.322611 
L 84.636293 285.471986 
L 85.249682 305.008953 
L 85.454145 303.896458 
L 85.658608 298.704817 
L 85.863071 302.315545 
L 86.067534 309.810246 
L 86.680923 299.52455 
L 86.885386 291.288186 
L 87.294312 310.259147 
L 87.498775 304.774744 
L 88.112164 300.344283 
L 88.316627 278.367635 
L 88.52109 279.265437 
L 88.725553 283.403137 
L 88.930016 307.312012 
L 89.543405 306.960698 
L 89.747868 301.183533 
L 89.952331 285.237777 
L 90.156794 289.180302 
L 90.361257 275.869401 
L 90.974647 266.520543 
L 91.17911 273.644412 
L 91.383573 269.877544 
L 91.588036 268.804084 
L 91.792499 257.952383 
L 92.405888 255.180905 
L 92.814814 262.578018 
L 93.019277 254.614899 
L 93.22374 252.604601 
L 93.837129 248.25221 
L 94.041592 251.023688 
L 94.246055 269.545748 
L 94.654981 254.244067 
L 95.26837 257.327824 
L 95.472833 245.890599 
L 95.677296 242.845877 
L 95.881759 249.676984 
L 96.086222 250.262508 
L 96.699611 247.920414 
L 96.904074 253.092538 
L 97.108537 253.970823 
L 97.313 242.533598 
L 97.517463 246.905506 
L 98.130852 244.153546 
L 98.335315 272.35626 
L 98.539778 266.579095 
L 98.744241 269.057811 
L 98.948704 265.661775 
L 99.562093 267.379311 
L 99.766556 280.338897 
L 99.971019 281.666084 
L 100.379945 258.459836 
L 100.993334 256.527609 
L 101.197797 257.796243 
L 101.40226 262.851262 
L 101.811186 253.717096 
L 102.424575 249.150013 
L 102.629038 262.695123 
L 103.037964 272.102533 
L 103.242427 248.954838 
L 103.855816 254.536829 
L 104.060279 242.396975 
L 104.264742 243.841267 
L 104.469205 238.005549 
L 104.673668 249.462292 
L 105.287057 245.57832 
L 105.695983 241.206411 
L 105.900446 234.531443 
L 106.104909 223.816364 
L 106.718298 232.423559 
L 106.922761 244.992796 
L 107.127224 243.060569 
L 107.331687 237.634718 
L 107.53615 240.464748 
L 108.149539 236.795467 
L 108.354002 237.69327 
L 108.558465 230.003395 
L 108.762928 230.979268 
L 108.967391 230.19857 
L 109.58078 232.931012 
L 109.785243 244.407273 
L 109.989706 235.585386 
L 110.194169 221.864619 
L 110.398632 220.908264 
L 111.012021 220.186118 
L 111.216484 212.066859 
L 111.420947 212.047342 
L 111.625411 223.328427 
L 112.443263 233.184739 
L 112.647726 234.121577 
L 112.852189 232.755355 
L 113.056652 237.673753 
L 113.261115 253.30723 
L 113.874504 251.667764 
L 114.078967 241.928557 
L 114.28343 238.825282 
L 114.487893 238.630108 
L 114.692356 228.910418 
L 115.305745 226.919638 
L 115.510208 225.846178 
L 115.714671 223.269875 
L 116.123597 215.599517 
L 116.736986 226.314597 
L 117.145912 212.82804 
L 117.350375 214.604128 
L 117.554838 208.046265 
L 118.168227 212.984179 
L 118.37269 211.83265 
L 118.577153 211.461818 
L 118.781616 238.161689 
L 118.986079 249.833124 
L 119.803931 230.745058 
L 120.008394 233.965437 
L 120.41732 224.22623 
L 121.030709 231.19396 
L 121.235172 245.734459 
L 121.439635 247.666687 
L 121.848561 227.797923 
L 122.46195 226.919638 
L 122.870876 240.054882 
L 123.075339 240.054882 
L 123.893191 234.882757 
L 124.097654 242.826359 
L 125.324432 230.745058 
L 125.528895 229.398354 
L 125.733358 223.777329 
L 125.937821 229.769186 
L 126.142284 223.016148 
L 126.960136 231.701413 
L 127.164599 223.952986 
L 127.369062 222.333037 
L 127.573525 218.039199 
L 128.186914 217.922094 
L 128.391377 220.069013 
L 128.800303 200.414942 
L 129.004766 207.987712 
L 129.618155 204.494089 
L 129.822618 199.848936 
L 130.027081 200.063628 
L 130.231544 192.412788 
L 130.436007 179.92162 
L 131.049396 182.166127 
L 131.458322 174.476252 
L 131.662785 177.969875 
L 131.867248 177.286764 
L 132.480638 169.323645 
L 132.685101 172.563542 
L 132.889564 170.592279 
L 133.094027 164.717527 
L 133.29849 169.987238 
L 133.911879 168.952813 
L 134.116342 173.968798 
L 134.320805 173.480862 
L 134.525268 163.761172 
L 134.729731 159.330711 
L 135.34312 156.149367 
L 135.547583 161.536183 
L 135.752046 151.113865 
L 135.956509 153.397406 
L 136.160972 150.508824 
L 136.774361 144.751176 
L 137.183287 158.88181 
L 137.38775 159.603955 
L 137.592213 162.980474 
L 138.205602 163.448893 
L 138.410065 152.323947 
L 138.614528 161.419078 
L 138.818991 155.056389 
L 139.023454 164.327178 
L 139.636843 163.175648 
L 139.841306 171.646221 
L 140.454695 154.158587 
L 141.068084 156.051779 
L 141.272547 153.690168 
L 141.47701 153.846308 
L 141.681473 147.991073 
L 142.703788 142.331012 
L 142.908251 144.399862 
L 143.112714 144.26324 
L 143.317177 138.544627 
L 143.930566 138.564145 
L 144.135029 131.654968 
L 144.339492 136.007359 
L 144.543955 133.392021 
L 144.748418 134.836312 
L 145.361807 140.35975 
L 145.56627 143.365437 
L 145.770733 141.901629 
L 145.975196 143.287368 
L 146.179659 138.856907 
L 146.793048 141.823559 
L 146.997511 146.878578 
L 147.201974 142.604257 
L 147.406437 151.933598 
L 147.6109 156.012745 
L 148.224289 160.404171 
L 148.428752 165.166428 
L 148.633215 165.927609 
L 148.837678 161.867979 
L 149.042141 169.635924 
L 149.65553 166.883964 
L 149.859993 154.548936 
L 150.064456 156.344541 
L 150.268919 153.709685 
L 150.473382 146.605334 
L 151.086771 141.804041 
L 151.291234 137.724894 
L 151.495697 136.300121 
L 151.70016 144.068065 
L 151.904623 139.930366 
L 152.518012 139.403395 
L 152.722475 139.910849 
L 152.926938 147.464102 
L 153.131401 145.375735 
L 153.949254 147.132305 
L 154.35818 142.877501 
L 154.562643 142.897019 
L 154.767106 138.642215 
L 155.380495 145.414769 
L 155.584958 144.965868 
L 155.789421 138.993529 
L 155.993884 137.666342 
L 156.198347 130.191159 
L 156.811736 131.55738 
L 157.220662 127.478234 
L 157.425125 121.388789 
L 157.629588 120.31533 
L 158.242977 125.155657 
L 158.651903 122.0719 
L 158.856366 122.130452 
L 159.060829 128.746868 
L 159.674218 127.692925 
L 160.083144 128.239414 
L 160.287607 129.586118 
L 160.49207 114.869961 
L 161.105459 107.76561 
L 161.514385 97.304257 
L 161.718848 97.1286 
L 161.923311 91.800336 
L 162.5367 91.488057 
L 162.741163 85.691374 
L 162.945626 84.208048 
L 163.150089 88.32623 
L 163.354552 82.470995 
L 163.967941 81.729332 
L 164.172404 90.843981 
L 164.376867 86.550142 
L 164.58133 96.074657 
L 164.785793 99.002275 
L 165.399182 94.474227 
L 165.603645 95.938035 
L 166.012571 101.071125 
L 166.830423 94.2205 
L 167.034886 97.694606 
L 167.443812 87.623602 
L 167.648275 82.275821 
L 168.261664 80.772977 
L 168.466127 91.858888 
L 168.67059 92.561517 
L 168.875053 84.227566 
L 169.079516 86.920974 
L 169.692905 87.838294 
L 170.101831 80.616838 
L 170.306294 80.909599 
L 170.510757 80.089866 
L 171.124146 86.608695 
L 171.328609 91.995511 
L 171.737535 85.925584 
L 171.941998 91.097708 
L 172.75985 84.090944 
L 173.168776 89.360655 
L 173.373239 84.754537 
L 173.986628 87.428427 
L 174.191091 85.027781 
L 174.395555 85.515717 
L 174.600018 92.268755 
L 174.804481 94.786506 
L 175.41787 90.551219 
L 175.622333 81.163326 
L 175.826796 78.021017 
L 176.031259 83.759147 
L 176.235722 99.607316 
L 177.053574 104.174399 
L 177.258037 100.134287 
L 177.4625 104.271986 
L 177.666963 101.207747 
L 178.280352 100.017182 
L 178.484815 94.571814 
L 178.689278 98.182542 
L 178.893741 85.867031 
L 179.098204 85.730409 
L 179.711593 79.738552 
L 179.916056 74.761603 
L 180.120519 75.600853 
L 180.324982 81.104774 
L 180.529445 78.138121 
L 181.347297 86.120758 
L 181.55176 99.470694 
L 181.756223 98.787583 
L 181.960686 101.754235 
L 182.574075 108.194994 
L 182.778538 105.267376 
L 182.983001 109.853977 
L 183.187464 102.71059 
L 183.391927 106.653115 
L 184.005316 107.882714 
L 184.618705 99.939112 
L 184.823168 98.8071 
L 185.436557 99.295037 
L 185.64102 101.012572 
L 186.049946 124.726273 
L 186.254409 124.726273 
L 186.867798 125.585041 
L 187.072261 129.527566 
L 187.276724 122.442732 
L 187.481187 126.89271 
L 187.68565 123.633296 
L 188.503502 125.038552 
L 188.707965 131.401241 
L 188.912428 156.598268 
L 189.116891 158.198699 
L 189.73028 168.328255 
L 189.934743 152.968022 
L 190.139206 157.086204 
L 190.343669 154.958802 
L 190.548132 151.562766 
L 191.161521 151.99215 
L 191.365984 146.859061 
L 191.570447 154.724593 
L 191.77491 147.288445 
L 191.979373 146.546782 
L 192.592762 147.620241 
L 192.797225 143.638682 
L 193.001688 146.898096 
L 193.206151 158.823257 
L 193.410614 151.953115 
L 194.024003 162.62916 
L 194.228466 160.326101 
L 194.432929 155.954192 
L 194.637392 165.342085 
L 194.841855 158.628083 
L 195.455245 168.835709 
L 195.864171 152.206842 
L 196.068634 160.189479 
L 196.273097 152.499604 
L 197.090949 145.200078 
L 197.295412 143.170263 
L 197.499875 145.297665 
L 197.704338 138.895941 
L 198.52219 135.812184 
L 198.726653 136.475778 
L 198.931116 131.069444 
L 199.748968 131.733037 
L 199.953431 148.596114 
L 200.157894 147.991073 
L 200.362357 150.567376 
L 201.384672 148.947428 
L 201.589135 143.541094 
L 201.793598 143.814339 
L 201.998061 149.571986 
L 202.61145 146.644369 
L 202.815913 144.829246 
L 203.020376 147.464102 
L 203.429302 163.253718 
L 204.042691 158.706153 
L 204.247154 159.682025 
L 204.65608 178.613951 
L 204.860543 174.866601 
L 205.473932 177.540491 
L 205.678395 172.056088 
L 205.882858 178.184567 
L 206.087321 169.460267 
L 206.291784 169.401715 
L 206.905173 170.12386 
L 207.109636 167.040103 
L 207.314099 157.88642 
L 207.518562 154.080517 
L 207.723025 161.63377 
L 208.336414 159.311193 
L 208.540877 163.175648 
L 208.74534 162.160741 
L 209.154266 155.017355 
L 209.767655 155.798053 
L 209.972118 155.856605 
L 210.585507 133.489608 
L 211.198896 132.474701 
L 211.403359 131.674485 
L 211.607822 142.897019 
L 211.812285 145.922223 
L 212.016748 151.933598 
L 212.630137 152.402016 
L 212.8346 150.664963 
L 213.447989 168.777156 
L 214.061378 171.216838 
L 214.265841 170.338552 
L 214.470304 164.034416 
L 214.674767 166.903481 
L 214.87923 166.766859 
L 215.492619 167.332865 
L 215.697082 167.976941 
L 215.901545 161.750875 
L 216.106009 160.443206 
L 216.310472 160.540793 
L 216.923861 158.6476 
L 217.128324 159.56492 
L 217.332787 153.709685 
L 217.53725 153.104645 
L 217.741713 150.391719 
L 218.355102 146.058845 
L 218.559565 135.851219 
L 218.764028 136.866127 
L 219.172954 130.464403 
L 219.990806 132.728427 
L 220.399732 125.585041 
L 221.422047 126.73657 
L 221.62651 128.903007 
L 221.830973 137.724894 
L 222.035436 138.2909 
L 222.853288 151.035795 
L 223.057751 151.504214 
L 223.262214 144.497449 
L 223.466677 142.643292 
L 224.284529 141.199 
L 224.488992 141.491762 
L 224.897918 152.460569 
L 225.511307 154.919767 
L 225.71577 158.276769 
L 225.920233 153.631616 
L 226.124696 155.97371 
L 226.329159 152.031185 
L 226.942548 153.768238 
L 227.147011 155.193012 
L 227.555937 143.26785 
L 227.7604 145.883188 
L 228.373789 150.255097 
L 228.578252 150.586894 
L 228.782715 150.703998 
L 229.191641 141.472245 
L 229.80503 136.202533 
L 230.009493 135.69508 
L 230.213956 133.001672 
L 230.418419 136.905162 
L 230.622882 131.674485 
L 231.236271 134.758242 
L 231.440734 130.522956 
L 231.645197 129.820327 
L 232.054123 131.63545 
L 232.667512 128.981077 
L 232.871975 129.976467 
L 233.076438 127.380646 
L 233.280901 135.714597 
L 233.485364 132.826015 
L 234.098753 134.153201 
L 234.303216 130.893787 
L 234.507679 131.615933 
L 234.712142 127.868583 
L 234.916605 129.703223 
L 235.529994 127.868583 
L 235.93892 149.396329 
L 236.347846 158.862292 
L 236.961236 159.584438 
L 237.165699 158.80374 
L 237.370162 159.135536 
L 237.574625 172.485472 
L 237.779088 173.012443 
L 238.392477 172.075605 
L 238.59694 172.446437 
L 238.801403 167.254795 
L 239.005866 167.391417 
L 239.210329 164.776079 
L 239.823718 164.932219 
L 240.232644 160.169961 
L 240.437107 161.341008 
L 240.64157 155.349151 
L 241.254959 153.377889 
L 241.459422 162.082671 
L 241.663885 160.599345 
L 241.868348 157.300896 
L 242.072811 160.853072 
L 242.6862 158.784222 
L 243.299589 148.381422 
L 243.504052 150.879655 
L 244.117441 148.92791 
L 244.321904 149.454882 
L 244.526367 143.599647 
L 244.73083 141.921146 
L 244.935293 138.466558 
L 245.548682 142.096803 
L 245.753145 146.17595 
L 245.957608 147.620241 
L 246.162071 145.746566 
L 246.366534 141.608867 
L 246.979923 140.867204 
L 247.184386 142.448117 
L 247.593312 136.768539 
L 247.797775 139.559535 
L 248.411164 137.315028 
L 248.615627 133.079741 
L 248.82009 136.846609 
L 249.024553 134.289823 
L 249.229016 138.642215 
L 249.842405 135.402318 
L 250.251331 132.435666 
L 250.455794 128.239414 
L 250.660257 129.976467 
L 251.273646 129.917915 
L 251.682572 139.871814 
L 251.887035 141.159966 
L 252.091498 145.297665 
L 252.704887 147.444584 
L 253.113813 144.224205 
L 253.318276 146.566299 
L 253.522739 146.33209 
L 254.136128 140.789134 
L 254.340591 140.672029 
L 254.545054 148.732736 
L 254.749517 149.24019 
L 254.95398 147.854451 
L 255.567369 145.434287 
L 255.771832 146.859061 
L 255.976295 144.965868 
L 256.180758 145.824636 
L 256.385221 152.889953 
L 256.99861 145.531874 
L 257.203073 144.829246 
L 257.407536 145.648979 
L 257.611999 143.306885 
L 257.816463 138.2909 
L 258.634315 131.986764 
L 258.838778 135.77315 
L 259.043241 134.855829 
L 259.247704 143.34592 
L 259.861093 140.086506 
L 260.065556 145.805118 
L 260.270019 148.264317 
L 260.678945 135.597492 
L 261.292334 131.889177 
L 261.496797 131.420758 
L 261.70126 131.498828 
L 261.905723 132.767462 
L 262.110186 131.088962 
L 262.723575 127.165954 
L 262.928038 126.97078 
L 263.132501 124.453029 
L 263.336964 133.587195 
L 263.541427 134.69969 
L 264.154816 136.046394 
L 264.563742 130.327781 
L 264.768205 130.483921 
L 264.972668 130.210676 
L 265.586057 128.844455 
L 265.79052 126.287669 
L 265.994983 130.093572 
L 266.199446 129.547083 
L 266.403909 132.025799 
L 267.221761 129.625153 
L 267.426224 135.207143 
L 267.630687 131.86966 
L 267.83515 126.424291 
L 268.448539 126.502361 
L 268.653002 124.648203 
L 268.857465 120.198225 
L 269.061928 120.276295 
L 269.266391 121.252167 
L 269.87978 121.622999 
L 270.084243 124.394477 
L 270.288706 125.272762 
L 270.493169 128.005205 
L 270.697632 124.531099 
L 271.311021 125.409384 
L 271.92441 142.975088 
L 272.128873 141.530797 
L 273.151188 138.212831 
L 273.355651 141.745489 
L 274.377966 147.795898 
L 274.582429 144.321792 
L 274.786892 145.883188 
L 274.991355 144.165653 
L 275.604744 142.916536 
L 276.01367 148.92791 
L 276.218133 157.183791 
L 276.422596 158.120629 
L 277.035985 157.105722 
L 277.240448 154.314726 
L 277.444911 155.427221 
L 277.649374 157.398483 
L 277.853837 158.179181 
L 278.467226 158.432908 
L 278.671689 156.754408 
L 279.080616 167.118173 
L 279.285079 167.957424 
L 279.898468 177.384352 
L 280.307394 174.886118 
L 280.511857 178.555399 
L 280.71632 184.683878 
L 281.329709 181.170737 
L 281.534172 178.418776 
L 281.738635 179.375131 
L 281.943098 188.314123 
L 282.147561 182.82972 
L 282.76095 182.088057 
L 282.965413 182.107574 
L 283.374339 185.288919 
L 283.578802 180.038725 
L 284.192191 183.942215 
L 284.396654 182.009987 
L 284.601117 182.068539 
L 284.80558 180.07776 
L 285.010043 174.066385 
L 285.623432 172.622094 
L 285.827895 173.812658 
L 286.032358 172.836786 
L 286.236821 169.20654 
L 286.441284 168.055011 
L 287.054673 168.621017 
L 287.259136 174.769013 
L 287.668062 170.904558 
L 287.872525 170.631314 
L 288.485914 168.21115 
L 288.690377 168.308738 
L 288.89484 166.571685 
L 289.099303 162.180259 
L 289.303766 161.926532 
L 290.121618 162.824334 
L 290.326081 164.268626 
L 290.530544 154.880732 
L 290.735007 156.344541 
L 291.348396 156.012745 
L 291.757322 150.743033 
L 291.961785 150.07944 
L 292.9841 150.313649 
L 293.188563 149.728126 
L 293.393026 152.889953 
L 293.597489 151.406626 
L 294.210878 151.777458 
L 294.415341 153.494994 
L 294.619804 152.011667 
L 295.02873 153.338854 
L 295.642119 153.651133 
L 295.846582 152.655743 
L 296.051045 152.98754 
L 296.255508 161.126316 
L 296.459971 162.62916 
L 297.07336 165.732434 
L 297.277823 167.723214 
L 297.482286 166.688789 
L 297.891212 159.603955 
L 298.504601 157.73028 
L 298.913527 159.155054 
L 299.11799 154.802663 
L 299.322453 155.114942 
L 299.935843 153.026575 
L 300.140306 157.066687 
L 300.344769 158.179181 
L 300.549232 155.251564 
L 300.753695 156.89103 
L 301.571547 166.356993 
L 301.980473 163.897794 
L 302.184936 162.726747 
L 303.002788 156.930065 
L 303.411714 147.132305 
L 303.616177 139.696157 
L 304.638492 130.191159 
L 304.842955 132.045317 
L 305.047418 135.968324 
L 305.660807 141.316105 
L 305.86527 138.486075 
L 306.274196 151.679871 
L 306.478659 145.590427 
L 307.092048 152.031185 
L 307.296511 151.699388 
L 307.705437 142.740879 
L 307.9099 136.163498 
L 308.523289 135.53894 
L 308.727752 131.030409 
L 308.932215 131.908695 
L 309.136678 126.678018 
L 309.341141 126.931745 
L 309.95453 126.599948 
L 310.158993 127.380646 
L 310.363456 126.229117 
L 310.567919 123.730883 
L 310.772382 123.106325 
L 311.590234 123.028255 
L 311.794697 123.360052 
L 311.99916 124.335924 
L 312.203623 121.408307 
L 312.817012 123.321017 
L 313.021475 124.667721 
L 313.225938 124.784826 
L 313.634864 119.456562 
L 314.248253 123.106325 
L 314.657179 119.280905 
L 314.861642 119.105248 
L 315.066105 122.189005 
L 315.883957 127.985687 
L 316.08842 126.912227 
L 316.292883 126.638983 
L 317.110735 133.099259 
L 317.315198 132.747945 
L 317.519661 137.471168 
L 317.724124 136.749022 
L 317.928587 130.971857 
L 318.541976 128.454106 
L 318.746439 130.386333 
L 318.950902 128.454106 
L 319.155365 125.428901 
L 319.359828 119.964016 
L 319.973217 119.905463 
L 320.382143 117.348677 
L 320.586607 117.895166 
L 320.79107 116.509427 
L 321.404459 116.509427 
L 321.608922 119.827393 
L 321.813385 121.252167 
L 322.017848 121.876726 
L 323.040163 126.951262 
L 323.244626 130.093572 
L 323.449089 124.316407 
L 323.653552 122.637906 
L 324.266941 122.110935 
L 324.471404 123.98461 
L 324.675867 128.707833 
L 324.88033 126.033942 
L 325.084793 128.200379 
L 325.698182 128.64928 
L 325.902645 132.025799 
L 326.107108 128.824938 
L 326.311571 132.103869 
L 326.516034 133.352986 
L 327.129423 135.480388 
L 327.538349 139.676639 
L 327.742812 139.227738 
L 327.947275 135.734115 
L 328.765127 145.961258 
L 328.96959 145.805118 
L 329.174053 144.868281 
L 329.378516 139.852296 
L 329.991905 142.213908 
L 330.196368 135.226661 
L 330.400831 137.412615 
L 330.605294 145.395252 
L 330.809757 148.049625 
L 331.423146 146.624851 
L 331.627609 146.917613 
L 331.832072 150.216062 
L 332.240998 143.092193 
L 332.854387 141.960181 
L 333.05885 142.038251 
L 333.263313 138.681249 
L 333.467776 137.744412 
L 333.672239 136.124464 
L 334.285628 137.119854 
L 334.490091 133.47009 
L 334.899017 131.342688 
L 335.10348 126.97078 
L 335.716869 130.971857 
L 335.921332 128.766385 
L 336.534721 133.78237 
L 337.14811 132.86505 
L 337.352573 134.016579 
L 337.557036 136.37819 
L 337.761499 137.217441 
L 337.965962 133.860439 
L 338.579351 130.835235 
L 338.988277 132.923602 
L 339.19274 127.126919 
L 340.010592 129.605636 
L 340.215055 127.322094 
L 340.419518 129.995984 
L 340.623981 130.757165 
L 340.828444 126.73657 
L 341.441834 129.429978 
L 341.646297 126.072977 
L 341.85076 127.322094 
L 342.259686 121.017958 
L 342.873075 121.935278 
L 343.077538 119.261387 
L 343.282001 118.500207 
L 343.486464 114.26492 
L 343.690927 119.222352 
L 344.304316 120.334847 
L 344.508779 118.773451 
L 344.713242 121.23265 
L 344.917705 120.15919 
L 345.122168 118.480689 
L 345.735557 119.144283 
L 345.94002 118.09034 
L 346.144483 118.24648 
L 346.348946 116.275218 
L 346.553409 116.665567 
L 347.166798 116.665567 
L 347.780187 114.557682 
L 347.98465 115.650659 
L 349.006965 107.219121 
L 349.211428 108.390168 
L 349.415891 110.985989 
L 350.02928 112.801112 
L 350.233743 114.49913 
L 350.438206 113.074356 
L 350.847132 107.414296 
L 351.664984 105.247859 
L 352.07391 109.034244 
L 352.278373 109.248936 
L 352.891762 110.498053 
L 353.096225 108.839069 
L 353.505151 104.369573 
L 353.709614 105.208824 
L 354.323003 106.106626 
L 354.731929 105.384481 
L 354.936392 102.554451 
L 355.140855 102.573968 
L 355.754244 103.452253 
L 355.958707 106.360353 
L 356.16317 104.662335 
L 356.367633 98.631443 
L 356.572096 96.445489 
L 357.594411 100.407531 
L 357.798874 96.621146 
L 358.003337 98.338682 
L 358.616726 98.280129 
L 358.821189 97.948333 
L 359.025652 97.284739 
L 359.230115 101.812788 
L 359.434578 98.182542 
L 360.047967 99.470694 
L 360.25243 100.563671 
L 360.661356 107.550918 
L 360.865819 108.975692 
L 361.683671 105.950487 
L 362.092597 95.411064 
L 362.297061 94.845058 
L 362.91045 93.771598 
L 363.319376 94.493744 
L 363.523839 95.645274 
L 363.728302 95.97707 
L 364.341691 96.269832 
L 364.546154 98.436269 
L 364.750617 97.20667 
L 364.95508 93.342215 
L 365.159543 86.881939 
L 365.772932 87.56505 
L 365.977395 88.189608 
L 366.181858 79.289651 
L 366.386321 80.83153 
L 366.590784 80.968152 
L 367.204173 83.759147 
L 367.408636 83.310246 
L 367.613099 87.369875 
L 367.817562 86.979526 
L 368.022025 87.33084 
L 368.635414 87.877329 
L 368.839877 86.881939 
L 369.04434 83.017484 
L 369.248803 84.364188 
L 369.453266 89.965696 
L 370.066655 91.936958 
L 370.271118 91.23433 
L 370.475581 93.381249 
L 370.680044 88.48237 
L 371.702359 89.594864 
L 371.906822 84.793572 
L 372.315748 84.227566 
L 372.929137 86.550142 
L 373.1336 88.755614 
L 373.746989 85.906066 
L 374.360378 86.101241 
L 374.564841 81.397536 
L 374.973767 79.855657 
L 375.17823 82.197751 
L 375.791619 80.441181 
L 375.996082 79.231099 
L 376.200545 75.756993 
L 376.405008 78.68461 
L 376.609471 76.576726 
L 377.22286 77.728255 
L 377.427323 78.918819 
L 377.631786 78.918819 
L 377.836249 75.85458 
L 378.040712 75.913132 
L 378.858564 72.79034 
L 379.063027 69.999345 
L 379.26749 69.648031 
L 379.471953 66.954623 
L 380.085342 67.20835 
L 380.289805 66.818001 
L 380.494268 64.183145 
L 380.698731 66.154408 
L 380.903194 62.192365 
L 381.516583 65.744541 
L 382.129972 64.593012 
L 382.334435 63.597622 
L 382.947824 64.358802 
L 383.152287 54.463455 
L 383.356751 57.859492 
L 383.561214 55.927264 
L 383.765677 59.928341 
L 384.379066 58.366945 
L 384.583529 55.849194 
L 384.992455 57.800939 
L 385.196918 56.629892 
L 386.01477 52.882542 
L 386.423696 50.072029 
L 386.628159 54.385386 
L 387.241548 52.062809 
L 387.446011 54.717182 
L 387.650474 59.264748 
L 388.0594 63.480517 
L 388.672789 60.611452 
L 388.877252 60.221103 
L 389.081715 55.888229 
L 389.286178 54.404903 
L 389.490641 51.90667 
L 390.10403 50.091547 
L 390.512956 46.695511 
L 390.717419 51.399216 
L 390.921882 48.647255 
L 391.535271 46.363714 
L 391.739734 46.77358 
L 392.353123 40.898828 
L 392.966512 38.28349 
L 393.170975 36.722094 
L 393.375438 28.817527 
L 393.579901 31.764662 
L 393.784364 31.530452 
L 394.397753 30.456993 
L 394.602216 30.71072 
L 395.011142 24.445618 
L 395.215605 22.689048 
L 395.828994 26.124119 
L 396.033457 22.025455 
L 396.442383 29.266428 
L 396.646846 28.427178 
L 397.260235 27.900207 
L 397.464698 26.65109 
L 397.669161 24.58224 
L 397.873624 25.714252 
L 398.078087 25.987497 
L 398.691476 25.81184 
L 398.895939 24.914037 
L 399.100402 28.075864 
L 399.304865 33.892064 
L 399.509328 30.730237 
L 400.122717 35.082628 
L 400.531643 36.487885 
L 400.736106 41.347729 
L 400.940569 48.979052 
L 401.758421 47.729935 
L 401.962884 46.363714 
L 402.167347 48.315459 
L 402.985199 41.406282 
L 403.189662 41.523386 
L 403.394125 40.176682 
L 403.598588 42.538294 
L 403.803051 40.469444 
L 404.416441 40.664619 
L 404.825367 43.143335 
L 405.02983 38.478664 
L 405.234293 39.415502 
L 405.847682 39.786333 
L 406.052145 38.439629 
L 406.256608 41.152555 
L 406.461071 50.032994 
L 406.665534 52.433641 
L 407.278923 52.140879 
L 407.483386 52.199431 
L 407.687849 58.074184 
L 407.892312 58.698742 
L 408.096775 60.025928 
L 408.710164 62.348505 
L 408.914627 61.31408 
L 409.11909 59.284265 
L 409.323553 58.425498 
L 409.528016 61.118906 
L 410.141405 64.749151 
L 410.345868 64.124593 
L 410.550331 63.129203 
L 410.754794 57.215416 
L 411.572646 60.591935 
L 411.777109 65.002878 
L 411.981572 64.495424 
L 412.186035 69.140577 
L 412.390498 70.467764 
L 413.003887 70.662938 
L 413.20835 71.248462 
L 413.617276 65.685989 
L 414.435128 65.685989 
L 414.639591 66.3691 
L 414.844054 64.397837 
L 415.048517 66.251995 
L 415.25298 64.905291 
L 415.866369 64.241698 
L 416.070832 62.836441 
L 416.275295 63.714726 
L 416.479758 63.929418 
L 416.684221 64.963843 
L 417.29761 70.077415 
L 417.502073 65.529849 
L 417.706536 64.183145 
L 417.910999 69.04299 
L 418.115462 68.808781 
L 418.728851 67.344972 
L 418.933314 68.262292 
L 419.137777 66.759449 
L 419.546703 73.590556 
L 420.160092 69.667548 
L 420.364555 70.897148 
L 420.773481 75.756993 
L 420.977944 73.512486 
L 421.795796 74.098009 
L 421.795796 74.098009 
" clip-path="url(#pb55cd2caf5)" style="fill: none; stroke: #1f77b4; stroke-width: 1.5; stroke-linecap: square"/>
   </g>
   <g id="line2d_16">
    <path d="M 422.409185 74.098009 
L 423.022574 79.797105 
L 423.635963 75.327609 
L 423.840426 70.819078 
L 424.453815 68.476984 
L 424.658278 69.160095 
L 425.271668 75.01533 
L 425.885057 76.7719 
L 426.08952 76.186377 
L 426.293983 74.058975 
L 426.498446 73.200207 
L 426.702909 74.234632 
L 427.520761 74.058975 
L 427.929687 68.925885 
L 428.13415 67.930495 
L 428.747539 62.407057 
L 428.952002 63.675692 
L 429.360928 60.513865 
L 429.565391 57.879009 
L 430.17878 57.722869 
L 430.587706 63.38293 
L 430.792169 64.319767 
L 430.996632 60.884696 
L 431.610021 60.630969 
L 431.814484 59.908824 
L 432.018947 61.333598 
L 432.22341 60.611452 
L 432.427873 59.128126 
L 433.041262 59.713649 
L 433.245725 60.162551 
L 433.654651 58.854882 
L 433.859114 58.893916 
L 434.676966 54.424421 
L 434.881429 54.58056 
L 435.290355 45.426876 
L 435.903744 42.674916 
L 436.108207 47.00779 
L 436.517133 39.493572 
L 436.721596 38.010246 
L 437.334985 28.114899 
L 437.539448 37.561344 
L 437.743911 39.27888 
L 437.948374 45.251219 
L 438.152837 57.508178 
L 438.766226 69.160095 
L 438.970689 67.676769 
L 439.175152 87.447945 
L 439.379615 94.14243 
L 439.584078 84.871642 
L 440.197467 78.723645 
L 440.606393 84.813089 
L 440.810856 77.357424 
L 441.015319 62.641267 
L 441.628708 59.011021 
L 441.833171 61.919121 
L 442.037634 68.574571 
L 442.242097 71.03377 
L 442.44656 70.916665 
L 443.059949 73.668626 
L 443.264412 79.972762 
L 443.468875 82.256303 
L 443.673338 77.376941 
L 444.695653 73.395381 
L 444.900116 69.296717 
L 445.309042 68.555054 
L 445.922432 71.736398 
L 446.126895 69.472374 
L 446.331358 72.887928 
L 446.535821 72.302404 
L 446.740284 68.20374 
L 447.353673 69.999345 
L 447.762599 62.836441 
L 447.967062 62.836441 
L 448.784914 57.781422 
L 448.989377 54.697665 
L 449.19384 60.025928 
L 449.398303 59.733167 
L 449.602766 58.113218 
L 450.216155 59.752684 
L 450.420618 62.075261 
L 450.829544 58.249841 
L 451.647396 63.012098 
L 451.851859 66.876553 
L 452.056322 66.173925 
L 452.260785 64.749151 
L 453.078637 65.041913 
L 453.2831 70.487281 
L 453.487563 69.901758 
L 453.896489 65.822611 
L 454.509878 67.989048 
L 454.714341 66.408134 
L 454.918804 71.580259 
L 455.123267 71.228944 
L 455.32773 75.639888 
L 455.941119 71.228944 
L 456.145582 71.326532 
L 456.350045 72.887928 
L 456.554508 66.778966 
L 456.758971 65.705506 
L 457.37236 64.319767 
L 457.576823 66.310547 
L 457.781286 64.495424 
L 458.190212 63.402447 
L 458.803601 60.123516 
L 459.212527 64.690599 
L 459.41699 60.201586 
L 459.621453 60.24062 
L 460.234842 60.865179 
L 460.439305 58.815847 
L 460.643768 66.115373 
L 460.848231 62.836441 
L 461.052694 61.782499 
L 461.666083 62.582714 
L 461.870546 63.343895 
L 462.075009 63.207273 
L 462.483935 60.47483 
L 463.097324 64.944326 
L 463.301787 62.738854 
L 463.50625 62.036226 
L 463.710713 60.279655 
L 463.915176 59.674614 
L 464.528565 58.757294 
L 464.733028 60.064963 
L 464.937491 57.273968 
L 465.141954 58.815847 
L 465.346417 62.114296 
L 465.959806 59.108608 
L 466.164269 56.786032 
L 466.368732 57.781422 
L 466.573195 54.034072 
L 466.777659 56.259061 
L 467.391048 57.761904 
L 467.595511 53.760827 
L 467.799974 58.015631 
L 468.004437 55.302706 
L 468.2089 56.102921 
L 468.822289 55.712572 
L 469.435678 63.831831 
L 469.640141 64.105075 
L 470.25353 62.660784 
L 470.457993 61.743464 
L 470.866919 57.48866 
L 471.071382 57.937561 
L 471.684771 57.625282 
L 471.889234 62.660784 
L 472.093697 64.456389 
L 472.29816 64.514942 
L 472.502623 62.680302 
L 473.116012 64.651564 
L 473.320475 64.241698 
L 473.524938 59.47944 
L 473.729401 58.132736 
L 473.933864 59.206196 
L 474.547253 59.225713 
L 474.751716 57.703352 
L 475.160642 63.675692 
L 475.365105 60.591935 
L 475.978494 59.050056 
L 476.182957 60.279655 
L 476.591883 59.694132 
L 476.796346 59.069573 
L 477.409735 56.551822 
L 477.614198 57.996114 
L 477.818661 58.093701 
L 478.023124 58.64019 
L 478.227587 58.523085 
L 478.840976 58.425498 
L 479.045439 57.742387 
L 479.249902 58.56212 
L 479.454365 58.581637 
L 479.658828 57.254451 
L 480.272217 58.269358 
L 480.47668 57.918044 
L 480.681143 59.206196 
L 481.090069 55.068496 
L 481.703458 55.341741 
L 482.52131 51.067419 
L 483.339162 51.340664 
L 483.952551 55.41981 
L 484.56594 55.751607 
L 484.974866 51.555355 
L 485.179329 50.501413 
L 485.383792 51.125972 
L 485.997181 50.950315 
L 486.201644 51.145489 
L 486.406107 50.111064 
L 486.61057 51.848117 
L 486.815033 52.121361 
L 487.428422 56.844584 
L 487.632885 60.182068 
L 487.837349 59.381853 
L 488.246275 56.473753 
L 488.859664 56.844584 
L 489.064127 56.473753 
L 489.26859 56.668927 
L 489.473053 56.044369 
L 489.677516 54.795252 
L 490.290905 54.892839 
L 490.495368 54.795252 
L 490.699831 54.912357 
L 491.722146 56.825067 
L 492.131072 60.826144 
L 492.335535 57.957079 
L 492.539998 57.352038 
L 493.153387 54.853804 
L 493.35785 52.726402 
L 493.766776 53.526618 
L 493.971239 51.282111 
L 494.584628 53.487583 
L 494.789091 53.058199 
L 494.993554 57.039759 
L 495.198017 55.107531 
L 495.40248 56.298096 
L 496.015869 55.322223 
L 496.220332 55.536915 
L 496.424795 58.854882 
L 496.629258 58.971986 
L 497.44711 58.620672 
L 497.651573 57.215416 
L 497.856036 57.48866 
L 499.082814 55.927264 
L 499.287277 58.230323 
L 499.696203 58.015631 
L 500.309592 59.303783 
L 500.514055 61.31408 
L 500.718518 60.045446 
L 500.922981 56.903137 
L 501.127444 57.683835 
L 501.740833 58.659707 
L 501.945296 59.616062 
L 502.149759 59.752684 
L 502.354222 61.743464 
L 503.172074 58.425498 
L 503.376537 58.698742 
L 503.581 57.820457 
L 503.785463 58.288875 
L 503.989926 60.513865 
L 504.603315 60.904214 
L 505.012241 63.987971 
L 505.216704 64.397837 
L 505.421167 64.514942 
L 506.034556 65.959233 
L 506.239019 64.690599 
L 506.443482 64.475907 
L 506.647945 63.168238 
L 506.852408 64.983361 
L 507.465797 67.364489 
L 508.079186 71.775433 
L 508.897039 70.214037 
L 509.101502 73.297794 
L 509.305965 73.571038 
L 509.510428 76.908522 
L 509.714891 76.205894 
L 510.32828 69.433339 
L 510.532743 68.769746 
L 510.737206 71.326532 
L 510.941669 70.11645 
L 511.146132 71.892538 
L 511.759521 72.731788 
L 511.963984 71.18991 
L 512.168447 71.482671 
L 512.37291 69.628514 
L 512.577373 70.682456 
L 513.190762 67.403524 
L 513.395225 67.013175 
L 513.804151 71.03377 
L 514.008614 69.394304 
L 514.622003 68.437949 
L 514.826466 66.993658 
L 515.030929 66.954623 
L 515.235392 66.173925 
L 516.053244 67.598699 
L 516.257707 71.560741 
L 516.666633 67.910978 
L 517.688948 68.867333 
L 518.097874 66.642344 
L 518.302337 70.370177 
L 518.915726 70.311624 
L 519.120189 70.175002 
L 519.324652 71.03377 
L 519.529115 71.014252 
L 519.733578 71.814468 
L 520.346967 74.800638 
L 520.755893 71.912055 
L 520.960356 71.697363 
L 521.164819 72.712271 
L 521.778208 72.126747 
L 521.982671 72.731788 
L 522.391597 76.225411 
L 522.59606 75.151952 
L 523.209449 75.151952 
L 523.413912 73.434416 
L 523.618375 74.058975 
L 523.822838 74.156562 
L 524.027301 74.742085 
L 524.64069 75.249539 
L 525.049616 80.402146 
L 525.254079 81.397536 
L 525.458542 81.807402 
L 526.071931 82.783274 
L 526.276394 81.768367 
L 526.480857 82.022094 
L 526.68532 81.885472 
L 526.889783 80.324076 
L 527.503172 80.402146 
L 527.912098 75.815545 
L 528.116561 77.708738 
L 528.321024 76.61576 
L 528.934413 77.864877 
L 529.138876 77.025627 
L 529.343339 75.678923 
L 529.547803 76.088789 
L 529.752266 74.839673 
L 530.365655 75.913132 
L 530.570118 75.269056 
L 530.774581 72.712271 
L 530.979044 73.805248 
L 531.183507 72.770823 
L 531.796896 74.058975 
L 532.001359 75.308091 
L 532.205822 75.327609 
L 532.410285 77.591633 
L 533.228137 79.543378 
L 533.4326 79.348203 
L 533.637063 78.157639 
L 533.841526 78.352813 
L 534.045989 79.406756 
L 534.659378 78.957854 
L 534.863841 79.094477 
L 535.47723 75.386161 
L 536.090619 76.459621 
L 536.499545 72.809858 
L 536.704008 72.692753 
L 536.908471 73.746695 
L 537.930786 73.122137 
L 538.135249 72.79034 
L 538.339712 72.146265 
L 538.953101 71.385084 
L 539.157564 68.769746 
L 539.362027 69.96031 
L 539.56649 69.569961 
L 539.770953 68.516019 
L 540.384342 68.691676 
L 540.588805 66.837518 
L 540.793268 66.05682 
L 540.997731 66.193442 
L 541.202194 65.529849 
L 541.815583 64.612529 
L 542.020046 63.617139 
L 542.224509 63.617139 
L 542.428972 62.992581 
L 542.633435 65.627436 
L 543.246824 65.783576 
L 543.451287 65.1395 
L 543.860213 67.20835 
L 544.064676 67.423042 
L 544.678065 66.720414 
L 544.882528 67.364489 
L 545.086991 66.778966 
L 545.291454 66.954623 
L 545.495917 66.29103 
L 546.109306 66.720414 
L 546.313769 67.05221 
L 546.722695 71.385084 
L 546.927158 71.424119 
L 547.540547 70.858113 
L 547.74501 71.892538 
L 547.949473 71.697363 
L 548.153936 71.307014 
L 548.358399 72.497579 
L 548.971788 72.321922 
L 549.176251 74.917742 
L 549.380714 74.78112 
L 549.585177 73.961387 
L 549.78964 74.488358 
L 550.40303 74.351736 
L 550.607493 74.644498 
L 551.220882 76.732865 
L 552.038734 74.117527 
L 552.243197 75.034847 
L 552.652123 79.621448 
L 553.265512 80.226489 
L 553.469975 81.768367 
L 553.674438 79.68 
L 553.878901 81.007187 
L 554.083364 78.547988 
L 554.901216 79.309168 
L 555.105679 80.304558 
L 555.310142 79.60193 
L 555.514605 81.124291 
L 556.127994 83.173623 
L 556.332457 84.520327 
L 556.53692 84.735019 
L 556.741383 83.037001 
L 556.945846 83.837217 
L 557.559235 87.545532 
L 557.763698 89.829074 
L 557.968161 87.038078 
L 558.172624 89.39969 
L 558.377087 90.082801 
L 559.194939 88.24816 
L 559.399402 87.116148 
L 559.808328 94.649884 
L 560.421717 93.420284 
L 560.62618 87.643119 
L 560.830643 87.545532 
L 561.035106 82.119681 
L 561.239569 80.714425 
L 561.852958 80.870564 
L 562.057421 80.343593 
L 562.261884 81.924507 
L 562.466347 84.754537 
L 562.67081 82.334373 
L 563.284199 83.329763 
L 563.488662 81.729332 
L 563.693125 82.256303 
L 563.897588 81.299948 
L 564.102051 77.376941 
L 564.71544 78.76268 
L 565.124366 82.919897 
L 565.328829 83.42735 
L 565.533292 79.484826 
L 566.146681 80.987669 
L 566.351144 78.996889 
L 566.555607 83.837217 
L 566.76007 81.651262 
L 566.964533 82.607617 
L 567.577922 81.651262 
L 567.782385 83.154106 
L 567.986848 86.042688 
L 568.191311 83.798182 
L 568.395774 84.715502 
L 569.009163 84.169013 
L 569.213626 86.315933 
L 569.418089 86.530625 
L 569.827015 84.676467 
L 570.440404 83.973839 
L 571.053793 89.907143 
L 571.258256 90.219423 
L 571.871646 92.171168 
L 572.076109 92.07358 
L 572.280572 92.737174 
L 572.485035 92.38586 
L 573.302887 94.513262 
L 573.50735 94.103395 
L 574.120739 98.006885 
L 574.120739 98.006885 
" clip-path="url(#pb55cd2caf5)" style="fill: none; stroke: #ff7f0e; stroke-width: 1.5; stroke-linecap: square"/>
   </g>
   <g id="patch_3">
    <path d="M 41.484375 333.36 
L 41.484375 7.2 
" style="fill: none; stroke: #000000; stroke-width: 0.8; stroke-linejoin: miter; stroke-linecap: square"/>
   </g>
   <g id="patch_4">
    <path d="M 599.484375 333.36 
L 599.484375 7.2 
" style="fill: none; stroke: #000000; stroke-width: 0.8; stroke-linejoin: miter; stroke-linecap: square"/>
   </g>
   <g id="patch_5">
    <path d="M 41.484375 333.36 
L 599.484375 333.36 
" style="fill: none; stroke: #000000; stroke-width: 0.8; stroke-linejoin: miter; stroke-linecap: square"/>
   </g>
   <g id="patch_6">
    <path d="M 41.484375 7.2 
L 599.484375 7.2 
" style="fill: none; stroke: #000000; stroke-width: 0.8; stroke-linejoin: miter; stroke-linecap: square"/>
   </g>
  </g>
 </g>
 <defs>
  <clipPath id="pb55cd2caf5">
   <rect x="41.484375" y="7.2" width="558" height="326.16"/>
  </clipPath>
 </defs>
</svg>
