<?xml version="1.0" encoding="utf-8" standalone="no"?>
<!DOCTYPE svg PUBLIC "-//W3C//DTD SVG 1.1//EN"
  "http://www.w3.org/Graphics/SVG/1.1/DTD/svg11.dtd">
<svg xmlns:xlink="http://www.w3.org/1999/xlink" width="606.684375pt" height="369.850625pt" viewBox="0 0 606.684375 369.850625" xmlns="http://www.w3.org/2000/svg" version="1.1">
 <metadata>
  <rdf:RDF xmlns:dc="http://purl.org/dc/elements/1.1/" xmlns:cc="http://creativecommons.org/ns#" xmlns:rdf="http://www.w3.org/1999/02/22-rdf-syntax-ns#">
   <cc:Work>
    <dc:type rdf:resource="http://purl.org/dc/dcmitype/StillImage"/>
    <dc:date>2022-02-07T20:41:41.971596</dc:date>
    <dc:format>image/svg+xml</dc:format>
    <dc:creator>
     <cc:Agent>
      <dc:title>Matplotlib v3.5.1, https://matplotlib.org/</dc:title>
     </cc:Agent>
    </dc:creator>
   </cc:Work>
  </rdf:RDF>
 </metadata>
 <defs>
  <style type="text/css">*{stroke-linejoin: round; stroke-linecap: butt}</style>
 </defs>
 <g id="figure_1">
  <g id="patch_1">
   <path d="M 0 369.850625 
L 606.684375 369.850625 
L 606.684375 0 
L 0 0 
L 0 369.850625 
z
" style="fill: none"/>
  </g>
  <g id="axes_1">
   <g id="patch_2">
    <path d="M 41.484375 333.36 
L 599.484375 333.36 
L 599.484375 7.2 
L 41.484375 7.2 
z
" style="fill: #ffffff"/>
   </g>
   <g id="matplotlib.axis_1">
    <g id="xtick_1">
     <g id="line2d_1">
      <defs>
       <path id="m701daf787d" d="M 0 0 
L 0 3.5 
" style="stroke: #000000; stroke-width: 0.8"/>
      </defs>
      <g>
       <use xlink:href="#m701daf787d" x="117.147736" y="333.36" style="stroke: #000000; stroke-width: 0.8"/>
      </g>
     </g>
     <g id="text_1">
      <!-- 2017 -->
      <g transform="translate(106.025861 347.517813)scale(0.1 -0.1)">
       <defs>
        <path id="ArialMT-32" d="M 3222 541 
L 3222 0 
L 194 0 
Q 188 203 259 391 
Q 375 700 629 1000 
Q 884 1300 1366 1694 
Q 2113 2306 2375 2664 
Q 2638 3022 2638 3341 
Q 2638 3675 2398 3904 
Q 2159 4134 1775 4134 
Q 1369 4134 1125 3890 
Q 881 3647 878 3216 
L 300 3275 
Q 359 3922 746 4261 
Q 1134 4600 1788 4600 
Q 2447 4600 2831 4234 
Q 3216 3869 3216 3328 
Q 3216 3053 3103 2787 
Q 2991 2522 2730 2228 
Q 2469 1934 1863 1422 
Q 1356 997 1212 845 
Q 1069 694 975 541 
L 3222 541 
z
" transform="scale(0.015625)"/>
        <path id="ArialMT-30" d="M 266 2259 
Q 266 3072 433 3567 
Q 600 4063 929 4331 
Q 1259 4600 1759 4600 
Q 2128 4600 2406 4451 
Q 2684 4303 2865 4023 
Q 3047 3744 3150 3342 
Q 3253 2941 3253 2259 
Q 3253 1453 3087 958 
Q 2922 463 2592 192 
Q 2263 -78 1759 -78 
Q 1097 -78 719 397 
Q 266 969 266 2259 
z
M 844 2259 
Q 844 1131 1108 757 
Q 1372 384 1759 384 
Q 2147 384 2411 759 
Q 2675 1134 2675 2259 
Q 2675 3391 2411 3762 
Q 2147 4134 1753 4134 
Q 1366 4134 1134 3806 
Q 844 3388 844 2259 
z
" transform="scale(0.015625)"/>
        <path id="ArialMT-31" d="M 2384 0 
L 1822 0 
L 1822 3584 
Q 1619 3391 1289 3197 
Q 959 3003 697 2906 
L 697 3450 
Q 1169 3672 1522 3987 
Q 1875 4303 2022 4600 
L 2384 4600 
L 2384 0 
z
" transform="scale(0.015625)"/>
        <path id="ArialMT-37" d="M 303 3981 
L 303 4522 
L 3269 4522 
L 3269 4084 
Q 2831 3619 2401 2847 
Q 1972 2075 1738 1259 
Q 1569 684 1522 0 
L 944 0 
Q 953 541 1156 1306 
Q 1359 2072 1739 2783 
Q 2119 3494 2547 3981 
L 303 3981 
z
" transform="scale(0.015625)"/>
       </defs>
       <use xlink:href="#ArialMT-32"/>
       <use xlink:href="#ArialMT-30" x="55.615234"/>
       <use xlink:href="#ArialMT-31" x="111.230469"/>
       <use xlink:href="#ArialMT-37" x="166.845703"/>
      </g>
     </g>
    </g>
    <g id="xtick_2">
     <g id="line2d_2">
      <g>
       <use xlink:href="#m701daf787d" x="208.944735" y="333.36" style="stroke: #000000; stroke-width: 0.8"/>
      </g>
     </g>
     <g id="text_2">
      <!-- 2018 -->
      <g transform="translate(197.82286 347.517813)scale(0.1 -0.1)">
       <defs>
        <path id="ArialMT-38" d="M 1131 2484 
Q 781 2613 612 2850 
Q 444 3088 444 3419 
Q 444 3919 803 4259 
Q 1163 4600 1759 4600 
Q 2359 4600 2725 4251 
Q 3091 3903 3091 3403 
Q 3091 3084 2923 2848 
Q 2756 2613 2416 2484 
Q 2838 2347 3058 2040 
Q 3278 1734 3278 1309 
Q 3278 722 2862 322 
Q 2447 -78 1769 -78 
Q 1091 -78 675 323 
Q 259 725 259 1325 
Q 259 1772 486 2073 
Q 713 2375 1131 2484 
z
M 1019 3438 
Q 1019 3113 1228 2906 
Q 1438 2700 1772 2700 
Q 2097 2700 2305 2904 
Q 2513 3109 2513 3406 
Q 2513 3716 2298 3927 
Q 2084 4138 1766 4138 
Q 1444 4138 1231 3931 
Q 1019 3725 1019 3438 
z
M 838 1322 
Q 838 1081 952 856 
Q 1066 631 1291 507 
Q 1516 384 1775 384 
Q 2178 384 2440 643 
Q 2703 903 2703 1303 
Q 2703 1709 2433 1975 
Q 2163 2241 1756 2241 
Q 1359 2241 1098 1978 
Q 838 1716 838 1322 
z
" transform="scale(0.015625)"/>
       </defs>
       <use xlink:href="#ArialMT-32"/>
       <use xlink:href="#ArialMT-30" x="55.615234"/>
       <use xlink:href="#ArialMT-31" x="111.230469"/>
       <use xlink:href="#ArialMT-38" x="166.845703"/>
      </g>
     </g>
    </g>
    <g id="xtick_3">
     <g id="line2d_3">
      <g>
       <use xlink:href="#m701daf787d" x="300.741733" y="333.36" style="stroke: #000000; stroke-width: 0.8"/>
      </g>
     </g>
     <g id="text_3">
      <!-- 2019 -->
      <g transform="translate(289.619858 347.517813)scale(0.1 -0.1)">
       <defs>
        <path id="ArialMT-39" d="M 350 1059 
L 891 1109 
Q 959 728 1153 556 
Q 1347 384 1650 384 
Q 1909 384 2104 503 
Q 2300 622 2425 820 
Q 2550 1019 2634 1356 
Q 2719 1694 2719 2044 
Q 2719 2081 2716 2156 
Q 2547 1888 2255 1720 
Q 1963 1553 1622 1553 
Q 1053 1553 659 1965 
Q 266 2378 266 3053 
Q 266 3750 677 4175 
Q 1088 4600 1706 4600 
Q 2153 4600 2523 4359 
Q 2894 4119 3086 3673 
Q 3278 3228 3278 2384 
Q 3278 1506 3087 986 
Q 2897 466 2520 194 
Q 2144 -78 1638 -78 
Q 1100 -78 759 220 
Q 419 519 350 1059 
z
M 2653 3081 
Q 2653 3566 2395 3850 
Q 2138 4134 1775 4134 
Q 1400 4134 1122 3828 
Q 844 3522 844 3034 
Q 844 2597 1108 2323 
Q 1372 2050 1759 2050 
Q 2150 2050 2401 2323 
Q 2653 2597 2653 3081 
z
" transform="scale(0.015625)"/>
       </defs>
       <use xlink:href="#ArialMT-32"/>
       <use xlink:href="#ArialMT-30" x="55.615234"/>
       <use xlink:href="#ArialMT-31" x="111.230469"/>
       <use xlink:href="#ArialMT-39" x="166.845703"/>
      </g>
     </g>
    </g>
    <g id="xtick_4">
     <g id="line2d_4">
      <g>
       <use xlink:href="#m701daf787d" x="392.538731" y="333.36" style="stroke: #000000; stroke-width: 0.8"/>
      </g>
     </g>
     <g id="text_4">
      <!-- 2020 -->
      <g transform="translate(381.416856 347.517813)scale(0.1 -0.1)">
       <use xlink:href="#ArialMT-32"/>
       <use xlink:href="#ArialMT-30" x="55.615234"/>
       <use xlink:href="#ArialMT-32" x="111.230469"/>
       <use xlink:href="#ArialMT-30" x="166.845703"/>
      </g>
     </g>
    </g>
    <g id="xtick_5">
     <g id="line2d_5">
      <g>
       <use xlink:href="#m701daf787d" x="484.587228" y="333.36" style="stroke: #000000; stroke-width: 0.8"/>
      </g>
     </g>
     <g id="text_5">
      <!-- 2021 -->
      <g transform="translate(473.465353 347.517813)scale(0.1 -0.1)">
       <use xlink:href="#ArialMT-32"/>
       <use xlink:href="#ArialMT-30" x="55.615234"/>
       <use xlink:href="#ArialMT-32" x="111.230469"/>
       <use xlink:href="#ArialMT-31" x="166.845703"/>
      </g>
     </g>
    </g>
    <g id="xtick_6">
     <g id="line2d_6">
      <g>
       <use xlink:href="#m701daf787d" x="576.384226" y="333.36" style="stroke: #000000; stroke-width: 0.8"/>
      </g>
     </g>
     <g id="text_6">
      <!-- 2022 -->
      <g transform="translate(565.262351 347.517813)scale(0.1 -0.1)">
       <use xlink:href="#ArialMT-32"/>
       <use xlink:href="#ArialMT-30" x="55.615234"/>
       <use xlink:href="#ArialMT-32" x="111.230469"/>
       <use xlink:href="#ArialMT-32" x="166.845703"/>
      </g>
     </g>
    </g>
    <g id="text_7">
     <!--   -->
     <g transform="translate(319.095312 360.663125)scale(0.1 -0.1)">
      <defs>
       <path id="ArialMT-20" transform="scale(0.015625)"/>
      </defs>
      <use xlink:href="#ArialMT-20"/>
     </g>
    </g>
   </g>
   <g id="matplotlib.axis_2">
    <g id="ytick_1">
     <g id="line2d_7">
      <defs>
       <path id="m918cfed3a9" d="M 0 0 
L -3.5 0 
" style="stroke: #000000; stroke-width: 0.8"/>
      </defs>
      <g>
       <use xlink:href="#m918cfed3a9" x="41.484375" y="318.534545" style="stroke: #000000; stroke-width: 0.8"/>
      </g>
     </g>
     <g id="text_8">
      <!-- 0.0 -->
      <g transform="translate(20.584375 322.113452)scale(0.1 -0.1)">
       <defs>
        <path id="ArialMT-2e" d="M 581 0 
L 581 641 
L 1222 641 
L 1222 0 
L 581 0 
z
" transform="scale(0.015625)"/>
       </defs>
       <use xlink:href="#ArialMT-30"/>
       <use xlink:href="#ArialMT-2e" x="55.615234"/>
       <use xlink:href="#ArialMT-30" x="83.398438"/>
      </g>
     </g>
    </g>
    <g id="ytick_2">
     <g id="line2d_8">
      <g>
       <use xlink:href="#m918cfed3a9" x="41.484375" y="259.232727" style="stroke: #000000; stroke-width: 0.8"/>
      </g>
     </g>
     <g id="text_9">
      <!-- 0.2 -->
      <g transform="translate(20.584375 262.811634)scale(0.1 -0.1)">
       <use xlink:href="#ArialMT-30"/>
       <use xlink:href="#ArialMT-2e" x="55.615234"/>
       <use xlink:href="#ArialMT-32" x="83.398438"/>
      </g>
     </g>
    </g>
    <g id="ytick_3">
     <g id="line2d_9">
      <g>
       <use xlink:href="#m918cfed3a9" x="41.484375" y="199.930909" style="stroke: #000000; stroke-width: 0.8"/>
      </g>
     </g>
     <g id="text_10">
      <!-- 0.4 -->
      <g transform="translate(20.584375 203.509815)scale(0.1 -0.1)">
       <defs>
        <path id="ArialMT-34" d="M 2069 0 
L 2069 1097 
L 81 1097 
L 81 1613 
L 2172 4581 
L 2631 4581 
L 2631 1613 
L 3250 1613 
L 3250 1097 
L 2631 1097 
L 2631 0 
L 2069 0 
z
M 2069 1613 
L 2069 3678 
L 634 1613 
L 2069 1613 
z
" transform="scale(0.015625)"/>
       </defs>
       <use xlink:href="#ArialMT-30"/>
       <use xlink:href="#ArialMT-2e" x="55.615234"/>
       <use xlink:href="#ArialMT-34" x="83.398438"/>
      </g>
     </g>
    </g>
    <g id="ytick_4">
     <g id="line2d_10">
      <g>
       <use xlink:href="#m918cfed3a9" x="41.484375" y="140.629091" style="stroke: #000000; stroke-width: 0.8"/>
      </g>
     </g>
     <g id="text_11">
      <!-- 0.6 -->
      <g transform="translate(20.584375 144.207997)scale(0.1 -0.1)">
       <defs>
        <path id="ArialMT-36" d="M 3184 3459 
L 2625 3416 
Q 2550 3747 2413 3897 
Q 2184 4138 1850 4138 
Q 1581 4138 1378 3988 
Q 1113 3794 959 3422 
Q 806 3050 800 2363 
Q 1003 2672 1297 2822 
Q 1591 2972 1913 2972 
Q 2475 2972 2870 2558 
Q 3266 2144 3266 1488 
Q 3266 1056 3080 686 
Q 2894 316 2569 119 
Q 2244 -78 1831 -78 
Q 1128 -78 684 439 
Q 241 956 241 2144 
Q 241 3472 731 4075 
Q 1159 4600 1884 4600 
Q 2425 4600 2770 4297 
Q 3116 3994 3184 3459 
z
M 888 1484 
Q 888 1194 1011 928 
Q 1134 663 1356 523 
Q 1578 384 1822 384 
Q 2178 384 2434 671 
Q 2691 959 2691 1453 
Q 2691 1928 2437 2201 
Q 2184 2475 1800 2475 
Q 1419 2475 1153 2201 
Q 888 1928 888 1484 
z
" transform="scale(0.015625)"/>
       </defs>
       <use xlink:href="#ArialMT-30"/>
       <use xlink:href="#ArialMT-2e" x="55.615234"/>
       <use xlink:href="#ArialMT-36" x="83.398438"/>
      </g>
     </g>
    </g>
    <g id="ytick_5">
     <g id="line2d_11">
      <g>
       <use xlink:href="#m918cfed3a9" x="41.484375" y="81.327273" style="stroke: #000000; stroke-width: 0.8"/>
      </g>
     </g>
     <g id="text_12">
      <!-- 0.8 -->
      <g transform="translate(20.584375 84.906179)scale(0.1 -0.1)">
       <use xlink:href="#ArialMT-30"/>
       <use xlink:href="#ArialMT-2e" x="55.615234"/>
       <use xlink:href="#ArialMT-38" x="83.398438"/>
      </g>
     </g>
    </g>
    <g id="ytick_6">
     <g id="line2d_12">
      <g>
       <use xlink:href="#m918cfed3a9" x="41.484375" y="22.025455" style="stroke: #000000; stroke-width: 0.8"/>
      </g>
     </g>
     <g id="text_13">
      <!-- 1.0 -->
      <g transform="translate(20.584375 25.604361)scale(0.1 -0.1)">
       <use xlink:href="#ArialMT-31"/>
       <use xlink:href="#ArialMT-2e" x="55.615234"/>
       <use xlink:href="#ArialMT-30" x="83.398438"/>
      </g>
     </g>
    </g>
    <g id="text_14">
     <!-- Prijs (norm) -->
     <g transform="translate(14.479688 196.11125)rotate(-90)scale(0.1 -0.1)">
      <defs>
       <path id="ArialMT-50" d="M 494 0 
L 494 4581 
L 2222 4581 
Q 2678 4581 2919 4538 
Q 3256 4481 3484 4323 
Q 3713 4166 3852 3881 
Q 3991 3597 3991 3256 
Q 3991 2672 3619 2267 
Q 3247 1863 2275 1863 
L 1100 1863 
L 1100 0 
L 494 0 
z
M 1100 2403 
L 2284 2403 
Q 2872 2403 3119 2622 
Q 3366 2841 3366 3238 
Q 3366 3525 3220 3729 
Q 3075 3934 2838 4000 
Q 2684 4041 2272 4041 
L 1100 4041 
L 1100 2403 
z
" transform="scale(0.015625)"/>
       <path id="ArialMT-72" d="M 416 0 
L 416 3319 
L 922 3319 
L 922 2816 
Q 1116 3169 1280 3281 
Q 1444 3394 1641 3394 
Q 1925 3394 2219 3213 
L 2025 2691 
Q 1819 2813 1613 2813 
Q 1428 2813 1281 2702 
Q 1134 2591 1072 2394 
Q 978 2094 978 1738 
L 978 0 
L 416 0 
z
" transform="scale(0.015625)"/>
       <path id="ArialMT-69" d="M 425 3934 
L 425 4581 
L 988 4581 
L 988 3934 
L 425 3934 
z
M 425 0 
L 425 3319 
L 988 3319 
L 988 0 
L 425 0 
z
" transform="scale(0.015625)"/>
       <path id="ArialMT-6a" d="M 419 3928 
L 419 4581 
L 981 4581 
L 981 3928 
L 419 3928 
z
M -294 -1288 
L -188 -809 
Q -19 -853 78 -853 
Q 250 -853 334 -739 
Q 419 -625 419 -169 
L 419 3319 
L 981 3319 
L 981 -181 
Q 981 -794 822 -1034 
Q 619 -1347 147 -1347 
Q -81 -1347 -294 -1288 
z
" transform="scale(0.015625)"/>
       <path id="ArialMT-73" d="M 197 991 
L 753 1078 
Q 800 744 1014 566 
Q 1228 388 1613 388 
Q 2000 388 2187 545 
Q 2375 703 2375 916 
Q 2375 1106 2209 1216 
Q 2094 1291 1634 1406 
Q 1016 1563 777 1677 
Q 538 1791 414 1992 
Q 291 2194 291 2438 
Q 291 2659 392 2848 
Q 494 3038 669 3163 
Q 800 3259 1026 3326 
Q 1253 3394 1513 3394 
Q 1903 3394 2198 3281 
Q 2494 3169 2634 2976 
Q 2775 2784 2828 2463 
L 2278 2388 
Q 2241 2644 2061 2787 
Q 1881 2931 1553 2931 
Q 1166 2931 1000 2803 
Q 834 2675 834 2503 
Q 834 2394 903 2306 
Q 972 2216 1119 2156 
Q 1203 2125 1616 2013 
Q 2213 1853 2448 1751 
Q 2684 1650 2818 1456 
Q 2953 1263 2953 975 
Q 2953 694 2789 445 
Q 2625 197 2315 61 
Q 2006 -75 1616 -75 
Q 969 -75 630 194 
Q 291 463 197 991 
z
" transform="scale(0.015625)"/>
       <path id="ArialMT-28" d="M 1497 -1347 
Q 1031 -759 709 28 
Q 388 816 388 1659 
Q 388 2403 628 3084 
Q 909 3875 1497 4659 
L 1900 4659 
Q 1522 4009 1400 3731 
Q 1209 3300 1100 2831 
Q 966 2247 966 1656 
Q 966 153 1900 -1347 
L 1497 -1347 
z
" transform="scale(0.015625)"/>
       <path id="ArialMT-6e" d="M 422 0 
L 422 3319 
L 928 3319 
L 928 2847 
Q 1294 3394 1984 3394 
Q 2284 3394 2536 3286 
Q 2788 3178 2913 3003 
Q 3038 2828 3088 2588 
Q 3119 2431 3119 2041 
L 3119 0 
L 2556 0 
L 2556 2019 
Q 2556 2363 2490 2533 
Q 2425 2703 2258 2804 
Q 2091 2906 1866 2906 
Q 1506 2906 1245 2678 
Q 984 2450 984 1813 
L 984 0 
L 422 0 
z
" transform="scale(0.015625)"/>
       <path id="ArialMT-6f" d="M 213 1659 
Q 213 2581 725 3025 
Q 1153 3394 1769 3394 
Q 2453 3394 2887 2945 
Q 3322 2497 3322 1706 
Q 3322 1066 3130 698 
Q 2938 331 2570 128 
Q 2203 -75 1769 -75 
Q 1072 -75 642 372 
Q 213 819 213 1659 
z
M 791 1659 
Q 791 1022 1069 705 
Q 1347 388 1769 388 
Q 2188 388 2466 706 
Q 2744 1025 2744 1678 
Q 2744 2294 2464 2611 
Q 2184 2928 1769 2928 
Q 1347 2928 1069 2612 
Q 791 2297 791 1659 
z
" transform="scale(0.015625)"/>
       <path id="ArialMT-6d" d="M 422 0 
L 422 3319 
L 925 3319 
L 925 2853 
Q 1081 3097 1340 3245 
Q 1600 3394 1931 3394 
Q 2300 3394 2536 3241 
Q 2772 3088 2869 2813 
Q 3263 3394 3894 3394 
Q 4388 3394 4653 3120 
Q 4919 2847 4919 2278 
L 4919 0 
L 4359 0 
L 4359 2091 
Q 4359 2428 4304 2576 
Q 4250 2725 4106 2815 
Q 3963 2906 3769 2906 
Q 3419 2906 3187 2673 
Q 2956 2441 2956 1928 
L 2956 0 
L 2394 0 
L 2394 2156 
Q 2394 2531 2256 2718 
Q 2119 2906 1806 2906 
Q 1569 2906 1367 2781 
Q 1166 2656 1075 2415 
Q 984 2175 984 1722 
L 984 0 
L 422 0 
z
" transform="scale(0.015625)"/>
       <path id="ArialMT-29" d="M 791 -1347 
L 388 -1347 
Q 1322 153 1322 1656 
Q 1322 2244 1188 2822 
Q 1081 3291 891 3722 
Q 769 4003 388 4659 
L 791 4659 
Q 1378 3875 1659 3084 
Q 1900 2403 1900 1659 
Q 1900 816 1576 28 
Q 1253 -759 791 -1347 
z
" transform="scale(0.015625)"/>
      </defs>
      <use xlink:href="#ArialMT-50"/>
      <use xlink:href="#ArialMT-72" x="66.699219"/>
      <use xlink:href="#ArialMT-69" x="100"/>
      <use xlink:href="#ArialMT-6a" x="122.216797"/>
      <use xlink:href="#ArialMT-73" x="144.433594"/>
      <use xlink:href="#ArialMT-20" x="194.433594"/>
      <use xlink:href="#ArialMT-28" x="222.216797"/>
      <use xlink:href="#ArialMT-6e" x="255.517578"/>
      <use xlink:href="#ArialMT-6f" x="311.132812"/>
      <use xlink:href="#ArialMT-72" x="366.748047"/>
      <use xlink:href="#ArialMT-6d" x="400.048828"/>
      <use xlink:href="#ArialMT-29" x="483.349609"/>
     </g>
    </g>
   </g>
   <g id="line2d_13">
    <path d="M 66.848011 105.191789 
L 67.09951 109.513587 
L 67.351009 153.117977 
L 68.105504 145.652241 
L 68.608502 159.910649 
L 68.86 182.714889 
L 69.111499 140.873013 
L 70.368992 81.563754 
L 70.620491 80.842758 
L 70.871989 43.805547 
L 71.626485 46.148921 
L 71.877984 27.143992 
L 72.129482 22.025455 
L 72.380981 30.469969 
L 72.63248 58.506956 
L 73.386976 78.245694 
L 73.638474 124.071519 
L 73.889973 124.976189 
L 74.39297 179.335163 
L 75.147466 166.592233 
L 75.398965 188.443248 
L 75.650463 200.467485 
L 75.901962 196.02124 
L 76.153461 208.650594 
L 76.907956 195.132265 
L 77.159455 178.263492 
L 77.410954 171.335639 
L 77.913951 106.83287 
L 78.668447 116.10311 
L 78.919945 145.214279 
L 79.171444 139.694489 
L 79.422943 106.424669 
L 79.674441 119.552605 
L 80.428937 138.255817 
L 80.680436 116.39125 
L 81.183433 137.318545 
L 81.434932 150.992931 
L 82.189428 175.109435 
L 82.692425 145.117082 
L 82.943923 162.681074 
L 83.195422 170.161276 
L 83.949918 153.211855 
L 84.201417 157.50963 
L 84.452915 174.81477 
L 84.704414 182.97236 
L 84.955912 171.584741 
L 85.710408 160.039509 
L 85.961907 136.507434 
L 86.716403 184.270903 
L 87.470899 155.917293 
L 87.722397 141.802003 
L 87.973896 139.293268 
L 88.225395 149.74418 
L 88.476893 188.499715 
L 89.231389 213.117241 
L 89.734386 203.071728 
L 89.985885 193.854825 
L 90.237384 177.004586 
L 90.991879 186.16001 
L 91.243378 197.879533 
L 91.494877 218.087394 
L 91.997874 115.463502 
L 92.75237 86.258549 
L 93.003868 68.120311 
L 93.255367 83.110131 
L 93.506866 87.110479 
L 93.758364 87.515064 
L 94.51286 108.761705 
L 95.015857 161.474076 
L 95.267356 196.503518 
L 95.518855 205.851723 
L 96.273351 243.059081 
L 96.524849 248.990111 
L 96.776348 260.263066 
L 97.027846 222.52201 
L 97.279345 243.16703 
L 98.033841 229.664333 
L 98.28534 213.449116 
L 98.536838 167.398116 
L 98.788337 161.060895 
L 99.039835 148.616657 
L 99.794331 130.447729 
L 100.04583 144.621883 
L 100.297329 167.449514 
L 100.548827 224.471729 
L 100.800326 212.599678 
L 101.554822 211.50387 
L 101.80632 233.205277 
L 102.057819 217.532287 
L 102.309318 239.363781 
L 102.560816 232.865099 
L 103.315312 234.896642 
L 103.566811 230.518655 
L 103.818309 213.493926 
L 104.069808 255.505927 
L 104.321307 260.423795 
L 105.075802 288.968697 
L 105.327301 229.773058 
L 105.5788 263.899038 
L 105.830298 243.905901 
L 106.081797 243.343613 
L 106.836293 241.174626 
L 107.087791 224.629945 
L 107.33929 229.480866 
L 107.590789 128.490574 
L 107.842287 121.145337 
L 108.596783 92.496412 
L 108.848282 128.484065 
L 109.09978 125.739374 
L 109.351279 169.628234 
L 109.602778 158.784431 
L 110.608772 199.420437 
L 110.860271 161.405152 
L 111.111769 213.686758 
L 111.363268 195.107906 
L 112.117764 223.526288 
L 112.369263 213.157945 
L 112.620761 174.06692 
L 112.87226 161.84048 
L 113.123758 159.271188 
L 113.878254 110.177159 
L 114.129753 110.233555 
L 114.381252 117.65299 
L 114.63275 94.6791 
L 116.141742 88.306529 
L 116.393241 38.862037 
L 117.399235 64.183083 
L 117.650734 146.316315 
L 117.902232 119.397831 
L 118.153731 151.546104 
L 118.40523 166.002244 
L 119.159725 170.295137 
L 119.411224 175.488393 
L 119.662723 152.113801 
L 120.16572 214.607314 
L 120.920216 203.552001 
L 121.171714 145.851508 
L 121.423213 155.929752 
L 121.92621 198.15594 
L 122.680706 186.840815 
L 122.932205 190.964506 
L 123.183703 244.036707 
L 123.435202 265.547796 
L 123.686701 236.287034 
L 124.441197 253.574896 
L 124.692695 242.094267 
L 124.944194 253.069227 
L 125.195692 193.135157 
L 125.447191 176.836862 
L 126.201687 193.268678 
L 126.453186 180.586841 
L 126.704684 114.998033 
L 126.956183 80.061937 
L 127.207681 115.844562 
L 127.962177 100.010305 
L 128.213676 129.608798 
L 128.465175 106.956977 
L 128.716673 124.982598 
L 128.968172 112.342402 
L 129.722668 112.509605 
L 129.974166 122.449316 
L 130.225665 124.628224 
L 130.477164 121.161712 
L 130.728662 69.435505 
L 131.483158 73.631247 
L 131.734657 58.844415 
L 131.986155 97.227985 
L 132.237654 116.367453 
L 132.489153 147.944593 
L 133.243648 146.965765 
L 133.495147 141.359289 
L 133.998144 221.897908 
L 134.249643 266.485659 
L 135.004139 277.086647 
L 135.255637 276.797205 
L 135.507136 223.124623 
L 135.758635 222.741333 
L 136.010133 203.786647 
L 136.764629 204.101928 
L 137.016128 211.474776 
L 137.267626 169.40293 
L 137.770624 131.680765 
L 138.52512 118.012071 
L 138.776618 123.678441 
L 139.028117 125.19652 
L 139.531114 106.153504 
L 140.28561 90.752327 
L 140.537109 56.636291 
L 140.788607 79.637577 
L 141.040106 75.048089 
L 141.291604 63.43797 
L 142.0461 74.575367 
L 142.297599 73.620247 
L 142.549098 80.142883 
L 142.800596 71.769678 
L 144.058089 83.920863 
L 144.309588 104.274412 
L 144.561087 163.35858 
L 144.812585 161.973629 
L 145.567081 200.051575 
L 145.81858 220.965559 
L 146.070078 217.406533 
L 146.321577 193.880143 
L 146.573076 199.939432 
L 147.57907 205.568504 
L 147.830569 202.955027 
L 148.082067 219.052086 
L 148.333566 203.149377 
L 149.088062 209.020351 
L 149.591059 165.652853 
L 149.842558 171.491607 
L 150.094056 180.952937 
L 150.848552 192.067189 
L 151.100051 200.932179 
L 151.351549 179.22329 
L 151.603048 140.142393 
L 151.854547 137.068688 
L 152.609043 143.011604 
L 152.860541 133.529427 
L 153.11204 148.438393 
L 153.363538 127.220193 
L 153.615037 124.666642 
L 154.621032 96.713667 
L 154.87253 109.428854 
L 155.124029 137.83119 
L 155.375527 113.433555 
L 156.130023 109.324142 
L 156.381522 95.095408 
L 156.633021 92.539095 
L 157.136018 127.082474 
L 157.890514 135.248047 
L 158.142012 139.897668 
L 158.393511 140.223053 
L 158.64501 153.887232 
L 158.896508 161.119377 
L 159.651004 155.699687 
L 159.902503 158.71126 
L 160.154001 163.100298 
L 160.4055 147.761165 
L 160.656999 151.61008 
L 161.411494 154.142479 
L 161.914492 225.310293 
L 162.16599 217.516772 
L 162.417489 237.903853 
L 163.171985 236.090081 
L 163.423483 243.600424 
L 163.674982 242.428369 
L 163.926481 294.887881 
L 164.177979 290.987599 
L 164.932475 293.626416 
L 165.435472 213.140195 
L 165.93847 176.0608 
L 166.692966 174.297138 
L 166.944464 170.445555 
L 167.195963 160.803495 
L 167.447461 122.472804 
L 167.69896 101.928789 
L 168.453456 98.699023 
L 168.704955 124.932001 
L 168.956453 136.666231 
L 169.207952 125.875774 
L 169.45945 145.26358 
L 170.213946 138.283172 
L 170.716944 127.581902 
L 170.968442 116.991846 
L 171.219941 143.617588 
L 171.974437 143.692606 
L 172.225935 118.015538 
L 172.477434 104.362631 
L 172.728933 109.514667 
L 172.980431 87.493752 
L 173.734927 105.38895 
L 173.986426 130.465567 
L 174.489423 142.497089 
L 174.740922 136.504606 
L 175.495418 126.387979 
L 175.746916 137.409487 
L 175.998415 124.406516 
L 176.501412 150.247671 
L 177.255908 154.005085 
L 177.507407 129.614033 
L 177.758905 128.585397 
L 178.010404 121.984142 
L 178.261902 148.373584 
L 179.016398 140.637013 
L 179.267897 130.395741 
L 179.519396 137.876271 
L 179.770894 131.198638 
L 180.022393 127.897858 
L 180.776889 134.692132 
L 181.028387 166.000491 
L 181.279886 166.921882 
L 181.531385 178.782176 
L 181.782883 178.164951 
L 182.537379 194.773883 
L 182.788878 194.078586 
L 183.040376 193.934937 
L 183.291875 213.984536 
L 184.297869 191.062135 
L 184.549368 172.58639 
L 184.800867 185.007443 
L 185.052365 182.606397 
L 185.303864 165.507854 
L 186.05836 151.319036 
L 186.309858 161.750707 
L 186.561357 159.870176 
L 186.812856 155.263844 
L 187.064354 177.943009 
L 188.070349 170.447049 
L 188.321847 147.975658 
L 188.824845 127.832188 
L 189.579341 120.777624 
L 189.830839 111.349179 
L 190.082338 129.027551 
L 190.333836 123.498291 
L 191.339831 140.657127 
L 191.59133 160.597994 
L 191.842828 165.691137 
L 192.094327 152.8459 
L 192.345825 149.234625 
L 193.100321 152.327091 
L 193.35182 155.822716 
L 193.603319 144.360056 
L 193.854817 151.118024 
L 194.106316 119.545513 
L 194.860812 117.553755 
L 195.363809 83.515728 
L 195.615308 132.1594 
L 195.866806 154.794288 
L 196.621302 170.38945 
L 196.872801 164.729622 
L 197.124299 153.957545 
L 197.375798 150.522689 
L 197.627297 154.860822 
L 198.381792 162.732549 
L 198.633291 155.46691 
L 198.88479 174.898475 
L 199.136288 145.09771 
L 199.387787 149.310166 
L 200.142283 139.894501 
L 200.393781 144.855718 
L 200.64528 172.604626 
L 200.896779 161.839022 
L 201.148277 145.900971 
L 201.902773 150.356444 
L 202.154272 152.526583 
L 202.40577 127.078546 
L 202.657269 129.010894 
L 202.908768 124.339681 
L 203.663264 130.743753 
L 203.914762 141.455312 
L 204.166261 126.878427 
L 204.417759 145.650346 
L 204.669258 151.745899 
L 205.423754 154.20682 
L 206.17825 227.161021 
L 207.687242 209.59409 
L 207.93874 219.304376 
L 209.196233 229.46511 
L 209.447732 216.119247 
L 209.699231 212.59612 
L 209.950729 217.896258 
L 210.705225 211.383719 
L 210.956724 201.340707 
L 211.208222 185.190688 
L 211.71122 219.16335 
L 212.465715 205.179055 
L 212.717214 177.836952 
L 212.968713 192.036289 
L 213.220211 193.337011 
L 213.47171 201.058672 
L 214.226206 205.691868 
L 214.477704 189.044625 
L 214.729203 196.732533 
L 214.980702 188.606297 
L 215.2322 188.316267 
L 215.986696 220.922193 
L 216.238195 224.788836 
L 216.489693 218.308619 
L 216.741192 223.676085 
L 216.992691 240.419334 
L 217.998685 225.239207 
L 218.250184 213.488441 
L 218.501682 224.131851 
L 218.753181 204.293473 
L 219.507677 172.418896 
L 219.759176 177.271267 
L 220.010674 186.676907 
L 220.262173 178.840398 
L 220.513671 142.84673 
L 221.268167 166.335788 
L 221.519666 168.912654 
L 221.771165 166.080835 
L 222.022663 131.415594 
L 222.274162 129.822094 
L 223.028658 127.609063 
L 223.280156 131.315104 
L 223.531655 121.82637 
L 223.783154 106.583133 
L 224.034652 119.681075 
L 224.789148 109.030487 
L 225.040647 134.651985 
L 225.292145 128.350623 
L 225.543644 128.566109 
L 225.795143 146.741938 
L 226.549638 143.676682 
L 227.052636 137.835044 
L 227.304134 135.479238 
L 227.555633 138.313251 
L 228.310129 138.798316 
L 228.561627 119.908088 
L 228.813126 130.58104 
L 229.064625 107.148407 
L 229.316123 112.620535 
L 230.070619 119.238971 
L 230.322118 108.626909 
L 230.573616 107.874404 
L 230.825115 119.664208 
L 232.082608 121.197375 
L 232.334107 117.086697 
L 232.585605 126.43991 
L 232.837104 117.236349 
L 233.5916 147.884364 
L 233.843099 148.669428 
L 234.094597 145.075409 
L 234.597594 165.651636 
L 235.35209 168.686656 
L 235.603589 164.859935 
L 235.855088 167.712735 
L 236.358085 192.526673 
L 237.112581 201.046547 
L 237.364079 201.93707 
L 237.615578 203.301975 
L 238.118575 177.103647 
L 238.873071 170.289654 
L 239.376068 177.826812 
L 239.627567 163.227116 
L 239.879066 138.748831 
L 240.633561 127.482603 
L 240.88506 130.374144 
L 241.136559 127.587043 
L 241.388057 121.659089 
L 241.639556 138.424777 
L 242.394052 169.412952 
L 242.64555 184.528359 
L 242.897049 174.842791 
L 243.148548 185.949373 
L 243.400046 181.324537 
L 244.154542 173.875578 
L 244.657539 141.339858 
L 244.909038 132.226721 
L 245.160537 103.85471 
L 246.166531 50.716763 
L 246.41803 49.401703 
L 246.669528 57.706086 
L 246.921027 73.727538 
L 247.675523 104.609987 
L 247.927022 99.951534 
L 248.430019 171.703021 
L 248.681517 175.819162 
L 249.436013 215.156165 
L 249.687512 217.35287 
L 249.939011 211.634929 
L 250.190509 190.556645 
L 250.442008 158.171573 
L 251.448002 134.497257 
L 251.951 79.676478 
L 252.202498 99.619807 
L 252.956994 78.324435 
L 253.208493 81.803912 
L 253.71149 98.614872 
L 253.962989 117.211599 
L 254.717484 118.732079 
L 254.968983 132.900151 
L 255.220482 131.203704 
L 255.47198 150.364379 
L 255.723479 140.576738 
L 256.729473 149.220765 
L 256.980972 153.126931 
L 257.232471 153.612107 
L 257.483969 146.362466 
L 258.238465 157.987837 
L 258.992961 141.498545 
L 259.24446 159.963321 
L 259.998956 167.157395 
L 260.250454 167.763669 
L 260.501953 164.105753 
L 260.753451 170.447879 
L 261.00495 184.125839 
L 261.759446 188.249861 
L 262.010945 192.830919 
L 262.262443 213.310149 
L 262.513942 211.630699 
L 262.76544 184.521992 
L 263.519936 163.751102 
L 263.771435 164.957414 
L 264.022934 162.311599 
L 264.274432 153.846393 
L 264.525931 132.455992 
L 265.280427 116.853002 
L 265.531925 114.632182 
L 265.783424 95.332757 
L 266.034923 99.277936 
L 266.286421 112.986387 
L 267.040917 120.794753 
L 267.292416 125.029015 
L 267.795413 146.649233 
L 268.046912 166.782125 
L 268.801407 175.995312 
L 269.052906 182.443184 
L 269.304405 196.585362 
L 269.555903 177.231685 
L 269.807402 176.322042 
L 270.561898 174.709467 
L 270.813396 170.311181 
L 271.064895 180.438147 
L 271.316394 170.324411 
L 271.567892 173.627111 
L 272.322388 165.969827 
L 272.573887 173.179255 
L 272.825386 153.659438 
L 273.076884 181.493042 
L 273.328383 190.459265 
L 274.082879 198.596137 
L 274.334377 197.97566 
L 274.585876 191.342006 
L 274.837375 198.137731 
L 275.088873 180.759233 
L 275.843369 200.47523 
L 276.094868 200.54901 
L 276.346366 209.854502 
L 276.597865 196.938759 
L 276.849364 177.627533 
L 277.603859 178.37294 
L 277.855358 151.65369 
L 278.106857 150.558234 
L 278.609854 195.624533 
L 279.615848 160.539126 
L 279.867347 171.269044 
L 280.118846 160.719241 
L 280.370344 167.601073 
L 281.12484 156.781751 
L 281.376339 178.611428 
L 281.627837 161.491958 
L 281.879336 133.809426 
L 282.130835 120.48545 
L 282.885331 128.032891 
L 283.388328 101.730135 
L 283.639826 112.402934 
L 283.891325 107.563906 
L 284.645821 123.50518 
L 284.89732 116.42468 
L 285.148818 132.441299 
L 285.400317 138.128362 
L 285.651815 150.32965 
L 286.406311 144.411327 
L 286.909309 170.211384 
L 287.412306 178.76335 
L 288.166802 157.14724 
L 288.4183 166.462777 
L 288.669799 164.846797 
L 288.921298 144.208523 
L 289.172796 139.191886 
L 289.927292 147.511205 
L 290.178791 136.899887 
L 290.430289 137.840265 
L 290.681788 137.590385 
L 290.933287 135.575961 
L 291.687782 153.236839 
L 291.939281 140.355318 
L 292.19078 140.283968 
L 292.442278 146.51972 
L 292.693777 136.60446 
L 293.699771 132.766467 
L 293.95127 122.149007 
L 294.202769 106.734819 
L 294.454267 134.454829 
L 295.208763 129.553652 
L 296.214758 149.786415 
L 296.969254 149.004239 
L 297.723749 163.713099 
L 297.975248 149.733679 
L 298.729744 146.318348 
L 299.48424 144.653019 
L 300.993232 117.897561 
L 301.496229 132.570063 
L 302.250725 141.369979 
L 302.502223 146.09112 
L 302.753722 147.774652 
L 303.005221 135.110022 
L 303.256719 129.25651 
L 304.011215 131.136285 
L 304.262714 125.748776 
L 304.514212 158.876204 
L 304.765711 159.531265 
L 305.01721 152.267662 
L 305.771705 150.534023 
L 306.023204 140.265719 
L 306.526201 130.977197 
L 306.7777 145.011986 
L 307.783694 157.211952 
L 308.035193 157.984102 
L 308.286692 142.049649 
L 308.53819 137.873805 
L 309.292686 139.894904 
L 309.544185 144.945035 
L 309.795683 144.836587 
L 310.047182 140.116294 
L 310.298681 130.904119 
L 311.053177 136.120405 
L 311.304675 140.341411 
L 311.556174 142.423649 
L 311.807672 139.539119 
L 312.059171 144.698687 
L 312.813667 141.845002 
L 313.065166 131.958249 
L 313.316664 135.12668 
L 313.568163 167.216414 
L 313.819661 162.830571 
L 314.574157 158.811657 
L 314.825656 158.871561 
L 315.077155 169.831695 
L 315.328653 190.681637 
L 315.580152 189.822387 
L 316.334648 182.068874 
L 316.586146 181.828124 
L 316.837645 169.694231 
L 317.089144 138.122991 
L 317.340642 147.449123 
L 318.346637 138.372157 
L 318.598135 127.293156 
L 318.849634 121.300311 
L 319.855628 118.834862 
L 320.107127 133.443756 
L 320.358626 130.953588 
L 320.610124 133.445871 
L 320.861623 131.743869 
L 321.616119 135.532186 
L 321.867617 140.681059 
L 322.119116 112.328094 
L 322.370615 116.220841 
L 322.622113 113.123734 
L 323.376609 119.672215 
L 323.628108 111.70038 
L 324.382604 158.921807 
L 325.1371 158.510219 
L 325.388598 153.62327 
L 325.640097 168.765297 
L 325.891595 168.187192 
L 326.143094 184.615897 
L 327.149089 181.416695 
L 327.400587 175.69678 
L 327.652086 162.099609 
L 328.909579 164.395835 
L 329.161078 148.266415 
L 329.412576 150.389412 
L 329.664075 161.209722 
L 330.418571 164.150682 
L 330.670069 153.914449 
L 331.173067 141.640402 
L 331.424565 141.46907 
L 332.179061 135.548296 
L 332.43056 136.190951 
L 332.682058 129.874262 
L 333.185056 150.63301 
L 333.939551 146.167702 
L 334.19105 135.505498 
L 334.442549 118.341631 
L 334.694047 133.503726 
L 334.945546 129.454569 
L 335.700042 132.33408 
L 335.95154 150.11554 
L 336.203039 153.051922 
L 336.706036 138.664673 
L 337.460532 136.510877 
L 337.963529 140.304991 
L 338.215028 130.434302 
L 338.466527 128.706316 
L 339.221023 125.995296 
L 339.472521 121.229105 
L 339.72402 113.316518 
L 339.975518 128.482544 
L 340.227017 116.425648 
L 340.981513 134.537992 
L 341.233012 135.363403 
L 341.48451 142.279731 
L 341.736009 142.457413 
L 341.987507 147.546625 
L 342.742003 149.06048 
L 342.993502 120.688441 
L 343.245001 138.715935 
L 343.496499 127.049 
L 343.747998 150.825355 
L 344.753992 129.156681 
L 345.25699 137.31537 
L 345.508488 136.801762 
L 346.262984 126.78502 
L 346.514483 152.877721 
L 346.765981 139.354498 
L 347.268979 141.077937 
L 348.023474 138.827777 
L 348.526472 164.236341 
L 348.77797 167.081109 
L 349.029469 177.916233 
L 349.783965 177.079799 
L 350.035463 179.325523 
L 350.286962 169.886632 
L 350.538461 170.396708 
L 350.789959 150.214164 
L 351.544455 151.726402 
L 351.795954 139.614208 
L 352.047452 120.186728 
L 352.298951 128.985348 
L 352.55045 113.361867 
L 353.304946 115.166726 
L 353.556444 117.555864 
L 353.807943 123.899457 
L 354.059441 124.908357 
L 354.31094 124.948281 
L 355.065436 122.60801 
L 355.316935 122.228125 
L 355.568433 104.724372 
L 355.819932 99.398735 
L 356.825926 103.750067 
L 357.077425 111.308521 
L 357.328924 98.491603 
L 357.580422 98.209911 
L 357.831921 96.457703 
L 358.586417 114.020281 
L 358.837915 109.709129 
L 359.089414 124.844392 
L 359.340913 158.883785 
L 359.592411 147.774774 
L 360.346907 150.070429 
L 360.598406 145.661767 
L 360.849904 151.112155 
L 361.352902 167.205091 
L 362.107397 156.654528 
L 362.358896 166.004931 
L 362.610395 164.820345 
L 362.861893 171.125595 
L 363.113392 164.315652 
L 364.119386 184.077212 
L 364.622384 203.309673 
L 364.873882 224.847222 
L 365.628378 223.014059 
L 365.879877 224.298597 
L 366.382874 199.936537 
L 366.634373 204.336689 
L 367.388869 176.154604 
L 367.640367 174.668301 
L 368.143364 161.078321 
L 368.394863 132.387498 
L 369.149359 135.34166 
L 369.652356 148.051088 
L 369.903855 128.469637 
L 370.155354 136.107925 
L 370.909849 152.792453 
L 371.161348 148.476327 
L 371.412847 160.443744 
L 371.915844 192.825216 
L 372.67034 191.390548 
L 372.921838 187.270217 
L 373.424836 217.096486 
L 373.676334 218.273323 
L 374.43083 224.033882 
L 374.682329 224.909707 
L 374.933827 211.017788 
L 375.185326 182.415557 
L 375.436825 183.312531 
L 376.191321 194.935428 
L 376.442819 192.911911 
L 376.945816 153.158118 
L 377.197315 151.819684 
L 377.951811 152.336324 
L 378.20331 168.55015 
L 378.454808 173.06684 
L 378.706307 189.422553 
L 378.957805 185.397796 
L 379.712301 175.203846 
L 379.9638 178.80589 
L 380.215299 174.608226 
L 380.466797 182.735057 
L 381.472792 172.728296 
L 381.72429 161.643099 
L 381.975789 157.277415 
L 382.478786 140.93375 
L 383.233282 138.363744 
L 383.484781 132.402442 
L 383.987778 152.327722 
L 384.239277 155.472145 
L 384.993772 170.67007 
L 385.245271 155.063674 
L 385.49677 156.928273 
L 385.748268 165.897559 
L 385.999767 169.209851 
L 386.754263 166.820329 
L 387.005761 173.733551 
L 387.25726 166.64341 
L 387.760257 183.296757 
L 388.514753 156.342919 
L 389.01775 184.101482 
L 389.520748 171.623367 
L 390.275244 177.324399 
L 390.526742 175.001191 
L 391.281238 179.474335 
L 392.035734 186.281165 
L 392.79023 162.771093 
L 393.041728 161.010696 
L 394.299222 144.693991 
L 394.55072 160.31578 
L 394.802219 160.725667 
L 395.556715 165.579054 
L 395.808213 163.824895 
L 396.059712 140.329029 
L 396.311211 151.191068 
L 396.562709 167.784419 
L 397.317205 174.594868 
L 397.568704 172.209098 
L 398.071701 141.076587 
L 398.3232 136.333428 
L 399.077695 114.476016 
L 399.329194 120.049093 
L 399.580693 122.661294 
L 399.832191 119.578477 
L 400.08369 108.56556 
L 400.838186 108.274608 
L 401.089684 117.281975 
L 401.592682 143.804221 
L 401.84418 136.524211 
L 402.598676 152.278038 
L 402.850175 146.341184 
L 403.101673 154.370925 
L 403.604671 161.280815 
L 404.359167 163.484612 
L 405.113662 141.275049 
L 405.365161 151.642981 
L 406.119657 142.350114 
L 406.371156 141.252289 
L 406.622654 137.46403 
L 407.125651 116.82279 
L 407.880147 106.883007 
L 408.131646 118.42809 
L 408.383145 105.900464 
L 409.640638 76.221416 
L 409.892136 107.53552 
L 410.143635 112.16472 
L 410.395134 144.916813 
L 410.646632 193.256393 
L 411.401128 235.700378 
L 411.652627 218.671393 
L 411.904125 291.114016 
L 412.155624 318.534545 
L 412.407123 295.497365 
L 413.161618 305.814158 
L 413.413117 288.690076 
L 413.664616 291.673688 
L 413.916114 252.401561 
L 414.167613 172.82135 
L 414.922109 127.237051 
L 415.173607 140.373775 
L 415.425106 100.650107 
L 415.676605 87.644239 
L 415.928103 115.536922 
L 416.934098 151.110851 
L 417.185596 149.867746 
L 417.437095 157.626959 
L 418.694588 189.604893 
L 418.946087 188.154857 
L 419.197585 178.550371 
L 419.449084 157.51008 
L 420.20358 159.670198 
L 420.455079 153.248265 
L 420.706577 155.23001 
L 421.209574 115.297976 
L 421.96407 135.430075 
L 422.215569 136.525793 
L 422.718566 139.254693 
L 423.724561 125.380117 
L 423.976059 106.581916 
L 423.976059 106.581916 
" clip-path="url(#p0ee9e7ddd5)" style="fill: none; stroke: #1f77b4; stroke-width: 1.5; stroke-linecap: square"/>
   </g>
   <g id="line2d_14">
    <path d="M 424.227558 129.332562 
L 424.479057 118.181854 
L 424.730555 115.096987 
L 425.485051 132.323632 
L 425.73655 133.876803 
L 425.988048 137.705389 
L 426.491046 147.625076 
L 427.245541 173.113414 
L 427.49704 193.708084 
L 427.748539 175.85974 
L 428.000037 172.489663 
L 428.251536 177.46694 
L 429.006032 173.302646 
L 429.509029 187.875118 
L 429.760528 183.908178 
L 430.012026 176.377481 
L 430.766522 172.397427 
L 431.018021 156.170061 
L 431.269519 173.701891 
L 431.521018 176.891728 
L 431.772517 189.871887 
L 432.527013 176.021346 
L 432.778511 160.078205 
L 433.03001 166.496074 
L 433.281508 156.577793 
L 433.533007 157.218991 
L 434.287503 146.60878 
L 434.539002 157.277141 
L 434.7905 136.369466 
L 435.041999 135.730864 
L 435.293497 120.878476 
L 436.047993 124.344987 
L 436.299492 131.233633 
L 436.550991 133.024852 
L 437.053988 141.263927 
L 437.808484 147.268672 
L 438.059982 135.201315 
L 438.311481 162.398623 
L 438.56298 154.31035 
L 438.814478 152.74076 
L 439.568974 164.885282 
L 440.071971 153.145106 
L 440.32347 162.214215 
L 440.574969 158.26528 
L 441.329464 169.709562 
L 441.580963 169.23308 
L 441.832462 145.395816 
L 442.08396 149.950998 
L 442.335459 151.291658 
L 443.089955 146.172797 
L 443.341453 147.797081 
L 443.592952 139.88816 
L 443.844451 148.792671 
L 444.095949 162.447161 
L 444.850445 140.164078 
L 445.101944 139.834089 
L 445.353442 144.897106 
L 445.604941 138.984391 
L 445.85644 147.408287 
L 446.610936 154.608781 
L 446.862434 138.812144 
L 447.113933 159.771989 
L 447.61693 139.665153 
L 448.371426 147.469152 
L 448.622925 163.597844 
L 448.874423 165.050885 
L 449.125922 186.632861 
L 449.37742 180.868519 
L 450.131916 172.12721 
L 450.383415 181.245239 
L 450.634914 160.642948 
L 450.886412 164.056928 
L 451.137911 163.016264 
L 451.892407 163.247001 
L 452.143905 169.000947 
L 452.395404 169.938488 
L 452.898401 153.320934 
L 453.652897 163.498982 
L 453.904396 165.007344 
L 454.155894 158.845272 
L 454.407393 159.482244 
L 454.658892 161.33893 
L 455.413387 162.324341 
L 455.664886 142.800064 
L 455.916385 146.162285 
L 456.167883 155.06596 
L 457.173878 140.864987 
L 457.425376 145.756173 
L 457.676875 159.309958 
L 457.928374 162.209498 
L 458.179872 157.162082 
L 458.934368 149.616235 
L 459.185867 158.438417 
L 459.688864 142.559999 
L 459.940363 151.411498 
L 460.694859 155.711115 
L 460.946357 150.018642 
L 461.197856 153.097089 
L 461.449354 154.25907 
L 461.700853 152.170626 
L 462.455349 162.66965 
L 462.706848 157.336353 
L 462.958346 160.875117 
L 463.461343 147.29798 
L 464.215839 148.400893 
L 464.467338 147.591928 
L 464.970335 138.129483 
L 465.221834 139.185938 
L 465.97633 136.856073 
L 466.227828 138.019798 
L 466.479327 138.181565 
L 466.982324 158.611073 
L 467.73682 158.785016 
L 467.988319 153.399067 
L 468.239817 151.838089 
L 468.491316 152.998958 
L 468.742815 157.741833 
L 469.497311 156.527634 
L 469.748809 156.990182 
L 470.000308 149.930981 
L 470.251806 151.315719 
L 470.503305 147.777096 
L 471.257801 160.813374 
L 471.5093 178.92149 
L 471.760798 180.757075 
L 472.012297 180.051557 
L 472.263795 173.409701 
L 473.018291 175.027021 
L 473.26979 173.352037 
L 473.521289 176.984592 
L 474.024286 165.492905 
L 474.778782 151.770677 
L 475.03028 141.540459 
L 475.281779 144.27508 
L 475.784776 155.191762 
L 476.539272 157.510416 
L 476.790771 166.031519 
L 477.042269 169.916464 
L 477.293768 163.247925 
L 477.545267 165.155774 
L 478.299762 157.452549 
L 478.551261 151.428985 
L 478.80276 152.587078 
L 479.054258 152.296458 
L 479.305757 144.531021 
L 480.060253 147.654394 
L 480.311751 138.935071 
L 480.56325 146.298816 
L 480.814749 149.099106 
L 481.066247 154.436847 
L 481.820743 158.958487 
L 482.32374 174.236296 
L 482.575239 173.717738 
L 483.581234 179.308491 
L 483.832732 168.623827 
L 484.084231 170.704811 
L 485.341724 155.191102 
L 485.844721 163.306593 
L 486.09622 166.026742 
L 486.347718 164.926772 
L 487.102214 158.903184 
L 487.353713 164.532919 
L 487.605212 161.804416 
L 487.85671 156.64059 
L 488.108209 158.148348 
L 488.862705 164.755428 
L 489.114203 168.521148 
L 489.365702 162.093687 
L 489.617201 168.185124 
L 489.868699 166.327975 
L 490.874694 149.782385 
L 491.126192 150.948604 
L 491.377691 161.684889 
L 491.62919 165.978543 
L 492.383685 164.241707 
L 492.886683 170.167407 
L 493.138181 165.472278 
L 493.38968 168.141593 
L 494.144176 179.964943 
L 494.395674 175.383582 
L 494.647173 177.348072 
L 494.898672 172.072958 
L 495.15017 170.8691 
L 495.904666 176.797121 
L 496.156165 174.374309 
L 496.407663 173.219084 
L 496.659162 179.565252 
L 496.910661 177.995226 
L 497.665157 170.264171 
L 497.916655 183.235095 
L 498.168154 184.687256 
L 498.419652 198.511304 
L 498.671151 191.038872 
L 499.677146 158.034903 
L 499.928644 163.80989 
L 500.180143 152.603978 
L 500.431641 159.145005 
L 501.186137 165.096814 
L 501.437636 151.255918 
L 501.689135 151.313521 
L 501.940633 135.727979 
L 502.192132 141.00355 
L 502.946628 151.501306 
L 503.198126 152.319749 
L 503.449625 152.079552 
L 503.701124 160.311174 
L 503.952622 150.092136 
L 504.707118 144.713245 
L 504.958617 145.014976 
L 505.210115 144.020421 
L 505.461614 147.241684 
L 505.713113 145.018121 
L 506.467608 158.151183 
L 506.719107 171.144784 
L 507.222104 148.227035 
L 508.479597 155.993314 
L 508.731096 155.760822 
L 508.982595 156.519583 
L 509.234093 167.764959 
L 509.988589 169.916052 
L 510.491586 167.826482 
L 510.743085 155.93323 
L 510.994584 163.111885 
L 511.74908 178.146024 
L 512.000578 171.273846 
L 512.252077 169.75128 
L 512.503575 172.656988 
L 512.755074 164.572115 
L 513.50957 162.996121 
L 514.012567 166.851367 
L 514.264066 173.156633 
L 514.515564 167.55582 
L 515.27006 158.621254 
L 515.521559 157.50994 
L 515.773058 163.993363 
L 516.024556 164.927124 
L 516.276055 163.645313 
L 517.030551 166.914796 
L 517.282049 173.754193 
L 517.533548 176.338262 
L 517.785047 173.079792 
L 518.036545 177.517739 
L 518.791041 180.442864 
L 519.04254 182.527736 
L 519.545537 180.723968 
L 519.797036 174.296709 
L 520.551531 173.013794 
L 521.054529 143.784492 
L 521.306027 146.477139 
L 521.557526 141.955303 
L 522.312022 142.769874 
L 522.56352 143.305584 
L 522.815019 138.490216 
L 523.318016 141.087006 
L 524.072512 144.077767 
L 524.324011 148.603744 
L 524.575509 148.263442 
L 524.827008 145.853071 
L 525.078507 146.035048 
L 525.833003 146.145071 
L 526.336 156.515073 
L 526.838997 167.336798 
L 527.593493 168.453956 
L 527.844992 169.79612 
L 528.09649 173.870901 
L 528.347989 171.190392 
L 528.599487 177.435823 
L 529.353983 172.244577 
L 529.856981 164.413778 
L 530.359978 149.424669 
L 531.114474 148.304867 
L 531.365972 142.150219 
L 531.617471 141.514831 
L 531.86897 140.575753 
L 532.120468 140.566871 
L 532.874964 140.746494 
L 533.126463 139.807484 
L 533.377961 144.096425 
L 533.62946 145.506978 
L 533.880959 147.855855 
L 534.886953 141.253765 
L 535.138452 149.03692 
L 535.38995 148.219375 
L 535.641449 141.900625 
L 536.395945 143.598714 
L 536.647443 138.573618 
L 536.898942 136.411749 
L 537.150441 137.817639 
L 537.401939 137.76551 
L 538.156435 137.305808 
L 538.407934 142.17237 
L 538.659432 138.603816 
L 538.910931 137.907374 
L 539.16243 148.938369 
L 539.916926 148.879305 
L 540.168424 152.499536 
L 540.419923 159.082641 
L 540.671421 160.597093 
L 540.92292 163.216237 
L 541.677416 163.853874 
L 541.928915 168.737108 
L 542.180413 166.991996 
L 542.431912 169.373354 
L 542.68341 159.548145 
L 543.437906 160.363552 
L 544.192402 170.038896 
L 544.443901 169.5157 
L 545.198397 169.919378 
L 545.701394 172.250176 
L 545.952893 170.561731 
L 546.204391 176.090951 
L 546.958887 174.288831 
L 547.210386 181.050757 
L 547.461884 174.716276 
L 547.713383 165.27635 
L 547.964882 166.736368 
L 548.719377 168.01813 
L 548.970876 165.803957 
L 549.473873 171.932669 
L 550.479868 165.046237 
L 550.731366 155.170069 
L 550.982865 158.328786 
L 551.234364 168.677319 
L 551.485862 172.949494 
L 552.240358 175.170669 
L 552.491857 178.916437 
L 552.743355 170.498815 
L 552.994854 172.25947 
L 553.246353 163.013384 
L 554.252347 173.12209 
L 554.503846 173.363148 
L 554.755344 163.367365 
L 555.006843 162.083071 
L 555.761339 166.42451 
L 556.012838 165.844344 
L 556.264336 172.754569 
L 556.515835 163.670334 
L 556.767333 173.449258 
L 557.521829 183.007864 
L 557.773328 189.166245 
L 558.024827 177.803352 
L 558.276325 187.001463 
L 558.527824 184.500641 
L 559.28232 174.131853 
L 559.785317 164.739709 
L 560.036816 182.764286 
L 560.288314 190.118689 
L 561.04281 175.286321 
L 561.294309 150.96817 
L 561.545807 159.098459 
L 561.797306 135.591997 
L 562.048805 129.278144 
L 562.8033 134.009693 
L 563.306298 141.914036 
L 563.557796 137.45722 
L 563.809295 120.29362 
L 564.563791 127.046645 
L 564.815289 139.731871 
L 565.066788 141.616371 
L 565.318287 155.102786 
L 565.569785 147.536851 
L 566.324281 151.232191 
L 566.57578 160.735665 
L 566.827279 160.562054 
L 567.330276 148.996559 
L 568.084772 150.519565 
L 568.33627 149.351296 
L 568.587769 162.323815 
L 568.839268 158.624652 
L 569.090766 173.264343 
L 569.845262 166.242261 
L 570.096761 162.849942 
L 570.348259 166.964916 
L 570.599758 158.684511 
L 570.851257 173.280753 
L 571.605752 167.13192 
L 571.857251 179.548652 
L 572.10875 165.676589 
L 572.360248 169.482722 
L 572.611747 163.792624 
L 573.366243 164.552655 
L 573.617741 167.024745 
L 573.86924 166.038405 
L 574.120739 175.958366 
L 574.120739 175.958366 
" clip-path="url(#p0ee9e7ddd5)" style="fill: none; stroke: #ff7f0e; stroke-width: 1.5; stroke-linecap: square"/>
   </g>
   <g id="patch_3">
    <path d="M 41.484375 333.36 
L 41.484375 7.2 
" style="fill: none; stroke: #000000; stroke-width: 0.8; stroke-linejoin: miter; stroke-linecap: square"/>
   </g>
   <g id="patch_4">
    <path d="M 599.484375 333.36 
L 599.484375 7.2 
" style="fill: none; stroke: #000000; stroke-width: 0.8; stroke-linejoin: miter; stroke-linecap: square"/>
   </g>
   <g id="patch_5">
    <path d="M 41.484375 333.36 
L 599.484375 333.36 
" style="fill: none; stroke: #000000; stroke-width: 0.8; stroke-linejoin: miter; stroke-linecap: square"/>
   </g>
   <g id="patch_6">
    <path d="M 41.484375 7.2 
L 599.484375 7.2 
" style="fill: none; stroke: #000000; stroke-width: 0.8; stroke-linejoin: miter; stroke-linecap: square"/>
   </g>
  </g>
 </g>
 <defs>
  <clipPath id="p0ee9e7ddd5">
   <rect x="41.484375" y="7.2" width="558" height="326.16"/>
  </clipPath>
 </defs>
</svg>
