<?xml version="1.0" encoding="utf-8" standalone="no"?>
<!DOCTYPE svg PUBLIC "-//W3C//DTD SVG 1.1//EN"
  "http://www.w3.org/Graphics/SVG/1.1/DTD/svg11.dtd">
<svg xmlns:xlink="http://www.w3.org/1999/xlink" width="593.3pt" height="369.850625pt" viewBox="0 0 593.3 369.850625" xmlns="http://www.w3.org/2000/svg" version="1.1">
 <metadata>
  <rdf:RDF xmlns:dc="http://purl.org/dc/elements/1.1/" xmlns:cc="http://creativecommons.org/ns#" xmlns:rdf="http://www.w3.org/1999/02/22-rdf-syntax-ns#">
   <cc:Work>
    <dc:type rdf:resource="http://purl.org/dc/dcmitype/StillImage"/>
    <dc:date>2022-01-28T15:20:54.211292</dc:date>
    <dc:format>image/svg+xml</dc:format>
    <dc:creator>
     <cc:Agent>
      <dc:title>Matplotlib v3.5.1, https://matplotlib.org/</dc:title>
     </cc:Agent>
    </dc:creator>
   </cc:Work>
  </rdf:RDF>
 </metadata>
 <defs>
  <style type="text/css">*{stroke-linejoin: round; stroke-linecap: butt}</style>
 </defs>
 <g id="figure_1">
  <g id="patch_1">
   <path d="M -0 369.850625 
L 593.3 369.850625 
L 593.3 0 
L -0 0 
L -0 369.850625 
z
" style="fill: none"/>
  </g>
  <g id="axes_1">
   <g id="patch_2">
    <path d="M 28.1 333.36 
L 586.1 333.36 
L 586.1 7.2 
L 28.1 7.2 
z
" style="fill: #ffffff"/>
   </g>
   <g id="matplotlib.axis_1">
    <g id="xtick_1">
     <g id="line2d_1">
      <defs>
       <path id="md3985bba47" d="M 0 0 
L 0 3.5 
" style="stroke: #000000; stroke-width: 0.8"/>
      </defs>
      <g>
       <use xlink:href="#md3985bba47" x="36.69767" y="333.36" style="stroke: #000000; stroke-width: 0.8"/>
      </g>
     </g>
     <g id="text_1">
      <!-- 2015 -->
      <g transform="translate(25.575795 347.517813)scale(0.1 -0.1)">
       <defs>
        <path id="ArialMT-32" d="M 3222 541 
L 3222 0 
L 194 0 
Q 188 203 259 391 
Q 375 700 629 1000 
Q 884 1300 1366 1694 
Q 2113 2306 2375 2664 
Q 2638 3022 2638 3341 
Q 2638 3675 2398 3904 
Q 2159 4134 1775 4134 
Q 1369 4134 1125 3890 
Q 881 3647 878 3216 
L 300 3275 
Q 359 3922 746 4261 
Q 1134 4600 1788 4600 
Q 2447 4600 2831 4234 
Q 3216 3869 3216 3328 
Q 3216 3053 3103 2787 
Q 2991 2522 2730 2228 
Q 2469 1934 1863 1422 
Q 1356 997 1212 845 
Q 1069 694 975 541 
L 3222 541 
z
" transform="scale(0.015625)"/>
        <path id="ArialMT-30" d="M 266 2259 
Q 266 3072 433 3567 
Q 600 4063 929 4331 
Q 1259 4600 1759 4600 
Q 2128 4600 2406 4451 
Q 2684 4303 2865 4023 
Q 3047 3744 3150 3342 
Q 3253 2941 3253 2259 
Q 3253 1453 3087 958 
Q 2922 463 2592 192 
Q 2263 -78 1759 -78 
Q 1097 -78 719 397 
Q 266 969 266 2259 
z
M 844 2259 
Q 844 1131 1108 757 
Q 1372 384 1759 384 
Q 2147 384 2411 759 
Q 2675 1134 2675 2259 
Q 2675 3391 2411 3762 
Q 2147 4134 1753 4134 
Q 1366 4134 1134 3806 
Q 844 3388 844 2259 
z
" transform="scale(0.015625)"/>
        <path id="ArialMT-31" d="M 2384 0 
L 1822 0 
L 1822 3584 
Q 1619 3391 1289 3197 
Q 959 3003 697 2906 
L 697 3450 
Q 1169 3672 1522 3987 
Q 1875 4303 2022 4600 
L 2384 4600 
L 2384 0 
z
" transform="scale(0.015625)"/>
        <path id="ArialMT-35" d="M 266 1200 
L 856 1250 
Q 922 819 1161 601 
Q 1400 384 1738 384 
Q 2144 384 2425 690 
Q 2706 997 2706 1503 
Q 2706 1984 2436 2262 
Q 2166 2541 1728 2541 
Q 1456 2541 1237 2417 
Q 1019 2294 894 2097 
L 366 2166 
L 809 4519 
L 3088 4519 
L 3088 3981 
L 1259 3981 
L 1013 2750 
Q 1425 3038 1878 3038 
Q 2478 3038 2890 2622 
Q 3303 2206 3303 1553 
Q 3303 931 2941 478 
Q 2500 -78 1738 -78 
Q 1113 -78 717 272 
Q 322 622 266 1200 
z
" transform="scale(0.015625)"/>
       </defs>
       <use xlink:href="#ArialMT-32"/>
       <use xlink:href="#ArialMT-30" x="55.615234"/>
       <use xlink:href="#ArialMT-31" x="111.230469"/>
       <use xlink:href="#ArialMT-35" x="166.845703"/>
      </g>
     </g>
    </g>
    <g id="xtick_2">
     <g id="line2d_2">
      <g>
       <use xlink:href="#md3985bba47" x="111.326668" y="333.36" style="stroke: #000000; stroke-width: 0.8"/>
      </g>
     </g>
     <g id="text_2">
      <!-- 2016 -->
      <g transform="translate(100.204793 347.517813)scale(0.1 -0.1)">
       <defs>
        <path id="ArialMT-36" d="M 3184 3459 
L 2625 3416 
Q 2550 3747 2413 3897 
Q 2184 4138 1850 4138 
Q 1581 4138 1378 3988 
Q 1113 3794 959 3422 
Q 806 3050 800 2363 
Q 1003 2672 1297 2822 
Q 1591 2972 1913 2972 
Q 2475 2972 2870 2558 
Q 3266 2144 3266 1488 
Q 3266 1056 3080 686 
Q 2894 316 2569 119 
Q 2244 -78 1831 -78 
Q 1128 -78 684 439 
Q 241 956 241 2144 
Q 241 3472 731 4075 
Q 1159 4600 1884 4600 
Q 2425 4600 2770 4297 
Q 3116 3994 3184 3459 
z
M 888 1484 
Q 888 1194 1011 928 
Q 1134 663 1356 523 
Q 1578 384 1822 384 
Q 2178 384 2434 671 
Q 2691 959 2691 1453 
Q 2691 1928 2437 2201 
Q 2184 2475 1800 2475 
Q 1419 2475 1153 2201 
Q 888 1928 888 1484 
z
" transform="scale(0.015625)"/>
       </defs>
       <use xlink:href="#ArialMT-32"/>
       <use xlink:href="#ArialMT-30" x="55.615234"/>
       <use xlink:href="#ArialMT-31" x="111.230469"/>
       <use xlink:href="#ArialMT-36" x="166.845703"/>
      </g>
     </g>
    </g>
    <g id="xtick_3">
     <g id="line2d_3">
      <g>
       <use xlink:href="#md3985bba47" x="186.16013" y="333.36" style="stroke: #000000; stroke-width: 0.8"/>
      </g>
     </g>
     <g id="text_3">
      <!-- 2017 -->
      <g transform="translate(175.038255 347.517813)scale(0.1 -0.1)">
       <defs>
        <path id="ArialMT-37" d="M 303 3981 
L 303 4522 
L 3269 4522 
L 3269 4084 
Q 2831 3619 2401 2847 
Q 1972 2075 1738 1259 
Q 1569 684 1522 0 
L 944 0 
Q 953 541 1156 1306 
Q 1359 2072 1739 2783 
Q 2119 3494 2547 3981 
L 303 3981 
z
" transform="scale(0.015625)"/>
       </defs>
       <use xlink:href="#ArialMT-32"/>
       <use xlink:href="#ArialMT-30" x="55.615234"/>
       <use xlink:href="#ArialMT-31" x="111.230469"/>
       <use xlink:href="#ArialMT-37" x="166.845703"/>
      </g>
     </g>
    </g>
    <g id="xtick_4">
     <g id="line2d_4">
      <g>
       <use xlink:href="#md3985bba47" x="260.789128" y="333.36" style="stroke: #000000; stroke-width: 0.8"/>
      </g>
     </g>
     <g id="text_4">
      <!-- 2018 -->
      <g transform="translate(249.667253 347.517813)scale(0.1 -0.1)">
       <defs>
        <path id="ArialMT-38" d="M 1131 2484 
Q 781 2613 612 2850 
Q 444 3088 444 3419 
Q 444 3919 803 4259 
Q 1163 4600 1759 4600 
Q 2359 4600 2725 4251 
Q 3091 3903 3091 3403 
Q 3091 3084 2923 2848 
Q 2756 2613 2416 2484 
Q 2838 2347 3058 2040 
Q 3278 1734 3278 1309 
Q 3278 722 2862 322 
Q 2447 -78 1769 -78 
Q 1091 -78 675 323 
Q 259 725 259 1325 
Q 259 1772 486 2073 
Q 713 2375 1131 2484 
z
M 1019 3438 
Q 1019 3113 1228 2906 
Q 1438 2700 1772 2700 
Q 2097 2700 2305 2904 
Q 2513 3109 2513 3406 
Q 2513 3716 2298 3927 
Q 2084 4138 1766 4138 
Q 1444 4138 1231 3931 
Q 1019 3725 1019 3438 
z
M 838 1322 
Q 838 1081 952 856 
Q 1066 631 1291 507 
Q 1516 384 1775 384 
Q 2178 384 2440 643 
Q 2703 903 2703 1303 
Q 2703 1709 2433 1975 
Q 2163 2241 1756 2241 
Q 1359 2241 1098 1978 
Q 838 1716 838 1322 
z
" transform="scale(0.015625)"/>
       </defs>
       <use xlink:href="#ArialMT-32"/>
       <use xlink:href="#ArialMT-30" x="55.615234"/>
       <use xlink:href="#ArialMT-31" x="111.230469"/>
       <use xlink:href="#ArialMT-38" x="166.845703"/>
      </g>
     </g>
    </g>
    <g id="xtick_5">
     <g id="line2d_5">
      <g>
       <use xlink:href="#md3985bba47" x="335.418127" y="333.36" style="stroke: #000000; stroke-width: 0.8"/>
      </g>
     </g>
     <g id="text_5">
      <!-- 2019 -->
      <g transform="translate(324.296252 347.517813)scale(0.1 -0.1)">
       <defs>
        <path id="ArialMT-39" d="M 350 1059 
L 891 1109 
Q 959 728 1153 556 
Q 1347 384 1650 384 
Q 1909 384 2104 503 
Q 2300 622 2425 820 
Q 2550 1019 2634 1356 
Q 2719 1694 2719 2044 
Q 2719 2081 2716 2156 
Q 2547 1888 2255 1720 
Q 1963 1553 1622 1553 
Q 1053 1553 659 1965 
Q 266 2378 266 3053 
Q 266 3750 677 4175 
Q 1088 4600 1706 4600 
Q 2153 4600 2523 4359 
Q 2894 4119 3086 3673 
Q 3278 3228 3278 2384 
Q 3278 1506 3087 986 
Q 2897 466 2520 194 
Q 2144 -78 1638 -78 
Q 1100 -78 759 220 
Q 419 519 350 1059 
z
M 2653 3081 
Q 2653 3566 2395 3850 
Q 2138 4134 1775 4134 
Q 1400 4134 1122 3828 
Q 844 3522 844 3034 
Q 844 2597 1108 2323 
Q 1372 2050 1759 2050 
Q 2150 2050 2401 2323 
Q 2653 2597 2653 3081 
z
" transform="scale(0.015625)"/>
       </defs>
       <use xlink:href="#ArialMT-32"/>
       <use xlink:href="#ArialMT-30" x="55.615234"/>
       <use xlink:href="#ArialMT-31" x="111.230469"/>
       <use xlink:href="#ArialMT-39" x="166.845703"/>
      </g>
     </g>
    </g>
    <g id="xtick_6">
     <g id="line2d_6">
      <g>
       <use xlink:href="#md3985bba47" x="410.047125" y="333.36" style="stroke: #000000; stroke-width: 0.8"/>
      </g>
     </g>
     <g id="text_6">
      <!-- 2020 -->
      <g transform="translate(398.92525 347.517813)scale(0.1 -0.1)">
       <use xlink:href="#ArialMT-32"/>
       <use xlink:href="#ArialMT-30" x="55.615234"/>
       <use xlink:href="#ArialMT-32" x="111.230469"/>
       <use xlink:href="#ArialMT-30" x="166.845703"/>
      </g>
     </g>
    </g>
    <g id="xtick_7">
     <g id="line2d_7">
      <g>
       <use xlink:href="#md3985bba47" x="484.880587" y="333.36" style="stroke: #000000; stroke-width: 0.8"/>
      </g>
     </g>
     <g id="text_7">
      <!-- 2021 -->
      <g transform="translate(473.758712 347.517813)scale(0.1 -0.1)">
       <use xlink:href="#ArialMT-32"/>
       <use xlink:href="#ArialMT-30" x="55.615234"/>
       <use xlink:href="#ArialMT-32" x="111.230469"/>
       <use xlink:href="#ArialMT-31" x="166.845703"/>
      </g>
     </g>
    </g>
    <g id="xtick_8">
     <g id="line2d_8">
      <g>
       <use xlink:href="#md3985bba47" x="559.509586" y="333.36" style="stroke: #000000; stroke-width: 0.8"/>
      </g>
     </g>
     <g id="text_8">
      <!-- 2022 -->
      <g transform="translate(548.387711 347.517813)scale(0.1 -0.1)">
       <use xlink:href="#ArialMT-32"/>
       <use xlink:href="#ArialMT-30" x="55.615234"/>
       <use xlink:href="#ArialMT-32" x="111.230469"/>
       <use xlink:href="#ArialMT-32" x="166.845703"/>
      </g>
     </g>
    </g>
    <g id="text_9">
     <!-- rate_dt -->
     <g transform="translate(291.535156 360.663125)scale(0.1 -0.1)">
      <defs>
       <path id="ArialMT-72" d="M 416 0 
L 416 3319 
L 922 3319 
L 922 2816 
Q 1116 3169 1280 3281 
Q 1444 3394 1641 3394 
Q 1925 3394 2219 3213 
L 2025 2691 
Q 1819 2813 1613 2813 
Q 1428 2813 1281 2702 
Q 1134 2591 1072 2394 
Q 978 2094 978 1738 
L 978 0 
L 416 0 
z
" transform="scale(0.015625)"/>
       <path id="ArialMT-61" d="M 2588 409 
Q 2275 144 1986 34 
Q 1697 -75 1366 -75 
Q 819 -75 525 192 
Q 231 459 231 875 
Q 231 1119 342 1320 
Q 453 1522 633 1644 
Q 813 1766 1038 1828 
Q 1203 1872 1538 1913 
Q 2219 1994 2541 2106 
Q 2544 2222 2544 2253 
Q 2544 2597 2384 2738 
Q 2169 2928 1744 2928 
Q 1347 2928 1158 2789 
Q 969 2650 878 2297 
L 328 2372 
Q 403 2725 575 2942 
Q 747 3159 1072 3276 
Q 1397 3394 1825 3394 
Q 2250 3394 2515 3294 
Q 2781 3194 2906 3042 
Q 3031 2891 3081 2659 
Q 3109 2516 3109 2141 
L 3109 1391 
Q 3109 606 3145 398 
Q 3181 191 3288 0 
L 2700 0 
Q 2613 175 2588 409 
z
M 2541 1666 
Q 2234 1541 1622 1453 
Q 1275 1403 1131 1340 
Q 988 1278 909 1158 
Q 831 1038 831 891 
Q 831 666 1001 516 
Q 1172 366 1500 366 
Q 1825 366 2078 508 
Q 2331 650 2450 897 
Q 2541 1088 2541 1459 
L 2541 1666 
z
" transform="scale(0.015625)"/>
       <path id="ArialMT-74" d="M 1650 503 
L 1731 6 
Q 1494 -44 1306 -44 
Q 1000 -44 831 53 
Q 663 150 594 308 
Q 525 466 525 972 
L 525 2881 
L 113 2881 
L 113 3319 
L 525 3319 
L 525 4141 
L 1084 4478 
L 1084 3319 
L 1650 3319 
L 1650 2881 
L 1084 2881 
L 1084 941 
Q 1084 700 1114 631 
Q 1144 563 1211 522 
Q 1278 481 1403 481 
Q 1497 481 1650 503 
z
" transform="scale(0.015625)"/>
       <path id="ArialMT-65" d="M 2694 1069 
L 3275 997 
Q 3138 488 2766 206 
Q 2394 -75 1816 -75 
Q 1088 -75 661 373 
Q 234 822 234 1631 
Q 234 2469 665 2931 
Q 1097 3394 1784 3394 
Q 2450 3394 2872 2941 
Q 3294 2488 3294 1666 
Q 3294 1616 3291 1516 
L 816 1516 
Q 847 969 1125 678 
Q 1403 388 1819 388 
Q 2128 388 2347 550 
Q 2566 713 2694 1069 
z
M 847 1978 
L 2700 1978 
Q 2663 2397 2488 2606 
Q 2219 2931 1791 2931 
Q 1403 2931 1139 2672 
Q 875 2413 847 1978 
z
" transform="scale(0.015625)"/>
       <path id="ArialMT-5f" d="M -97 -1272 
L -97 -866 
L 3631 -866 
L 3631 -1272 
L -97 -1272 
z
" transform="scale(0.015625)"/>
       <path id="ArialMT-64" d="M 2575 0 
L 2575 419 
Q 2259 -75 1647 -75 
Q 1250 -75 917 144 
Q 584 363 401 755 
Q 219 1147 219 1656 
Q 219 2153 384 2558 
Q 550 2963 881 3178 
Q 1213 3394 1622 3394 
Q 1922 3394 2156 3267 
Q 2391 3141 2538 2938 
L 2538 4581 
L 3097 4581 
L 3097 0 
L 2575 0 
z
M 797 1656 
Q 797 1019 1065 703 
Q 1334 388 1700 388 
Q 2069 388 2326 689 
Q 2584 991 2584 1609 
Q 2584 2291 2321 2609 
Q 2059 2928 1675 2928 
Q 1300 2928 1048 2622 
Q 797 2316 797 1656 
z
" transform="scale(0.015625)"/>
      </defs>
      <use xlink:href="#ArialMT-72"/>
      <use xlink:href="#ArialMT-61" x="33.300781"/>
      <use xlink:href="#ArialMT-74" x="88.916016"/>
      <use xlink:href="#ArialMT-65" x="116.699219"/>
      <use xlink:href="#ArialMT-5f" x="172.314453"/>
      <use xlink:href="#ArialMT-64" x="227.929688"/>
      <use xlink:href="#ArialMT-74" x="283.544922"/>
     </g>
    </g>
   </g>
   <g id="matplotlib.axis_2">
    <g id="ytick_1">
     <g id="line2d_9">
      <defs>
       <path id="ma16fc6ed91" d="M 0 0 
L -3.5 0 
" style="stroke: #000000; stroke-width: 0.8"/>
      </defs>
      <g>
       <use xlink:href="#ma16fc6ed91" x="28.1" y="318.534545" style="stroke: #000000; stroke-width: 0.8"/>
      </g>
     </g>
     <g id="text_10">
      <!-- 0.0 -->
      <g transform="translate(7.2 322.113452)scale(0.1 -0.1)">
       <defs>
        <path id="ArialMT-2e" d="M 581 0 
L 581 641 
L 1222 641 
L 1222 0 
L 581 0 
z
" transform="scale(0.015625)"/>
       </defs>
       <use xlink:href="#ArialMT-30"/>
       <use xlink:href="#ArialMT-2e" x="55.615234"/>
       <use xlink:href="#ArialMT-30" x="83.398438"/>
      </g>
     </g>
    </g>
    <g id="ytick_2">
     <g id="line2d_10">
      <g>
       <use xlink:href="#ma16fc6ed91" x="28.1" y="259.232727" style="stroke: #000000; stroke-width: 0.8"/>
      </g>
     </g>
     <g id="text_11">
      <!-- 0.2 -->
      <g transform="translate(7.2 262.811634)scale(0.1 -0.1)">
       <use xlink:href="#ArialMT-30"/>
       <use xlink:href="#ArialMT-2e" x="55.615234"/>
       <use xlink:href="#ArialMT-32" x="83.398438"/>
      </g>
     </g>
    </g>
    <g id="ytick_3">
     <g id="line2d_11">
      <g>
       <use xlink:href="#ma16fc6ed91" x="28.1" y="199.930909" style="stroke: #000000; stroke-width: 0.8"/>
      </g>
     </g>
     <g id="text_12">
      <!-- 0.4 -->
      <g transform="translate(7.2 203.509815)scale(0.1 -0.1)">
       <defs>
        <path id="ArialMT-34" d="M 2069 0 
L 2069 1097 
L 81 1097 
L 81 1613 
L 2172 4581 
L 2631 4581 
L 2631 1613 
L 3250 1613 
L 3250 1097 
L 2631 1097 
L 2631 0 
L 2069 0 
z
M 2069 1613 
L 2069 3678 
L 634 1613 
L 2069 1613 
z
" transform="scale(0.015625)"/>
       </defs>
       <use xlink:href="#ArialMT-30"/>
       <use xlink:href="#ArialMT-2e" x="55.615234"/>
       <use xlink:href="#ArialMT-34" x="83.398438"/>
      </g>
     </g>
    </g>
    <g id="ytick_4">
     <g id="line2d_12">
      <g>
       <use xlink:href="#ma16fc6ed91" x="28.1" y="140.629091" style="stroke: #000000; stroke-width: 0.8"/>
      </g>
     </g>
     <g id="text_13">
      <!-- 0.6 -->
      <g transform="translate(7.2 144.207997)scale(0.1 -0.1)">
       <use xlink:href="#ArialMT-30"/>
       <use xlink:href="#ArialMT-2e" x="55.615234"/>
       <use xlink:href="#ArialMT-36" x="83.398438"/>
      </g>
     </g>
    </g>
    <g id="ytick_5">
     <g id="line2d_13">
      <g>
       <use xlink:href="#ma16fc6ed91" x="28.1" y="81.327273" style="stroke: #000000; stroke-width: 0.8"/>
      </g>
     </g>
     <g id="text_14">
      <!-- 0.8 -->
      <g transform="translate(7.2 84.906179)scale(0.1 -0.1)">
       <use xlink:href="#ArialMT-30"/>
       <use xlink:href="#ArialMT-2e" x="55.615234"/>
       <use xlink:href="#ArialMT-38" x="83.398438"/>
      </g>
     </g>
    </g>
    <g id="ytick_6">
     <g id="line2d_14">
      <g>
       <use xlink:href="#ma16fc6ed91" x="28.1" y="22.025455" style="stroke: #000000; stroke-width: 0.8"/>
      </g>
     </g>
     <g id="text_15">
      <!-- 1.0 -->
      <g transform="translate(7.2 25.604361)scale(0.1 -0.1)">
       <use xlink:href="#ArialMT-31"/>
       <use xlink:href="#ArialMT-2e" x="55.615234"/>
       <use xlink:href="#ArialMT-30" x="83.398438"/>
      </g>
     </g>
    </g>
   </g>
   <g id="line2d_15">
    <path d="M 53.463636 171.080215 
L 53.668099 172.407402 
L 54.894877 163.800207 
L 55.09934 158.354838 
L 55.303803 163.605032 
L 56.326119 164.698009 
L 56.530582 159.057467 
L 56.735045 156.559233 
L 56.939508 155.856605 
L 57.552897 152.577673 
L 57.75736 149.630539 
L 57.961823 141.921146 
L 58.166286 140.867204 
L 58.370749 137.920069 
L 58.984138 139.735192 
L 59.188601 141.823559 
L 59.393064 151.640836 
L 59.597527 155.193012 
L 60.415379 155.407704 
L 60.619842 151.99215 
L 61.028768 192.490857 
L 61.84662 202.835106 
L 62.051083 209.939457 
L 62.255546 241.557725 
L 62.460009 245.227006 
L 62.664472 234.687583 
L 63.277861 242.182283 
L 63.482324 259.611366 
L 63.686787 251.277415 
L 63.89125 262.890297 
L 64.095713 249.852641 
L 64.709102 254.380689 
L 64.913565 246.788402 
L 65.118028 248.33028 
L 65.322491 252.07763 
L 65.526954 246.456605 
L 66.140343 246.456605 
L 66.958195 229.378837 
L 67.571584 227.29047 
L 67.98051 289.277889 
L 68.184973 289.102232 
L 68.389436 289.980517 
L 69.002825 297.143421 
L 69.411751 318.534545 
L 69.616214 302.666859 
L 69.820677 297.924119 
L 70.434066 299.329375 
L 70.638529 304.657639 
L 71.047455 292.322611 
L 71.251918 285.471986 
L 71.865307 305.008953 
L 72.06977 303.896458 
L 72.274233 298.704817 
L 72.478696 302.315545 
L 72.683159 309.810246 
L 73.296548 299.52455 
L 73.501011 291.288186 
L 73.909937 310.259147 
L 74.1144 304.774744 
L 74.727789 300.344283 
L 74.932252 278.367635 
L 75.136715 279.265437 
L 75.341178 283.403137 
L 75.545641 307.312012 
L 76.15903 306.960698 
L 76.363493 301.183533 
L 76.567956 285.237777 
L 76.772419 289.180302 
L 76.976882 275.869401 
L 77.590272 266.520543 
L 77.794735 273.644412 
L 77.999198 269.877544 
L 78.203661 268.804084 
L 78.408124 257.952383 
L 79.021513 255.180905 
L 79.430439 262.578018 
L 79.634902 254.614899 
L 79.839365 252.604601 
L 80.452754 248.25221 
L 80.657217 251.023688 
L 80.86168 269.545748 
L 81.270606 254.244067 
L 81.883995 257.327824 
L 82.088458 245.890599 
L 82.292921 242.845877 
L 82.497384 249.676984 
L 82.701847 250.262508 
L 83.315236 247.920414 
L 83.519699 253.092538 
L 83.724162 253.970823 
L 83.928625 242.533598 
L 84.133088 246.905506 
L 84.746477 244.153546 
L 84.95094 272.35626 
L 85.155403 266.579095 
L 85.359866 269.057811 
L 85.564329 265.661775 
L 86.177718 267.379311 
L 86.382181 280.338897 
L 86.586644 281.666084 
L 86.99557 258.459836 
L 87.608959 256.527609 
L 87.813422 257.796243 
L 88.017885 262.851262 
L 88.426811 253.717096 
L 89.0402 249.150013 
L 89.244663 262.695123 
L 89.653589 272.102533 
L 89.858052 248.954838 
L 90.471441 254.536829 
L 90.675904 242.396975 
L 90.880367 243.841267 
L 91.08483 238.005549 
L 91.289293 249.462292 
L 91.902682 245.57832 
L 92.311608 241.206411 
L 92.516071 234.531443 
L 92.720534 223.816364 
L 93.333923 232.423559 
L 93.538386 244.992796 
L 93.742849 243.060569 
L 93.947312 237.634718 
L 94.151775 240.464748 
L 94.765164 236.795467 
L 94.969627 237.69327 
L 95.17409 230.003395 
L 95.378553 230.979268 
L 95.583016 230.19857 
L 96.196405 232.931012 
L 96.400868 244.407273 
L 96.605331 235.585386 
L 96.809794 221.864619 
L 97.014257 220.908264 
L 97.627646 220.186118 
L 97.832109 212.066859 
L 98.036572 212.047342 
L 98.241036 223.328427 
L 99.058888 233.184739 
L 99.263351 234.121577 
L 99.467814 232.755355 
L 99.672277 237.673753 
L 99.87674 253.30723 
L 100.490129 251.667764 
L 100.694592 241.928557 
L 100.899055 238.825282 
L 101.103518 238.630108 
L 101.307981 228.910418 
L 101.92137 226.919638 
L 102.125833 225.846178 
L 102.330296 223.269875 
L 102.739222 215.599517 
L 103.352611 226.314597 
L 103.761537 212.82804 
L 103.966 214.604128 
L 104.170463 208.046265 
L 104.783852 212.984179 
L 104.988315 211.83265 
L 105.192778 211.461818 
L 105.397241 238.161689 
L 105.601704 249.833124 
L 106.419556 230.745058 
L 106.624019 233.965437 
L 107.032945 224.22623 
L 107.646334 231.19396 
L 107.850797 245.734459 
L 108.05526 247.666687 
L 108.464186 227.797923 
L 109.077575 226.919638 
L 109.486501 240.054882 
L 109.690964 240.054882 
L 110.508816 234.882757 
L 110.713279 242.826359 
L 111.940057 230.745058 
L 112.14452 229.398354 
L 112.348983 223.777329 
L 112.553446 229.769186 
L 112.757909 223.016148 
L 113.575761 231.701413 
L 113.780224 223.952986 
L 113.984687 222.333037 
L 114.18915 218.039199 
L 114.802539 217.922094 
L 115.007002 220.069013 
L 115.415928 200.414942 
L 115.620391 207.987712 
L 116.23378 204.494089 
L 116.438243 199.848936 
L 116.642706 200.063628 
L 116.847169 192.412788 
L 117.051632 179.92162 
L 117.665021 182.166127 
L 118.073947 174.476252 
L 118.27841 177.969875 
L 118.482873 177.286764 
L 119.096263 169.323645 
L 119.300726 172.563542 
L 119.505189 170.592279 
L 119.709652 164.717527 
L 119.914115 169.987238 
L 120.527504 168.952813 
L 120.731967 173.968798 
L 120.93643 173.480862 
L 121.140893 163.761172 
L 121.345356 159.330711 
L 121.958745 156.149367 
L 122.163208 161.536183 
L 122.367671 151.113865 
L 122.572134 153.397406 
L 122.776597 150.508824 
L 123.389986 144.751176 
L 123.798912 158.88181 
L 124.003375 159.603955 
L 124.207838 162.980474 
L 124.821227 163.448893 
L 125.02569 152.323947 
L 125.230153 161.419078 
L 125.434616 155.056389 
L 125.639079 164.327178 
L 126.252468 163.175648 
L 126.456931 171.646221 
L 127.07032 154.158587 
L 127.683709 156.051779 
L 127.888172 153.690168 
L 128.092635 153.846308 
L 128.297098 147.991073 
L 129.319413 142.331012 
L 129.523876 144.399862 
L 129.728339 144.26324 
L 129.932802 138.544627 
L 130.546191 138.564145 
L 130.750654 131.654968 
L 130.955117 136.007359 
L 131.15958 133.392021 
L 131.364043 134.836312 
L 131.977432 140.35975 
L 132.181895 143.365437 
L 132.386358 141.901629 
L 132.590821 143.287368 
L 132.795284 138.856907 
L 133.408673 141.823559 
L 133.613136 146.878578 
L 133.817599 142.604257 
L 134.022062 151.933598 
L 134.226525 156.012745 
L 134.839914 160.404171 
L 135.044377 165.166428 
L 135.24884 165.927609 
L 135.453303 161.867979 
L 135.657766 169.635924 
L 136.271155 166.883964 
L 136.475618 154.548936 
L 136.680081 156.344541 
L 136.884544 153.709685 
L 137.089007 146.605334 
L 137.702396 141.804041 
L 137.906859 137.724894 
L 138.111322 136.300121 
L 138.315785 144.068065 
L 138.520248 139.930366 
L 139.133637 139.403395 
L 139.3381 139.910849 
L 139.542563 147.464102 
L 139.747026 145.375735 
L 140.564879 147.132305 
L 140.973805 142.877501 
L 141.178268 142.897019 
L 141.382731 138.642215 
L 141.99612 145.414769 
L 142.200583 144.965868 
L 142.405046 138.993529 
L 142.609509 137.666342 
L 142.813972 130.191159 
L 143.427361 131.55738 
L 143.836287 127.478234 
L 144.04075 121.388789 
L 144.245213 120.31533 
L 144.858602 125.155657 
L 145.267528 122.0719 
L 145.471991 122.130452 
L 145.676454 128.746868 
L 146.289843 127.692925 
L 146.698769 128.239414 
L 146.903232 129.586118 
L 147.107695 114.869961 
L 147.721084 107.76561 
L 148.13001 97.304257 
L 148.334473 97.1286 
L 148.538936 91.800336 
L 149.152325 91.488057 
L 149.356788 85.691374 
L 149.561251 84.208048 
L 149.765714 88.32623 
L 149.970177 82.470995 
L 150.583566 81.729332 
L 150.788029 90.843981 
L 150.992492 86.550142 
L 151.196955 96.074657 
L 151.401418 99.002275 
L 152.014807 94.474227 
L 152.21927 95.938035 
L 152.628196 101.071125 
L 153.446048 94.2205 
L 153.650511 97.694606 
L 154.059437 87.623602 
L 154.2639 82.275821 
L 154.877289 80.772977 
L 155.081752 91.858888 
L 155.286215 92.561517 
L 155.490678 84.227566 
L 155.695141 86.920974 
L 156.30853 87.838294 
L 156.717456 80.616838 
L 156.921919 80.909599 
L 157.126382 80.089866 
L 157.739771 86.608695 
L 157.944234 91.995511 
L 158.35316 85.925584 
L 158.557623 91.097708 
L 159.375475 84.090944 
L 159.784401 89.360655 
L 159.988864 84.754537 
L 160.602253 87.428427 
L 160.806716 85.027781 
L 161.01118 85.515717 
L 161.215643 92.268755 
L 161.420106 94.786506 
L 162.033495 90.551219 
L 162.237958 81.163326 
L 162.442421 78.021017 
L 162.646884 83.759147 
L 162.851347 99.607316 
L 163.669199 104.174399 
L 163.873662 100.134287 
L 164.078125 104.271986 
L 164.282588 101.207747 
L 164.895977 100.017182 
L 165.10044 94.571814 
L 165.304903 98.182542 
L 165.509366 85.867031 
L 165.713829 85.730409 
L 166.327218 79.738552 
L 166.531681 74.761603 
L 166.736144 75.600853 
L 166.940607 81.104774 
L 167.14507 78.138121 
L 167.962922 86.120758 
L 168.167385 99.470694 
L 168.371848 98.787583 
L 168.576311 101.754235 
L 169.1897 108.194994 
L 169.394163 105.267376 
L 169.598626 109.853977 
L 169.803089 102.71059 
L 170.007552 106.653115 
L 170.620941 107.882714 
L 171.23433 99.939112 
L 171.438793 98.8071 
L 172.052182 99.295037 
L 172.256645 101.012572 
L 172.665571 124.726273 
L 172.870034 124.726273 
L 173.483423 125.585041 
L 173.687886 129.527566 
L 173.892349 122.442732 
L 174.096812 126.89271 
L 174.301275 123.633296 
L 175.119127 125.038552 
L 175.32359 131.401241 
L 175.528053 156.598268 
L 175.732516 158.198699 
L 176.345905 168.328255 
L 176.550368 152.968022 
L 176.754831 157.086204 
L 176.959294 154.958802 
L 177.163757 151.562766 
L 177.777146 151.99215 
L 177.981609 146.859061 
L 178.186072 154.724593 
L 178.390535 147.288445 
L 178.594998 146.546782 
L 179.208387 147.620241 
L 179.41285 143.638682 
L 179.617313 146.898096 
L 179.821776 158.823257 
L 180.026239 151.953115 
L 180.639628 162.62916 
L 180.844091 160.326101 
L 181.048554 155.954192 
L 181.253017 165.342085 
L 181.45748 158.628083 
L 182.07087 168.835709 
L 182.479796 152.206842 
L 182.684259 160.189479 
L 182.888722 152.499604 
L 183.706574 145.200078 
L 183.911037 143.170263 
L 184.1155 145.297665 
L 184.319963 138.895941 
L 185.137815 135.812184 
L 185.342278 136.475778 
L 185.546741 131.069444 
L 185.751204 135.090039 
L 186.364593 131.733037 
L 186.569056 148.596114 
L 186.773519 147.991073 
L 186.977982 150.567376 
L 188.000297 148.947428 
L 188.20476 143.541094 
L 188.409223 143.814339 
L 188.613686 149.571986 
L 189.227075 146.644369 
L 189.431538 144.829246 
L 189.636001 147.464102 
L 190.044927 163.253718 
L 190.658316 158.706153 
L 190.862779 159.682025 
L 191.271705 178.613951 
L 191.476168 174.866601 
L 192.089557 177.540491 
L 192.29402 172.056088 
L 192.498483 178.184567 
L 192.702946 169.460267 
L 192.907409 169.401715 
L 193.520798 170.12386 
L 193.725261 167.040103 
L 193.929724 157.88642 
L 194.134187 154.080517 
L 194.33865 161.63377 
L 194.952039 159.311193 
L 195.156502 163.175648 
L 195.360965 162.160741 
L 195.769891 155.017355 
L 196.38328 155.798053 
L 196.587743 155.856605 
L 197.201132 133.489608 
L 197.814521 132.474701 
L 198.018984 131.674485 
L 198.223447 142.897019 
L 198.42791 145.922223 
L 198.632373 151.933598 
L 199.245762 152.402016 
L 199.450225 150.664963 
L 200.063614 168.777156 
L 200.677003 171.216838 
L 200.881466 170.338552 
L 201.085929 164.034416 
L 201.290392 166.903481 
L 201.494855 166.766859 
L 202.108244 167.332865 
L 202.312707 167.976941 
L 202.51717 161.750875 
L 202.721634 160.443206 
L 202.926097 160.540793 
L 203.539486 158.6476 
L 203.743949 159.56492 
L 203.948412 153.709685 
L 204.152875 153.104645 
L 204.357338 150.391719 
L 204.970727 146.058845 
L 205.17519 135.851219 
L 205.379653 136.866127 
L 205.788579 130.464403 
L 206.606431 132.728427 
L 207.015357 125.585041 
L 208.037672 126.73657 
L 208.242135 128.903007 
L 208.446598 137.724894 
L 208.651061 138.2909 
L 209.468913 151.035795 
L 209.673376 151.504214 
L 209.877839 144.497449 
L 210.082302 142.643292 
L 210.900154 141.199 
L 211.104617 141.491762 
L 211.513543 152.460569 
L 212.126932 154.919767 
L 212.331395 158.276769 
L 212.535858 153.631616 
L 212.740321 155.97371 
L 212.944784 152.031185 
L 213.558173 153.768238 
L 213.762636 155.193012 
L 214.171562 143.26785 
L 214.376025 145.883188 
L 214.989414 150.255097 
L 215.193877 150.586894 
L 215.39834 150.703998 
L 215.807266 141.472245 
L 216.420655 136.202533 
L 216.625118 135.69508 
L 216.829581 133.001672 
L 217.034044 136.905162 
L 217.238507 131.674485 
L 217.851896 134.758242 
L 218.056359 130.522956 
L 218.260822 129.820327 
L 218.669748 131.63545 
L 219.283137 128.981077 
L 219.4876 129.976467 
L 219.692063 127.380646 
L 219.896526 135.714597 
L 220.100989 132.826015 
L 220.714378 134.153201 
L 220.918841 130.893787 
L 221.123304 131.615933 
L 221.327767 127.868583 
L 221.53223 129.703223 
L 222.145619 127.868583 
L 222.554545 149.396329 
L 222.963471 158.862292 
L 223.576861 159.584438 
L 223.781324 158.80374 
L 223.985787 159.135536 
L 224.19025 172.485472 
L 224.394713 173.012443 
L 225.008102 172.075605 
L 225.212565 172.446437 
L 225.417028 167.254795 
L 225.621491 167.391417 
L 225.825954 164.776079 
L 226.439343 164.932219 
L 226.848269 160.169961 
L 227.052732 161.341008 
L 227.257195 155.349151 
L 227.870584 153.377889 
L 228.075047 162.082671 
L 228.27951 160.599345 
L 228.483973 157.300896 
L 228.688436 160.853072 
L 229.301825 158.784222 
L 229.915214 148.381422 
L 230.119677 150.879655 
L 230.733066 148.92791 
L 230.937529 149.454882 
L 231.141992 143.599647 
L 231.346455 141.921146 
L 231.550918 138.466558 
L 232.164307 142.096803 
L 232.36877 146.17595 
L 232.573233 147.620241 
L 232.777696 145.746566 
L 232.982159 141.608867 
L 233.595548 140.867204 
L 233.800011 142.448117 
L 234.208937 136.768539 
L 234.4134 139.559535 
L 235.026789 137.315028 
L 235.231252 133.079741 
L 235.435715 136.846609 
L 235.640178 134.289823 
L 235.844641 138.642215 
L 236.45803 135.402318 
L 236.866956 132.435666 
L 237.071419 128.239414 
L 237.275882 129.976467 
L 237.889271 129.917915 
L 238.298197 139.871814 
L 238.50266 141.159966 
L 238.707123 145.297665 
L 239.320512 147.444584 
L 239.729438 144.224205 
L 239.933901 146.566299 
L 240.138364 146.33209 
L 240.751753 140.789134 
L 240.956216 140.672029 
L 241.160679 148.732736 
L 241.365142 149.24019 
L 241.569605 147.854451 
L 242.182994 145.434287 
L 242.387457 146.859061 
L 242.59192 144.965868 
L 242.796383 145.824636 
L 243.000846 152.889953 
L 243.614235 145.531874 
L 243.818698 144.829246 
L 244.023161 145.648979 
L 244.227624 143.306885 
L 244.432088 138.2909 
L 245.24994 131.986764 
L 245.454403 135.77315 
L 245.658866 134.855829 
L 245.863329 143.34592 
L 246.476718 140.086506 
L 246.681181 145.805118 
L 246.885644 148.264317 
L 247.29457 135.597492 
L 247.907959 131.889177 
L 248.112422 131.420758 
L 248.316885 131.498828 
L 248.521348 132.767462 
L 248.725811 131.088962 
L 249.3392 127.165954 
L 249.543663 126.97078 
L 249.748126 124.453029 
L 249.952589 133.587195 
L 250.157052 134.69969 
L 250.770441 136.046394 
L 251.179367 130.327781 
L 251.38383 130.483921 
L 251.588293 130.210676 
L 252.201682 128.844455 
L 252.406145 126.287669 
L 252.610608 130.093572 
L 252.815071 129.547083 
L 253.019534 132.025799 
L 253.837386 129.625153 
L 254.041849 135.207143 
L 254.246312 131.86966 
L 254.450775 126.424291 
L 255.064164 126.502361 
L 255.268627 124.648203 
L 255.47309 120.198225 
L 255.677553 120.276295 
L 255.882016 121.252167 
L 256.495405 121.622999 
L 256.699868 124.394477 
L 256.904331 125.272762 
L 257.108794 128.005205 
L 257.313257 124.531099 
L 257.926646 125.409384 
L 258.540035 142.975088 
L 258.744498 141.530797 
L 259.766813 138.212831 
L 260.175739 145.25863 
L 260.993591 147.795898 
L 261.198054 144.321792 
L 261.402517 145.883188 
L 261.60698 144.165653 
L 262.220369 142.916536 
L 262.629295 148.92791 
L 262.833758 157.183791 
L 263.038221 158.120629 
L 263.65161 157.105722 
L 263.856073 154.314726 
L 264.060536 155.427221 
L 264.264999 157.398483 
L 264.469462 158.179181 
L 265.082851 158.432908 
L 265.287314 156.754408 
L 265.696241 167.118173 
L 265.900704 167.957424 
L 266.514093 177.384352 
L 266.923019 174.886118 
L 267.127482 178.555399 
L 267.331945 184.683878 
L 267.945334 181.170737 
L 268.149797 178.418776 
L 268.35426 179.375131 
L 268.558723 188.314123 
L 268.763186 182.82972 
L 269.376575 182.088057 
L 269.581038 182.107574 
L 269.989964 185.288919 
L 270.194427 180.038725 
L 270.807816 183.942215 
L 271.012279 182.009987 
L 271.216742 182.068539 
L 271.421205 180.07776 
L 271.625668 174.066385 
L 272.239057 172.622094 
L 272.44352 173.812658 
L 272.647983 172.836786 
L 272.852446 169.20654 
L 273.056909 168.055011 
L 273.670298 168.621017 
L 273.874761 174.769013 
L 274.283687 170.904558 
L 274.48815 170.631314 
L 275.101539 168.21115 
L 275.306002 168.308738 
L 275.510465 166.571685 
L 275.714928 162.180259 
L 275.919391 161.926532 
L 276.737243 162.824334 
L 276.941706 164.268626 
L 277.146169 154.880732 
L 277.350632 156.344541 
L 277.964021 156.012745 
L 278.372947 150.743033 
L 278.57741 150.07944 
L 279.599725 150.313649 
L 279.804188 149.728126 
L 280.008651 152.889953 
L 280.213114 151.406626 
L 280.826503 151.777458 
L 281.030966 153.494994 
L 281.235429 152.011667 
L 281.644355 153.338854 
L 282.257744 153.651133 
L 282.462207 152.655743 
L 282.66667 152.98754 
L 282.871133 161.126316 
L 283.075596 162.62916 
L 283.688985 165.732434 
L 283.893448 167.723214 
L 284.097911 166.688789 
L 284.506837 159.603955 
L 285.120226 157.73028 
L 285.529152 159.155054 
L 285.733615 154.802663 
L 285.938078 155.114942 
L 286.551468 153.026575 
L 286.755931 157.066687 
L 286.960394 158.179181 
L 287.164857 155.251564 
L 287.36932 156.89103 
L 288.187172 166.356993 
L 288.596098 163.897794 
L 288.800561 162.726747 
L 289.618413 156.930065 
L 290.027339 147.132305 
L 290.231802 139.696157 
L 291.254117 130.191159 
L 291.45858 132.045317 
L 291.663043 135.968324 
L 292.276432 141.316105 
L 292.480895 138.486075 
L 292.889821 151.679871 
L 293.094284 145.590427 
L 293.707673 152.031185 
L 293.912136 151.699388 
L 294.321062 142.740879 
L 294.525525 136.163498 
L 295.138914 135.53894 
L 295.343377 131.030409 
L 295.54784 131.908695 
L 295.752303 126.678018 
L 295.956766 126.931745 
L 296.570155 126.599948 
L 296.774618 127.380646 
L 296.979081 126.229117 
L 297.183544 123.730883 
L 297.388007 123.106325 
L 298.205859 123.028255 
L 298.410322 123.360052 
L 298.614785 124.335924 
L 298.819248 121.408307 
L 299.432637 123.321017 
L 299.6371 124.667721 
L 299.841563 124.784826 
L 300.250489 119.456562 
L 300.863878 123.106325 
L 301.272804 119.280905 
L 301.477267 119.105248 
L 301.68173 122.189005 
L 302.499582 127.985687 
L 302.704045 126.912227 
L 302.908508 126.638983 
L 303.72636 133.099259 
L 303.930823 132.747945 
L 304.135286 137.471168 
L 304.339749 136.749022 
L 304.544212 130.971857 
L 305.157601 128.454106 
L 305.362064 130.386333 
L 305.566527 128.454106 
L 305.77099 125.428901 
L 305.975453 119.964016 
L 306.588842 119.905463 
L 306.997768 117.348677 
L 307.202232 117.895166 
L 307.406695 116.509427 
L 308.020084 116.509427 
L 308.224547 119.827393 
L 308.42901 121.252167 
L 308.633473 121.876726 
L 309.655788 126.951262 
L 309.860251 130.093572 
L 310.064714 124.316407 
L 310.269177 122.637906 
L 310.882566 122.110935 
L 311.087029 123.98461 
L 311.291492 128.707833 
L 311.495955 126.033942 
L 311.700418 128.200379 
L 312.313807 128.64928 
L 312.51827 132.025799 
L 312.722733 128.824938 
L 312.927196 132.103869 
L 313.131659 133.352986 
L 313.745048 135.480388 
L 314.153974 139.676639 
L 314.358437 139.227738 
L 314.5629 135.734115 
L 315.380752 145.961258 
L 315.585215 145.805118 
L 315.789678 144.868281 
L 315.994141 139.852296 
L 316.60753 142.213908 
L 316.811993 135.226661 
L 317.016456 137.412615 
L 317.220919 145.395252 
L 317.425382 148.049625 
L 318.038771 146.624851 
L 318.243234 146.917613 
L 318.447697 150.216062 
L 318.856623 143.092193 
L 319.470012 141.960181 
L 319.674475 142.038251 
L 319.878938 138.681249 
L 320.083401 137.744412 
L 320.287864 136.124464 
L 320.901253 137.119854 
L 321.105716 133.47009 
L 321.514642 131.342688 
L 321.719105 126.97078 
L 322.332494 130.971857 
L 322.536957 128.766385 
L 323.150346 133.78237 
L 323.763735 132.86505 
L 323.968198 134.016579 
L 324.172661 136.37819 
L 324.377124 137.217441 
L 324.581587 133.860439 
L 325.194976 130.835235 
L 325.603902 132.923602 
L 325.808365 127.126919 
L 326.626217 129.605636 
L 326.83068 127.322094 
L 327.035143 129.995984 
L 327.239606 130.757165 
L 327.444069 126.73657 
L 328.057459 129.429978 
L 328.261922 126.072977 
L 328.466385 127.322094 
L 328.875311 121.017958 
L 329.4887 121.935278 
L 329.693163 119.261387 
L 329.897626 118.500207 
L 330.102089 114.26492 
L 330.306552 119.222352 
L 330.919941 120.334847 
L 331.124404 118.773451 
L 331.328867 121.23265 
L 331.53333 120.15919 
L 331.737793 118.480689 
L 332.351182 119.144283 
L 332.555645 118.09034 
L 332.760108 118.24648 
L 332.964571 116.275218 
L 333.169034 116.665567 
L 333.782423 116.665567 
L 334.395812 114.557682 
L 334.600275 115.650659 
L 335.62259 107.219121 
L 335.827053 108.390168 
L 336.031516 110.985989 
L 336.644905 112.801112 
L 336.849368 114.49913 
L 337.053831 113.074356 
L 337.462757 107.414296 
L 338.280609 105.247859 
L 338.689535 109.034244 
L 338.893998 109.248936 
L 339.507387 110.498053 
L 339.71185 108.839069 
L 340.120776 104.369573 
L 340.325239 105.208824 
L 340.938628 106.106626 
L 341.347554 105.384481 
L 341.552017 102.554451 
L 341.75648 102.573968 
L 342.369869 103.452253 
L 342.574332 106.360353 
L 342.778795 104.662335 
L 342.983258 98.631443 
L 343.187721 96.445489 
L 344.210036 100.407531 
L 344.414499 96.621146 
L 344.618962 98.338682 
L 345.232351 98.280129 
L 345.436814 97.948333 
L 345.641277 97.284739 
L 345.84574 101.812788 
L 346.050203 98.182542 
L 346.663592 99.470694 
L 346.868055 100.563671 
L 347.276981 107.550918 
L 347.481444 108.975692 
L 348.299296 105.950487 
L 348.708222 95.411064 
L 348.912686 94.845058 
L 349.526075 93.771598 
L 349.935001 94.493744 
L 350.139464 95.645274 
L 350.343927 95.97707 
L 350.957316 96.269832 
L 351.161779 98.436269 
L 351.366242 97.20667 
L 351.570705 93.342215 
L 351.775168 86.881939 
L 352.388557 87.56505 
L 352.59302 88.189608 
L 352.797483 79.289651 
L 353.001946 80.83153 
L 353.206409 80.968152 
L 353.819798 83.759147 
L 354.024261 83.310246 
L 354.228724 87.369875 
L 354.433187 86.979526 
L 354.63765 87.33084 
L 355.251039 87.877329 
L 355.455502 86.881939 
L 355.659965 83.017484 
L 355.864428 84.364188 
L 356.068891 89.965696 
L 356.68228 91.936958 
L 356.886743 91.23433 
L 357.091206 93.381249 
L 357.295669 88.48237 
L 358.317984 89.594864 
L 358.522447 84.793572 
L 358.931373 84.227566 
L 359.544762 86.550142 
L 359.749225 88.755614 
L 360.362614 85.906066 
L 360.976003 86.101241 
L 361.180466 81.397536 
L 361.589392 79.855657 
L 361.793855 82.197751 
L 362.407244 80.441181 
L 362.611707 79.231099 
L 362.81617 75.756993 
L 363.020633 78.68461 
L 363.225096 76.576726 
L 363.838485 77.728255 
L 364.042948 78.918819 
L 364.247411 78.918819 
L 364.451874 75.85458 
L 364.656337 75.913132 
L 365.474189 72.79034 
L 365.678652 69.999345 
L 365.883115 69.648031 
L 366.087578 66.954623 
L 366.700967 67.20835 
L 366.90543 66.818001 
L 367.109893 64.183145 
L 367.314356 66.154408 
L 367.518819 62.192365 
L 368.132208 65.744541 
L 368.745597 64.593012 
L 368.95006 63.597622 
L 369.563449 64.358802 
L 369.767912 54.463455 
L 369.972376 57.859492 
L 370.176839 55.927264 
L 370.381302 59.928341 
L 370.994691 58.366945 
L 371.199154 55.849194 
L 371.60808 57.800939 
L 371.812543 56.629892 
L 372.630395 52.882542 
L 373.039321 50.072029 
L 373.243784 54.385386 
L 373.857173 52.062809 
L 374.061636 54.717182 
L 374.266099 59.264748 
L 374.675025 63.480517 
L 375.288414 60.611452 
L 375.492877 60.221103 
L 375.69734 55.888229 
L 375.901803 54.404903 
L 376.106266 51.90667 
L 376.719655 50.091547 
L 377.128581 46.695511 
L 377.333044 51.399216 
L 377.537507 48.647255 
L 378.150896 46.363714 
L 378.355359 46.77358 
L 378.968748 40.898828 
L 379.582137 38.28349 
L 379.7866 36.722094 
L 379.991063 28.817527 
L 380.195526 31.764662 
L 380.399989 31.530452 
L 381.013378 30.456993 
L 381.217841 30.71072 
L 381.626767 24.445618 
L 381.83123 22.689048 
L 382.444619 26.124119 
L 382.649082 22.025455 
L 383.058008 29.266428 
L 383.262471 28.427178 
L 383.87586 27.900207 
L 384.080323 26.65109 
L 384.284786 24.58224 
L 384.489249 25.714252 
L 384.693712 25.987497 
L 385.307101 25.81184 
L 385.511564 24.914037 
L 385.716027 28.075864 
L 385.92049 33.892064 
L 386.124953 30.730237 
L 386.738342 35.082628 
L 387.147268 36.487885 
L 387.351731 41.347729 
L 387.556194 48.979052 
L 388.374046 47.729935 
L 388.578509 46.363714 
L 388.782972 48.315459 
L 389.600824 41.406282 
L 389.805287 41.523386 
L 390.00975 40.176682 
L 390.214213 42.538294 
L 390.418676 40.469444 
L 391.032066 40.664619 
L 391.440992 43.143335 
L 391.645455 38.478664 
L 391.849918 39.415502 
L 392.463307 39.786333 
L 392.66777 38.439629 
L 392.872233 41.152555 
L 393.076696 50.032994 
L 393.281159 52.433641 
L 393.894548 52.140879 
L 394.099011 52.199431 
L 394.303474 58.074184 
L 394.507937 58.698742 
L 394.7124 60.025928 
L 395.325789 62.348505 
L 395.530252 61.31408 
L 395.734715 59.284265 
L 395.939178 58.425498 
L 396.143641 61.118906 
L 396.75703 64.749151 
L 396.961493 64.124593 
L 397.165956 63.129203 
L 397.370419 57.215416 
L 398.188271 60.591935 
L 398.392734 65.002878 
L 398.597197 64.495424 
L 398.80166 69.140577 
L 399.006123 70.467764 
L 399.619512 70.662938 
L 399.823975 71.248462 
L 400.232901 65.685989 
L 401.050753 65.685989 
L 401.255216 66.3691 
L 401.459679 64.397837 
L 401.664142 66.251995 
L 401.868605 64.905291 
L 402.481994 64.241698 
L 402.686457 62.836441 
L 402.89092 63.714726 
L 403.095383 63.929418 
L 403.299846 64.963843 
L 403.913235 70.077415 
L 404.117698 65.529849 
L 404.322161 64.183145 
L 404.526624 69.04299 
L 404.731087 68.808781 
L 405.344476 67.344972 
L 405.548939 68.262292 
L 405.753402 66.759449 
L 406.162328 73.590556 
L 406.775717 69.667548 
L 406.98018 70.897148 
L 407.389106 75.756993 
L 407.593569 73.512486 
L 408.411421 74.098009 
L 408.411421 74.098009 
" clip-path="url(#pdaaf4191da)" style="fill: none; stroke: #1f77b4; stroke-width: 1.5; stroke-linecap: square"/>
   </g>
   <g id="line2d_16">
    <path d="M 409.02481 74.098009 
L 409.638199 79.797105 
L 410.251588 75.327609 
L 410.456051 70.819078 
L 411.06944 68.476984 
L 411.273903 69.160095 
L 411.887293 75.01533 
L 412.500682 76.7719 
L 412.705145 76.186377 
L 412.909608 74.058975 
L 413.114071 73.200207 
L 413.318534 74.234632 
L 414.136386 74.058975 
L 414.545312 68.925885 
L 414.749775 67.930495 
L 415.363164 62.407057 
L 415.567627 63.675692 
L 415.976553 60.513865 
L 416.181016 57.879009 
L 416.794405 57.722869 
L 417.203331 63.38293 
L 417.407794 64.319767 
L 417.612257 60.884696 
L 418.225646 60.630969 
L 418.430109 59.908824 
L 418.634572 61.333598 
L 418.839035 60.611452 
L 419.043498 59.128126 
L 419.656887 59.713649 
L 419.86135 60.162551 
L 420.270276 58.854882 
L 420.474739 58.893916 
L 421.292591 54.424421 
L 421.497054 54.58056 
L 421.90598 45.426876 
L 422.519369 42.674916 
L 422.723832 47.00779 
L 423.132758 39.493572 
L 423.337221 38.010246 
L 423.95061 28.114899 
L 424.155073 37.561344 
L 424.359536 39.27888 
L 424.563999 45.251219 
L 424.768462 57.508178 
L 425.381851 69.160095 
L 425.586314 67.676769 
L 425.790777 87.447945 
L 425.99524 94.14243 
L 426.199703 84.871642 
L 426.813092 78.723645 
L 427.222018 84.813089 
L 427.426481 77.357424 
L 427.630944 62.641267 
L 428.244333 59.011021 
L 428.448796 61.919121 
L 428.653259 68.574571 
L 428.857722 71.03377 
L 429.062185 70.916665 
L 429.675574 73.668626 
L 429.880037 79.972762 
L 430.0845 82.256303 
L 430.288963 77.376941 
L 431.311278 73.395381 
L 431.515741 69.296717 
L 431.924667 68.555054 
L 432.538057 71.736398 
L 432.74252 69.472374 
L 432.946983 72.887928 
L 433.151446 72.302404 
L 433.355909 68.20374 
L 433.969298 69.999345 
L 434.378224 62.836441 
L 434.582687 62.836441 
L 435.400539 57.781422 
L 435.605002 54.697665 
L 435.809465 60.025928 
L 436.013928 59.733167 
L 436.218391 58.113218 
L 436.83178 59.752684 
L 437.036243 62.075261 
L 437.445169 58.249841 
L 438.263021 63.012098 
L 438.467484 66.876553 
L 438.671947 66.173925 
L 438.87641 64.749151 
L 439.694262 65.041913 
L 439.898725 70.487281 
L 440.103188 69.901758 
L 440.512114 65.822611 
L 441.125503 67.989048 
L 441.329966 66.408134 
L 441.534429 71.580259 
L 441.738892 71.228944 
L 441.943355 75.639888 
L 442.556744 71.228944 
L 442.761207 71.326532 
L 442.96567 72.887928 
L 443.170133 66.778966 
L 443.374596 65.705506 
L 443.987985 64.319767 
L 444.192448 66.310547 
L 444.396911 64.495424 
L 444.805837 63.402447 
L 445.419226 60.123516 
L 445.828152 64.690599 
L 446.032615 60.201586 
L 446.237078 60.24062 
L 446.850467 60.865179 
L 447.05493 58.815847 
L 447.259393 66.115373 
L 447.463856 62.836441 
L 447.668319 61.782499 
L 448.281708 62.582714 
L 448.486171 63.343895 
L 448.690634 63.207273 
L 449.09956 60.47483 
L 449.712949 64.944326 
L 449.917412 62.738854 
L 450.121875 62.036226 
L 450.326338 60.279655 
L 450.530801 59.674614 
L 451.14419 58.757294 
L 451.348653 60.064963 
L 451.553116 57.273968 
L 451.757579 58.815847 
L 451.962042 62.114296 
L 452.575431 59.108608 
L 452.779894 56.786032 
L 452.984357 57.781422 
L 453.18882 54.034072 
L 453.393284 56.259061 
L 454.006673 57.761904 
L 454.211136 53.760827 
L 454.415599 58.015631 
L 454.620062 55.302706 
L 454.824525 56.102921 
L 455.437914 55.712572 
L 456.051303 63.831831 
L 456.255766 64.105075 
L 456.869155 62.660784 
L 457.073618 61.743464 
L 457.482544 57.48866 
L 457.687007 57.937561 
L 458.300396 57.625282 
L 458.504859 62.660784 
L 458.709322 64.456389 
L 458.913785 64.514942 
L 459.118248 62.680302 
L 459.731637 64.651564 
L 459.9361 64.241698 
L 460.140563 59.47944 
L 460.345026 58.132736 
L 460.549489 59.206196 
L 461.162878 59.225713 
L 461.367341 57.703352 
L 461.776267 63.675692 
L 461.98073 60.591935 
L 462.594119 59.050056 
L 462.798582 60.279655 
L 463.207508 59.694132 
L 463.411971 59.069573 
L 464.02536 56.551822 
L 464.229823 57.996114 
L 464.434286 58.093701 
L 464.638749 58.64019 
L 464.843212 58.523085 
L 465.456601 58.425498 
L 465.661064 57.742387 
L 465.865527 58.56212 
L 466.06999 58.581637 
L 466.274453 57.254451 
L 466.887842 58.269358 
L 467.092305 57.918044 
L 467.296768 59.206196 
L 467.705694 55.068496 
L 468.319083 55.341741 
L 469.136935 51.067419 
L 469.954787 51.340664 
L 470.568176 55.41981 
L 471.181565 55.751607 
L 471.590491 51.555355 
L 471.794954 50.501413 
L 471.999417 51.125972 
L 472.612806 50.950315 
L 472.817269 51.145489 
L 473.021732 50.111064 
L 473.226195 51.848117 
L 473.430658 52.121361 
L 474.044047 56.844584 
L 474.24851 60.182068 
L 474.452974 59.381853 
L 474.8619 56.473753 
L 475.475289 56.844584 
L 475.679752 56.473753 
L 475.884215 56.668927 
L 476.088678 56.044369 
L 476.293141 54.795252 
L 476.90653 54.892839 
L 477.110993 54.795252 
L 477.315456 54.912357 
L 478.337771 56.825067 
L 478.746697 60.826144 
L 478.95116 57.957079 
L 479.155623 57.352038 
L 479.769012 54.853804 
L 479.973475 52.726402 
L 480.382401 53.526618 
L 480.586864 51.282111 
L 481.200253 53.487583 
L 481.404716 53.058199 
L 481.609179 57.039759 
L 481.813642 55.107531 
L 482.018105 56.298096 
L 482.631494 55.322223 
L 482.835957 55.536915 
L 483.04042 58.854882 
L 483.244883 58.971986 
L 484.062735 58.620672 
L 484.267198 57.215416 
L 484.471661 57.48866 
L 485.698439 55.927264 
L 485.902902 58.230323 
L 486.311828 58.015631 
L 486.925217 59.303783 
L 487.12968 61.31408 
L 487.334143 60.045446 
L 487.538606 56.903137 
L 487.743069 57.683835 
L 488.356458 58.659707 
L 488.560921 59.616062 
L 488.765384 59.752684 
L 488.969847 61.743464 
L 489.787699 58.425498 
L 489.992162 58.698742 
L 490.196625 57.820457 
L 490.401088 58.288875 
L 490.605551 60.513865 
L 491.21894 60.904214 
L 491.627866 63.987971 
L 491.832329 64.397837 
L 492.036792 64.514942 
L 492.650181 65.959233 
L 492.854644 64.690599 
L 493.059107 64.475907 
L 493.26357 63.168238 
L 493.468033 64.983361 
L 494.081422 67.364489 
L 494.694811 71.775433 
L 495.512664 70.214037 
L 495.717127 73.297794 
L 495.92159 73.571038 
L 496.126053 76.908522 
L 496.330516 76.205894 
L 496.943905 69.433339 
L 497.148368 68.769746 
L 497.352831 71.326532 
L 497.557294 70.11645 
L 497.761757 71.892538 
L 498.375146 72.731788 
L 498.579609 71.18991 
L 498.784072 71.482671 
L 498.988535 69.628514 
L 499.192998 70.682456 
L 499.806387 67.403524 
L 500.01085 67.013175 
L 500.419776 71.03377 
L 500.624239 69.394304 
L 501.237628 68.437949 
L 501.442091 66.993658 
L 501.646554 66.954623 
L 501.851017 66.173925 
L 502.668869 67.598699 
L 502.873332 71.560741 
L 503.282258 67.910978 
L 504.304573 68.867333 
L 504.713499 66.642344 
L 504.917962 70.370177 
L 505.531351 70.311624 
L 505.735814 70.175002 
L 505.940277 71.03377 
L 506.14474 71.014252 
L 506.349203 71.814468 
L 506.962592 74.800638 
L 507.371518 71.912055 
L 507.575981 71.697363 
L 507.780444 72.712271 
L 508.393833 72.126747 
L 508.598296 72.731788 
L 509.007222 76.225411 
L 509.211685 75.151952 
L 509.825074 75.151952 
L 510.029537 73.434416 
L 510.234 74.058975 
L 510.438463 74.156562 
L 510.642926 74.742085 
L 511.256315 75.249539 
L 511.665241 80.402146 
L 511.869704 81.397536 
L 512.074167 81.807402 
L 512.687556 82.783274 
L 512.892019 81.768367 
L 513.096482 82.022094 
L 513.300945 81.885472 
L 513.505408 80.324076 
L 514.118797 80.402146 
L 514.527723 75.815545 
L 514.732186 77.708738 
L 514.936649 76.61576 
L 515.550038 77.864877 
L 515.754501 77.025627 
L 515.958964 75.678923 
L 516.163428 76.088789 
L 516.367891 74.839673 
L 516.98128 75.913132 
L 517.185743 75.269056 
L 517.390206 72.712271 
L 517.594669 73.805248 
L 517.799132 72.770823 
L 518.412521 74.058975 
L 518.616984 75.308091 
L 518.821447 75.327609 
L 519.02591 77.591633 
L 519.843762 79.543378 
L 520.048225 79.348203 
L 520.252688 78.157639 
L 520.457151 78.352813 
L 520.661614 79.406756 
L 521.275003 78.957854 
L 521.479466 79.094477 
L 522.092855 75.386161 
L 522.706244 76.459621 
L 523.11517 72.809858 
L 523.319633 72.692753 
L 523.524096 73.746695 
L 524.546411 73.122137 
L 524.750874 72.79034 
L 524.955337 72.146265 
L 525.568726 71.385084 
L 525.773189 68.769746 
L 525.977652 69.96031 
L 526.182115 69.569961 
L 526.386578 68.516019 
L 526.999967 68.691676 
L 527.20443 66.837518 
L 527.408893 66.05682 
L 527.613356 66.193442 
L 527.817819 65.529849 
L 528.431208 64.612529 
L 528.635671 63.617139 
L 528.840134 63.617139 
L 529.044597 62.992581 
L 529.24906 65.627436 
L 529.862449 65.783576 
L 530.066912 65.1395 
L 530.475838 67.20835 
L 530.680301 67.423042 
L 531.29369 66.720414 
L 531.498153 67.364489 
L 531.702616 66.778966 
L 531.907079 66.954623 
L 532.111542 66.29103 
L 532.724931 66.720414 
L 532.929394 67.05221 
L 533.33832 71.385084 
L 533.542783 71.424119 
L 534.156172 70.858113 
L 534.360635 71.892538 
L 534.565098 71.697363 
L 534.769561 71.307014 
L 534.974024 72.497579 
L 535.587413 72.321922 
L 535.791876 74.917742 
L 535.996339 74.78112 
L 536.200802 73.961387 
L 536.405265 74.488358 
L 537.018655 74.351736 
L 537.223118 74.644498 
L 537.836507 76.732865 
L 538.654359 74.117527 
L 538.858822 75.034847 
L 539.267748 79.621448 
L 539.881137 80.226489 
L 540.0856 81.768367 
L 540.290063 79.68 
L 540.494526 81.007187 
L 540.698989 78.547988 
L 541.516841 79.309168 
L 541.721304 80.304558 
L 541.925767 79.60193 
L 542.13023 81.124291 
L 542.743619 83.173623 
L 542.948082 84.520327 
L 543.152545 84.735019 
L 543.357008 83.037001 
L 543.561471 83.837217 
L 544.17486 87.545532 
L 544.379323 89.829074 
L 544.583786 87.038078 
L 544.788249 89.39969 
L 544.992712 90.082801 
L 545.810564 88.24816 
L 546.015027 87.116148 
L 546.423953 94.649884 
L 547.037342 93.420284 
L 547.241805 87.643119 
L 547.446268 87.545532 
L 547.650731 82.119681 
L 547.855194 80.714425 
L 548.468583 80.870564 
L 548.673046 80.343593 
L 548.877509 81.924507 
L 549.081972 84.754537 
L 549.286435 82.334373 
L 549.899824 83.329763 
L 550.104287 81.729332 
L 550.30875 82.256303 
L 550.513213 81.299948 
L 550.717676 77.376941 
L 551.331065 78.76268 
L 551.739991 82.919897 
L 551.944454 83.42735 
L 552.148917 79.484826 
L 552.762306 80.987669 
L 552.966769 78.996889 
L 553.171232 83.837217 
L 553.375695 81.651262 
L 553.580158 82.607617 
L 554.193547 81.651262 
L 554.39801 83.154106 
L 554.602473 86.042688 
L 554.806936 83.798182 
L 555.011399 84.715502 
L 555.624788 84.169013 
L 555.829251 86.315933 
L 556.033714 86.530625 
L 556.44264 84.676467 
L 557.056029 83.973839 
L 557.669418 89.907143 
L 557.873881 90.219423 
L 558.487271 92.171168 
L 558.691734 92.07358 
L 558.896197 92.737174 
L 559.10066 92.38586 
L 559.918512 94.513262 
L 560.122975 94.103395 
L 560.736364 98.006885 
L 560.736364 98.006885 
" clip-path="url(#pdaaf4191da)" style="fill: none; stroke: #ff7f0e; stroke-width: 1.5; stroke-linecap: square"/>
   </g>
   <g id="patch_3">
    <path d="M 28.1 333.36 
L 28.1 7.2 
" style="fill: none; stroke: #000000; stroke-width: 0.8; stroke-linejoin: miter; stroke-linecap: square"/>
   </g>
   <g id="patch_4">
    <path d="M 586.1 333.36 
L 586.1 7.2 
" style="fill: none; stroke: #000000; stroke-width: 0.8; stroke-linejoin: miter; stroke-linecap: square"/>
   </g>
   <g id="patch_5">
    <path d="M 28.1 333.36 
L 586.1 333.36 
" style="fill: none; stroke: #000000; stroke-width: 0.8; stroke-linejoin: miter; stroke-linecap: square"/>
   </g>
   <g id="patch_6">
    <path d="M 28.1 7.2 
L 586.1 7.2 
" style="fill: none; stroke: #000000; stroke-width: 0.8; stroke-linejoin: miter; stroke-linecap: square"/>
   </g>
  </g>
 </g>
 <defs>
  <clipPath id="pdaaf4191da">
   <rect x="28.1" y="7.2" width="558" height="326.16"/>
  </clipPath>
 </defs>
</svg>
